<svg width="215" height="215" xmlns="http://www.w3.org/2000/svg" xmlns:xlink="http://www.w3.org/1999/xlink" overflow="hidden"><defs><clipPath id="clip0"><rect x="351" y="91" width="215" height="215"/></clipPath><clipPath id="clip1"><rect x="395" y="136" width="126" height="126"/></clipPath><clipPath id="clip2"><rect x="395" y="136" width="126" height="126"/></clipPath><clipPath id="clip3"><rect x="395" y="136" width="126" height="126"/></clipPath></defs><g clip-path="url(#clip0)" transform="translate(-351 -91)"><g clip-path="url(#clip1)"><g clip-path="url(#clip2)"><g clip-path="url(#clip3)"><path d="M508.006 156.738 440.806 220.262 408.519 187.188 397.362 197.819 440.281 241.919 451.569 231.419 518.638 167.762Z" fill="#25AC10"/></g></g></g><path d="M473.433 102.307C526.722 110.773 563.059 160.835 554.594 214.125 546.128 267.414 496.066 303.751 442.776 295.285 389.487 286.82 353.15 236.758 361.615 183.468 370.081 130.179 420.143 93.8416 473.433 102.307Z" stroke="#25AC10" stroke-width="18" stroke-miterlimit="8" stroke-dasharray="18 18" fill="none" fill-rule="evenodd"/></g></svg>