<svg width="737" height="737" xmlns="http://www.w3.org/2000/svg" xmlns:xlink="http://www.w3.org/1999/xlink" overflow="hidden"><defs><clipPath id="clip0"><rect x="2357" y="315" width="737" height="737"/></clipPath><clipPath id="clip1"><rect x="2509" y="467" width="433" height="432"/></clipPath><clipPath id="clip2"><rect x="2509" y="467" width="433" height="432"/></clipPath><clipPath id="clip3"><rect x="2509" y="467" width="433" height="432"/></clipPath></defs><g clip-path="url(#clip0)" transform="translate(-2357 -315)"><g clip-path="url(#clip1)"><g clip-path="url(#clip2)"><g clip-path="url(#clip3)"><path d="M387.45 71.1 157.05 288.9 46.35 175.5 8.09999 211.95 155.25 363.15 193.95 327.15 423.9 108.9Z" stroke="#001489" stroke-width="4.49987" fill="#001489" transform="matrix(1 0 0 1 2509 467)"/></g></g></g><path d="M2777.38 351.681C2960.56 380.781 3085.47 552.871 3056.37 736.053 3027.27 919.236 2855.18 1044.14 2672 1015.04 2488.82 985.944 2363.91 813.855 2393.01 630.672 2422.11 447.489 2594.2 322.581 2777.38 351.681Z" stroke="#001489" stroke-width="63.0208" stroke-miterlimit="8" stroke-dasharray="63.0208 63.0208" fill="none" fill-rule="evenodd"/><path d="M2725.5 348.5C2911.07 348.5 3061.5 498.709 3061.5 684 3061.5 869.291 2911.07 1019.5 2725.5 1019.5" stroke="#001489" stroke-width="63.0208" stroke-miterlimit="8" fill="none" fill-rule="evenodd"/><path d="M2859.04 375.19C3029.36 448.638 3107.89 646.249 3034.44 816.567 2960.99 986.884 2763.38 1065.41 2593.06 991.964" stroke="#001489" stroke-width="63.0208" stroke-miterlimit="8" fill="none" fill-rule="evenodd"/></g></svg>