<svg viewBox="0 0 215 215" xmlns="http://www.w3.org/2000/svg" xmlns:xlink="http://www.w3.org/1999/xlink" overflow="hidden"><defs><clipPath id="clip0"><rect x="989" y="91" width="215" height="215"/></clipPath><clipPath id="clip1"><rect x="1034" y="136" width="126" height="126"/></clipPath><clipPath id="clip2"><rect x="1034" y="136" width="126" height="126"/></clipPath><clipPath id="clip3"><rect x="1034" y="136" width="126" height="126"/></clipPath></defs><g clip-path="url(#clip0)" transform="translate(-989 -91)"><path d="M999 198.5C999 144.652 1042.88 101 1097 101 1151.12 101 1195 144.652 1195 198.5 1195 252.348 1151.12 296 1097 296 1042.88 296 999 252.348 999 198.5Z" stroke="#FF4E00" stroke-width="18.3333" stroke-miterlimit="8" fill="#FFFFFF" fill-rule="evenodd"/><g clip-path="url(#clip1)"><g clip-path="url(#clip2)"><g clip-path="url(#clip3)"><path d="M1143.46 163.694 1132.31 152.538 1097 187.844 1061.69 152.538 1050.54 163.694 1085.84 199 1050.54 234.306 1061.69 245.462 1097 210.156 1132.31 245.462 1143.46 234.306 1108.16 199Z" fill="#FF4E00"/></g></g></g></g></svg>