<svg viewBox="0 0 215 215" xmlns="http://www.w3.org/2000/svg" xmlns:xlink="http://www.w3.org/1999/xlink" overflow="hidden"><defs><clipPath id="clip0"><rect x="389" y="91" width="215" height="215"/></clipPath><clipPath id="clip1"><rect x="426" y="129" width="140" height="139"/></clipPath><clipPath id="clip2"><rect x="426" y="129" width="140" height="139"/></clipPath><clipPath id="clip3"><rect x="426" y="129" width="140" height="139"/></clipPath></defs><g clip-path="url(#clip0)" transform="translate(-389 -91)"><path d="M398 198.5C398 144.652 441.876 101 496 101 550.124 101 594 144.652 594 198.5 594 252.348 550.124 296 496 296 441.876 296 398 252.348 398 198.5Z" stroke="#25AC10" stroke-width="18.3333" stroke-miterlimit="8" fill="#25AC10" fill-rule="evenodd"/><g clip-path="url(#clip1)"><g clip-path="url(#clip2)"><g clip-path="url(#clip3)"><path d="M124.666 22.8771 50.5323 92.9562 14.9135 56.4688 2.60625 68.1969 49.9531 116.847 62.4052 105.264 136.394 35.0396Z" fill="#FFFFFF" transform="matrix(1.00719 0 0 1 426 129)"/></g></g></g></g></svg>