<svg viewBox="0 0 216 216" xmlns="http://www.w3.org/2000/svg" xmlns:xlink="http://www.w3.org/1999/xlink" overflow="hidden"><defs><clipPath id="clip0"><rect x="685" y="91" width="216" height="216"/></clipPath><clipPath id="clip1"><rect x="730" y="136" width="126" height="126"/></clipPath><clipPath id="clip2"><rect x="730" y="136" width="126" height="126"/></clipPath><clipPath id="clip3"><rect x="730" y="136" width="126" height="126"/></clipPath></defs><g clip-path="url(#clip0)" transform="translate(-685 -91)"><g clip-path="url(#clip1)"><g clip-path="url(#clip2)"><g clip-path="url(#clip3)"><path d="M843.006 156.738 775.806 220.262 743.519 187.188 732.362 197.819 775.281 241.919 786.569 231.419 853.638 167.762Z" fill="#25AC10"/></g></g></g><path d="M807.965 102.307C861.255 110.773 897.592 160.835 889.126 214.125 880.661 267.414 830.599 303.751 777.309 295.286 724.02 286.82 687.683 236.758 696.148 183.468 704.614 130.179 754.676 93.8417 807.965 102.307Z" stroke="#25AC10" stroke-width="18.3333" stroke-miterlimit="8" stroke-dasharray="18.3333 18.3333" fill="none" fill-rule="evenodd"/><path d="M793 101C846.572 101 890 144.652 890 198.5 890 252.348 846.572 296 793 296" stroke="#25AC10" stroke-width="18.3333" stroke-miterlimit="8" fill="none" fill-rule="evenodd"/><path d="M831.721 109.146C881.268 130.513 904.112 188 882.746 237.547 861.379 287.094 803.892 309.938 754.345 288.571" stroke="#25AC10" stroke-width="18.3333" stroke-miterlimit="8" fill="none" fill-rule="evenodd"/></g></svg>