<?xml version="1.0" encoding="UTF-8" standalone="no"?>
<svg
   xmlns:dc="http://purl.org/dc/elements/1.1/"
   xmlns:cc="http://creativecommons.org/ns#"
   xmlns:rdf="http://www.w3.org/1999/02/22-rdf-syntax-ns#"
   xmlns:svg="http://www.w3.org/2000/svg"
   xmlns="http://www.w3.org/2000/svg"
   xmlns:sodipodi="http://sodipodi.sourceforge.net/DTD/sodipodi-0.dtd"
   xmlns:inkscape="http://www.inkscape.org/namespaces/inkscape"
   width="247"
   height="215"
   overflow="hidden"
   version="1.1"
   id="svg72"
   sodipodi:docname="new.svg"
   inkscape:version="1.0.1 (3bc2e813f5, 2020-09-07)">
  <metadata
     id="metadata76">
    <rdf:RDF>
      <cc:Work
         rdf:about="">
        <dc:format>image/svg+xml</dc:format>
        <dc:type
           rdf:resource="http://purl.org/dc/dcmitype/StillImage" />
      </cc:Work>
    </rdf:RDF>
  </metadata>
  <sodipodi:namedview
     pagecolor="#ffffff"
     bordercolor="#666666"
     borderopacity="1"
     objecttolerance="10"
     gridtolerance="10"
     guidetolerance="10"
     inkscape:pageopacity="0"
     inkscape:pageshadow="2"
     inkscape:window-width="1441"
     inkscape:window-height="906"
     id="namedview74"
     showgrid="false"
     inkscape:zoom="2.8284271"
     inkscape:cx="172.15889"
     inkscape:cy="105.91016"
     inkscape:window-x="137"
     inkscape:window-y="67"
     inkscape:window-maximized="0"
     inkscape:current-layer="svg72" />
  <defs
     id="defs64">
    <clipPath
       id="clip0">
      <rect
         x="54"
         y="417"
         width="247"
         height="215"
         id="rect61" />
    </clipPath>
  </defs>
  <g
     clip-path="url(#clip0)"
     transform="translate(-54 -417)"
     id="g70">
    <path
       d="M80 524.5C80 470.652 123.652 427 177.5 427 231.348 427 275 470.652 275 524.5 275 578.348 231.348 622 177.5 622 123.652 622 80 578.348 80 524.5Z"
       stroke="#C00000"
       stroke-width="18.3333"
       stroke-miterlimit="8"
       fill="#C00000"
       fill-rule="evenodd"
       id="path66" />
    <g
       aria-label="NEW"
       transform="translate(92.7312 548)"
       id="text68"
       style="font-weight:700;font-size:64px;font-family:'Gill Sans MT', 'Gill Sans MT_MSFontService', sans-serif;fill:#ffffff">
      <path
         id="path82"
         style="font-weight:700;font-size:64px;font-family:'Gill Sans MT', 'Gill Sans MT_MSFontService', sans-serif;fill:#ffffff;stroke-width:1.08183"
         d="m 131.96875,-28.989594 -13.5,33.318511 h -4.6875 L 94.59375,-47.422667 H 106.125 l 10.28125,28.234786 11.21875,-28.234786 h 8.75 l 11.21875,28.234786 10.21875,-28.234786 h 11.53125 l -19.125,51.751584 h -4.6875 z m -40.75,23.2973562 V 3.670593 h -32.1875 v -51.09326 h 31.75 v 9.362831 h -20.875 v 10.716052 H 89.8125 v 9.362831 H 69.90625 V -5.6922378 Z M 49.09375,-47.422667 V 3.670593 H 39.9375 L 15.8125,-29.062741 V 3.670593 H 4.9375 v -51.09326 h 9.96875 l 23.3125,31.233818 v -31.233818 z" />
    </g>
  </g>
</svg>
