<svg width="52" height="53" xmlns="http://www.w3.org/2000/svg" xmlns:xlink="http://www.w3.org/1999/xlink" xml:space="preserve" overflow="hidden"><defs><clipPath id="clip0"><rect x="614" y="558" width="52" height="53"/></clipPath></defs><g clip-path="url(#clip0)" transform="translate(-614 -558)"><path d="M34.0167 33.2042C34.2875 32.6625 34.125 32.0125 33.5833 31.7417 33.0417 31.4708 32.3917 31.6333 32.1208 32.175L29.9542 36.0208 31.4167 30.225C31.5792 29.6292 31.2 29.0333 30.6042 28.925 30.0083 28.7625 29.4125 29.1417 29.3042 29.7375L28.0583 34.7208 28.0583 29.3042C28.0583 28.7083 27.5708 28.2208 26.975 28.2208 26.3792 28.2208 25.8917 28.7083 25.8917 29.3042L25.8917 35.1 24.6458 29.7375C24.5375 29.1417 23.9417 28.8167 23.3458 28.925 22.75 29.0333 22.425 29.6292 22.5333 30.225L24.05 36.6708C23.9958 37.4292 23.8333 38.1875 23.6708 38.8375 23.6708 38.8375 23.6708 38.7833 23.6167 38.7833 22.6958 37.375 21.2333 36.1292 19.825 35.75 19.2833 35.5875 18.7417 35.9125 18.5792 36.4542 18.4167 36.9958 18.7417 37.5375 19.2833 37.7 19.9875 37.8625 20.6375 38.8917 21.3417 39.975 22.2083 41.3292 23.2917 42.9 24.9167 43.8208L24.9167 49.6167 29.6833 49.6167 29.6833 43.4958C31.4708 42.575 31.6875 38.7292 31.7417 37.2667L34.0167 33.2042Z" fill="#00B050" transform="matrix(1 0 0 1.01923 614 558)"/><path d="M14.8958 33.6375 19.6083 33.6917C19.6083 33.6917 19.6083 33.6917 19.6083 33.6917 20.2042 33.6917 20.6917 33.2042 20.6917 32.6083 20.6917 32.0125 20.2042 31.525 19.6083 31.525L15.2208 31.4708 20.9625 30.0083C21.5583 29.8458 21.8833 29.25 21.7208 28.7083 21.5583 28.1125 20.9625 27.7875 20.4208 27.95L15.4375 29.25 20.2042 26.65C20.7458 26.3792 20.9083 25.7292 20.6375 25.1875 20.3667 24.6458 19.7167 24.4833 19.175 24.7542L14.0833 27.4625 18.2 23.8333C18.6333 23.4542 18.6875 22.75 18.3083 22.3167 17.9292 21.8833 17.225 21.8292 16.7917 22.2083L11.8083 26.5417C11.1042 26.8667 10.4 27.0833 9.69583 27.1917 9.69583 27.1917 9.69583 27.1375 9.75 27.1375 10.5625 25.6208 10.9417 23.7792 10.6167 22.3708 10.5083 21.8292 9.9125 21.5042 9.37083 21.6125 8.82917 21.7208 8.50417 22.3167 8.6125 22.8583 8.775 23.5625 8.23333 24.5917 7.6375 25.7292 6.87917 27.1375 6.0125 28.8167 5.95833 30.7125L0.866667 33.475 3.14167 37.6458 8.50417 34.775C10.1292 35.9125 13.5958 34.2875 14.8958 33.6375Z" fill="#00B050" transform="matrix(1 0 0 1.01923 614 558)"/><path d="M15.4917 15.9792 16.6292 20.5292C16.7375 21.0167 17.1708 21.3417 17.6583 21.3417 17.7667 21.3417 17.8208 21.3417 17.9292 21.2875 18.525 21.125 18.85 20.5833 18.7417 19.9875L17.7125 15.7083 20.5833 20.8542C20.8 21.2333 21.125 21.3958 21.5583 21.3958 21.7208 21.3958 21.9375 21.3417 22.1 21.2333 22.6417 20.9625 22.8042 20.2583 22.5333 19.7708L20.0417 15.275 23.725 19.2292C23.9417 19.4458 24.2125 19.5542 24.5375 19.5542 24.8083 19.5542 25.0792 19.4458 25.2958 19.2833 25.7292 18.85 25.7292 18.2 25.35 17.7667L21.3958 13.5417 26 16.6292C26.1625 16.7375 26.3792 16.7917 26.5958 16.7917 26.9208 16.7917 27.3 16.6292 27.5167 16.3042 27.8417 15.8167 27.7333 15.1125 27.2458 14.7875L21.7208 11.1042C21.2333 10.5083 20.8542 9.85833 20.5292 9.2625 20.5292 9.2625 20.5833 9.2625 20.5833 9.2625 22.2083 9.64167 24.1042 9.5875 25.4042 8.88333 25.8917 8.6125 26.0542 8.01667 25.7833 7.52917 25.5125 7.04167 24.9167 6.87917 24.4292 7.15 23.8333 7.475 22.6417 7.20417 21.3958 6.93333 19.825 6.55417 17.9833 6.12083 16.1417 6.60833L12.1875 2.38333 8.72083 5.63333 12.8917 10.075C12.025 11.9708 14.4625 14.95 15.4917 15.9792Z" fill="#00B050" transform="matrix(1 0 0 1.01923 614 558)"/><path d="M51.1333 37.2667 47.0167 32.7708C47.7208 30.875 45.2833 27.8958 44.3083 26.8125L43.225 22.2625C43.0625 21.6667 42.5208 21.3417 41.925 21.45 41.3292 21.6125 41.0042 22.1542 41.1125 22.75L42.1417 27.0292 39.2708 21.8292C39 21.2875 38.35 21.125 37.8083 21.3958 37.2667 21.6667 37.1042 22.3167 37.375 22.8583L39.8667 27.4083 36.1833 23.4542C35.75 23.0208 35.1 22.9667 34.6667 23.4 34.2333 23.8333 34.1792 24.4833 34.6125 24.9167L38.5667 29.1958 34.0167 26.1083C33.5292 25.7833 32.825 25.8917 32.5 26.3792 32.175 26.8667 32.2833 27.5708 32.7708 27.8958L38.2417 31.6333C38.7292 32.2292 39.1083 32.8792 39.4333 33.475 39.4333 33.475 39.3792 33.475 39.3792 33.475 37.7542 33.0958 35.8583 33.15 34.5583 33.8542 34.0708 34.125 33.8542 34.7208 34.125 35.2083 34.3958 35.6958 34.9917 35.9125 35.4792 35.6417 36.075 35.3167 37.2667 35.5875 38.5125 35.9125 40.0833 36.2917 41.925 36.725 43.7667 36.2917L47.6667 40.5167 51.1333 37.2667Z" fill="#00B050" transform="matrix(1 0 0 1.01923 614 558)"/><path d="M28.8708 14.0833C28.9792 14.0833 29.0875 14.0833 29.25 14.0292L33.3667 12.5667 28.4917 15.925C28.0042 16.25 27.8958 16.9542 28.2208 17.4417 28.4375 17.7667 28.7625 17.9292 29.0875 17.9292 29.3042 17.9292 29.5208 17.875 29.6833 17.7125L33.9083 14.7875 30.3333 18.85C29.9542 19.2833 30.0083 19.9875 30.4417 20.3667 30.6583 20.5292 30.875 20.6375 31.1458 20.6375 31.4708 20.6375 31.7417 20.5292 31.9583 20.2583L35.8042 15.8708 33.2042 20.7458C32.9333 21.2875 33.0958 21.9375 33.6375 22.2083 33.8 22.3167 33.9625 22.3167 34.125 22.3167 34.5042 22.3167 34.8833 22.1 35.1 21.7208L38.2417 15.8708C38.7833 15.3292 39.3792 14.8958 39.975 14.5167 39.975 14.5167 39.975 14.5708 39.975 14.5708 39.7583 16.25 40.0292 18.1458 40.8417 19.3375 41.1667 19.825 41.7625 19.9333 42.25 19.6083 42.7375 19.2833 42.8458 18.6875 42.5208 18.2 42.1417 17.6042 42.3042 16.4125 42.4667 15.1125 42.6833 13.5417 42.9 11.6458 42.3042 9.85833L46.0958 5.525 42.5208 2.38333 38.5125 6.9875C36.5625 6.5 33.8542 9.2625 32.8792 10.2917L28.4375 11.8625C27.8958 12.0792 27.5708 12.675 27.7875 13.2708 28.0042 13.8125 28.4375 14.0833 28.8708 14.0833Z" fill="#00B050" transform="matrix(1 0 0 1.01923 614 558)"/></g></svg>