<svg width="202" height="202" xmlns="http://www.w3.org/2000/svg" xmlns:xlink="http://www.w3.org/1999/xlink" xml:space="preserve" overflow="hidden"><defs><clipPath id="clip0"><rect x="125" y="66" width="202" height="202"/></clipPath></defs><g clip-path="url(#clip0)" transform="translate(-125 -66)"><path d="M257.142 194.985C258.194 192.881 257.562 190.356 255.458 189.304 253.354 188.252 250.829 188.883 249.777 190.988L241.36 205.927 247.042 183.413C247.673 181.098 246.2 178.783 243.885 178.363 241.571 177.731 239.256 179.204 238.835 181.519L233.996 200.877 233.996 179.835C233.996 177.521 232.102 175.627 229.788 175.627 227.473 175.627 225.579 177.521 225.579 179.835L225.579 202.35 220.74 181.519C220.319 179.204 218.004 177.942 215.69 178.363 213.375 178.783 212.113 181.098 212.533 183.413L218.425 208.452C218.215 211.398 217.583 214.344 216.952 216.869 216.952 216.869 216.952 216.658 216.742 216.658 213.165 211.188 207.483 206.348 202.012 204.875 199.908 204.244 197.804 205.506 197.173 207.61 196.542 209.715 197.804 211.819 199.908 212.45 202.644 213.081 205.169 217.079 207.904 221.288 211.271 226.548 215.479 232.65 221.792 236.227L221.792 258.742 240.308 258.742 240.308 234.965C247.252 231.387 248.094 216.448 248.304 210.767L257.142 194.985Z" fill="#001088"/><path d="M182.865 196.669 201.171 196.879C201.171 196.879 201.171 196.879 201.171 196.879 203.485 196.879 205.379 194.985 205.379 192.671 205.379 190.356 203.485 188.463 201.171 188.463L184.127 188.252 206.431 182.571C208.746 181.94 210.008 179.625 209.377 177.521 208.746 175.206 206.431 173.944 204.327 174.575L184.969 179.625 203.485 169.525C205.59 168.473 206.221 165.948 205.169 163.844 204.117 161.74 201.592 161.108 199.488 162.16L179.708 172.681 195.7 158.583C197.383 157.11 197.594 154.375 196.121 152.692 194.648 151.008 191.913 150.798 190.229 152.271L170.871 169.104C168.135 170.367 165.4 171.208 162.665 171.629 162.665 171.629 162.665 171.419 162.875 171.419 166.031 165.527 167.504 158.373 166.242 152.902 165.821 150.798 163.506 149.535 161.402 149.956 159.298 150.377 158.035 152.692 158.456 154.796 159.087 157.531 156.983 161.529 154.669 165.948 151.723 171.419 148.356 177.942 148.146 185.306L128.367 196.038 137.204 212.24 158.035 201.087C164.348 205.506 177.815 199.194 182.865 196.669Z" fill="#001088"/><path d="M185.179 128.073 189.598 145.748C190.019 147.642 191.702 148.904 193.596 148.904 194.017 148.904 194.227 148.904 194.648 148.694 196.962 148.062 198.225 145.958 197.804 143.644L193.806 127.021 204.958 147.01C205.8 148.483 207.062 149.115 208.746 149.115 209.377 149.115 210.219 148.904 210.85 148.483 212.954 147.431 213.585 144.696 212.533 142.802L202.854 125.338 217.163 140.698C218.004 141.54 219.056 141.96 220.319 141.96 221.371 141.96 222.423 141.54 223.265 140.908 224.948 139.225 224.948 136.7 223.475 135.017L208.115 118.604 226 130.598C226.631 131.019 227.473 131.229 228.315 131.229 229.577 131.229 231.05 130.598 231.892 129.335 233.154 127.442 232.733 124.706 230.84 123.444L209.377 109.135C207.483 106.821 206.01 104.296 204.748 101.981 204.748 101.981 204.958 101.981 204.958 101.981 211.271 103.454 218.635 103.244 223.685 100.508 225.579 99.4563 226.21 97.1417 225.158 95.2479 224.106 93.3542 221.792 92.7229 219.898 93.775 217.583 95.0375 212.954 93.9854 208.115 92.9333 202.012 91.4604 194.858 89.7771 187.704 91.6708L172.344 75.2583 158.877 87.8833 175.079 105.137C171.712 112.502 181.181 124.075 185.179 128.073Z" fill="#001088"/><path d="M323.633 210.767 307.642 193.302C310.377 185.938 300.908 174.365 297.121 170.156L292.913 152.481C292.281 150.167 290.177 148.904 287.862 149.325 285.548 149.956 284.285 152.06 284.706 154.375L288.704 170.998 277.552 150.798C276.5 148.694 273.975 148.062 271.871 149.115 269.767 150.167 269.135 152.692 270.188 154.796L279.867 172.471 265.558 157.11C263.875 155.427 261.35 155.217 259.667 156.9 257.983 158.583 257.773 161.108 259.456 162.792L274.817 179.415 257.142 167.421C255.248 166.158 252.513 166.579 251.25 168.473 249.988 170.367 250.408 173.102 252.302 174.365L273.554 188.883C275.448 191.198 276.921 193.723 278.183 196.038 278.183 196.038 277.973 196.038 277.973 196.038 271.66 194.565 264.296 194.775 259.246 197.51 257.352 198.562 256.51 200.877 257.562 202.771 258.615 204.665 260.929 205.506 262.823 204.454 265.138 203.192 269.767 204.244 274.606 205.506 280.708 206.979 287.862 208.663 295.017 206.979L310.167 223.392 323.633 210.767Z" fill="#001088"/><path d="M237.152 120.708C237.573 120.708 237.994 120.708 238.625 120.498L254.617 114.817 235.679 127.863C233.785 129.125 233.365 131.86 234.627 133.754 235.469 135.017 236.731 135.648 237.994 135.648 238.835 135.648 239.677 135.438 240.308 134.806L256.721 123.444 242.833 139.225C241.36 140.908 241.571 143.644 243.254 145.117 244.096 145.748 244.938 146.169 245.99 146.169 247.252 146.169 248.304 145.748 249.146 144.696L264.085 127.652 253.985 146.59C252.933 148.694 253.565 151.219 255.669 152.271 256.3 152.692 256.931 152.692 257.562 152.692 259.035 152.692 260.508 151.85 261.35 150.377L273.554 127.652C275.658 125.548 277.973 123.865 280.288 122.392 280.288 122.392 280.288 122.602 280.288 122.602 279.446 129.125 280.498 136.49 283.654 141.119 284.917 143.012 287.231 143.433 289.125 142.171 291.019 140.908 291.44 138.594 290.177 136.7 288.704 134.385 289.335 129.756 289.967 124.706 290.808 118.604 291.65 111.24 289.335 104.296L304.065 87.4625 290.177 75.2583 274.606 93.1438C267.031 91.25 256.51 101.981 252.723 105.979L235.469 112.081C233.365 112.923 232.102 115.238 232.944 117.552 233.785 119.656 235.469 120.708 237.152 120.708Z" fill="#001088"/></g></svg>