<svg width="159" height="137" xmlns="http://www.w3.org/2000/svg" xmlns:xlink="http://www.w3.org/1999/xlink" overflow="hidden"><defs><clipPath id="clip0"><rect x="1069" y="342" width="159" height="137"/></clipPath></defs><g clip-path="url(#clip0)" transform="translate(-1069 -342)"><path d="M1148 343 1148 343 1069 417.742 1077.54 425 1148 358.434 1148 358.434 1218.46 425 1227 417.742 1148 343Z" fill="rgba(87,74,226,0.71)" fill-rule="evenodd" /><path d="M1148 369 1092 422.345 1092 478 1204 478 1204 422.341ZM1148 462.146C1148 462.146 1121.87 442.107 1121.87 425.922 1121.87 415.131 1138.31 403.571 1148 422.839 1157.68 403.571 1174.13 415.131 1174.13 425.922 1174.13 442.107 1148 462.146 1148 462.146Z" fill="rgba(87,74,226,0.71)" fill-rule="evenodd" /></g></svg>