<svg width="132" height="156" xmlns="http://www.w3.org/2000/svg" xmlns:xlink="http://www.w3.org/1999/xlink" overflow="hidden"><defs><clipPath id="clip0"><rect x="763" y="21" width="132" height="156"/></clipPath></defs><g clip-path="url(#clip0)" transform="translate(-763 -21)"><path d="M886.294 44.8 853.544 44.8 853.544 35.3001C853.544 27.89 847.572 22 840.059 22L816.941 22C809.428 22 803.456 27.89 803.456 35.3001L803.456 44.8 770.706 44.8C766.468 44.8 763 48.2199 763 52.4L763 60 894 60 894 52.4C894 48.2199 890.532 44.8 886.294 44.8ZM815.015 35.3001C815.015 34.16 815.785 33.4 816.941 33.4L840.059 33.4C841.215 33.4 841.985 34.16 841.985 35.3001L841.985 44.8 815.015 44.8 815.015 35.3001Z" fill="#000F86" fill-rule="evenodd"/><path d="M775 168.286C775 172.529 778.471 176 782.714 176L875.286 176C879.529 176 883 172.529 883 168.286L883 68 775 68 775 168.286ZM854.071 79.5714 865.643 79.5714 865.643 164.429 854.071 164.429 854.071 79.5714ZM823.214 79.5714 834.786 79.5714 834.786 164.429 823.214 164.429 823.214 79.5714ZM792.357 79.5714 803.929 79.5714 803.929 164.429 792.357 164.429 792.357 79.5714Z" fill="#000F86" fill-rule="evenodd"/></g></svg>