<svg width="214" height="254" xmlns="http://www.w3.org/2000/svg" xmlns:xlink="http://www.w3.org/1999/xlink" overflow="hidden"><defs><clipPath id="clip0"><rect x="652" y="1303" width="214" height="254"/></clipPath></defs><g clip-path="url(#clip0)" transform="translate(-652 -1303)"><path d="M727.799 1353.35C725.113 1356.09 725.113 1360.2 727.799 1362.95 729.142 1364.32 730.821 1365 732.5 1365 734.179 1365 735.858 1364.32 737.201 1362.95 746.266 1353.7 746.266 1338.28 737.201 1329.03 733.171 1324.92 733.171 1318.41 737.201 1314.65 739.887 1311.91 739.887 1307.8 737.201 1305.06 734.514 1302.32 730.485 1302.32 727.799 1305.06 718.734 1314.3 718.734 1329.72 727.799 1338.97 731.493 1343.08 731.493 1349.59 727.799 1353.35Z" fill="#574AE2" fill-rule="evenodd"/><path d="M765.095 1373.35C762.292 1376.09 762.292 1380.2 765.095 1382.95 766.496 1384.31 768.248 1385 770 1385 771.752 1385 773.504 1384.31 774.905 1382.95 784.365 1373.7 784.365 1358.28 774.905 1349.03 770.701 1344.92 770.701 1338.41 774.905 1334.65 777.708 1331.91 777.708 1327.8 774.905 1325.06 772.102 1322.32 767.898 1322.32 765.095 1325.06 755.635 1334.3 755.635 1349.72 765.095 1358.97 769.299 1362.73 769.299 1369.24 765.095 1373.35Z" fill="#574AE2" fill-rule="evenodd"/><path d="M693.095 1373.35C690.292 1376.09 690.292 1380.2 693.095 1382.95 694.496 1384.31 696.248 1385 698 1385 699.752 1385 701.504 1384.31 702.905 1382.95 712.365 1373.7 712.365 1358.28 702.905 1349.03 698.701 1344.92 698.701 1338.41 702.905 1334.65 705.708 1331.91 705.708 1327.8 702.905 1325.06 700.102 1322.32 695.898 1322.32 693.095 1325.06 683.635 1334.3 683.635 1349.72 693.095 1358.97 696.949 1362.73 696.949 1369.24 693.095 1373.35Z" fill="#574AE2" fill-rule="evenodd"/><path d="M776.634 1557C784.167 1549.11 790.672 1539.5 796.151 1528.17 801.629 1530.23 807.45 1531.26 813.956 1531.26 842.717 1531.26 866 1507.92 866 1479.1 865.658 1450.96 843.744 1427.96 816.352 1426.59L816.352 1406 652 1406 652 1433.45C652 1485.96 667.751 1531.95 691.719 1557L776.634 1557ZM816.01 1447.52C832.445 1448.55 845.456 1462.28 845.456 1479.1 845.114 1496.6 831.076 1510.67 813.613 1510.67 810.189 1510.67 807.107 1509.98 804.026 1509.3 810.531 1491.11 814.64 1469.83 816.01 1447.52ZM686.24 1436.89 703.36 1419.73 720.48 1419.73 737.6 1436.89 737.6 1488.36 686.24 1488.36 686.24 1436.89Z" fill="#574AE2" fill-rule="evenodd"/></g></svg>