<svg width="96" height="96" xmlns="http://www.w3.org/2000/svg" xmlns:xlink="http://www.w3.org/1999/xlink" overflow="hidden"><defs><clipPath id="clip0"><rect x="173" y="260" width="96" height="96"/></clipPath></defs><g clip-path="url(#clip0)" transform="translate(-173 -260)"><path d="M212.1 285.7C211.3 286.5 211.3 287.7 212.1 288.5 212.5 288.9 213 289.1 213.5 289.1 214 289.1 214.5 288.9 214.9 288.5 217.6 285.8 217.6 281.3 214.9 278.6 213.7 277.4 213.7 275.5 214.9 274.4 215.7 273.6 215.7 272.4 214.9 271.6 214.1 270.8 212.9 270.8 212.1 271.6 209.4 274.3 209.4 278.8 212.1 281.5 213.2 282.7 213.2 284.6 212.1 285.7Z"/><path d="M223 291.6C222.2 292.4 222.2 293.6 223 294.4 223.4 294.8 223.9 295 224.4 295 224.9 295 225.4 294.8 225.8 294.4 228.5 291.7 228.5 287.2 225.8 284.5 224.6 283.3 224.6 281.4 225.8 280.3 226.6 279.5 226.6 278.3 225.8 277.5 225 276.7 223.8 276.7 223 277.5 220.3 280.2 220.3 284.7 223 287.4 224.2 288.5 224.2 290.4 223 291.6Z"/><path d="M202.1 291.6C201.3 292.4 201.3 293.6 202.1 294.4 202.5 294.8 203 295 203.5 295 204 295 204.5 294.8 204.9 294.4 207.6 291.7 207.6 287.2 204.9 284.5 203.7 283.3 203.7 281.4 204.9 280.3 205.7 279.5 205.7 278.3 204.9 277.5 204.1 276.7 202.9 276.7 202.1 277.5 199.4 280.2 199.4 284.7 202.1 287.4 203.2 288.5 203.2 290.4 202.1 291.6Z"/><path d="M226.4 345C228.6 342.7 230.5 339.9 232.1 336.6 233.7 337.2 235.4 337.5 237.3 337.5 245.7 337.5 252.5 330.7 252.5 322.3 252.4 314.1 246 307.4 238 307L238 301 190 301 190 309C190 324.3 194.6 337.7 201.6 345L226.4 345ZM237.9 313.1C242.7 313.4 246.5 317.4 246.5 322.3 246.4 327.4 242.3 331.5 237.2 331.5 236.2 331.5 235.3 331.3 234.4 331.1 236.3 325.8 237.5 319.6 237.9 313.1ZM200 310 205 305 210 305 215 310 215 325 200 325 200 310Z"/></g></svg>