<svg xmlns="http://www.w3.org/2000/svg" width="35" height="40" viewBox="0 0 35 40">
  <path id="Path_907" data-name="Path 907" d="M.937-20A.94.94,0,0,0,0-19.062V1.25A3.751,3.751,0,0,0,3.75,5h27.5A3.751,3.751,0,0,0,35,1.25V-19.062A.94.94,0,0,0,34.062-20ZM35-23.437V-26.25A3.751,3.751,0,0,0,31.25-30H27.5v-4.062A.94.94,0,0,0,26.562-35H23.437a.94.94,0,0,0-.937.937V-30h-10v-4.062A.94.94,0,0,0,11.562-35H8.437a.94.94,0,0,0-.937.937V-30H3.75A3.751,3.751,0,0,0,0-26.25v2.812a.94.94,0,0,0,.937.937H34.062A.94.94,0,0,0,35-23.437Z" transform="translate(0 35)" fill="#001489"/>
</svg>
