<svg width="2278" height="2278" xmlns="http://www.w3.org/2000/svg" xmlns:xlink="http://www.w3.org/1999/xlink" xml:space="preserve" overflow="hidden"><defs><clipPath id="clip0"><rect x="1061" y="49" width="2278" height="2278"/></clipPath></defs><g clip-path="url(#clip0)" transform="translate(-1061 -49)"><path d="M1061 1188C1061 558.948 1570.95 49.0002 2200 49.0002 2829.05 49.0002 3339 558.948 3339 1188 3339 1817.05 2829.05 2327 2200 2327 1570.95 2327 1061 1817.05 1061 1188Z" fill="#005EB8" fill-rule="evenodd"/><path d="M1715 460.479C1715 391.179 1771.18 335 1840.48 335L2559.52 335C2628.82 335 2685 391.179 2685 460.479L2685 1916.52C2685 1985.82 2628.82 2042 2559.52 2042L1840.48 2042C1771.18 2042 1715 1985.82 1715 1916.52Z" fill="#FFFFFF" fill-rule="evenodd"/><rect x="1817" y="538" width="766" height="1083" fill="#005EB8"/><path d="M2143 842.5C2143 835.044 2168.52 829 2200 829 2231.48 829 2257 835.044 2257 842.5 2257 849.956 2231.48 856 2200 856 2168.52 856 2143 849.956 2143 842.5Z" fill="#FFFFFF" fill-rule="evenodd"/><path d="M2143 1317C2143 1309.27 2168.52 1303 2200 1303 2231.48 1303 2257 1309.27 2257 1317 2257 1324.73 2231.48 1331 2200 1331 2168.52 1331 2143 1324.73 2143 1317Z" fill="#FFFFFF" fill-rule="evenodd"/><rect x="2143" y="844" width="114" height="473" fill="#FFFFFF"/><path d="M2015 442C2015 427.641 2026.64 416 2041 416L2359 416C2373.36 416 2385 427.641 2385 442L2385 442C2385 456.359 2373.36 468 2359 468L2041 468C2026.64 468 2015 456.359 2015 442Z" fill="#005EB8" fill-rule="evenodd"/><path d="M2127 1822.5C2127 1781.91 2159.68 1749 2200 1749 2240.32 1749 2273 1781.91 2273 1822.5 2273 1863.09 2240.32 1896 2200 1896 2159.68 1896 2127 1863.09 2127 1822.5Z" fill="#005EB8" fill-rule="evenodd"/><path d="M2437.5 1022C2444.96 1022 2451 1047.74 2451 1079.5 2451 1111.26 2444.96 1137 2437.5 1137 2430.04 1137 2424 1111.26 2424 1079.5 2424 1047.74 2430.04 1022 2437.5 1022Z" fill="#FFFFFF" fill-rule="evenodd"/><path d="M1962.5 1022C1969.96 1022 1976 1047.74 1976 1079.5 1976 1111.26 1969.96 1137 1962.5 1137 1955.04 1137 1949 1111.26 1949 1079.5 1949 1047.74 1955.04 1022 1962.5 1022Z" fill="#FFFFFF" fill-rule="evenodd"/><rect x="1962" y="1022" width="474" height="115" fill="#FFFFFF"/></g></svg>