<svg xmlns="http://www.w3.org/2000/svg" width="28" height="28" viewBox="0 0 28 28"><defs><style>.a{fill:rgba(87,74,226,0.71);}</style></defs><path class="a" d="M-8.313-12.25h-4.375A1.312,1.312,0,0,0-14-10.937V2.187A1.312,1.312,0,0,0-12.688,3.5h4.375A1.312,1.312,0,0,0-7,2.187V-10.937A1.312,1.312,0,0,0-8.313-12.25ZM-10.5,1.312A1.312,1.312,0,0,1-11.813,0,1.312,1.312,0,0,1-10.5-1.312,1.312,1.312,0,0,1-9.188,0,1.312,1.312,0,0,1-10.5,1.312ZM7-20.046C7-24.062,4.375-24.5,3.062-24.5c-1.1,0-1.612,2.149-1.856,3.161A6.623,6.623,0,0,1-.182-18.118c-1.776,1.779-2.707,4.045-4.874,6.186a.656.656,0,0,0-.195.466V.224A.656.656,0,0,0-4.606.88a8.606,8.606,0,0,1,2.879.885A15.7,15.7,0,0,0,4.812,3.5h.156c2.339,0,5.106-.023,6.222-1.626a2.9,2.9,0,0,0,.336-2.441,4.324,4.324,0,0,0,.9-4.088A4.568,4.568,0,0,0,12.931-9l.006-.006A3.959,3.959,0,0,0,14-11.7a3.268,3.268,0,0,0-3.257-3.177H5.18C5.58-16.425,7-17.726,7-20.046Z" transform="translate(14 24.5)"/></svg>