<svg width="2278" height="2278" xmlns="http://www.w3.org/2000/svg" xmlns:xlink="http://www.w3.org/1999/xlink" xml:space="preserve" overflow="hidden"><defs><clipPath id="clip0"><rect x="1061" y="49" width="2278" height="2278"/></clipPath></defs><g clip-path="url(#clip0)" transform="translate(-1061 -49)"><path d="M1061 1188C1061 558.948 1570.95 49.0002 2200 49.0002 2829.05 49.0002 3339 558.948 3339 1188 3339 1817.05 2829.05 2327 2200 2327 1570.95 2327 1061 1817.05 1061 1188Z" fill="#005EB8" fill-rule="evenodd"/><path d="M1715 460.479C1715 391.179 1771.18 335 1840.48 335L2559.52 335C2628.82 335 2685 391.179 2685 460.479L2685 1916.52C2685 1985.82 2628.82 2042 2559.52 2042L1840.48 2042C1771.18 2042 1715 1985.82 1715 1916.52Z" fill="#FFFFFF" fill-rule="evenodd"/><rect x="1817" y="538" width="766" height="1083" fill="#005EB8"/><path d="M2015 442C2015 427.641 2026.64 416 2041 416L2359 416C2373.36 416 2385 427.641 2385 442L2385 442C2385 456.359 2373.36 468 2359 468L2041 468C2026.64 468 2015 456.359 2015 442Z" fill="#005EB8" fill-rule="evenodd"/><path d="M2127 1822.5C2127 1781.91 2159.68 1749 2200 1749 2240.32 1749 2273 1781.91 2273 1822.5 2273 1863.09 2240.32 1896 2200 1896 2159.68 1896 2127 1863.09 2127 1822.5Z" fill="#005EB8" fill-rule="evenodd"/></g></svg>