<svg width="184" height="184" xmlns="http://www.w3.org/2000/svg" xmlns:xlink="http://www.w3.org/1999/xlink" overflow="hidden"><defs><clipPath id="clip0"><rect x="528" y="39" width="184" height="184"/></clipPath></defs><g clip-path="url(#clip0)" transform="translate(-528 -39)"><path d="M624.064 58.7555C627.001 54.8462 630.102 52.3518 630.102 48.1566 630.102 42.3012 626.367 39 619.5 39 612.633 39 608.898 42.3012 608.898 48.1566 608.898 52.3386 611.98 54.8308 614.908 58.7187L614.909 66.6522C609.222 67.0531 603.614 68.2163 598.237 70.1105 599.002 67.4939 599.929 65.4553 599.005 63.2074 597.585 59.755 594.582 58.7146 590.533 60.3796 586.484 62.0447 585.082 64.897 586.503 68.3497 587.422 70.5871 589.502 71.3872 591.873 72.6981L591.887 72.7323C586.724 75.215 581.915 78.3768 577.589 82.1335L571.996 76.5428C571.308 71.7017 571.738 67.7445 568.771 64.7773 564.631 60.6371 559.655 60.9437 554.799 65.7998 549.944 70.6557 549.637 75.6312 553.777 79.7714 556.734 82.7282 560.675 82.3115 565.493 82.9899L571.111 88.6056C567.308 92.9778 564.113 97.8444 561.614 103.073L561.531 103.039C560.221 100.669 559.42 98.5891 557.183 97.6689 553.73 96.2488 550.878 97.6505 549.213 101.7 547.548 105.749 548.588 108.751 552.041 110.171 554.289 111.096 556.329 110.168 558.946 109.403L559.005 109.427C557.14 114.754 555.992 120.305 555.592 125.935L547.756 125.936C543.847 123 541.352 119.898 537.157 119.898 531.301 119.898 528 123.632 528 130.5 528 137.367 531.301 141.102 537.157 141.102 541.338 141.102 543.83 138.021 547.718 135.093L555.584 135.092C555.978 140.757 557.128 146.344 559.005 151.703L558.946 151.727C556.329 150.962 554.289 150.034 552.041 150.959 548.588 152.379 547.548 155.381 549.213 159.431 550.878 163.48 553.73 164.882 557.183 163.462 559.42 162.542 560.22 160.462 561.531 158.091L561.614 158.057C564.104 163.267 567.284 168.116 571.069 172.477L565.545 178.003C560.703 178.692 556.745 178.261 553.778 181.229 549.637 185.369 549.944 190.344 554.8 195.2 559.656 200.056 564.631 200.363 568.771 196.222 571.728 193.266 571.312 189.325 571.99 184.506L577.54 178.954C581.878 182.73 586.704 185.906 591.887 188.398L591.873 188.433C589.502 189.744 587.422 190.544 586.502 192.781 585.082 196.234 586.484 199.085 590.533 200.751 594.582 202.416 597.585 201.376 599.005 197.923 599.929 195.676 599.002 193.637 598.237 191.02 603.622 192.917 609.239 194.081 614.935 194.48L614.936 202.244C612 206.154 608.897 208.648 608.897 212.844 608.897 218.699 612.632 222 619.5 222 626.367 222 630.102 218.699 630.102 212.844 630.102 208.662 627.02 206.17 624.093 202.282L624.091 194.479C629.698 194.083 635.228 192.946 640.537 191.098 639.776 193.677 638.877 195.698 639.793 197.923 641.212 201.376 644.215 202.416 648.264 200.751 652.313 199.085 653.715 196.234 652.295 192.781 651.382 190.561 649.326 189.755 646.977 188.461 652.22 185.957 657.099 182.754 661.482 178.939L667.004 184.459C667.692 189.299 667.262 193.256 670.229 196.222 674.369 200.363 679.344 200.056 684.2 195.2 689.056 190.344 689.363 185.369 685.222 181.229 682.266 178.272 678.324 178.688 673.505 178.01L667.951 172.458C671.696 168.144 674.848 163.349 677.326 158.201 678.601 160.526 679.412 162.556 681.614 163.462 685.067 164.882 687.919 163.48 689.585 159.431 691.25 155.381 690.209 152.379 686.757 150.959 684.554 150.053 682.549 150.925 680.008 151.68 681.882 146.319 683.031 140.731 683.422 135.066L691.245 135.064C695.154 138 697.648 141.102 701.844 141.102 707.699 141.102 711 137.367 711 130.5 711 123.632 707.699 119.898 701.844 119.898 697.662 119.898 695.169 122.98 691.282 125.908L683.411 125.909C683.009 120.297 681.865 114.762 680.008 109.45 682.549 110.205 684.554 111.077 686.757 110.172 690.209 108.752 691.25 105.749 689.585 101.7 687.919 97.6505 685.067 96.2489 681.614 97.6691 679.412 98.575 678.601 100.605 677.326 102.93 674.831 97.7463 671.652 92.921 667.874 88.5831L673.457 82.9965C678.299 82.3079 682.256 82.7382 685.222 79.7714 689.363 75.6312 689.056 70.6557 684.2 65.7998 679.344 60.9439 674.369 60.6371 670.229 64.7773 667.271 67.7346 667.689 71.6765 667.01 76.4963L661.393 82.1151C657.034 78.3336 652.185 75.1564 646.977 72.669 649.326 71.3755 651.382 70.57 652.295 68.3494 653.715 64.8968 652.313 62.0447 648.264 60.3794 644.215 58.714 641.212 59.755 639.793 63.2074 638.878 65.4322 639.776 67.4539 640.537 70.0322 635.22 68.1814 629.682 67.044 624.066 66.6501ZM581.598 134.777C579.272 137.103 575.501 137.103 573.175 134.777 570.849 132.451 570.849 128.68 573.175 126.354 575.501 124.028 579.272 124.028 581.598 126.354 583.924 128.679 583.924 132.45 581.599 134.776 581.598 134.777 581.598 134.777 581.598 134.777ZM600.55 162.152C597.061 165.641 591.405 165.641 587.915 162.152 584.426 158.663 584.426 153.006 587.915 149.517 591.404 146.028 597.061 146.028 600.55 149.517 600.55 149.517 600.55 149.517 600.55 149.517 604.039 153.006 604.039 158.663 600.55 162.152ZM600.55 111.613C597.061 115.103 591.404 115.103 587.915 111.613 584.426 108.125 584.426 102.468 587.915 98.9785 591.404 95.4895 597.061 95.4895 600.55 98.9785 604.039 102.468 604.039 108.124 600.55 111.613ZM623.714 176.893C621.388 179.219 617.616 179.219 615.29 176.893 612.965 174.567 612.965 170.796 615.291 168.47 617.617 166.144 621.388 166.144 623.714 168.47 626.04 170.796 626.04 174.567 623.714 176.893ZM657.406 126.354C659.733 124.028 663.504 124.028 665.83 126.354 668.156 128.68 668.156 132.451 665.83 134.777 663.504 137.103 659.733 137.103 657.406 134.777 655.081 132.451 655.081 128.68 657.406 126.354ZM638.455 98.9785C641.944 95.4896 647.6 95.4896 651.089 98.9786 654.578 102.468 654.578 108.125 651.089 111.613 647.6 115.102 641.944 115.102 638.455 111.613 634.966 108.125 634.965 102.469 638.453 98.9794 638.454 98.9792 638.454 98.9786 638.454 98.9785ZM638.455 149.517C641.944 146.028 647.6 146.029 651.089 149.517 654.578 153.007 654.578 158.663 651.089 162.152 647.6 165.641 641.944 165.641 638.455 162.152 634.966 158.663 634.965 153.007 638.454 149.518 638.454 149.518 638.454 149.518 638.454 149.517ZM625.82 136.883C622.331 140.372 616.674 140.372 613.185 136.883 609.696 133.394 609.696 127.737 613.185 124.248 616.674 120.759 622.331 120.759 625.82 124.248 629.309 127.737 629.309 133.393 625.82 136.882 625.82 136.882 625.82 136.883 625.82 136.883ZM623.714 92.6609C621.388 94.9869 617.617 94.9869 615.291 92.6609 612.965 90.3349 612.965 86.5639 615.291 84.2381 617.617 81.9121 621.388 81.9121 623.714 84.2381 626.04 86.5639 626.04 90.3349 623.714 92.6608 623.714 92.6609 623.714 92.6609 623.714 92.6609Z" fill="#000F86" fill-rule="evenodd"/></g></svg>