<svg viewBox="0 0 96 96" xmlns="http://www.w3.org/2000/svg" xmlns:xlink="http://www.w3.org/1999/xlink" id="Icons_Covid" overflow="hidden"><path d="M49.9958 16.6289C51.2785 14.9211 52.6334 13.8315 52.6334 11.9988 52.6334 9.44092 51.0019 7.99878 48.0019 7.99878 45.0019 7.99878 43.3703 9.44092 43.3703 11.9988 43.3703 13.8257 44.7167 14.9144 45.9958 16.6128L45.9965 20.0786C43.512 20.2537 41.0624 20.7618 38.7133 21.5893 39.0475 20.4463 39.4525 19.5557 39.0487 18.5737 38.4285 17.0655 37.1168 16.611 35.3479 17.3384 33.579 18.0658 32.9667 19.3118 33.5871 20.8201 33.9889 21.7975 34.8974 22.147 35.9333 22.7197L35.9394 22.7346C33.6837 23.8192 31.5832 25.2004 29.6935 26.8415L27.2501 24.3992C26.9494 22.2844 27.1374 20.5557 25.8412 19.2595 24.0326 17.4509 21.8591 17.5848 19.7378 19.7062 17.6165 21.8275 17.4825 24.001 19.2912 25.8096 20.5828 27.1013 22.3043 26.9193 24.4093 27.2156L26.8636 29.6688C25.2019 31.5788 23.8063 33.7048 22.7146 35.989L22.6784 35.9741C22.1059 34.9385 21.7563 34.0301 20.7789 33.6281 19.2707 33.0077 18.0248 33.6201 17.2973 35.389 16.5698 37.1578 17.0244 38.4695 18.5327 39.0898 19.5148 39.4938 20.4058 39.0883 21.5493 38.7541L21.5748 38.7646C20.7602 41.0917 20.2589 43.5168 20.084 45.9761L16.661 45.9767C14.953 44.6939 13.8633 43.3386 12.0305 43.3386 9.47251 43.3386 8.03051 44.9702 8.03051 47.9702 8.03051 50.9702 9.47251 52.6018 12.0305 52.6018 13.8572 52.6018 14.9459 51.2556 16.6442 49.9767L20.0805 49.9761C20.2526 52.4509 20.7551 54.8915 21.5748 57.2329L21.5493 57.2434C20.4058 56.9092 19.5148 56.5037 18.5326 56.9077 17.0244 57.528 16.5698 58.8396 17.2973 60.6085 18.0248 62.3774 19.2707 62.9897 20.7789 62.3694 21.7563 61.9675 22.1058 61.0591 22.6784 60.0234L22.7145 60.0085C23.8023 62.2842 25.1917 64.4029 26.8451 66.3076L24.4318 68.7219C22.3166 69.0228 20.5875 68.8347 19.2913 70.1309 17.4825 71.9397 17.6165 74.113 19.7379 76.2344 21.8592 78.3557 24.0326 78.4898 25.8412 76.6809 27.133 75.3894 26.951 73.6676 27.2473 71.5626L29.6718 69.1372C31.567 70.7866 33.675 72.1742 35.9394 73.2628L35.933 73.2781C34.8974 73.8507 33.9889 74.2002 33.587 75.1775 32.9666 76.6858 33.5789 77.9316 35.3479 78.6592 37.1168 79.3867 38.4284 78.9321 39.0487 77.4238 39.4525 76.442 39.0475 75.5513 38.7132 74.4082 41.0659 75.237 43.5194 75.7455 46.0077 75.9198L46.0083 79.3113C44.7254 81.0193 43.3702 82.1089 43.3702 83.9418 43.3702 86.4998 45.0018 87.9418 48.0018 87.9418 51.0018 87.9418 52.6334 86.4998 52.6334 83.9418 52.6334 82.115 51.2872 81.0264 50.0083 79.3281L50.0077 75.9191C52.457 75.7461 54.8727 75.2496 57.1917 74.4424 56.8596 75.5687 56.4668 76.4519 56.8666 77.4238 57.4868 78.9321 58.7984 79.3867 60.5674 78.6592 62.3363 77.9316 62.9486 76.6858 62.3282 75.1775 61.9293 74.2075 61.0313 73.8557 60.0052 73.2905 62.2956 72.1966 64.4271 70.7972 66.3414 69.1306L68.7538 71.542C69.0543 73.6565 68.8666 75.385 70.1625 76.6809 71.9713 78.4898 74.1447 78.3557 76.266 76.2344 78.3873 74.1131 78.5214 71.9397 76.7125 70.1309 75.4208 68.8392 73.699 69.0212 71.5938 68.7249L69.1676 66.2996C70.8034 64.4147 72.1806 62.3201 73.2628 60.0713 73.82 61.0869 74.1742 61.9738 75.1364 62.3694 76.6447 62.9898 77.8905 62.3775 78.6181 60.6085 79.3456 58.8396 78.8909 57.528 77.3827 56.9077 76.4205 56.512 75.5448 56.893 74.4345 57.2228 75.2533 54.8809 75.755 52.4399 75.9262 49.9649L79.3433 49.9641C81.0512 51.2468 82.1408 52.6018 83.9734 52.6018 86.5314 52.6018 87.9734 50.9702 87.9734 47.9702 87.9734 44.9702 86.5314 43.3386 83.9734 43.3386 82.1466 43.3386 81.0578 44.6851 79.3594 45.9641L75.9211 45.9649C75.7456 43.513 75.2457 41.0952 74.4345 38.7748 75.5448 39.1046 76.4206 39.4856 77.3827 39.0899 78.8909 38.4696 79.3455 37.158 78.6181 35.3891 77.8906 33.6201 76.6447 33.0078 75.1364 33.6282 74.1742 34.0239 73.82 34.9108 73.263 35.9264 72.1731 33.6619 70.7843 31.554 69.1337 29.659L71.573 27.2185C73.6879 26.9177 75.4166 27.1057 76.7125 25.8096 78.5214 24.001 78.3873 21.8275 76.266 19.7062 74.1447 17.5849 71.9713 17.4509 70.1625 19.2595 68.8707 20.5514 69.053 22.2734 68.7563 24.3789L66.3029 26.8335C64.3984 25.1815 62.2802 23.7936 60.0053 22.707 61.0314 22.1419 61.9293 21.79 62.3283 20.82 62.9486 19.3117 62.3363 18.0658 60.5674 17.3383 58.7985 16.6108 57.4868 17.0655 56.8666 18.5737 56.4669 19.5456 56.8596 20.4288 57.1917 21.5551 54.8692 20.7466 52.4497 20.2497 49.9965 20.0776ZM31.4446 49.8386C30.4285 50.8547 28.7811 50.8547 27.765 49.8386 26.7489 48.8224 26.7489 47.175 27.7651 46.1589 28.7811 45.1429 30.4285 45.1429 31.4446 46.1589 32.4607 47.1749 32.4608 48.8223 31.4448 49.8384 31.4447 49.8385 31.4447 49.8385 31.4446 49.8386ZM39.7238 61.7974C38.1996 63.3215 35.7285 63.3216 34.2043 61.7974 32.6801 60.2733 32.6801 57.8021 34.2043 56.278 35.7284 54.7538 38.1996 54.7538 39.7237 56.2779 39.7237 56.2779 39.7238 56.2779 39.7238 56.278 41.2479 57.8021 41.2479 60.2732 39.7238 61.7974ZM39.7238 39.7197C38.1996 41.2439 35.7284 41.2439 34.2042 39.7197 32.6801 38.1956 32.6801 35.7244 34.2042 34.2002 35.7284 32.676 38.1996 32.676 39.7238 34.2002 41.2478 35.7244 41.2478 38.1955 39.7238 39.7197ZM49.8427 68.2368C48.8266 69.2529 47.1791 69.2529 46.163 68.2368 45.147 67.2206 45.147 65.5732 46.1631 64.5571 47.1792 63.5411 48.8266 63.5411 49.8427 64.5571 50.8588 65.5733 50.8588 67.2207 49.8427 68.2368ZM64.5612 46.1589C65.5773 45.1428 67.2247 45.1428 68.2409 46.1589 69.257 47.1751 69.257 48.8225 68.2409 49.8386 67.2248 50.8547 65.5773 50.8547 64.5612 49.8386 63.5451 48.8225 63.5451 47.1751 64.5612 46.1589ZM56.2822 34.2002C57.8064 32.6761 60.2775 32.6761 61.8016 34.2003 63.3257 35.7245 63.3256 38.1956 61.8015 39.7197 60.2773 41.2438 57.8063 41.2438 56.2822 39.7197 54.758 38.1958 54.7578 35.7248 56.2817 34.2006 56.2819 34.2005 56.282 34.2003 56.2821 34.2002ZM56.2822 56.278C57.8063 54.7538 60.2774 54.7539 61.8015 56.278 63.3256 57.8022 63.3256 60.2733 61.8015 61.7974 60.2774 63.3214 57.8063 63.3214 56.2822 61.7974 54.758 60.2734 54.7579 57.8024 56.2819 56.2782 56.282 56.2782 56.2821 56.2781 56.2821 56.278ZM50.7626 50.7585C49.2384 52.2827 46.7673 52.2826 45.2431 50.7585 43.719 49.2343 43.719 46.7632 45.2432 45.239 46.7674 43.7149 49.2384 43.7149 50.7626 45.239 52.2868 46.7631 52.2869 49.2342 50.7628 50.7584 50.7627 50.7584 50.7627 50.7585 50.7626 50.7585ZM49.8427 31.4404C48.8266 32.4565 47.1792 32.4565 46.1631 31.4404 45.147 30.4243 45.147 28.7769 46.1631 27.7609 47.1792 26.7448 48.8266 26.7448 49.8427 27.7609 50.8588 28.7769 50.8588 30.4243 49.8428 31.4403 49.8427 31.4404 49.8427 31.4404 49.8427 31.4404Z"/></svg>