<svg width="178" height="109" xmlns="http://www.w3.org/2000/svg" xmlns:xlink="http://www.w3.org/1999/xlink" overflow="hidden"><defs><clipPath id="clip0"><rect x="1004" y="115" width="178" height="109"/></clipPath></defs><g clip-path="url(#clip0)" transform="translate(-1004 -115)"><path d="M1147.44 192.522 1039.56 192.522 1039.56 127.478 1147.44 127.478ZM1159 123.652C1159 119.426 1155.55 116 1151.29 116L1035.71 116C1031.45 116 1028 119.426 1028 123.652L1028 204 1159 204Z" fill="#000F86" fill-rule="evenodd"/><path d="M1105.04 212 1105.04 214C1105.11 215.036 1104.35 215.931 1103.36 216 1103.28 216.005 1103.2 216.005 1103.12 216L1083.88 216C1082.88 216.069 1082.02 215.284 1081.96 214.248 1081.95 214.166 1081.95 214.083 1081.96 214L1081.96 212 1005 212 1005 216C1005 220.418 1008.45 224 1012.7 224L1174.3 224C1178.55 224 1182 220.418 1182 216L1182 212Z" fill="#000F86" fill-rule="evenodd"/><path d="M1093 133C1078.09 133 1066 145.088 1066 160 1066 174.912 1078.09 187 1093 187 1107.91 187 1120 174.912 1120 160 1120 145.088 1107.91 133 1093 133ZM1094.93 161.929 1103.78 161.929C1102.77 168.577 1099.67 174.731 1094.93 179.498ZM1094.93 158.071 1094.93 140.483C1099.68 145.254 1102.78 151.416 1103.78 158.071ZM1091.07 158.071 1082.51 158.071C1083.47 151.53 1086.46 145.456 1091.07 140.714ZM1091.07 161.929 1091.07 179.286C1086.47 174.538 1083.48 168.467 1082.51 161.929ZM1078.63 158.071 1070.38 158.071C1071.23 147.97 1078.69 139.663 1088.64 137.725 1083.14 143.211 1079.62 150.368 1078.63 158.071ZM1078.63 161.929C1079.62 169.646 1083.16 176.812 1088.68 182.294 1078.71 180.358 1071.24 172.044 1070.38 161.929ZM1107.66 161.929 1115.62 161.929C1114.78 171.916 1107.48 180.165 1097.67 182.217 1103.16 176.755 1106.68 169.615 1107.66 161.929ZM1107.66 158.071C1106.67 150.405 1103.18 143.28 1097.72 137.802 1107.51 139.875 1114.78 148.109 1115.62 158.071Z" fill="#000F86" fill-rule="evenodd"/></g></svg>