<svg xmlns="http://www.w3.org/2000/svg" width="28" height="26.25" viewBox="0 0 28 26.25"><defs><style>.a{fill:#001489;}</style></defs><path class="a" d="M13.125-19.25h-3.5l-.392-.783A1.916,1.916,0,0,0,7.668-21H4.736L3.244-22.492a.875.875,0,0,0-1.494.619v8.194l7,2.5v-1.946H10.5a3.5,3.5,0,0,0,3.5-3.5v-1.75A.875.875,0,0,0,13.125-19.25ZM7-16.625a.875.875,0,0,1-.875-.875A.875.875,0,0,1,7-18.375a.875.875,0,0,1,.875.875A.875.875,0,0,1,7-16.625ZM-8.75-12.25A1.752,1.752,0,0,1-10.5-14a1.75,1.75,0,0,0-1.75-1.75A1.75,1.75,0,0,0-14-14a5.241,5.241,0,0,0,3.5,4.927v11.7a.875.875,0,0,0,.875.875h3.5a.875.875,0,0,0,.875-.875V-3.5H3.5V2.625a.875.875,0,0,0,.875.875h3.5a.875.875,0,0,0,.875-.875V-9.321L.55-12.25Z" transform="translate(14 22.75)"/></svg>