<svg width="69" height="69" xmlns="http://www.w3.org/2000/svg" xmlns:xlink="http://www.w3.org/1999/xlink" overflow="hidden"><defs><clipPath id="clip0"><rect x="74" y="69" width="69" height="69"/></clipPath></defs><g clip-path="url(#clip0)" transform="translate(-74 -69)"><path d="M106 69 110 69 110 81 106 81Z" fill="#1E91D6" fill-rule="evenodd"/><path d="M138.073 76.1299 130.083 84.1202 127.254 81.2917 135.245 73.3015Z" fill="#1E91D6" fill-rule="evenodd"/><path d="M89.0231 81.2413 86.1946 84.0698 78.2044 76.0795 81.0328 73.2511Z" fill="#1E91D6" fill-rule="evenodd"/><path d="M132 97 142 97 142 101 132 101Z" fill="#1E91D6" fill-rule="evenodd"/><path d="M74 97 84 97 84 101 74 101Z" fill="#1E91D6" fill-rule="evenodd"/><path d="M92 125 95.4 91 120.5 91 124 125 92 125ZM136 125 130 125 126.4 88.6C126.2 86.6 124.5 85 122.4 85L93.6 85C91.5001 85 89.8 86.6 89.6 88.6L86 125 80 125 80 131 74 131 74 137 142 137 142 131 136 131 136 125Z" fill="#1E91D6" fill-rule="evenodd"/><path d="M113 95 115.652 121 120 121 117.242 95Z" fill="#1E91D6" fill-rule="evenodd"/></g></svg>