<svg width="69" height="69" xmlns="http://www.w3.org/2000/svg" xmlns:xlink="http://www.w3.org/1999/xlink" overflow="hidden"><defs><clipPath id="clip0"><rect x="41" y="77" width="69" height="69"/></clipPath></defs><g clip-path="url(#clip0)" transform="translate(-41 -77)"><path d="M73 77 77 77 77 89 73 89Z" fill="#001489" fill-rule="evenodd"/><path d="M105.346 84.1625 97.3554 92.1528 94.527 89.3244 102.517 81.3341Z" fill="#001489" fill-rule="evenodd"/><path d="M56.2958 89.274 53.4674 92.1024 45.4771 84.1122 48.3056 81.2837Z" fill="#001489" fill-rule="evenodd"/><path d="M99 105 109 105 109 109 99 109Z" fill="#001489" fill-rule="evenodd"/><path d="M41 105 51 105 51 109 41 109Z" fill="#001489" fill-rule="evenodd"/><path d="M59 133 62.4 99 87.5 99 91 133 59 133ZM103 133 97 133 93.4 96.6C93.2 94.6 91.5 93 89.4 93L60.6 93C58.5001 93 56.8 94.6 56.6 96.6L53 133 47 133 47 139 41 139 41 145 109 145 109 139 103 139 103 133Z" fill="#001489" fill-rule="evenodd"/><path d="M80 103 82.6516 129 87 129 84.2424 103Z" fill="#001489" fill-rule="evenodd"/></g></svg>