<svg xmlns="http://www.w3.org/2000/svg" width="32.5" height="29" viewBox="0 0 32.5 29"><defs><style>.a{fill:#1e91d6;stroke:rgba(0,0,0,0);}</style></defs><path class="a" d="M-7,0c-1.4,0-2.8-1.225-3.5-1.75C-14-4.2-15.05-5.075-15.75-5.6V1.75A1.75,1.75,0,0,0-14,3.5H0A1.75,1.75,0,0,0,1.75,1.75V-5.6C1.05-5.075,0-4.2-3.5-1.75-4.2-1.225-5.6,0-7,0ZM0-10.5H-14a1.75,1.75,0,0,0-1.75,1.75v.875c1.4,1.05,1.225,1.05,6.3,4.725.525.35,1.575,1.4,2.45,1.4S-5.075-2.8-4.55-2.975C.525-6.65.35-6.65,1.75-7.7V-8.75A1.75,1.75,0,0,0,0-10.5Zm14-5.25H-3.5A1.75,1.75,0,0,0-5.25-14v1.75H0A3.505,3.505,0,0,1,3.484-9.088L3.5-9.1v7.35H14A1.75,1.75,0,0,0,15.75-3.5V-14A1.75,1.75,0,0,0,14-15.75Zm-1.75,7H8.75v-3.5h3.5ZM-7-14a3.5,3.5,0,0,1,3.5-3.5H8.75v-5.25A1.75,1.75,0,0,0,7-24.5H-10.5a1.75,1.75,0,0,0-1.75,1.75v10.5H-7Z" transform="translate(16.25 25)"/></svg>