<svg width="77" height="77" xmlns="http://www.w3.org/2000/svg" xmlns:xlink="http://www.w3.org/1999/xlink" overflow="hidden"><defs><clipPath id="clip0"><rect x="630" y="249" width="77" height="77"/></clipPath></defs><g clip-path="url(#clip0)" transform="translate(-630 -249)"><path d="M679.524 301.789C667.338 298.825 659.149 305.147 658.759 305.444 657.881 306.135 657.784 307.321 658.369 308.21 658.759 308.704 659.344 309 659.929 309 660.318 309 660.806 308.901 661.098 308.605 661.196 308.506 668.118 303.172 678.549 305.641 679.622 305.938 680.694 305.246 680.889 304.16 681.279 303.073 680.597 301.986 679.524 301.789Z" fill-rule="evenodd"/><path d="M659 284C659 287.314 656.314 290 653 290 649.686 290 647 287.314 647 284 647 280.686 649.686 278 653 278 656.314 278 659 280.686 659 284Z" fill-rule="evenodd"/><path d="M648.206 273 658.194 272.002C659.292 271.902 660.092 270.904 659.992 269.805 659.892 268.707 658.893 267.909 657.794 268.008L647.806 269.007C646.708 269.107 645.909 270.105 646.008 271.203 646.108 272.201 647.007 273 648.006 273 648.106 273 648.106 273 648.206 273Z" fill-rule="evenodd"/><path d="M691 284C691 287.314 688.314 290 685 290 681.686 290 679 287.314 679 284 679 280.686 681.686 278 685 278 688.314 278 691 280.686 691 284Z" fill-rule="evenodd"/><path d="M690.194 269.007 680.206 268.008C679.107 267.909 678.108 268.707 678.008 269.805 677.909 270.904 678.708 271.902 679.806 272.002L689.794 273C689.894 273 689.894 273 689.994 273 690.993 273 691.892 272.201 691.992 271.203 692.092 270.105 691.292 269.107 690.194 269.007Z" fill-rule="evenodd"/><path d="M669 254C687.7 254 703 269.3 703 288 703 306.7 687.7 322 669 322 650.3 322 635 306.7 635 288 635 269.3 650.3 254 669 254M669 250C648 250 631 267 631 288 631 309 648 326 669 326 690 326 707 309 707 288 707 267 690 250 669 250L669 250Z" fill-rule="evenodd"/></g></svg>