<svg width="1760" height="936" xmlns="http://www.w3.org/2000/svg" xmlns:xlink="http://www.w3.org/1999/xlink" overflow="hidden"><defs><clipPath id="clip0"><rect x="1320" y="962" width="1760" height="936"/></clipPath></defs><g clip-path="url(#clip0)" transform="translate(-1320 -962)"><path d="M2403.26 1521.02C2317.88 1561.67 2238.17 1587.93 2200.2 1587.93 2161.23 1587.93 2083.68 1562.45 1997.8 1521.45 1972.09 1509.18 1941.32 1520.06 1929.05 1545.74 1916.78 1571.42 1927.65 1602.18 1953.34 1614.45 2013.22 1643.04 2124.9 1691 2200.2 1691 2274.86 1691 2387.25 1642.81 2447.6 1614.08 2473.31 1601.84 2484.22 1571.09 2471.98 1545.39 2459.74 1519.69 2428.97 1508.78 2403.26 1521.02Z" fill="#001489" fill-rule="evenodd"/><path d="M1970.92 1333.39C2057.93 1306.23 2123.75 1279.1 2200.15 1279.1 2276.1 1279.1 2341.45 1305.86 2430.01 1333.62 2457.28 1342.17 2486.14 1326.93 2494.63 1299.85 2503.14 1272.69 2488.02 1243.76 2460.85 1235.24 2369.93 1206.75 2294.45 1176 2200.15 1176 2105.65 1176 2030.34 1206.84 1940.21 1234.98 1913.03 1243.46 1897.87 1272.37 1906.35 1299.54 1914.84 1326.72 1943.75 1341.87 1970.92 1333.39Z" fill="#001489" fill-rule="evenodd"/><path d="M1652.33 1682.85C1652.48 1682.96 1652.64 1683.06 1652.79 1683.16 1786.06 1769.95 2034.88 1898 2200 1898 2363.82 1898 2622.64 1766.13 2747.67 1682.86 2761.29 1673.77 3080 1457.79 3080 1174.02 3080 1051.28 2984.74 963.683 2871.07 962.024 2791.76 960.865 2723.29 1001.97 2686.03 1071.1 2608.58 1066.29 2543.67 1045.21 2475.45 1023.04 2393.54 996.425 2308.84 968.903 2200 968.903 2091.16 968.903 2006.46 996.425 1924.55 1023.04 1856.33 1045.21 1791.42 1066.29 1713.97 1071.1 1676.71 1001.97 1608.24 960.858 1528.93 962.024 1415.65 963.676 1320 1050.87 1320 1174.02 1320 1457.76 1638.64 1673.73 1652.33 1682.85ZM2869.56 1065.24C2922.89 1066.02 2976.88 1103.64 2976.88 1174.02 2976.88 1339.1 2828.67 1485.54 2745.48 1554.74 2732.74 1508.96 2719.06 1445.08 2719.06 1381.83 2719.06 1318.33 2734.16 1229.13 2769.41 1136.36 2786.34 1091.16 2823.92 1064.54 2869.56 1065.24ZM1956.39 1121.23C2034.09 1095.98 2107.48 1072.13 2200 1072.13 2292.52 1072.13 2365.91 1095.98 2443.61 1121.23 2507.05 1141.84 2572.16 1163 2648.88 1171.5 2633.53 1224.56 2615.94 1302.67 2615.94 1381.83 2615.94 1475.12 2640.35 1566.88 2656.75 1617.99 2550.97 1681.82 2335.67 1794.77 2200 1794.77 2052.89 1794.77 1828.39 1668.9 1743.31 1617.8 1759.7 1566.66 1784.06 1475.01 1784.06 1381.83 1784.06 1302.67 1766.47 1224.56 1751.12 1171.5 1827.84 1163 1892.95 1141.84 1956.39 1121.23ZM1530.44 1065.24C1576.12 1064.55 1613.66 1091.16 1630.6 1136.37 1659.1 1213.21 1680.94 1300.23 1680.94 1381.83 1680.94 1444.86 1667.2 1508.9 1654.44 1554.81 1571.23 1485.78 1423.12 1339.64 1423.12 1174.02 1423.12 1103.64 1477.11 1066.02 1530.44 1065.24Z" fill="#001489" fill-rule="evenodd"/></g></svg>