<svg width="77" height="77" xmlns="http://www.w3.org/2000/svg" xmlns:xlink="http://www.w3.org/1999/xlink" overflow="hidden"><defs><clipPath id="clip0"><rect x="922" y="249" width="77" height="77"/></clipPath></defs><g clip-path="url(#clip0)" transform="translate(-922 -249)"><path d="M951 282C951 285.314 948.314 288 945 288 941.686 288 939 285.314 939 282 939 278.686 941.686 276 945 276 948.314 276 951 278.686 951 282Z" fill="#51535B" fill-rule="evenodd"/><path d="M983 282C983 285.314 980.314 288 977 288 973.686 288 971 285.314 971 282 971 278.686 973.686 276 977 276 980.314 276 983 278.686 983 282Z" fill="#51535B" fill-rule="evenodd"/><path d="M979.02 301C978.327 301 977.733 301.3 977.436 301.8 973.673 306.8 967.733 309.9 961 309.9 954.267 309.9 948.426 306.8 944.564 301.8 944.168 301.3 943.574 301 942.98 301 941.891 301 941 301.9 941 303 941 303.4 941.099 303.8 941.396 304.2 945.951 310.2 952.98 314 961 314 969.02 314 976.05 310.2 980.604 304.2 980.802 303.9 981 303.5 981 303 981 301.9 980.109 301 979.02 301Z" fill="#51535B" fill-rule="evenodd"/><path d="M961 254C979.7 254 995 269.3 995 288 995 306.7 979.7 322 961 322 942.3 322 927 306.7 927 288 927 269.3 942.3 254 961 254M961 250C940 250 923 267 923 288 923 309 940 326 961 326 982 326 999 309 999 288 999 267 982 250 961 250L961 250Z" fill="#51535B" fill-rule="evenodd"/></g></svg>