<svg id="Capa_1"  height="400" width="512" xmlns="http://www.w3.org/2000/svg"><defs><style> path{fill:#001489;}</style></defs><g><path d="m315.076 282.528c-24.84 11.831-48.028 19.475-59.076 19.475-11.338 0-33.9-7.415-58.885-19.35-7.477-3.571-16.429-.406-20.001 7.069-3.57 7.475-.406 16.43 7.069 20.001 17.418 8.321 49.909 22.281 71.816 22.281 21.722 0 54.419-14.028 71.977-22.39 7.479-3.562 10.654-12.513 7.092-19.992-3.561-7.481-12.511-10.658-19.992-7.094z"/><path d="m189.303 227.801c25.317-7.902 44.469-15.798 66.697-15.798 22.101 0 41.115 7.788 66.885 15.866 7.932 2.486 16.33-1.949 18.8-9.827 2.478-7.905-1.922-16.322-9.827-18.8-26.457-8.292-48.419-17.239-75.857-17.239-27.495 0-49.408 8.975-75.635 17.161-7.908 2.468-12.318 10.88-9.85 18.788s10.882 12.316 18.787 9.849z"/><path d="m96.677 329.481c.045.03.091.059.136.089 38.767 25.22 111.153 62.433 159.187 62.433 47.656 0 122.95-38.323 159.322-62.52 3.963-2.643 96.678-65.408 96.678-147.87 0-35.67-27.712-61.126-60.781-61.608-23.07-.337-42.988 11.608-53.828 31.698-22.53-1.399-41.413-7.524-61.26-13.966-23.828-7.735-48.468-15.733-80.131-15.733s-56.303 7.998-80.131 15.733c-19.847 6.442-38.73 12.568-61.26 13.966-10.84-20.09-30.756-32.037-53.828-31.698-32.957.48-60.781 25.819-60.781 61.608 0 82.454 92.696 145.215 96.677 147.868zm354.104-179.48c15.514.226 31.219 11.157 31.219 31.612 0 47.972-43.114 90.528-67.316 110.636-3.705-13.304-7.684-31.865-7.684-50.246 0-18.455 4.391-44.375 14.646-71.335 4.925-13.136 15.858-20.871 29.135-20.667zm-265.65 16.269c22.604-7.337 43.953-14.267 70.869-14.267s48.266 6.93 70.869 14.267c18.456 5.991 37.396 12.139 59.713 14.608-4.464 15.421-9.582 38.119-9.582 61.125 0 27.109 7.103 53.775 11.872 68.627-30.772 18.549-93.405 51.373-132.872 51.373-42.797 0-108.104-36.576-132.855-51.426 4.769-14.863 11.855-41.497 11.855-68.574 0-23.006-5.118-45.704-9.582-61.125 22.316-2.469 41.257-8.617 59.713-14.608zm-123.912-16.269c13.289-.202 24.209 7.531 29.136 20.668 8.293 22.331 14.645 47.62 14.645 71.334 0 18.317-3.996 36.925-7.709 50.267-24.207-20.061-67.291-62.528-67.291-110.657 0-20.455 15.705-31.386 31.219-31.612z"/></g></svg>