<svg width="77" height="77" xmlns="http://www.w3.org/2000/svg" xmlns:xlink="http://www.w3.org/1999/xlink" overflow="hidden"><defs><clipPath id="clip0"><rect x="794" y="250" width="77" height="77"/></clipPath></defs><g clip-path="url(#clip0)" transform="translate(-794 -250)"><path d="M832.001 275.36C829.977 274.94 821.14 273 817.273 273 812.677 273 806.786 274.82 805.369 275.3 805.155 275.371 805.01 275.567 805.005 275.79L805.005 278.27C804.968 278.711 805.153 279.141 805.501 279.42L806.229 280.03C806.29 282.45 806.604 286.09 807.707 287.85 809.114 290.27 813.477 293 817.891 293 825.685 293 829.359 287.18 830.716 281.85 830.857 281.262 831.39 280.848 832.001 280.85 832.607 280.865 833.13 281.272 833.287 281.85 834.704 287.18 838.378 293 846.112 293 850.536 293 854.888 290.27 856.295 287.85 857.307 286.03 857.652 282.45 857.773 280.03L858.502 279.48C858.838 279.193 859.022 278.768 858.998 278.33L858.998 275.85C858.937 275.54 858.816 275.36 858.634 275.3 854.796 273.978 850.788 273.203 846.729 273 842.863 273 834.026 274.94 832.001 275.36Z" fill-rule="evenodd"/><path d="M852.204 301.411C851.318 300.742 850.049 300.907 849.369 301.781 842.22 310.983 828.871 312.719 819.555 305.657 818.081 304.54 816.761 303.237 815.63 301.781 814.948 300.906 813.676 300.742 812.79 301.416 811.904 302.09 811.738 303.346 812.42 304.222 820.934 315.175 836.826 317.237 847.915 308.828 849.666 307.5 851.234 305.951 852.579 304.222 853.262 303.346 853.097 302.09 852.211 301.416 852.209 301.414 852.207 301.413 852.204 301.411Z" fill-rule="evenodd"/><path d="M832 254C850.778 254 866 269.222 866 288 866 306.778 850.778 322 832 322 813.222 322 798 306.778 798 288 798 269.222 813.222 254 832 254M832 250C811.013 250 794 267.013 794 288 794 308.987 811.013 326 832 326 852.987 326 870 308.987 870 288 870 267.013 852.987 250 832 250Z" fill-rule="evenodd"/></g></svg>