<svg xmlns="http://www.w3.org/2000/svg" width="28" height="28.001" viewBox="0 0 28 28.001"><defs><style>.a{fill:rgba(87,74,226,0.71);}</style></defs><path class="a" d="M12.983,2.155,7.3,3.467a1.321,1.321,0,0,1-1.5-.76L3.166-3.418a1.309,1.309,0,0,1,.377-1.531L6.858-7.662a20.268,20.268,0,0,0-9.691-9.691l-2.713,3.314a1.311,1.311,0,0,1-1.531.377L-13.2-16.286a1.328,1.328,0,0,1-.766-1.509l1.312-5.687a1.312,1.312,0,0,1,1.28-1.017A25.372,25.372,0,0,1,14,.875,1.311,1.311,0,0,1,12.983,2.155Z" transform="translate(14 3.501) rotate(180)"/></svg>