<svg xmlns="http://www.w3.org/2000/svg" width="21" height="28" viewBox="0 0 21 28"><defs><style>.a{fill:#001489;}</style></defs><path class="a" d="M-3.938-20.562A3.938,3.938,0,0,0,0-16.625a3.938,3.938,0,0,0,3.937-3.937A3.937,3.937,0,0,0,0-24.5,3.937,3.937,0,0,0-3.938-20.562Zm13.925.075a1.75,1.75,0,0,0-2.475,0L2.775-15.75h-5.55l-4.737-4.737a1.75,1.75,0,0,0-2.475,0,1.75,1.75,0,0,0,0,2.475l5.175,5.175V1.75A1.75,1.75,0,0,0-3.063,3.5h.875A1.75,1.75,0,0,0-.438,1.75V-4.375H.437V1.75A1.75,1.75,0,0,0,2.187,3.5h.875a1.75,1.75,0,0,0,1.75-1.75V-12.838l5.175-5.175A1.75,1.75,0,0,0,9.987-20.487Z" transform="translate(10.5 24.5)"/></svg>