<svg width="275" height="248" xmlns="http://www.w3.org/2000/svg" xmlns:xlink="http://www.w3.org/1999/xlink" overflow="hidden"><defs><clipPath id="clip0"><rect x="1732" y="823" width="275" height="248"/></clipPath></defs><g clip-path="url(#clip0)" transform="translate(-1732 -823)"><path d="M1766.71 1042.84 1773.61 919.089 1787.34 919.855 1780.44 1043.61Z" fill="#574AE2" fill-rule="evenodd"/><path d="M1852.31 916.971C1852.18 914.416 1851.11 911.999 1849.3 910.189L1835.06 895.926 1835.06 890.935C1838.33 889.064 1839.47 884.89 1837.6 881.612 1836.99 880.551 1836.11 879.671 1835.06 879.065L1835.06 871.222C1835.05 870.38 1834.89 869.547 1834.58 868.763 1836.78 867.431 1838.62 865.591 1839.96 863.4 1842.7 858.955 1844.29 853.893 1844.59 848.675 1844.59 840.956 1839.81 823 1795.5 823 1751.19 823 1746.41 840.956 1746.41 848.675 1746.71 853.894 1748.3 858.956 1751.05 863.4 1752.39 865.591 1754.23 867.43 1756.42 868.763 1756.11 869.547 1755.95 870.38 1755.95 871.222L1755.95 879.065C1752.68 880.936 1751.54 885.11 1753.4 888.388 1754.01 889.449 1754.89 890.329 1755.95 890.935L1755.95 895.926 1741.7 910.189C1739.89 912.001 1738.82 914.422 1738.69 916.982L1732.01 1050.75C1731.78 1055.5 1734.81 1059.79 1739.36 1061.16L1769.23 1070.11C1771.15 1070.7 1773.15 1071 1775.16 1071L1815.84 1071C1817.85 1071 1819.85 1070.71 1821.77 1070.13L1851.65 1061.15C1856.2 1059.78 1859.22 1055.49 1858.99 1050.74ZM1821.3 871.222 1821.3 878.111 1769.71 878.111 1769.71 871.222ZM1817.81 1056.93C1817.17 1057.13 1816.51 1057.22 1815.84 1057.22L1775.16 1057.22C1774.49 1057.22 1773.83 1057.12 1773.19 1056.93L1745.89 1048.73 1752.37 918.997 1769.71 901.63 1769.71 891.889 1821.3 891.889 1821.3 901.63 1838.64 918.997 1845.11 1048.73Z" fill="#574AE2" fill-rule="evenodd"/><path d="M1804.54 919.851 1818.27 919.089 1825.14 1042.84 1811.41 1043.6Z" fill="#574AE2" fill-rule="evenodd"/><path d="M2000.31 916.971C2000.18 914.416 1999.11 911.999 1997.3 910.189L1983.05 895.926 1983.05 890.935C1986.33 889.064 1987.47 884.89 1985.6 881.612 1984.99 880.551 1984.11 879.671 1983.05 879.065L1983.05 871.222C1983.05 870.38 1982.89 869.547 1982.58 868.763 1984.78 867.431 1986.62 865.591 1987.96 863.4 1990.7 858.955 1992.29 853.893 1992.59 848.675 1992.59 840.956 1987.81 823 1943.5 823 1899.19 823 1894.41 840.956 1894.41 848.675 1894.71 853.894 1896.3 858.956 1899.05 863.4 1900.38 865.591 1902.23 867.43 1904.42 868.763 1904.11 869.547 1903.95 870.38 1903.95 871.222L1903.95 879.065C1900.67 880.936 1899.53 885.11 1901.4 888.388 1902.01 889.449 1902.89 890.329 1903.95 890.935L1903.95 895.926 1889.7 910.189C1887.89 912.001 1886.82 914.422 1886.69 916.982L1880.01 1050.73C1879.77 1055.49 1882.8 1059.79 1887.36 1061.16L1917.23 1070.11C1919.15 1070.7 1921.15 1071 1923.16 1071L1963.84 1071C1965.85 1071 1967.84 1070.71 1969.77 1070.13L1999.65 1061.15C2004.2 1059.78 2007.22 1055.49 2006.99 1050.74ZM1917.7 871.222 1969.3 871.222 1969.3 878.111 1917.7 878.111ZM1926.3 1043.73 1915.98 1043.16 1922.86 919.158 1933.18 919.73ZM1960.7 1043.73 1953.82 919.73 1964.14 919.158 1971.02 1043.16Z" fill="#574AE2" fill-rule="evenodd"/></g></svg>