<svg width="96" height="96" xmlns="http://www.w3.org/2000/svg" xmlns:xlink="http://www.w3.org/1999/xlink" overflow="hidden"><defs><clipPath id="clip0"><rect x="132" y="49" width="96" height="96"/></clipPath></defs><g clip-path="url(#clip0)" transform="translate(-132 -49)"><path d="M150 124.889 152.007 88.8887 156 89.1114 153.993 125.111Z" fill="#3BA0DB"/><path d="M175.017 88.282C174.979 87.54 174.667 86.8383 174.142 86.313L170 82.172 170 80.723C170.952 80.1798 171.283 78.968 170.739 78.0164 170.564 77.7082 170.308 77.4529 170 77.277L170 75C169.999 74.7556 169.952 74.5136 169.863 74.286 170.501 73.8992 171.036 73.3653 171.425 72.729 172.223 71.4384 172.686 69.9689 172.772 68.454 172.772 66.213 171.382 61 158.5 61 145.618 61 144.228 66.213 144.228 68.454 144.314 69.9691 144.777 71.4387 145.576 72.729 145.965 73.3652 146.5 73.8991 147.137 74.286 147.048 74.5136 147.001 74.7556 147 75L147 77.277C146.048 77.8202 145.717 79.032 146.261 79.9836 146.436 80.2918 146.692 80.5471 147 80.723L147 82.172 142.858 86.313C142.332 86.8391 142.02 87.5419 141.983 88.285L140.041 127.12C139.973 128.499 140.854 129.746 142.177 130.142L150.861 132.742C151.421 132.912 152.002 132.999 152.587 133L164.413 133C164.997 133 165.578 132.915 166.137 132.747L174.825 130.141C176.147 129.744 177.027 128.496 176.958 127.118ZM166 75 166 77 151 77 151 75ZM164.986 128.916C164.8 128.972 164.607 129 164.413 129L152.587 129C152.392 129 152.198 128.972 152.012 128.915L144.076 126.535 145.959 88.87 151 83.828 151 81 166 81 166 83.828 171.041 88.87 172.924 126.535Z" fill="#3BA0DB"/><path d="M161.003 89.1103 164.997 88.8884 166.997 124.889 163.003 125.111Z" fill="#3BA0DB"/><path d="M218.017 88.282C217.979 87.54 217.667 86.8383 217.142 86.313L213 82.172 213 80.723C213.952 80.1798 214.283 78.968 213.739 78.0164 213.564 77.7082 213.308 77.4529 213 77.277L213 75C212.999 74.7556 212.952 74.5136 212.863 74.286 213.501 73.8992 214.036 73.3653 214.425 72.729 215.223 71.4384 215.686 69.9689 215.772 68.454 215.772 66.213 214.382 61 201.5 61 188.618 61 187.228 66.213 187.228 68.454 187.314 69.9691 187.777 71.4387 188.576 72.729 188.965 73.3652 189.5 73.8991 190.137 74.286 190.048 74.5136 190.001 74.7556 190 75L190 77.277C189.048 77.8202 188.717 79.032 189.261 79.9836 189.436 80.2918 189.692 80.5471 190 80.723L190 82.172 185.858 86.313C185.332 86.8391 185.02 87.5419 184.983 88.285L183.042 127.116C182.972 128.496 183.853 129.745 185.177 130.142L193.861 132.742C194.421 132.912 195.002 132.999 195.587 133L207.413 133C207.997 133 208.578 132.915 209.137 132.747L217.825 130.141C219.147 129.744 220.027 128.496 219.958 127.118ZM194 75 209 75 209 77 194 77ZM196.5 125.083 193.5 124.917 195.5 88.917 198.5 89.083ZM206.5 125.083 204.5 89.083 207.5 88.917 209.5 124.917Z" fill="#3BA0DB"/></g></svg>