<svg width="81" height="55" xmlns="http://www.w3.org/2000/svg" xmlns:xlink="http://www.w3.org/1999/xlink" overflow="hidden"><defs><clipPath id="clip0"><rect x="98" y="519" width="81" height="55"/></clipPath></defs><g clip-path="url(#clip0)" transform="translate(-98 -519)"><path d="M142 542 163 542C164.7 542 166 540.7 166 539 166 537.3 164.7 536 163 536L117 536C115.3 536 114 537.3 114 539 114 540.7 115.3 542 117 542L136 542 136 567 130 567 130 573 148 573 148 567 142 567 142 542Z" fill="rgba(87,74,226,0.71)" fill-rule="evenodd"/><path d="M126.01 550 107.671 550 104.98 522.7 104.98 522.7C104.781 521.2 103.585 520 101.99 520 100.296 520 99 521.3 99 523 99 523.1 99 523.2 99 523.3L99 523.3 101.99 552.9 99.0997 573 105.179 573 106.176 566 119.93 566 119.93 573 125.91 573 125.91 556 126.01 556C127.704 556 129 554.7 129 553 129 551.3 127.605 550 126.01 550ZM119.93 562 106.674 562 107.571 556 119.93 556 119.93 562Z" fill="rgba(87,74,226,0.71)" fill-rule="evenodd"/><path d="M179 523.3C179 523.2 179 523.1 179 523 179 521.3 177.704 520 176.01 520 174.515 520 173.219 521.2 173.02 522.7L173.02 522.7 170.329 550 151.99 550C150.296 550 149 551.3 149 553 149 554.7 150.296 556 151.99 556L152.09 556 152.09 573 158.07 573 158.07 566 171.824 566 172.821 573 178.9 573 176.01 552.9 179 523.3 179 523.3ZM158.07 562 158.07 556 170.429 556 171.326 562 158.07 562Z" fill="rgba(87,74,226,0.71)" fill-rule="evenodd"/></g></svg>