<svg xmlns="http://www.w3.org/2000/svg" width="22.75" height="28" viewBox="0 0 22.75 28"><defs><style>.a{fill:#001489;}</style></defs><path class="a" d="M-.005-23.669c-.175-1.11-2.483-1.121-2.625.06v7.722c-.066.186-.826.175-.875,0-.077-1.384-.427-7.607-.437-7.755-.175-1.137-2.439-1.137-2.62,0-.005.142-.361,6.371-.437,7.755-.049.175-.8.186-.875,0v-7.722c-.142-1.187-2.445-1.17-2.62-.06a66.67,66.67,0,0,0-.88,7.044A5.764,5.764,0,0,0-7.607-10.9L-8.313,2.116A1.316,1.316,0,0,0-7,3.5h3.5A1.316,1.316,0,0,0-2.188,2.116L-2.893-10.9a5.766,5.766,0,0,0,3.768-5.72A66.869,66.869,0,0,0-.005-23.669ZM6.513-8.044,5.693,2.078A1.312,1.312,0,0,0,7,3.5h3.062a1.309,1.309,0,0,0,1.312-1.312V-23.187A1.313,1.313,0,0,0,10.062-24.5C5.551-24.5-2.045-14.738,6.513-8.044Z" transform="translate(11.375 24.5)"/></svg>