<svg width="677" height="536" xmlns="http://www.w3.org/2000/svg" xmlns:xlink="http://www.w3.org/1999/xlink" overflow="hidden"><defs><clipPath id="clip0"><rect x="127" y="221" width="677" height="536"/></clipPath><clipPath id="clip1"><rect x="268" y="221" width="537" height="536"/></clipPath><clipPath id="clip2"><rect x="268" y="221" width="537" height="536"/></clipPath><clipPath id="clip3"><rect x="268" y="221" width="537" height="536"/></clipPath><clipPath id="clip4"><rect x="129" y="348" width="282" height="282"/></clipPath><clipPath id="clip5"><rect x="129" y="348" width="282" height="282"/></clipPath><clipPath id="clip6"><rect x="129" y="348" width="282" height="282"/></clipPath></defs><g clip-path="url(#clip0)" transform="translate(-127 -221)"><g clip-path="url(#clip1)"><g clip-path="url(#clip2)"><g clip-path="url(#clip3)"><path d="M625.333 600.667 625.333 556 435.5 556C429.358 556 424.333 550.975 424.333 544.833L424.333 433.167C424.333 427.025 429.358 422 435.5 422L625.333 422 625.333 377.333C625.333 365.05 615.283 355 603 355L583.458 355C581.783 355 580.667 353.883 580.667 352.208L580.667 335.458C580.667 333.783 581.783 332.667 583.458 332.667L597.417 332.667C600.767 332.667 603 330.433 603 327.083L603 288C603 275.717 592.95 265.667 580.667 265.667L424.333 265.667C412.05 265.667 402 275.717 402 288L402 327.083C402 330.433 404.233 332.667 407.583 332.667L421.542 332.667C423.217 332.667 424.333 333.783 424.333 335.458L424.333 352.208C424.333 353.883 423.217 355 421.542 355L402 355C389.717 355 379.667 365.05 379.667 377.333L379.667 645.333C379.667 657.617 389.717 667.667 402 667.667L480.167 667.667C480.167 630.817 510.317 600.667 547.167 600.667L625.333 600.667Z" fill="#3BA0DB"/><path d="M446.667 449.917 446.667 528.083C446.667 531.433 448.9 533.667 452.25 533.667L625.333 533.667 625.333 444.333 452.25 444.333C448.9 444.333 446.667 446.567 446.667 449.917Z" fill="#3BA0DB"/><path d="M597.417 690 547.167 690C534.883 690 524.833 679.95 524.833 667.667 524.833 655.383 534.883 645.333 547.167 645.333L597.417 645.333 597.417 690ZM647.667 623 547.167 623C522.6 623 502.5 643.1 502.5 667.667 502.5 692.233 522.6 712.333 547.167 712.333L647.667 712.333C672.233 712.333 692.333 692.233 692.333 667.667 692.333 643.1 672.233 623 647.667 623Z" fill="#3BA0DB"/></g></g></g><path d="M127 488.5C127 411.456 189.68 349 267 349 344.32 349 407 411.456 407 488.5 407 565.544 344.32 628 267 628 189.68 628 127 565.544 127 488.5Z" fill="#FFFFFF" fill-rule="evenodd"/><g clip-path="url(#clip4)"><g clip-path="url(#clip5)"><g clip-path="url(#clip6)"><path d="M270 378.167C208.75 378.167 159.167 427.75 159.167 489 159.167 550.25 208.75 599.833 270 599.833 331.25 599.833 380.833 550.25 380.833 489 380.833 427.75 331.25 378.167 270 378.167ZM205.833 471.5C205.833 461.875 213.708 454 223.333 454 232.958 454 240.833 461.875 240.833 471.5 240.833 481.125 232.958 489 223.333 489 213.708 489 205.833 481.125 205.833 471.5ZM327.75 536.25C314.333 553.75 293.625 564.833 270 564.833 246.375 564.833 225.667 553.75 212.25 536.25 211.667 535.375 211.083 534.208 211.083 532.75 211.083 529.542 213.708 526.917 216.917 526.917 218.958 526.917 220.708 527.792 221.583 529.25 232.667 543.833 250.167 552.875 270 552.875 289.833 552.875 307.042 543.833 318.417 529.25 319.583 527.792 321.333 526.917 323.083 526.917 326.292 526.917 328.917 529.542 328.917 532.75 328.917 534.208 328.333 535.375 327.75 536.25ZM316.667 489C307.042 489 299.167 481.125 299.167 471.5 299.167 461.875 307.042 454 316.667 454 326.292 454 334.167 461.875 334.167 471.5 334.167 481.125 326.292 489 316.667 489Z" fill="#3BA0DB"/></g></g></g></g></svg>