<svg viewBox="0 0 96 96" xmlns="http://www.w3.org/2000/svg" xmlns:xlink="http://www.w3.org/1999/xlink" id="Icons_PackingBoxOpen" overflow="hidden"><path d="M47.991 21.626 22.193 37.116 47.996 52.662 73.794 37.172 47.991 21.626Z" fill="#1e91d6"/><path d="M34.668 69.996 19.797 60.983 19.797 72.064 46.479 88.237 46.479 59.269 34.668 69.996Z" fill="#1e91d6"/><path d="M61.3 70 49.5 59.276 49.5 88.237 76.182 72.064 76.182 60.977ZM58.967 78.093 52.942 81.536 52.942 75.507 58.967 72.064Z" fill="#1e91d6"/><path d="M46.473 19.039 34.309 7.99 7.459 24.264 19.507 35.23 46.473 19.039Z" fill="#1e91d6"/><path d="M76.432 35.259 88.512 24.264 61.661 7.99 49.502 19.034 76.432 35.259Z" fill="#1e91d6"/><path d="M19.527 39.012 7.459 49.997 34.309 66.27 46.456 55.237 19.527 39.012Z" fill="#1e91d6"/><path d="M49.523 55.245 61.661 66.27 88.512 49.997 76.489 39.053 49.523 55.245Z" fill="#1e91d6"/></svg>