<svg width="28" height="28.001" viewBox="0 0 28 28.001" xmlns="http://www.w3.org/2000/svg" xmlns:xlink="http://www.w3.org/1999/xlink" overflow="hidden"><defs></defs><path d="M12.983 2.155 7.3 3.467C6.6825 3.6057 6.05339 3.28695 5.8 2.707L3.166-3.418C2.93574-3.95527 3.0896-4.58008 3.543-4.949L6.858-7.662C4.85097-11.9196 1.42464-15.346-2.833-17.353L-5.546-14.039C-5.9153-13.5862-6.53968-13.4324-7.077-13.662L-13.2-16.286C-13.7843-16.5401-14.1057-17.1734-13.966-17.795L-12.654-23.482C-12.5165-24.0779-11.9855-24.4997-11.374-24.499 2.63857-24.5001 13.9989-13.1416 14 0.870999 14 0.872333 14 0.873666 14 0.874999 14.0011 1.48667 13.5791 2.01783 12.983 2.155Z" fill="#25AC10" transform="matrix(-1 1.22465e-16 -1.22465e-16 -1 14 3.501)"/></svg>