<svg width="173" height="124" xmlns="http://www.w3.org/2000/svg" xmlns:xlink="http://www.w3.org/1999/xlink" overflow="hidden"><defs><clipPath id="clip0"><rect x="1045" y="563" width="173" height="124"/></clipPath></defs><g clip-path="url(#clip0)" transform="translate(-1045 -563)"><path d="M1134.97 686C1136.28 685.813 1137.41 685.625 1138.54 685.251 1150.78 680.753 1162.64 675.319 1173.94 668.761 1200.68 653.958 1203.88 646.275 1203.69 641.216 1203.5 638.218 1201.81 632.971 1192.02 631.285 1182.98 629.786 1175.82 629.036 1169.8 628.662L1167.16 628.474 1169.23 626.975C1186.74 614.046 1213.86 599.243 1214.99 598.493 1216.87 597.556 1218 595.683 1218 593.621 1218 590.436 1215.36 588 1212.35 588 1211.41 588 1210.47 588.187 1209.72 588.75 1208.21 589.499 1173.56 608.424 1155.87 623.228 1152.67 626.038 1149.28 629.224 1150.78 633.721 1152.29 638.405 1156.81 638.968 1166.22 639.717 1172.06 640.092 1179.97 640.841 1189.76 642.34L1191.64 642.715 1190.32 644.027C1181.85 652.084 1150.78 670.448 1133.84 674.945 1133.46 675.132 1133.08 675.132 1132.9 675.319L1125.36 665.013C1127.62 662.765 1126.68 660.704 1125.36 658.83L1105.97 632.034 1083 654.895 1110.49 674.008C1112.37 675.319 1114.63 676.256 1116.51 674.008L1132.33 685.438C1132.9 685.813 1133.46 686 1134.03 686L1134.97 686Z" fill="#1E91D6" fill-rule="evenodd"/><path d="M1045 564 1045 622.251 1077.65 651 1102 626.948Z" fill="#1E91D6" fill-rule="evenodd"/></g></svg>