<svg xmlns="http://www.w3.org/2000/svg" width="22" height="29" viewBox="0 0 22 29"><defs><style>.a{fill:#1e91d6;stroke:rgba(0,0,0,0);}</style></defs><path class="a" d="M9.187-24.5H-9.188A1.316,1.316,0,0,0-10.5-23.187v2.625A1.316,1.316,0,0,0-9.188-19.25H9.187A1.316,1.316,0,0,0,10.5-20.562v-2.625A1.316,1.316,0,0,0,9.187-24.5ZM-8.75,1.75A1.755,1.755,0,0,0-7,3.5H7A1.755,1.755,0,0,0,8.75,1.75V-17.5H-8.75Zm3.5-10.062a.439.439,0,0,1,.437-.437H-1.75v-3.062a.439.439,0,0,1,.437-.437H1.312a.439.439,0,0,1,.437.437V-8.75H4.812a.439.439,0,0,1,.438.437v2.625a.439.439,0,0,1-.437.437H1.75v3.062a.439.439,0,0,1-.437.437H-1.313a.439.439,0,0,1-.437-.437V-5.25H-4.813a.439.439,0,0,1-.437-.437Z" transform="translate(11 25)"/></svg>