<svg viewBox="0 0 96 96" xmlns="http://www.w3.org/2000/svg" xmlns:xlink="http://www.w3.org/1999/xlink" id="Icons_Printer" overflow="hidden"><path d="M66 62.5 65.9 82.5 30.2 82.5 30 62.5 66 62.5ZM24.2 88.5 71.8 88.5 71.9 56.5 24 56.5 24.2 88.5Z" fill="#131614"/><rect x="38" y="66.5" width="20" height="4" fill="#404040"/><rect x="38" y="74.5" width="20" height="4" fill="#404040"/><path d="M66 37 30 37 30 14 52 14 52 28 66 28 66 37ZM58 14.4 64.9 22 58 22 58 14.4ZM14 42C11.8 42 10 40.2 10 38 10 35.8 11.8 34 14 34 16.2 34 18 35.8 18 38 18 40.2 16.2 42 14 42ZM88 28 72 28 72 20.8 60.3 8 24 8 24 28 8 28C5.8 28 4 29.8 4 32L4 72C4 74.2 5.8 76 8 76L20 76 20 53 76 53 76 76 88 76C90.2 76 92 74.2 92 72L92 32C92 29.8 90.2 28 88 28Z" fill="#131614"/></svg>