<?xml version="1.0" encoding="utf-8"?>
<!-- Generator: Adobe Illustrator 25.3.1, SVG Export Plug-In . SVG Version: 6.00 Build 0)  -->
<svg version="1.1" id="Layer_1" xmlns="http://www.w3.org/2000/svg" xmlns:xlink="http://www.w3.org/1999/xlink" x="0px" y="0px"
	 viewBox="0 0 595.3 841.9" style="enable-background:new 0 0 595.3 841.9;" xml:space="preserve">
<style type="text/css">
	.st0{fill-rule:evenodd;clip-rule:evenodd;fill:#28306D;}
</style>
<path class="st0" d="M284.5,443.2c-6.9,0.2-9.5-8.7-4.5-13.9l0.7-0.7c5.1-4.9,14.3-2.6,14.1,4.3c-0.1,4,4.6,8.8,7.5,6l12-12
	L296.4,409c-2.8-2.8,2-7.6,6-7.5c6.9,0.2,9.2-8.9,4.3-14.1l-0.7-0.7c-5.1-4.9-14.1-2.4-13.9,4.5c0.1,4-4.6,8.8-7.5,6l-17.9-17.9
	l-12.1,12c-2.8,2.8,2,7.6,6,7.5c6.9-0.2,9.5,8.7,4.5,13.9l-0.7,0.7c-5.1,4.9-14.3,2.6-14.1-4.3c0.1-4-4.6-8.8-7.5-6L230.2,416
	l17.8,17.8c2.8,2.8-2,7.6-6,7.5c-6.9-0.2-9.2,8.9-4.3,14.1l0.7,0.7c5.1,4.9,14.1,2.4,13.9-4.5c-0.1-4,4.6-8.8,7.5-6l17.8,17.9
	l12.8-12.8C293.3,447.8,288.6,443.1,284.5,443.2z"/>
</svg>
