<svg width="135" height="135" xmlns="http://www.w3.org/2000/svg" xmlns:xlink="http://www.w3.org/1999/xlink" overflow="hidden"><defs><clipPath id="clip0"><rect x="135" y="127" width="135" height="135"/></clipPath></defs><g clip-path="url(#clip0)" transform="translate(-135 -127)"><path d="M218.953 220.797C209.672 221.078 206.297 209.125 212.906 202.234L213.891 201.25C220.781 194.641 233.016 197.734 232.734 207.016 232.594 212.359 238.922 218.828 242.719 215.031L258.75 199 234.844 175.094C231.047 171.297 237.516 164.969 242.859 165.109 252.141 165.391 255.234 153.156 248.625 146.266L247.641 145.281C240.75 138.672 228.797 142.047 229.078 151.328 229.219 156.672 222.891 163.141 219.094 159.344L195.188 135.438 179.016 151.469C175.219 155.266 181.688 161.594 187.031 161.453 196.312 161.172 199.688 173.125 193.078 180.016L192.094 181C185.203 187.609 172.969 184.516 173.25 175.234 173.391 169.891 167.062 163.422 163.266 167.219L146.25 184.375 170.156 208.281C173.953 212.078 167.484 218.406 162.141 218.266 152.859 217.984 149.766 230.219 156.375 237.109L157.359 238.094C164.25 244.703 176.203 241.328 175.922 232.047 175.781 226.703 182.109 220.234 185.906 224.031L209.812 247.938 226.969 230.781C230.766 226.984 224.438 220.656 218.953 220.797Z" fill="#000787"/></g></svg>