<svg width="71" height="77" xmlns="http://www.w3.org/2000/svg" xmlns:xlink="http://www.w3.org/1999/xlink" overflow="hidden"><defs><clipPath id="clip0"><rect x="190" y="336" width="71" height="77"/></clipPath></defs><g clip-path="url(#clip0)" transform="translate(-190 -336)"><path d="M191 360 191 339 197.7 345.7C204.4 339.7 213.3 336 223 336 244 336 261 353 261 374 261 395 244 412 223 412 212.5 412 203 407.7 196.1 400.9L204.6 392.4C209.3 397.1 215.8 400 223 400 237.3 400 249 388.3 249 374 249 359.7 237.3 348 223 348 216.6 348 210.7 350.3 206.2 354.2L212 360 191 360Z" fill="#001489" fill-rule="evenodd"/></g></svg>