<svg xmlns="http://www.w3.org/2000/svg" width="44.016" height="30.324" viewBox="0 0 44.016 30.324"><defs><style>.a{fill:#fff;}</style></defs><path class="a" d="M14.12,66.6a4.472,4.472,0,1,0-4.473-4.472A4.477,4.477,0,0,0,14.12,66.6Zm0-6.807a2.335,2.335,0,1,1-2.335,2.335A2.337,2.337,0,0,1,14.12,59.788ZM28.79,66.6a4.472,4.472,0,1,0-4.472-4.472A4.477,4.477,0,0,0,28.79,66.6Zm0-6.807a2.335,2.335,0,1,1-2.335,2.335A2.337,2.337,0,0,1,28.79,59.788ZM20.752,76.377l1.631-3.78c.775-1.8,2.17-4.181,5.324-4.181h2.164c3.154,0,4.549,2.386,5.324,4.181l1.632,3.78a1.069,1.069,0,0,1-1.962.847l-1.632-3.78c-.887-2.054-1.861-2.891-3.362-2.891H27.708c-1.5,0-2.475.838-3.362,2.891l-1.631,3.779a1.069,1.069,0,1,1-1.963-.847ZM43.989,80.02A2.461,2.461,0,0,1,42.9,81.657c-1.476,1.05-4.46,1.48-8.092,1.48A79.224,79.224,0,0,1,21.23,81.755,73.7,73.7,0,0,1,6.516,77.625C2.043,75.735.008,73.916.294,72.062c.3-1.979,3.027-2.517,3.922-2.694a1.069,1.069,0,1,1,.414,2.1c-1.987.393-2.223.917-2.224.922-.032.209.664,1.365,4.323,3l1.2-2.789c.775-1.8,2.17-4.181,5.324-4.181h2.164A4.969,4.969,0,0,1,19.4,70.3a1.069,1.069,0,1,1-1.645,1.364,2.847,2.847,0,0,0-2.337-1.112H13.258c-1.5,0-2.475.838-3.362,2.891L8.706,76.2a75.953,75.953,0,0,0,12.91,3.453c10.537,1.934,18.19,1.578,20.041.262.171-.122.217-.206.219-.22s-.027-.57-1.712-1.637a1.069,1.069,0,0,1,1.143-1.806C43.308,77.518,44.185,78.751,43.989,80.02ZM42.58,84.565a1.069,1.069,0,0,1,.048,1.511c-1.267,1.35-4.513,1.9-8.592,1.9a78.878,78.878,0,0,1-13.551-1.389C10.581,84.769,2.445,81.72.239,79A1.069,1.069,0,0,1,1.9,77.654c1.586,1.955,8.612,4.929,18.973,6.831,11.824,2.17,19.043,1.36,20.2.128A1.069,1.069,0,0,1,42.58,84.565Z" transform="translate(0 -57.651)"/></svg>