<svg xmlns="http://www.w3.org/2000/svg" width="19.993" height="24.874" viewBox="0 0 19.993 24.874"><defs><style>.a{fill:#fff;}</style></defs><path class="a" d="M35.416,68.654a5.5,5.5,0,1,0-5.5-5.5A5.508,5.508,0,0,0,35.416,68.654Zm0-8.374a2.872,2.872,0,1,1-2.872,2.872A2.875,2.875,0,0,1,35.416,60.281ZM25.527,80.689l2.007-4.65c.954-2.208,2.67-5.144,6.55-5.144h2.663c3.88,0,5.6,2.936,6.55,5.144l2.007,4.65a1.315,1.315,0,0,1-2.414,1.042l-2.007-4.65c-1.091-2.526-2.289-3.557-4.136-3.557H34.085c-1.847,0-3.045,1.03-4.136,3.557l-2.007,4.65a1.315,1.315,0,1,1-2.414-1.042Z" transform="translate(-25.419 -57.651)"/></svg>