<svg viewBox="0 0 61 69" xmlns="http://www.w3.org/2000/svg" xmlns:xlink="http://www.w3.org/1999/xlink" overflow="hidden"><defs><clipPath id="clip0"><rect x="449" y="26" width="61" height="69"/></clipPath></defs><g clip-path="url(#clip0)" transform="translate(-449 -26)"><path d="M507.999 74.3 503.531 71.7001 507.006 70.8C508.099 70.5 508.694 69.4 508.396 68.4 508.099 67.4 507.006 66.7001 506.013 67L498.665 69 495.785 67.3 504.722 64.9001C505.815 64.6 506.41 63.5 506.113 62.5 505.815 61.5 504.722 60.8 503.729 61.1001L490.92 64.5 487.146 62.3001C487.345 61.6 487.444 60.9001 487.444 60.2 487.444 59.5 487.345 58.7001 487.146 58.1001L490.92 55.9001 503.729 59.3001C503.928 59.3001 504.027 59.4 504.226 59.4 505.12 59.4 505.914 58.8 506.113 57.9001 506.41 56.8 505.815 55.7001 504.722 55.5001L495.785 53.0999 498.665 51.4 506.013 53.4C506.212 53.4 506.311 53.5001 506.51 53.5001 507.403 53.5001 508.198 52.9001 508.396 52 508.694 50.9001 508.099 49.8 507.006 49.6L503.531 48.7001 507.999 46.0999C508.992 45.5001 509.29 44.3001 508.694 43.4 508.099 42.4 506.907 42.1001 506.013 42.7001L501.545 45.3001 502.438 41.8C502.736 40.7001 502.141 39.6 501.048 39.4 499.956 39.1001 498.864 39.7001 498.665 40.8L496.679 48.2 493.799 49.9001 496.182 40.9001C496.48 39.8 495.885 38.7001 494.792 38.5001 493.7 38.2 492.608 38.8 492.409 39.9001L489.033 52.8 485.259 55C484.266 54 482.976 53.2 481.585 52.9001L481.585 48.5001 490.92 39.1001C491.714 38.2999 491.714 37.1001 490.92 36.2999 490.125 35.5001 488.934 35.5001 488.139 36.2999L481.486 42.2 481.486 38.9001 486.848 33.5001C487.643 32.7001 487.643 31.5001 486.848 30.7001 486.054 29.8999 484.862 29.8999 484.068 30.7001L481.486 33.2 481.486 28C481.486 26.8999 480.592 26 479.5 26 478.408 26 477.514 26.8999 477.514 28L477.514 33.2 474.932 30.6C474.138 29.8 472.946 29.8 472.152 30.6 471.357 31.4 471.357 32.6 472.152 33.4L477.514 38.8 477.514 42.1001 470.96 35.5001C470.166 34.7001 468.974 34.7001 468.18 35.5001 467.385 36.2999 467.385 37.5001 468.18 38.2999L477.514 47.7001 477.514 52.0999C476.124 52.5001 474.833 53.2 473.84 54.2L470.066 52 466.591 39.2999C466.293 38.2 465.201 37.6 464.208 37.9001 463.115 38.2 462.52 39.2999 462.818 40.3001L465.201 49.3001 462.321 47.6 460.335 40.2C460.037 39.1001 458.945 38.5001 457.952 38.8 456.859 39.1001 456.264 40.2 456.562 41.2L457.455 44.7001 452.987 42.1001C451.994 41.5001 450.802 41.9001 450.306 42.8 449.71 43.8 450.107 45 451.001 45.5001L455.469 48.0999 451.994 49C450.901 49.3001 450.306 50.4 450.604 51.4 450.802 52.3 451.597 52.9001 452.49 52.9001 452.689 52.9001 452.788 52.9001 452.987 52.8L460.335 50.8 463.215 52.5001 454.278 54.9001C453.185 55.2 452.59 56.3 452.887 57.3 453.086 58.2 453.88 58.8 454.774 58.8 454.973 58.8 455.072 58.8 455.271 58.7001L468.081 55.3 471.854 57.5001C471.655 58.5 471.556 59.3001 471.556 60 471.556 60.7001 471.655 61.5 471.854 62.1001L468.081 64.3 455.271 60.9001C454.178 60.6 453.086 61.2 452.887 62.3001 452.689 63.4 453.185 64.5 454.278 64.7001L463.215 67.1001 460.335 68.8 452.987 66.8C451.894 66.5 450.802 67.1001 450.604 68.2 450.405 69.3 450.901 70.4 451.994 70.6L455.469 71.5 451.001 74.1001C450.008 74.7001 449.71 75.9001 450.306 76.8 450.703 77.4 451.299 77.8 451.994 77.8 452.292 77.8 452.689 77.7 452.987 77.5L457.455 74.9001 456.562 78.4C456.264 79.5 456.859 80.6 457.952 80.8 458.15 80.8 458.25 80.9001 458.448 80.9001 459.342 80.9001 460.136 80.3 460.335 79.4L462.321 72 465.201 70.3 462.818 79.3C462.52 80.4 463.115 81.5 464.208 81.7001 464.406 81.7001 464.506 81.8 464.704 81.8 465.598 81.8 466.392 81.2 466.591 80.3L469.967 67.4 473.741 65.2C474.734 66.2 476.025 67 477.415 67.3L477.415 71.7001 468.081 81.1001C467.286 81.9001 467.286 83.1001 468.081 83.9001 468.875 84.7001 470.066 84.7001 470.861 83.9001L477.415 77.3 477.415 80.6 472.053 86C471.258 86.8 471.258 88 472.053 88.8 472.847 89.6 474.039 89.6 474.833 88.8L477.415 86.2 477.415 92C477.415 93.1001 478.308 94 479.401 94 480.493 94 481.387 93.1001 481.387 92L481.387 86.8 483.969 89.4C484.465 89.8 484.962 90 485.458 90 485.955 90 486.451 89.8 486.848 89.4 487.643 88.6 487.643 87.4 486.848 86.6L481.486 81.2 481.486 77.9001 488.04 84.5C488.437 84.8 488.934 85 489.43 85 489.927 85 490.423 84.8 490.82 84.4 491.615 83.6 491.615 82.4 490.82 81.6L481.486 72.2 481.486 67.8C482.876 67.4 484.167 66.7001 485.16 65.7001L488.934 67.9001 492.409 80.7C492.608 81.6 493.402 82.2 494.296 82.2 494.494 82.2 494.594 82.2 494.792 82.1001 495.885 81.8 496.48 80.7 496.182 79.7L493.799 70.7001 496.679 72.4 498.665 79.8C498.864 80.7 499.658 81.3 500.552 81.3 500.75 81.3 500.85 81.3 501.048 81.2 502.141 80.9001 502.736 79.8 502.438 78.8L501.545 75.3 506.013 77.9001C506.311 78.1001 506.708 78.2 507.006 78.2 507.701 78.2 508.396 77.8 508.694 77.2 509.29 76 508.992 74.8 507.999 74.3Z" fill="#1E91D6" fill-rule="evenodd"/></g></svg>