<svg viewBox="0 0 96 96" xmlns="http://www.w3.org/2000/svg" xmlns:xlink="http://www.w3.org/1999/xlink" id="Icons_Snowflake" overflow="hidden"><path d="M76.7 62.3 72.2 59.7 75.7 58.8C76.8 58.5 77.4 57.4 77.1 56.4 76.8 55.4 75.7 54.7 74.7 55L67.3 57 64.4 55.3 73.4 52.9C74.5 52.6 75.1 51.5 74.8 50.5 74.5 49.5 73.4 48.8 72.4 49.1L59.5 52.5 55.7 50.3C55.9 49.6 56 48.9 56 48.2 56 47.5 55.9 46.7 55.7 46.1L59.5 43.9 72.4 47.3C72.6 47.3 72.7 47.4 72.9 47.4 73.8 47.4 74.6 46.8 74.8 45.9 75.1 44.8 74.5 43.7 73.4 43.5L64.4 41.1 67.3 39.4 74.7 41.4C74.9 41.4 75 41.5 75.2 41.5 76.1 41.5 76.9 40.9 77.1 40 77.4 38.9 76.8 37.8 75.7 37.6L72.2 36.7 76.7 34.1C77.7 33.5 78 32.3 77.4 31.4 76.8 30.4 75.6 30.1 74.7 30.7L70.2 33.3 71.1 29.8C71.4 28.7 70.8 27.6 69.7 27.4 68.6 27.1 67.5 27.7 67.3 28.8L65.3 36.2 62.4 37.9 64.8 28.9C65.1 27.8 64.5 26.7 63.4 26.5 62.3 26.2 61.2 26.8 61 27.9L57.6 40.8 53.8 43C52.8 42 51.5 41.2 50.1 40.9L50.1 36.5 59.5 27.1C60.3 26.3 60.3 25.1 59.5 24.3 58.7 23.5 57.5 23.5 56.7 24.3L50 30.2 50 26.9 55.4 21.5C56.2 20.7 56.2 19.5 55.4 18.7 54.6 17.9 53.4 17.9 52.6 18.7L50 21.2 50 16C50 14.9 49.1 14 48 14 46.9 14 46 14.9 46 16L46 21.2 43.4 18.6C42.6 17.8 41.4 17.8 40.6 18.6 39.8 19.4 39.8 20.6 40.6 21.4L46 26.8 46 30.1 39.4 23.5C38.6 22.7 37.4 22.7 36.6 23.5 35.8 24.3 35.8 25.5 36.6 26.3L46 35.7 46 40.1C44.6 40.5 43.3 41.2 42.3 42.2L38.5 40 35 27.3C34.7 26.2 33.6 25.6 32.6 25.9 31.5 26.2 30.9 27.3 31.2 28.3L33.6 37.3 30.7 35.6 28.7 28.2C28.4 27.1 27.3 26.5 26.3 26.8 25.2 27.1 24.6 28.2 24.9 29.2L25.8 32.7 21.3 30.1C20.3 29.5 19.1 29.9 18.6 30.8 18 31.8 18.4 33 19.3 33.5L23.8 36.1 20.3 37C19.2 37.3 18.6 38.4 18.9 39.4 19.1 40.3 19.9 40.9 20.8 40.9 21 40.9 21.1 40.9 21.3 40.8L28.7 38.8 31.6 40.5 22.6 42.9C21.5 43.2 20.9 44.3 21.2 45.3 21.4 46.2 22.2 46.8 23.1 46.8 23.3 46.8 23.4 46.8 23.6 46.7L36.5 43.3 40.3 45.5C40.1 46.5 40 47.3 40 48 40 48.7 40.1 49.5 40.3 50.1L36.5 52.3 23.6 48.9C22.5 48.6 21.4 49.2 21.2 50.3 21 51.4 21.5 52.5 22.6 52.7L31.6 55.1 28.7 56.8 21.3 54.8C20.2 54.5 19.1 55.1 18.9 56.2 18.7 57.3 19.2 58.4 20.3 58.6L23.8 59.5 19.3 62.1C18.3 62.7 18 63.9 18.6 64.8 19 65.4 19.6 65.8 20.3 65.8 20.6 65.8 21 65.7 21.3 65.5L25.8 62.9 24.9 66.4C24.6 67.5 25.2 68.6 26.3 68.8 26.5 68.8 26.6 68.9 26.8 68.9 27.7 68.9 28.5 68.3 28.7 67.4L30.7 60 33.6 58.3 31.2 67.3C30.9 68.4 31.5 69.5 32.6 69.7 32.8 69.7 32.9 69.8 33.1 69.8 34 69.8 34.8 69.2 35 68.3L38.4 55.4 42.2 53.2C43.2 54.2 44.5 55 45.9 55.3L45.9 59.7 36.5 69.1C35.7 69.9 35.7 71.1 36.5 71.9 37.3 72.7 38.5 72.7 39.3 71.9L45.9 65.3 45.9 68.6 40.5 74C39.7 74.8 39.7 76 40.5 76.8 41.3 77.6 42.5 77.6 43.3 76.8L45.9 74.2 45.9 80C45.9 81.1 46.8 82 47.9 82 49 82 49.9 81.1 49.9 80L49.9 74.8 52.5 77.4C53 77.8 53.5 78 54 78 54.5 78 55 77.8 55.4 77.4 56.2 76.6 56.2 75.4 55.4 74.6L50 69.2 50 65.9 56.6 72.5C57 72.8 57.5 73 58 73 58.5 73 59 72.8 59.4 72.4 60.2 71.6 60.2 70.4 59.4 69.6L50 60.2 50 55.8C51.4 55.4 52.7 54.7 53.7 53.7L57.5 55.9 61 68.7C61.2 69.6 62 70.2 62.9 70.2 63.1 70.2 63.2 70.2 63.4 70.1 64.5 69.8 65.1 68.7 64.8 67.7L62.4 58.7 65.3 60.4 67.3 67.8C67.5 68.7 68.3 69.3 69.2 69.3 69.4 69.3 69.5 69.3 69.7 69.2 70.8 68.9 71.4 67.8 71.1 66.8L70.2 63.3 74.7 65.9C75 66.1 75.4 66.2 75.7 66.2 76.4 66.2 77.1 65.8 77.4 65.2 78 64 77.7 62.8 76.7 62.3Z" fill="#1C90D6"/></svg>