<svg xmlns="http://www.w3.org/2000/svg" width="21" height="28" viewBox="0 0 21 28"><defs><style>.a{fill:rgba(87,74,226,0.71);}</style></defs><path class="a" d="M-5.177,3.225a1.08,1.08,0,0,0,.665.275,1.106,1.106,0,0,0,.5-.143L-.47,1.142a1.045,1.045,0,0,0,.442-.8A1.121,1.121,0,0,0-.1,0L-1.867-4.435a1.014,1.014,0,0,0-.873-.591c-.026,0-.068,0-.094,0l-3.052.305a14.527,14.527,0,0,1,0-9.817l3.052.305c.026,0,.068,0,.094,0a1.014,1.014,0,0,0,.873-.591L-.1-19.245a1.121,1.121,0,0,0,.067-.349,1.045,1.045,0,0,0-.442-.8l-3.545-2.216a.94.94,0,0,0-1.163.132A18.171,18.171,0,0,0-5.177,3.225Zm8.192-22.5a.659.659,0,0,0-1.024-.141l-.327.313a.661.661,0,0,0-.124.788,2.076,2.076,0,0,1,.2.819,2.076,2.076,0,0,1-.2.819.661.661,0,0,0,.124.788l.327.313a.659.659,0,0,0,1.024-.141A3.5,3.5,0,0,0,3.015-19.279Zm5.02-4.987a.659.659,0,0,0-.96-.051l-.317.3a.657.657,0,0,0-.051.9,8.762,8.762,0,0,1,0,11.234.658.658,0,0,0,.051.9l.317.3a.659.659,0,0,0,.96-.051A10.515,10.515,0,0,0,8.034-24.266ZM5.52-21.808a.659.659,0,0,0-.977-.071l-.318.305a.656.656,0,0,0-.07.871,5.257,5.257,0,0,1,0,6.406.656.656,0,0,0,.07.871l.318.305a.659.659,0,0,0,.977-.071A7.01,7.01,0,0,0,5.52-21.808Z" transform="translate(10.5 24.5)"/></svg>