<svg xmlns="http://www.w3.org/2000/svg" width="56.198" height="56.945" viewBox="0 0 56.198 56.945"><defs><style>.a{fill:#29ac29;}</style></defs><path class="a" d="M7.559,30.693V55.607a1.78,1.78,0,0,0,1.78,1.78h7.118a1.78,1.78,0,0,0,1.78-1.78V30.693a1.78,1.78,0,0,0-1.78-1.78H9.339A1.78,1.78,0,0,0,7.559,30.693Zm12.457-3.979,3.139-6.278a20.835,20.835,0,0,0,2.2-9.318v-.89A6.228,6.228,0,0,1,31.583,4a6.7,6.7,0,0,1,6.662,6.029L39.422,21.8H51.3a8.9,8.9,0,0,1,8.9,8.9q0,.444-.044.885L58.018,52.933a8.9,8.9,0,0,1-8.854,8.012H27.134a8.868,8.868,0,0,1-6.166-2.483,5.335,5.335,0,0,1-4.511,2.483H9.339A5.339,5.339,0,0,1,4,55.607V30.693a5.339,5.339,0,0,1,5.339-5.339h7.118A5.319,5.319,0,0,1,20.016,26.714Zm1.78,4.4V52.048a5.339,5.339,0,0,0,5.339,5.339H49.165a5.339,5.339,0,0,0,5.312-4.807l2.135-21.354q.026-.265.026-.531A5.339,5.339,0,0,0,51.3,25.354H37.811a1.78,1.78,0,0,1-1.771-1.6L34.7,10.383a3.136,3.136,0,0,0-3.121-2.824,2.669,2.669,0,0,0-2.669,2.669v.89a24.394,24.394,0,0,1-2.575,10.909Z" transform="translate(-4 -4)"/></svg>