<svg width="89" height="46" xmlns="http://www.w3.org/2000/svg" xmlns:xlink="http://www.w3.org/1999/xlink" overflow="hidden"><defs><clipPath id="clip0"><rect x="525" y="501" width="89" height="46"/></clipPath></defs><g clip-path="url(#clip0)" transform="translate(-525 -501)"><path d="M554 538C554 542.418 550.418 546 546 546 541.582 546 538 542.418 538 538 538 533.582 541.582 530 546 530 550.418 530 554 533.582 554 538Z" fill="#1F92D6" fill-rule="evenodd"/><path d="M602 538C602 542.418 598.418 546 594 546 589.582 546 586 542.418 586 538 586 533.582 589.582 530 594 530 598.418 530 602 533.582 602 538Z" fill="#1F92D6" fill-rule="evenodd"/><path d="M561 518 561 506 574.7 506C575.8 506 576.8 506.4 577.5 507.2L588.3 518 561 518ZM557 518 531.7 518 542.5 507.2C543.3 506.4 544.3 506 545.3 506L557 506 557 518ZM604 518 595.7 518C594.6 518 593.6 517.6 592.9 516.8L580.3 504.3C578.8 502.8 576.8 502 574.6 502L545.3 502C543.2 502 541.1 502.8 539.6 504.3L527.2 516.8C526.4 517.6 526 518.6 526 519.7L526 530C526 534.4 529.6 538 534 538L535 538C535 531.9 539.9 527 546 527 552.1 527 557 531.9 557 538L583 538C583 531.9 587.9 527 594 527 600.1 527 605 531.9 605 538L610 538C612.2 538 614 536.2 614 534L614 528C614 522.5 609.5 518 604 518Z" fill="#1F92D6" fill-rule="evenodd"/></g></svg>