<svg width="145" height="145" xmlns="http://www.w3.org/2000/svg" xmlns:xlink="http://www.w3.org/1999/xlink" overflow="hidden"><defs><clipPath id="clip0"><rect x="836" y="504" width="145" height="145"/></clipPath></defs><g clip-path="url(#clip0)" transform="translate(-836 -504)"><path d="M943.64 552.6 937.52 546.48 932.48 551.52 938.6 557.64 932.84 563.4 926.72 557.28 921.68 562.32 927.8 568.44 922.04 574.2 915.92 568.08 910.88 573.12 917 579.24 911.42 584.82 899.18 572.58 936.8 534.96 949.04 547.2 943.64 552.6ZM978.38 527.22 956.78 505.62C954.62 503.46 951.2 503.46 949.22 505.62 947.06 507.78 947.06 511.2 949.22 513.18L953.72 517.68 944.18 527.22 936.8 519.84 933.38 516.42C931.22 514.26 927.8 514.26 925.82 516.42 923.66 518.58 923.66 522 925.82 523.98L929.24 527.4 881.72 574.92C878.12 578.52 875.96 583.38 875.96 588.6 875.96 590.58 876.32 592.56 876.86 594.54L867.5 603.9C864.98 606.42 864.26 610.2 865.52 613.44L837.08 641.88C835.64 643.32 835.64 645.48 837.08 646.92 837.8 647.64 838.7 648 839.6 648 840.5 648 841.4 647.64 842.12 646.92L870.56 618.48C873.8 619.74 877.58 619.02 880.1 616.5L889.46 607.14C891.44 607.68 893.42 608.04 895.4 608.04 900.44 608.04 905.3 606.24 909.08 602.28L956.6 554.76 960.02 558.18C961.1 559.26 962.54 559.8 963.8 559.8 965.06 559.8 966.5 559.26 967.58 558.18 969.74 556.02 969.74 552.6 967.58 550.62L964.16 547.2 956.78 539.82 966.32 530.28 970.82 534.78C971.9 535.86 973.34 536.4 974.6 536.4 975.86 536.4 977.3 535.86 978.38 534.78 980.54 532.62 980.54 529.38 978.38 527.22Z" fill="#000F86" fill-rule="evenodd"/></g></svg>