<svg width="225" height="152" xmlns="http://www.w3.org/2000/svg" xmlns:xlink="http://www.w3.org/1999/xlink" overflow="hidden"><defs><clipPath id="clip0"><rect x="701" y="221" width="225" height="152"/></clipPath></defs><g clip-path="url(#clip0)" transform="translate(-701 -221)"><path d="M907 236.5C907 243.956 900.956 250 893.5 250 886.044 250 880 243.956 880 236.5 880 229.044 886.044 223 893.5 223 900.956 223 907 229.044 907 236.5Z" fill="#000F86" fill-rule="evenodd"/><path d="M854 236.5C854 243.956 847.956 250 840.5 250 833.044 250 827 243.956 827 236.5 827 229.044 833.044 223 840.5 223 847.956 223 854 229.044 854 236.5Z" fill="#000F86" fill-rule="evenodd"/><path d="M800 236.5C800 243.956 794.18 250 787 250 779.82 250 774 243.956 774 236.5 774 229.044 779.82 223 787 223 794.18 223 800 229.044 800 236.5Z" fill="#000F86" fill-rule="evenodd"/><path d="M747 236.5C747 243.956 740.956 250 733.5 250 726.044 250 720 243.956 720 236.5 720 229.044 726.044 223 733.5 223 740.956 223 747 229.044 747 236.5Z" fill="#000F86" fill-rule="evenodd"/><path d="M922.372 222.318C919.596 221.318 916.533 222.754 915.531 225.525 915.513 225.576 915.495 225.628 915.478 225.679L905.512 255.021C901.83 253.783 897.986 253.091 894.103 252.967 890.173 253.085 886.283 253.786 882.56 255.047L872.727 225.679C871.614 222.792 868.368 221.351 865.476 222.462 863.994 223.031 862.823 224.2 862.253 225.679L852.286 255.021C848.537 253.76 844.619 253.068 840.663 252.967 836.736 253.088 832.848 253.78 829.121 255.021L819.288 225.679C818.175 222.792 814.929 221.351 812.036 222.462 810.554 223.031 809.384 224.2 808.814 225.679L798.874 255.021C795.112 253.773 791.187 253.081 787.224 252.967 783.294 253.085 779.404 253.786 775.681 255.047L765.848 225.679C764.736 222.792 761.489 221.351 758.597 222.462 757.115 223.031 755.944 224.2 755.374 225.679L745.408 255.021C741.655 253.771 737.739 253.079 733.785 252.967 729.855 253.085 725.965 253.786 722.242 255.047L712.409 225.679C711.465 222.887 708.432 221.389 705.636 222.332 702.839 223.275 701.338 226.302 702.282 229.093L715.482 268.011C716.201 270.138 718.177 271.588 720.425 271.639L720.425 287.643 712.409 327.654 720.425 327.654 720.425 373 731.113 373 731.113 327.654 736.457 327.654 736.457 373 747.145 373 747.145 327.654 755.161 327.654 747.145 287.643 747.145 271.639C749.432 271.633 751.463 270.174 752.195 268.011L760.505 243.524 768.814 268.011C769.546 270.174 771.577 271.633 773.864 271.639L773.864 373 784.552 373 784.552 311.65 789.896 311.65 789.896 373 800.584 373 800.584 271.639C802.872 271.633 804.902 270.174 805.634 268.011L813.944 243.524 822.254 268.011C822.986 270.174 825.016 271.633 827.304 271.639L827.304 287.643 819.288 327.654 827.304 327.654 827.304 373 837.991 373 837.991 327.654 843.335 327.654 843.335 373 854.023 373 854.023 327.654 862.039 327.654 854.023 287.643 854.023 271.639C856.311 271.633 858.341 270.174 859.073 268.011L867.383 243.524 875.693 268.011C876.425 270.174 878.455 271.633 880.743 271.639L880.743 373 891.431 373 891.431 311.65 896.775 311.65 896.775 373 907.463 373 907.463 271.639C909.75 271.633 911.78 270.174 912.513 268.011L925.712 229.093C926.665 226.305 925.174 223.273 922.381 222.321 922.378 222.32 922.375 222.319 922.372 222.318Z" fill="#000F86" fill-rule="evenodd"/></g></svg>