<svg viewBox="0 0 96 96" xmlns="http://www.w3.org/2000/svg" xmlns:xlink="http://www.w3.org/1999/xlink" id="Icons_BadgeQuestionMark" overflow="hidden"><path d="M47.979 10C27.0032 9.99945 9.99855 27.0032 9.998 47.979 9.99745 68.9548 27.0012 85.9594 47.977 85.96 68.9528 85.9605 85.9575 68.9568 85.958 47.981 85.958 47.9797 85.958 47.9783 85.958 47.977 85.9663 27.0112 68.9768 10.0083 48.011 10 48.0003 9.99999 47.9897 9.99999 47.979 10ZM51.909 68.476C51.486 69.465 50.698 70.253 49.709 70.676 49.2003 70.8924 48.6528 71.0027 48.1 71 46.9963 71.0021 45.937 70.5658 45.155 69.787 44.7778 69.4091 44.4761 68.9629 44.266 68.472 44.0485 67.9629 43.9379 67.4146 43.941 66.861 43.9383 65.7567 44.3751 64.6968 45.155 63.915 46.772 62.2938 49.3971 62.2903 51.0183 63.9073 51.0209 63.9099 51.0234 63.9124 51.026 63.915L51.026 63.915C51.4053 64.2957 51.7072 64.7464 51.915 65.242 52.1316 65.7542 52.2422 66.3049 52.24 66.861 52.2413 67.4157 52.1286 67.9647 51.909 68.474ZM55.44 50.916C52.7084 52.5632 51.0214 55.5045 50.979 58.694L44.979 58.694C45.0147 53.4402 47.7626 48.5778 52.245 45.837 56.0026 43.4815 57.1392 38.5259 54.7837 34.7683 52.4282 31.0107 47.4726 29.8741 43.715 32.2296 41.3713 33.6988 39.9487 36.2708 39.95 39.037L33.95 39.037C33.9471 31.2884 40.2261 25.0046 47.9747 25.0017 55.7232 24.9988 62.0071 31.2778 62.01 39.0264 62.0118 43.8556 59.5299 48.3462 55.44 50.914Z" fill="#001489"/></svg>