<?xml version="1.0" encoding="UTF-8"?>
<svg width="86px" height="88px" viewBox="0 0 86 88" version="1.1" xmlns="http://www.w3.org/2000/svg" xmlns:xlink="http://www.w3.org/1999/xlink">
    <!-- Generator: Sketch 64 (93537) - https://sketch.com -->
    <title>icon/shopping-list</title>
    <desc>Created with Sketch.</desc>
    <g id="Symbols" stroke="none" stroke-width="1" fill="none" fill-rule="evenodd">
        <g id="Services/Desktop/Service-pod/392px/default" transform="translate(-153.000000, -32.000000)">
            <g id="icon/shopping-list" transform="translate(153.000000, 32.000000)">
                <g>
                    <path d="M56.8746667,23.6236 L75.1448889,62.8437333 C76.1749651,64.5493062 75.7922507,66.7508896 74.2466667,68.0108 L32.9666667,87.0774667 C32.9666667,87.0774667 29.5266667,88.6790667 27.4626667,84.2746667 L0.152888889,25.7018667 C0.152888889,25.7018667 -0.764444444,23.7952 1.94933333,22.4986667 L31.1893333,8.9232 C32.7767636,8.47309384 34.4643888,8.51967844 36.0244444,9.05666667 L51.5044444,14.6622667 C52.474453,14.9822156 53.2517297,15.7157675 53.6257778,16.6642667 L56.8746667,23.6236 Z" id="Fill-1" fill-opacity="0.15" fill="#D43900"></path>
                    <path d="M61.92,53.7870667 L34.6484444,66.4282667 C33.5554644,66.9506427 32.2445902,66.5005469 31.7053333,65.4177333 L31.4568889,64.8648 C30.971625,63.7588442 31.4649564,62.4689824 32.5653333,61.9666667 L35.088,60.8036 L59.9324444,49.3636 C61.0328213,48.8612843 61.5261527,47.5714224 61.0408889,46.4654667 L60.7733333,45.9125333 C60.5218404,45.389891 60.0714903,44.989142 59.5224004,44.7993767 C58.9733105,44.6096115 58.3709874,44.646557 57.8493333,44.902 L33.0048889,56.342 L30.4822222,57.486 C29.3947475,58.0068056 28.0897603,57.5558025 27.5582222,56.4754667 L27.2906667,55.9225333 C26.8153661,54.8268141 27.2975142,53.5525148 28.38,53.0434667 L30.9217778,51.8994667 L55.7662222,40.4594667 C56.8640926,39.9649901 57.3584375,38.6809816 56.8746667,37.5804 L56.6262222,37.0274667 C56.3747292,36.5048243 55.9243792,36.1040753 55.3752893,35.9143101 C54.8261994,35.7245448 54.2238763,35.7614903 53.7022222,36.0169333 L53.7022222,36.0169333 L26.9466667,48.3530667 C25.86469,48.8723455 24.5655532,48.4204105 24.0417778,47.3425333 L23.7933333,46.7896 C23.5544402,46.2637789 23.535033,45.6647424 23.7393926,45.1246278 C23.9437522,44.5845132 24.3550881,44.1476969 24.8826667,43.9105333 L27.3862222,42.7474667 L51.9248889,31.3074667 C52.4560241,31.0743611 52.8707879,30.6378179 53.0757107,30.0962148 C53.2806335,29.5546116 53.2584727,28.9535201 53.0142222,28.4284 L52.7657778,27.8945333 C52.5216453,27.3698426 52.0762868,26.9651341 51.5299258,26.7714836 C50.9835647,26.577833 50.3821013,26.6115091 49.8608889,26.8649333 L47.4911111,28.0089333 L22.9333333,39.4489333 C22.4045531,39.7099418 21.7927945,39.7478943 21.2356769,39.5542531 C20.6785593,39.3606119 20.222867,38.9516382 19.9711111,38.4193333 L19.7226667,37.8664 C19.4605091,37.3440167 19.4201591,36.7383397 19.6107149,36.185937 C19.8012707,35.6335342 20.2066888,35.1809141 20.7355556,34.9301333 L47.8542222,22.4033333 L56.6262222,18.3230667 C57.1053839,18.0963978 57.6574044,18.0785502 58.1502707,18.273792 C58.643137,18.4690338 59.0325318,18.8598094 59.2253333,19.3526667 L77.4764444,58.5156 C78.4918697,60.2376383 78.0939286,62.4414801 76.54,63.7017333 L34.4955556,83.2069333 C34.4955556,83.2069333 30.9791111,84.8276 28.9342222,80.4422667 L1.62444444,21.8694667 C1.62444444,21.8694667 0.726222222,19.9628 3.53555556,18.6281333 L33.2724444,4.82386667 C34.8813998,4.3577051 36.5944362,4.39095514 38.184,4.9192 L53.8551111,10.4104 C53.8551111,10.4104 59.5884444,11.6116 45.4653333,17.2744 C45.4653333,17.2744 34.1133333,21.0877333 35.2217778,0.1144" id="Stroke-3" stroke="#000000" stroke-width="2.704"></path>
                    <line x1="48.2937778" y1="69.9746667" x2="50.5871111" y2="68.8688" id="Path" stroke="#000000" stroke-width="2.704"></line>
                    <line x1="52.976" y1="67.8392" x2="55.2693333" y2="66.7524" id="Path" stroke="#000000" stroke-width="2.704"></line>
                    <line x1="57.62" y1="65.6274667" x2="59.9133333" y2="64.5216" id="Path" stroke="#000000" stroke-width="2.704"></line>
                    <line x1="62.264" y1="63.3966667" x2="64.5382222" y2="62.3098667" id="Path" stroke="#000000" stroke-width="2.704"></line>
                    <path d="M71.1947682,30.312244 L75.2072631,30.3095753 L75.1948601,48.9225384 C75.1941583,49.9757818 74.3381345,50.8301732 73.2828774,50.830875 L72.9580564,50.8310915 C71.9027994,50.8317929 71.0479135,49.9785394 71.0486149,48.925296 L71.0610183,30.3123329 L71.1947682,30.312244 Z" id="Path" stroke="#000000" stroke-width="2.704" fill="#FFFFFF" fill-rule="nonzero" transform="translate(73.127939, 40.570333) rotate(17.440000) translate(-73.127939, -40.570333) "></path>
                    <polygon id="Path" stroke="#000000" stroke-width="2.704" fill="#FFFFFF" points="67.5768889 58.4584 67.0608889 52.2426667 70.004 50.6982667 71.552 53.6345333"></polygon>
                    <path d="M78.840265,12.238258 L79.3943715,12.2378875 C80.2625297,12.2369283 81.0935899,12.5869828 81.6979899,13.2082067 C82.3023899,13.8294307 82.6285842,14.6688438 82.6021689,15.5349785 L82.5916594,31.3064134 L75.617561,31.3110518 L75.6280705,15.539617 C75.6028096,14.6735166 75.9301229,13.8336688 76.5353514,13.2116404 C77.1405798,12.5896119 77.9721073,12.2384516 78.840265,12.238258 Z" id="Path" stroke="#000000" stroke-width="2.704" fill="#FFFFFF" fill-rule="nonzero" transform="translate(79.110609, 21.774470) rotate(17.440000) translate(-79.110609, -21.774470) "></path>
                </g>
            </g>
        </g>
    </g>
</svg>