<?xml version="1.0" encoding="UTF-8"?>
<svg width="3296px" height="700px" viewBox="0 0 3296 700" version="1.1" xmlns="http://www.w3.org/2000/svg" xmlns:xlink="http://www.w3.org/1999/xlink">
    <!-- Generator: Sketch 62 (91390) - https://sketch.com -->
    <title>Distinction-Logo-Word-Black-extended</title>
    <desc>Created with Sketch.</desc>
    <g id="Distinction-Logo-Word-Black-extended" stroke="none" stroke-width="1" fill="none" fill-rule="evenodd">
        <g id="Logos/Hexagon/Black">
            <g>
                <polygon id="Polygon-fill-black" fill="#000000" points="304 0 608 175 608 525 304 700 1.94066985e-13 525 0 175"></polygon>
                <path d="M342,378.037358 L342,377.125686 C342,336.793386 315.37047,310.054348 283.324906,310.054348 C251.279342,310.054348 224.2,336.340054 224.2,377.125686 L224.2,378.037358 C224.2,418.369658 251.279342,445.108696 283.324906,445.108696 C315.37047,445.108696 342,418.369658 342,378.037358 Z M152,377.336079 L152,376.415676 C152,294.517503 205.698832,249.679039 263.988608,249.679039 C301.165958,249.679039 324.111381,266.605353 340.635399,286.281076 L340.635399,165.48913 L410.4,165.48913 L410.4,499.499357 L340.635399,499.499357 L340.635399,464.271183 C323.653132,487.143031 300.245233,504.076087 263.988608,504.076087 C206.61533,504.076087 152,459.234252 152,377.336079 L152,377.336079 Z" id="Fill-1" fill="#FFFFFF"></path>
            </g>
        </g>
        <g id="Logos/DistinctionWord/Black" transform="translate(796.000000, 141.000000)" fill="#000000">
            <g>
                <path d="M215.601095,241.512322 L215.601095,240.463033 C215.601095,194.042563 184.800939,163.267261 147.736507,163.267261 C110.672075,163.267261 79.3516582,193.520801 79.3516582,240.463033 L79.3516582,241.512322 C79.3516582,287.932793 110.672075,318.708094 147.736507,318.708094 C184.800939,318.708094 215.601095,287.932793 215.601095,241.512322 Z M0,241.512322 L0,240.463033 C0,147.096487 61.0781296,95.979199 127.378092,95.979199 C169.664356,95.979199 195.76294,115.27574 214.55769,137.706695 L214.55769,0 L293.909348,0 L293.909348,380.782381 L214.55769,380.782381 L214.55769,340.621132 C195.241719,366.695772 168.617105,386 127.378092,386 C62.1205728,386 0,334.878868 0,241.512322 L0,241.512322 Z" id="Fill-1"></path>
                <path d="M341.980962,378.917431 L419.350483,378.917431 L419.350483,100.697363 L341.980962,100.697363 L341.980962,378.917431 Z M339.943343,70.0727891 L421.388102,70.0727891 L421.388102,0 L339.943343,0 L339.943343,70.0727891 Z" id="Fill-2"></path>
                <path d="M449.716714,340.517807 L483.57971,288.740485 C513.796704,310.491614 545.579012,321.876979 571.628873,321.876979 C594.553864,321.876979 604.972656,313.59524 604.972656,301.167385 L604.972656,300.133479 C604.972656,283.048279 577.877653,277.34749 547.140487,268.030891 C508.069055,256.645527 463.781508,238.517837 463.781508,184.670795 L463.781508,183.636889 C463.781508,127.200314 509.62957,95.6146789 565.897385,95.6146789 C601.325695,95.6146789 639.876955,107.524627 670.097788,127.717267 L639.876955,182.081262 C612.265619,166.029967 584.654283,156.192601 564.332071,156.192601 C545.05884,156.192601 535.15926,164.478155 535.15926,175.350381 L535.15926,176.384287 C535.15926,191.919582 561.730252,199.167415 591.947246,209.521735 C631.018678,222.466543 676.345609,241.10737 676.345609,291.843156 L676.345609,292.884692 C676.345609,354.501289 629.978335,382.458716 569.544346,382.458716 C530.469075,382.458716 486.706499,369.517723 449.716714,340.517807" id="Fill-3"></path>
                <path d="M716.557407,298.859178 L716.557407,166.971268 L683.427762,166.971268 L683.427762,99.4662608 L716.557407,99.4662608 L716.557407,28.3302752 L795.252234,28.3302752 L795.252234,99.4662608 L860.481586,99.4662608 L860.481586,166.971268 L795.252234,166.971268 L795.252234,285.881014 C795.252234,304.053122 803.014908,312.88187 820.619204,312.88187 C835.10508,312.88187 848.055585,309.24037 859.442113,303.016246 L859.442113,366.361316 C842.87729,376.22694 823.718552,382.458716 797.321645,382.458716 C749.172083,382.458716 716.557407,363.248776 716.557407,298.859178" id="Fill-4"></path>
                <path d="M897.93644,378.917431 L975.302398,378.917431 L975.302398,100.697363 L897.93644,100.697363 L897.93644,378.917431 Z M895.892351,70.0727891 L977.33711,70.0727891 L977.33711,0 L895.892351,0 L895.892351,70.0727891 Z" id="Fill-5"></path>
                <path d="M1026.91218,100.800986 L1105.83671,100.800986 L1105.83671,140.235465 C1124.01107,116.886568 1147.37946,95.6146789 1187.35348,95.6146789 C1247.08015,95.6146789 1281.86969,135.049157 1281.86969,198.869603 L1281.86969,378.917431 L1202.94516,378.917431 L1202.94516,223.773627 C1202.94516,186.415201 1185.28734,167.216497 1155.16574,167.216497 C1125.0537,167.216497 1105.83671,186.415201 1105.83671,223.773627 L1105.83671,378.917431 L1026.91218,378.917431 L1026.91218,100.800986" id="Fill-6"></path>
                <path d="M1313.73938,241.847953 L1313.73938,240.808777 C1313.73938,161.182435 1374.47483,95.6146789 1459.602,95.6146789 C1512.0284,95.6146789 1544.72916,113.306546 1570.67942,142.450433 L1522.41232,194.488776 C1504.76156,175.755816 1487.1108,163.785166 1459.08567,163.785166 C1419.63439,163.785166 1391.60927,198.655064 1391.60927,239.761933 L1391.60927,240.808777 C1391.60927,283.479202 1419.11807,317.824719 1462.20276,317.824719 C1488.66934,317.824719 1506.83643,306.373657 1526.04574,288.161244 L1572.23796,335.004668 C1545.24549,364.660474 1514.10327,386 1458.56934,386 C1375.00072,386 1313.73938,321.466627 1313.73938,241.847953" id="Fill-7"></path>
                <path d="M1612.46108,298.859178 L1612.46108,166.971268 L1579.32011,166.971268 L1579.32011,99.4662608 L1612.46108,99.4662608 L1612.46108,28.3302752 L1691.15061,28.3302752 L1691.15061,99.4662608 L1756.37394,99.4662608 L1756.37394,166.971268 L1691.15061,166.971268 L1691.15061,285.881014 C1691.15061,304.053122 1698.9137,312.88187 1716.51895,312.88187 C1731.01514,312.88187 1743.9568,309.24037 1755.34395,303.016246 L1755.34395,366.361316 C1738.77823,376.22694 1719.61846,382.458716 1693.22013,382.458716 C1645.06798,382.458716 1612.46108,363.248776 1612.46108,298.859178" id="Fill-8"></path>
                <path d="M1793.81942,378.917431 L1871.18537,378.917431 L1871.18537,100.697363 L1793.81942,100.697363 L1793.81942,378.917431 Z M1791.7847,70.0727891 L1873.22946,70.0727891 L1873.22946,0 L1791.7847,0 L1791.7847,70.0727891 Z" id="Fill-9"></path>
                <path d="M2131.78844,241.847953 L2131.78844,240.808777 C2131.78844,199.69424 2102.20168,163.785166 2058.6102,163.785166 C2013.47008,163.785166 1986.48352,198.655064 1986.48352,239.761933 L1986.48352,240.808777 C1986.48352,281.915646 2016.06072,317.824719 2059.65219,317.824719 C2104.80187,317.824719 2131.78844,282.963449 2131.78844,241.847953 Z M1908.64023,241.847953 L1908.64023,240.808777 C1908.64023,160.662847 1972.98545,95.6146789 2059.65219,95.6146789 C2145.79316,95.6146789 2209.63173,159.622713 2209.63173,239.761933 L2209.63173,240.808777 C2209.63173,320.943204 2145.27694,386 2058.6102,386 C1972.46924,386 1908.64023,321.991008 1908.64023,241.847953 L1908.64023,241.847953 Z" id="Fill-10"></path>
                <path d="M2245.04249,100.800986 L2323.96702,100.800986 L2323.96702,140.235465 C2342.14138,116.886568 2365.50977,95.6146789 2405.49335,95.6146789 C2465.21046,95.6146789 2500,135.049157 2500,198.869603 L2500,378.917431 L2421.07547,378.917431 L2421.07547,223.773627 C2421.07547,186.415201 2403.41765,167.216497 2373.29605,167.216497 C2343.18401,167.216497 2323.96702,186.415201 2323.96702,223.773627 L2323.96702,378.917431 L2245.04249,378.917431 L2245.04249,100.800986" id="Fill-11"></path>
            </g>
        </g>
    </g>
</svg>