<?xml version="1.0" encoding="UTF-8"?>
<svg width="288px" height="96px" viewBox="0 0 288 96" version="1.1" xmlns="http://www.w3.org/2000/svg" xmlns:xlink="http://www.w3.org/1999/xlink">
    <!-- Generator: Sketch 64 (93537) - https://sketch.com -->
    <title>Logos/Logo/dark</title>
    <desc>Created with Sketch.</desc>
    <defs>
        <path d="M38.7228,0.381 C41.3928,0.381 43.5648,2.553 43.5648,5.223 L43.5648,39.1038 C43.5648,41.7744 41.3928,43.9464 38.7228,43.9464 L33.8946,43.9464 L33.8946,49.5954 C33.8946,51.0804 33.0606,52.3974 31.7172,53.031 C31.3535094,53.2024423 30.9748118,53.3132794 30.5933164,53.3651126 L29.5736544,53.3640336 C28.894032,53.269896 28.2396,52.98852 27.6804,52.5282 L17.2596,43.9464 L4.842,43.9464 C2.172,43.9464 0,41.7744 0,39.1038 L0,5.223 C0,2.553 2.172,0.381 4.842,0.381 L38.7228,0.381 Z M37.9404,6.0054 L5.6244,6.0054 L5.6244,38.322 L17.5404,38.322 C18.6612,38.322 19.7544,38.7144 20.619,39.4266 L28.2708,45.7284 L28.2708,43.164 C28.2708,40.494 30.4428,38.322 33.1128,38.322 L37.9404,38.322 L37.9404,6.0054 Z" id="path-1"></path>
        <linearGradient x1="0%" y1="50.0340864%" x2="15.1422821%" y2="50.0340864%" id="linearGradient-3">
            <stop stop-color="#FF1F05" offset="0%"></stop>
            <stop stop-color="#FF8E12" offset="100%"></stop>
        </linearGradient>
        <polyline id="path-4" points="11.8662 20.0088 11.8662 12.0924 5.3946 12.0924 5.3946 20.0088 0.3402 20.0088 0.3402 0.219 5.3946 0.219 5.3946 7.6536 11.8662 7.6536 11.8662 0.219 16.9206 0.219 16.9206 20.0088 11.8662 20.0088"></polyline>
        <linearGradient x1="-0.00072374611%" y1="49.9993936%" x2="100.001447%" y2="49.9993936%" id="linearGradient-6">
            <stop stop-color="#FF1F05" offset="0%"></stop>
            <stop stop-color="#FF8E12" offset="100%"></stop>
        </linearGradient>
        <path d="M38.7228,0.381 C41.3928,0.381 43.5648,2.553 43.5648,5.223 L43.5648,39.1038 C43.5648,41.7744 41.3928,43.9464 38.7228,43.9464 L33.8946,43.9464 L33.8946,49.5954 C33.8946,51.0804 33.0606,52.3974 31.7172,53.031 C31.3535094,53.2024423 30.9748118,53.3132794 30.5933164,53.3651126 L29.5736544,53.3640336 C28.894032,53.269896 28.2396,52.98852 27.6804,52.5282 L17.2596,43.9464 L4.842,43.9464 C2.172,43.9464 0,41.7744 0,39.1038 L0,5.223 C0,2.553 2.172,0.381 4.842,0.381 L38.7228,0.381 Z M37.9404,6.0054 L5.6244,6.0054 L5.6244,38.322 L17.5404,38.322 C18.6612,38.322 19.7544,38.7144 20.619,39.4266 L28.2708,45.7284 L28.2708,43.164 C28.2708,40.494 30.4428,38.322 33.1128,38.322 L37.9404,38.322 L37.9404,6.0054 Z" id="path-7"></path>
        <polyline id="path-9" points="11.8662 20.0088 11.8662 12.0924 5.3946 12.0924 5.3946 20.0088 0.3402 20.0088 0.3402 0.219 5.3946 0.219 5.3946 7.6536 11.8662 7.6536 11.8662 0.219 16.9206 0.219 16.9206 20.0088 11.8662 20.0088"></polyline>
        <linearGradient x1="-81.6638923%" y1="74.1369797%" x2="181.084895%" y2="74.1369797%" id="linearGradient-11">
            <stop stop-color="#FF1F05" offset="0%"></stop>
            <stop stop-color="#FF8E12" offset="100%"></stop>
        </linearGradient>
    </defs>
    <g id="Logos/Logo/dark" stroke="none" stroke-width="1" fill="none" fill-rule="evenodd">
        <g id="HelpMyStreet_logo_FINAL" transform="translate(0.000000, 18.000000)">
            <polyline id="Fill-1" fill="#1D1D1B" points="78.9054 14.763 78.9054 33.9618 75.2016 33.9618 75.2016 25.7682 66.4944 25.7682 66.4944 33.9618 62.763 33.9618 62.763 14.763 66.4944 14.763 66.4944 22.524 75.2016 22.524 75.2016 14.763 78.9054 14.763"></polyline>
            <path d="M92.6148,25.6872 C92.5248,24.624 92.1318,23.772 91.4388,23.1324 C90.7446,22.4922 89.9016,22.1724 88.9104,22.1724 C88.4238,22.1724 87.9684,22.2582 87.5448,22.4292 C87.1212,22.6008 86.7474,22.839 86.4228,23.1456 C86.0982,23.4522 85.8318,23.8218 85.6254,24.2544 C85.4178,24.687 85.296,25.1646 85.26,25.6872 L92.6148,25.6872 Z M88.9374,34.2318 C87.8022,34.2318 86.7744,34.0386 85.8546,33.651 C84.9354,33.2634 84.1518,32.736 83.5026,32.0694 C82.854,31.4022 82.3536,30.627 82.002,29.7438 C81.6504,28.8606 81.4746,27.9318 81.4746,26.9586 C81.4746,25.9488 81.6456,24.9978 81.9882,24.1056 C82.3302,23.2128 82.827,22.4292 83.4756,21.753 C84.1248,21.0774 84.9126,20.541 85.8414,20.1444 C86.7696,19.7478 87.8106,19.5492 88.9644,19.5492 C90.1176,19.5492 91.1502,19.7478 92.0604,20.1444 C92.9706,20.541 93.7458,21.0726 94.386,21.7392 C95.0256,22.407 95.5122,23.1822 95.8464,24.0648 C96.1794,24.9486 96.3462,25.8678 96.3462,26.823 C96.3462,27.0576 96.3414,27.2832 96.3324,27.4998 C96.3234,27.7158 96.3012,27.8964 96.2652,28.0404 L85.314,28.0404 C85.368,28.5996 85.5036,29.0946 85.7196,29.5272 C85.9356,29.9598 86.2152,30.3294 86.5578,30.636 C86.9004,30.9426 87.288,31.1766 87.7206,31.3392 C88.1538,31.5018 88.6038,31.5822 89.073,31.5822 C89.7936,31.5822 90.474,31.4064 91.1142,31.0548 C91.7538,30.7032 92.1912,30.24 92.4258,29.6628 L95.535,30.5274 C95.0118,31.6092 94.179,32.4978 93.0336,33.1914 C91.8888,33.885 90.5238,34.2318 88.9374,34.2318 L88.9374,34.2318 Z" id="Fill-2" fill="#1D1D1B"></path>
            <path d="M98.5368,14.2224 L102.1602,14.2224 L102.1602,29.4192 C102.1602,29.9424 102.2856,30.348 102.5388,30.636 C102.7908,30.9246 103.1514,31.0686 103.6206,31.0686 C103.8366,31.0686 104.0754,31.0326 104.337,30.9606 C104.598,30.8886 104.8458,30.7986 105.0804,30.69 L105.567,33.4482 C105.0804,33.6822 104.5122,33.8628 103.8636,33.9888 C103.2144,34.1148 102.6288,34.1778 102.1056,34.1778 C100.9704,34.1778 100.0914,33.8766 99.4698,33.2724 C98.8482,32.6688 98.5368,31.8078 98.5368,30.69 L98.5368,14.2224" id="Fill-3" fill="#1D1D1B"></path>
            <path d="M114.4086,31.1502 C114.9498,31.1502 115.4496,31.0326 115.9092,30.7986 C116.3688,30.564 116.7612,30.249 117.0852,29.8518 C117.4098,29.4552 117.6624,28.9962 117.8424,28.473 C118.023,27.9498 118.113,27.4092 118.113,26.85 C118.113,26.2554 118.0134,25.701 117.8154,25.1874 C117.6168,24.6732 117.3426,24.2274 116.991,23.8488 C116.6394,23.4702 116.2248,23.1726 115.7472,22.9566 C115.269,22.74 114.7512,22.632 114.1926,22.632 C113.85,22.632 113.4984,22.6902 113.1378,22.8078 C112.7772,22.9254 112.4436,23.0916 112.137,23.3082 C111.8304,23.5242 111.5556,23.7768 111.3126,24.0648 C111.069,24.3534 110.8842,24.669 110.7582,25.0116 L110.7582,28.3374 C111.0828,29.1492 111.5784,29.8206 112.2456,30.3516 C112.9122,30.8838 113.6334,31.1502 114.4086,31.1502 Z M115.6254,34.2318 C114.507,34.2318 113.5338,33.984 112.7046,33.4884 C111.876,32.9934 111.2268,32.322 110.7582,31.4742 L110.7582,39.7212 L107.1348,39.7212 L107.1348,19.7928 L110.2986,19.7928 L110.2986,22.2264 C110.8212,21.3972 111.4974,20.7438 112.3266,20.2656 C113.1552,19.7886 114.111,19.5492 115.1928,19.5492 C116.148,19.5492 117.0312,19.743 117.8424,20.1312 C118.6542,20.5182 119.3526,21.0408 119.9382,21.699 C120.5238,22.3572 120.9834,23.1324 121.317,24.0246 C121.6506,24.9168 121.8174,25.8594 121.8174,26.85 C121.8174,27.8778 121.6638,28.8426 121.3578,29.7438 C121.0512,30.6456 120.6234,31.4292 120.0738,32.0964 C119.5236,32.763 118.8702,33.2856 118.113,33.6642 C117.3558,34.0428 116.5266,34.2318 115.6254,34.2318 L115.6254,34.2318 Z" id="Fill-4" fill="#1D1D1B"></path>
            <polyline id="Fill-5" fill="#1D1D1B" points="140.1228 33.9618 140.1228 21.2532 135.1746 30.717 133.1466 30.717 128.1984 21.2532 128.1984 33.9618 124.467 33.9618 124.467 14.763 128.469 14.763 134.1474 25.6872 139.8792 14.763 143.8542 14.763 143.8542 33.9618 140.1228 33.9618"></polyline>
            <path d="M147.8016,36.72 C148.1076,36.81 148.4052,36.8772 148.6932,36.9228 C148.9818,36.9678 149.2254,36.9906 149.4234,36.9906 C149.658,36.9906 149.874,36.945 150.0726,36.855 C150.2706,36.7644 150.4512,36.6072 150.6138,36.3816 C150.7758,36.156 150.9384,35.8452 151.1004,35.4492 C151.263,35.052 151.434,34.5564 151.614,33.9618 L146.0166,19.7928 L149.748,19.7928 L153.588,30.825 L156.9948,19.7928 L160.4016,19.7928 L154.4532,36.774 C154.1106,37.7652 153.5244,38.5758 152.6952,39.2076 C151.8666,39.8382 150.8388,40.1538 149.6136,40.1538 C149.3244,40.1538 149.0316,40.131 148.7346,40.086 C148.437,40.041 148.1256,39.9648 147.8016,39.8562 L147.8016,36.72" id="Fill-6" fill="#1D1D1B"></path>
            <path d="M174.165,19.7928 C174.039,19.6668 173.8086,19.4952 173.4756,19.2792 C173.1414,19.0626 172.7364,18.8508 172.2588,18.6432 C171.7806,18.4368 171.2628,18.261 170.7036,18.1164 C170.1444,17.9724 169.5768,17.8998 169.0002,17.8998 C167.973,17.8998 167.2068,18.0894 166.7022,18.4674 C166.197,18.8466 165.9444,19.3782 165.9444,20.0628 C165.9444,20.46 166.0398,20.7894 166.2288,21.0504 C166.4178,21.312 166.6926,21.5412 167.0538,21.7392 C167.4144,21.9378 167.8686,22.1178 168.4188,22.2804 C168.9684,22.4424 169.6044,22.614 170.325,22.794 C171.2628,23.0466 172.1142,23.3172 172.8804,23.6052 C173.6466,23.8938 174.2952,24.2544 174.8274,24.687 C175.359,25.1196 175.7688,25.638 176.058,26.2416 C176.3454,26.8458 176.4906,27.5898 176.4906,28.473 C176.4906,29.5008 176.2962,30.3786 175.9092,31.1088 C175.521,31.839 174.9984,32.4294 174.3408,32.88 C173.6826,33.3306 172.9254,33.66 172.0692,33.867 C171.213,34.0746 170.3166,34.1778 169.3788,34.1778 C167.937,34.1778 166.5132,33.9618 165.1068,33.5292 C163.7004,33.0966 162.4386,32.484 161.3208,31.6908 L162.9702,28.473 C163.1328,28.635 163.4256,28.8474 163.8492,29.1084 C164.2728,29.37 164.7726,29.631 165.3498,29.8926 C165.9264,30.1536 166.5666,30.375 167.2698,30.5544 C167.973,30.735 168.6936,30.825 169.4334,30.825 C171.4884,30.825 172.5156,30.1674 172.5156,28.851 C172.5156,28.437 172.398,28.0854 172.164,27.7968 C171.9294,27.5088 171.5958,27.2556 171.1638,27.039 C170.7312,26.823 170.208,26.625 169.5948,26.4444 C168.9822,26.2644 168.297,26.0658 167.5404,25.8498 C166.6206,25.5972 165.8232,25.3224 165.147,25.0248 C164.4708,24.7278 163.908,24.3762 163.4574,23.97 C163.0068,23.5644 162.6684,23.0964 162.4428,22.5642 C162.2172,22.0332 162.1056,21.3972 162.1056,20.658 C162.1056,19.6848 162.2856,18.819 162.6456,18.0624 C163.0068,17.3052 163.5066,16.6746 164.1468,16.1694 C164.7864,15.6648 165.5298,15.282 166.3776,15.0204 C167.2248,14.7594 168.135,14.6286 169.1088,14.6286 C170.4606,14.6286 171.7044,14.8398 172.8402,15.2634 C173.9754,15.6876 174.9666,16.1874 175.8144,16.764 L174.165,19.7928" id="Fill-7" fill="#1D1D1B"></path>
            <path d="M187.2786,33.2316 C186.792,33.4482 186.1968,33.6642 185.4942,33.8808 C184.7916,34.0974 184.0518,34.2048 183.2766,34.2048 C182.772,34.2048 182.2986,34.1418 181.8576,34.0158 C181.416,33.8898 181.0278,33.687 180.6942,33.4074 C180.3612,33.1278 180.0948,32.7678 179.8968,32.3256 C179.6982,31.8846 179.5992,31.3488 179.5992,30.717 L179.5992,22.578 L177.7338,22.578 L177.7338,19.7928 L179.5992,19.7928 L179.5992,15.1962 L183.2226,15.1962 L183.2226,19.7928 L186.1968,19.7928 L186.1968,22.578 L183.2226,22.578 L183.2226,29.5008 C183.2226,30.0048 183.3534,30.3612 183.615,30.5682 C183.876,30.7758 184.1964,30.879 184.575,30.879 C184.9536,30.879 185.3226,30.8166 185.6838,30.69 C186.0438,30.564 186.3324,30.456 186.5484,30.3654 L187.2786,33.2316" id="Fill-8" fill="#1D1D1B"></path>
            <path d="M197.6076,22.9296 C196.5078,22.9476 195.5256,23.1594 194.6604,23.5644 C193.7946,23.97 193.173,24.579 192.7944,25.3896 L192.7944,33.9618 L189.171,33.9618 L189.171,19.7928 L192.4968,19.7928 L192.4968,22.821 C192.7494,22.335 193.0464,21.8976 193.3896,21.51 C193.7316,21.1224 194.1012,20.7846 194.4978,20.496 C194.8938,20.208 195.2952,19.9872 195.7014,19.8336 C196.107,19.6806 196.4988,19.6038 196.8774,19.6038 C197.0754,19.6038 197.2242,19.6038 197.3232,19.6038 C197.4222,19.6038 197.517,19.6128 197.6076,19.6308 L197.6076,22.9296" id="Fill-9" fill="#1D1D1B"></path>
            <path d="M209.181,25.6872 C209.091,24.624 208.698,23.772 208.005,23.1324 C207.3108,22.4922 206.4672,22.1724 205.4766,22.1724 C204.99,22.1724 204.5346,22.2582 204.111,22.4292 C203.6874,22.6008 203.3136,22.839 202.989,23.1456 C202.6644,23.4522 202.398,23.8218 202.1916,24.2544 C201.984,24.687 201.8622,25.1646 201.8262,25.6872 L209.181,25.6872 Z M205.5036,34.2318 C204.3678,34.2318 203.3406,34.0386 202.4208,33.651 C201.5016,33.2634 200.7174,32.736 200.0682,32.0694 C199.4196,31.4022 198.9192,30.627 198.5676,29.7438 C198.2166,28.8606 198.0408,27.9318 198.0408,26.9586 C198.0408,25.9488 198.2118,24.9978 198.5544,24.1056 C198.8964,23.2128 199.3926,22.4292 200.0412,21.753 C200.691,21.0774 201.4788,20.541 202.4076,20.1444 C203.3358,19.7478 204.3768,19.5492 205.5306,19.5492 C206.6838,19.5492 207.7164,19.7478 208.6266,20.1444 C209.5368,20.541 210.312,21.0726 210.9522,21.7392 C211.5912,22.407 212.0784,23.1822 212.4126,24.0648 C212.745,24.9486 212.9124,25.8678 212.9124,26.823 C212.9124,27.0576 212.9076,27.2832 212.8986,27.4998 C212.8896,27.7158 212.8668,27.8964 212.8314,28.0404 L201.8802,28.0404 C201.9342,28.5996 202.0692,29.0946 202.2858,29.5272 C202.5018,29.9598 202.7814,30.3294 203.124,30.636 C203.4666,30.9426 203.8542,31.1766 204.2868,31.3392 C204.7194,31.5018 205.1694,31.5822 205.6392,31.5822 C206.3598,31.5822 207.0402,31.4064 207.6804,31.0548 C208.3194,30.7032 208.7574,30.24 208.9914,29.6628 L212.1012,30.5274 C211.578,31.6092 210.7446,32.4978 209.5998,33.1914 C208.455,33.885 207.09,34.2318 205.5036,34.2318 L205.5036,34.2318 Z" id="Fill-10" fill="#1D1D1B"></path>
            <path d="M225.3774,25.6872 C225.2874,24.624 224.8944,23.772 224.2014,23.1324 C223.5072,22.4922 222.6642,22.1724 221.673,22.1724 C221.1864,22.1724 220.731,22.2582 220.3074,22.4292 C219.8838,22.6008 219.51,22.839 219.1854,23.1456 C218.8608,23.4522 218.5944,23.8218 218.388,24.2544 C218.1804,24.687 218.0586,25.1646 218.0226,25.6872 L225.3774,25.6872 Z M221.7,34.2318 C220.5648,34.2318 219.537,34.0386 218.6172,33.651 C217.698,33.2634 216.9144,32.736 216.2652,32.0694 C215.6166,31.4022 215.1162,30.627 214.7646,29.7438 C214.413,28.8606 214.2372,27.9318 214.2372,26.9586 C214.2372,25.9488 214.4082,24.9978 214.7508,24.1056 C215.0928,23.2128 215.5896,22.4292 216.2382,21.753 C216.8874,21.0774 217.6752,20.541 218.604,20.1444 C219.5322,19.7478 220.5732,19.5492 221.727,19.5492 C222.8802,19.5492 223.9128,19.7478 224.823,20.1444 C225.7332,20.541 226.5084,21.0726 227.1486,21.7392 C227.7882,22.407 228.2748,23.1822 228.609,24.0648 C228.9414,24.9486 229.1088,25.8678 229.1088,26.823 C229.1088,27.0576 229.104,27.2832 229.095,27.4998 C229.086,27.7158 229.0638,27.8964 229.0278,28.0404 L218.0766,28.0404 C218.1306,28.5996 218.2662,29.0946 218.4822,29.5272 C218.6982,29.9598 218.9778,30.3294 219.3204,30.636 C219.663,30.9426 220.0506,31.1766 220.4832,31.3392 C220.9164,31.5018 221.3664,31.5822 221.8356,31.5822 C222.5562,31.5822 223.2366,31.4064 223.8768,31.0548 C224.5164,30.7032 224.9538,30.24 225.1884,29.6628 L228.2976,30.5274 C227.7744,31.6092 226.9416,32.4978 225.7962,33.1914 C224.6514,33.885 223.2864,34.2318 221.7,34.2318 L221.7,34.2318 Z" id="Fill-11" fill="#1D1D1B"></path>
            <path d="M239.7084,33.2316 C239.2218,33.4482 238.6266,33.6642 237.924,33.8808 C237.2208,34.0974 236.4816,34.2048 235.7064,34.2048 C235.2018,34.2048 234.7284,34.1418 234.2874,34.0158 C233.8452,33.8898 233.4576,33.687 233.124,33.4074 C232.791,33.1278 232.5246,32.7678 232.3266,32.3256 C232.128,31.8846 232.029,31.3488 232.029,30.717 L232.029,22.578 L230.1636,22.578 L230.1636,19.7928 L232.029,19.7928 L232.029,15.1962 L235.6524,15.1962 L235.6524,19.7928 L238.6266,19.7928 L238.6266,22.578 L235.6524,22.578 L235.6524,29.5008 C235.6524,30.0048 235.7832,30.3612 236.0442,30.5682 C236.3058,30.7758 236.6262,30.879 237.0048,30.879 C237.3834,30.879 237.7524,30.8166 238.1136,30.69 C238.4736,30.564 238.7622,30.456 238.9782,30.3654 L239.7084,33.2316" id="Fill-12" fill="#1D1D1B"></path>
            <polygon id="Fill-13" fill="#1D1D1B" points="241.5198 33.9618 244.494 33.9618 244.494 30.0684 241.5198 30.0684"></polygon>
            <path d="M250.5234,26.904 C250.5234,27.5358 250.6182,28.1076 250.8078,28.6218 C250.9968,29.1354 251.2584,29.5812 251.5914,29.9598 C251.925,30.3384 252.3168,30.6318 252.768,30.8388 C253.218,31.0464 253.7052,31.1502 254.2284,31.1502 C254.751,31.1502 255.2376,31.0464 255.6888,30.8388 C256.1388,30.6318 256.5306,30.3384 256.8648,29.9598 C257.1978,29.5812 257.4594,29.1306 257.6484,28.608 C257.838,28.0854 257.9328,27.5088 257.9328,26.877 C257.9328,26.2644 257.838,25.6968 257.6484,25.1736 C257.4594,24.651 257.1978,24.2004 256.8648,23.8218 C256.5306,23.4432 256.1388,23.1504 255.6888,22.9428 C255.2376,22.7364 254.751,22.632 254.2284,22.632 C253.7052,22.632 253.218,22.74 252.768,22.9566 C252.3168,23.1726 251.925,23.4702 251.5914,23.8488 C251.2584,24.2274 250.9968,24.678 250.8078,25.2006 C250.6182,25.7238 250.5234,26.2914 250.5234,26.904 Z M254.2284,34.2318 C253.0746,34.2318 252.0384,34.0338 251.1186,33.6372 C250.1994,33.2412 249.4194,32.7042 248.7798,32.028 C248.1402,31.3524 247.6482,30.573 247.3062,29.6898 C246.9636,28.8066 246.792,27.8778 246.792,26.904 C246.792,25.9128 246.9636,24.9756 247.3062,24.0918 C247.6482,23.2092 248.1402,22.4292 248.7798,21.753 C249.4194,21.0774 250.1994,20.541 251.1186,20.1444 C252.0384,19.7478 253.0746,19.5492 254.2284,19.5492 C255.3816,19.5492 256.4142,19.7478 257.3244,20.1444 C258.2346,20.541 259.0098,21.0774 259.6494,21.753 C260.2896,22.4292 260.781,23.2092 261.123,24.0918 C261.4656,24.9756 261.6372,25.9128 261.6372,26.904 C261.6372,27.8778 261.4656,28.8066 261.123,29.6898 C260.781,30.573 260.2938,31.3524 259.6632,32.028 C259.032,32.7042 258.2574,33.2412 257.3382,33.6372 C256.4184,34.0338 255.3816,34.2318 254.2284,34.2318 L254.2284,34.2318 Z" id="Fill-14" fill="#1D1D1B"></path>
            <path d="M272.5062,22.9296 C271.4064,22.9476 270.4242,23.1594 269.559,23.5644 C268.6932,23.97 268.0716,24.579 267.693,25.3896 L267.693,33.9618 L264.0696,33.9618 L264.0696,19.7928 L267.3954,19.7928 L267.3954,22.821 C267.648,22.335 267.945,21.8976 268.2882,21.51 C268.6302,21.1224 268.9998,20.7846 269.3964,20.496 C269.7924,20.208 270.1938,19.9872 270.6,19.8336 C271.0056,19.6806 271.3974,19.6038 271.776,19.6038 C271.974,19.6038 272.1228,19.6038 272.2218,19.6038 C272.3208,19.6038 272.4162,19.6128 272.5062,19.6308 L272.5062,22.9296" id="Fill-15" fill="#1D1D1B"></path>
            <path d="M280.5912,31.1502 C280.9878,31.1502 281.3664,31.0866 281.727,30.9606 C282.0876,30.8346 282.4206,30.663 282.7278,30.447 C283.0338,30.2304 283.3044,29.9778 283.539,29.6898 C283.7724,29.4012 283.953,29.0946 284.0796,28.7706 L284.0796,25.3896 C283.755,24.5616 283.2456,23.8938 282.552,23.3886 C281.8578,22.8846 281.1324,22.632 280.3752,22.632 C279.8166,22.632 279.3114,22.7538 278.8608,22.9968 C278.4102,23.2398 278.0226,23.5644 277.698,23.97 C277.3734,24.3762 277.1256,24.84 276.9546,25.3626 C276.783,25.8864 276.6978,26.427 276.6978,26.9856 C276.6978,27.5628 276.7962,28.1034 276.9948,28.608 C277.1928,29.1126 277.4682,29.5542 277.8198,29.9328 C278.1714,30.3114 278.5812,30.609 279.0498,30.825 C279.5184,31.0416 280.0326,31.1502 280.5912,31.1502 Z M279.3744,34.0428 C278.4186,34.0428 277.5534,33.8532 276.7788,33.4752 C276.0036,33.0966 275.3322,32.5782 274.7646,31.9206 C274.1964,31.2624 273.7596,30.501 273.453,29.6352 C273.1458,28.7706 272.9928,27.8508 272.9928,26.877 C272.9928,25.8498 273.1554,24.894 273.48,24.0114 C273.8046,23.1282 274.2546,22.353 274.8318,21.6858 C275.409,21.0186 276.1026,20.496 276.9144,20.1168 C277.725,19.7382 278.6172,19.5492 279.591,19.5492 C280.6908,19.5492 281.655,19.7976 282.4842,20.2926 C283.3134,20.7894 283.998,21.4518 284.5392,22.2804 L284.5392,19.7928 L287.703,19.7928 L287.703,33.2856 C287.703,34.3308 287.5044,35.2686 287.1078,36.0984 C286.7112,36.9264 286.1658,37.6296 285.4722,38.2068 C284.778,38.7834 283.9482,39.2256 282.9846,39.5316 C282.0198,39.8382 280.9698,39.9918 279.8346,39.9918 C278.2836,39.9918 276.9816,39.735 275.9268,39.2214 C274.8726,38.7072 273.9666,37.9812 273.21,37.0446 L275.1834,35.1246 C275.724,35.7912 276.4044,36.3144 277.2252,36.693 C278.0448,37.0716 278.9154,37.2606 279.8346,37.2606 C280.3926,37.2606 280.9296,37.1838 281.4432,37.0308 C281.9568,36.8772 282.4122,36.639 282.8088,36.3144 C283.2048,35.9898 283.5162,35.5752 283.7412,35.0706 C283.9662,34.5654 284.0796,33.9708 284.0796,33.2856 L284.0796,31.5018 C283.611,32.3124 282.9528,32.9388 282.1056,33.3804 C281.2584,33.8226 280.3482,34.0428 279.3744,34.0428 L279.3744,34.0428 Z" id="Fill-16" fill="#1D1D1B"></path>
            <g id="Group-19">
                <mask id="mask-2" fill="white">
                    <use xlink:href="#path-1"></use>
                </mask>
                <g id="Clip-18"></g>
                <polygon id="Fill-17" fill="url(#linearGradient-3)" mask="url(#mask-2)" points="0 53.364 287.703 53.364 287.703 0.381 0 0.381"></polygon>
            </g>
            <g id="Group-22" transform="translate(13.200000, 12.000000)">
                <mask id="mask-5" fill="white">
                    <use xlink:href="#path-4"></use>
                </mask>
                <g id="Clip-21"></g>
                <polyline id="Fill-20" fill="url(#linearGradient-6)" mask="url(#mask-5)" points="11.8662 20.0088 11.8662 12.0924 5.3946 12.0924 5.3946 20.0088 0.3402 20.0088 0.3402 0.219 5.3946 0.219 5.3946 7.6536 11.8662 7.6536 11.8662 0.219 16.9206 0.219 16.9206 20.0088 11.8662 20.0088"></polyline>
            </g>
            <g id="Group-25">
                <mask id="mask-8" fill="white">
                    <use xlink:href="#path-7"></use>
                </mask>
                <g id="Clip-24"></g>
                <polygon id="Fill-23" fill="url(#linearGradient-3)" mask="url(#mask-8)" points="0 53.364 287.703 53.364 287.703 0.381 0 0.381"></polygon>
            </g>
            <g id="Group-28" transform="translate(13.200000, 12.000000)">
                <mask id="mask-10" fill="white">
                    <use xlink:href="#path-9"></use>
                </mask>
                <g id="Clip-27"></g>
                <polyline id="Fill-26" fill="url(#linearGradient-11)" mask="url(#mask-10)" points="11.8662 20.0088 11.8662 12.0924 5.3946 12.0924 5.3946 20.0088 0.3402 20.0088 0.3402 0.219 5.3946 0.219 5.3946 7.6536 11.8662 7.6536 11.8662 0.219 16.9206 0.219 16.9206 20.0088 11.8662 20.0088"></polyline>
            </g>
        </g>
    </g>
</svg>