<svg width="1176" height="324" xmlns="http://www.w3.org/2000/svg" xmlns:xlink="http://www.w3.org/1999/xlink" overflow="hidden"><defs><clipPath id="clip0"><rect x="55" y="148" width="1176" height="324"/></clipPath><clipPath id="clip1"><rect x="142" y="200" width="172" height="208"/></clipPath><clipPath id="clip2"><rect x="142" y="200" width="172" height="208"/></clipPath><clipPath id="clip3"><rect x="142" y="200" width="172" height="208"/></clipPath><clipPath id="clip4"><path d="M164.601 222.069 291.395 222.069 291.395 348.862 272.457 348.862C261.97 348.873 253.471 357.372 253.46 367.86L253.46 377.91 223.435 353.184C220.038 350.387 215.776 348.854 211.376 348.846L164.601 348.846ZM161.534 200C151.048 200.013 142.55 208.511 142.536 218.998L142.536 351.929C142.55 362.416 151.048 370.914 161.534 370.927L210.254 370.927 251.144 404.601C257.499 409.834 266.893 408.924 272.126 402.569 274.323 399.9 275.525 396.55 275.524 393.092L275.524 370.927 294.466 370.927C304.953 370.916 313.452 362.417 313.464 351.929L313.464 218.998C313.45 208.511 304.952 200.013 294.466 200Z"/></clipPath><clipPath id="clip5"><path d="M240.882 253.042 240.882 282.21 215.492 282.21 215.492 253.042 195.658 253.042 195.658 330.685 215.492 330.685 215.492 299.627 240.882 299.627 240.882 330.685 260.715 330.685 260.715 253.042Z"/></clipPath></defs><g clip-path="url(#clip0)" transform="translate(-55 -148)"><path d="M55 181.401C55 164.611 68.611 151 85.401 151L1196.6 151C1213.39 151 1227 164.611 1227 181.401L1227 408.599C1227 425.389 1213.39 439 1196.6 439L85.401 439C68.611 439 55 425.389 55 408.599Z" fill="#2C98D9" fill-rule="evenodd"/><g clip-path="url(#clip1)"><g clip-path="url(#clip2)"><g clip-path="url(#clip3)"><g clip-path="url(#clip4)"><path d="M142.532 408.022 1272.1 408.022 1272.1 200 142.532 200Z" fill="#FFFFFF" fill-rule="evenodd"/></g><g clip-path="url(#clip5)"><path d="M142.532 411.957 1272.1 411.957 1272.1 203.935 142.532 203.935Z" fill="#FFFFFF" fill-rule="evenodd"/></g></g></g></g><text fill="#FFFFFF" font-family="Arial,Arial_MSFontService,sans-serif" font-weight="700" font-size="153" transform="translate(371.964 344)">SANDBOX</text></g></svg>