<?xml version="1.0" encoding="utf-8"?>
<!-- Generator: Adobe Illustrator 25.3.1, SVG Export Plug-In . SVG Version: 6.00 Build 0)  -->
<svg version="1.1"
	 id="svg288" xmlns:cc="http://creativecommons.org/ns#" xmlns:dc="http://purl.org/dc/elements/1.1/" xmlns:inkscape="http://www.inkscape.org/namespaces/inkscape" xmlns:rdf="http://www.w3.org/1999/02/22-rdf-syntax-ns#" xmlns:sodipodi="http://sodipodi.sourceforge.net/DTD/sodipodi-0.dtd" xmlns:svg="http://www.w3.org/2000/svg"
	 xmlns="http://www.w3.org/2000/svg" xmlns:xlink="http://www.w3.org/1999/xlink" x="0px" y="0px" viewBox="0 0 70.9 70.9"
	 style="enable-background:new 0 0 70.9 70.9;" xml:space="preserve">
<style type="text/css">
	.st0{clip-path:url(#SVGID_6_);}
	.st1{fill-rule:evenodd;clip-rule:evenodd;fill:url(#path274_1_);}
	.st2{clip-path:url(#SVGID_8_);}
	.st3{fill-rule:evenodd;clip-rule:evenodd;fill:url(#path280_1_);}
</style>
<sodipodi:namedview  bordercolor="#666666" borderopacity="1" gridtolerance="10" guidetolerance="10" id="namedview290" inkscape:current-layer="g286" inkscape:cx="139.34162" inkscape:cy="25.8745" inkscape:pageopacity="0" inkscape:pageshadow="2" inkscape:window-height="1198" inkscape:window-maximized="0" inkscape:window-width="3024" inkscape:window-x="4269" inkscape:window-y="347" inkscape:zoom="4.3238434" objecttolerance="10" pagecolor="#ffffff" showgrid="false">
	</sodipodi:namedview>
<g id="g286" transform="translate(-0.001,-115.38)">
	
		<image style="overflow:visible;opacity:0.75;" width="61" height="70" xlink:href="8D1B858B5D1027C.png"  transform="matrix(1 0 0 1 8.6696 121.1809)">
	</image>
	<g>
		<g>
			<g id="g278_10_" transform="translate(0,115.38)">
				<g>
					<defs>
						<path id="SVGID_1_" d="M18,14.8h31.5v31.5h-4.7c-2.6,0-4.7,2.1-4.7,4.7v2.5l-7.5-6.2c-0.8-0.7-1.9-1.1-3-1.1H18V14.8z
							 M17.2,9.3c-2.6,0-4.7,2.1-4.7,4.7v33.1c0,2.6,2.1,4.7,4.7,4.7h12.1l10.2,8.4c1.6,1.3,3.9,1.1,5.2-0.5
							c0.5-0.7,0.8-1.5,0.8-2.4v-5.5h4.7c2.6,0,4.7-2.1,4.7-4.7V14c0-2.6-2.1-4.7-4.7-4.7L17.2,9.3z"/>
					</defs>
					<clipPath id="SVGID_2_">
						<use xlink:href="#SVGID_1_"  style="overflow:visible;"/>
					</clipPath>
				</g>
			</g>
			<g id="g284_10_" transform="translate(13.216,128.575)">
				<g>
					<defs>
						<polygon id="SVGID_3_" points="23.7,9.3 23.7,16.6 17.4,16.6 17.4,9.3 12.5,9.3 12.5,28.6 17.4,28.6 17.4,20.9 23.7,20.9 
							23.7,28.6 28.7,28.6 28.7,9.3 						"/>
					</defs>
					<clipPath id="SVGID_4_">
						<use xlink:href="#SVGID_3_"  style="overflow:visible;"/>
					</clipPath>
				</g>
			</g>
		</g>
		<g>
			<g id="g278_9_" transform="translate(0,115.38)">
				<g>
					<defs>
						<path id="SVGID_5_" d="M18,14.8h31.5v31.5h-4.7c-2.6,0-4.7,2.1-4.7,4.7v2.5l-7.5-6.2c-0.8-0.7-1.9-1.1-3-1.1H18V14.8z
							 M17.2,9.3c-2.6,0-4.7,2.1-4.7,4.7v33.1c0,2.6,2.1,4.7,4.7,4.7h12.1l10.2,8.4c1.6,1.3,3.9,1.1,5.2-0.5
							c0.5-0.7,0.8-1.5,0.8-2.4v-5.5h4.7c2.6,0,4.7-2.1,4.7-4.7V14c0-2.6-2.1-4.7-4.7-4.7L17.2,9.3z"/>
					</defs>
					<clipPath id="SVGID_6_">
						<use xlink:href="#SVGID_5_"  style="overflow:visible;"/>
					</clipPath>
					<g id="g276_9_" class="st0">
						
							<linearGradient id="path274_1_" gradientUnits="userSpaceOnUse" x1="-56.1965" y1="-333.5802" x2="-37.9877" y2="-333.5802" gradientTransform="matrix(2.3302 0 0 -0.4291 143.4349 -107.9704)">
							<stop  offset="0" style="stop-color:#FF1F05"/>
							<stop  offset="1" style="stop-color:#FF8E12"/>
						</linearGradient>
						<path id="path274_12_" class="st1" d="M12.5,61.1h281V9.3h-281V61.1z"/>
					</g>
				</g>
			</g>
			<g id="g284_9_" transform="translate(13.216,128.575)">
				<g>
					<defs>
						<polygon id="SVGID_7_" points="23.7,9.3 23.7,16.6 17.4,16.6 17.4,9.3 12.5,9.3 12.5,28.6 17.4,28.6 17.4,20.9 23.7,20.9 
							23.7,28.6 28.7,28.6 28.7,9.3 						"/>
					</defs>
					<clipPath id="SVGID_8_">
						<use xlink:href="#SVGID_7_"  style="overflow:visible;"/>
					</clipPath>
					<g id="g282_9_" class="st2">
						
							<linearGradient id="path280_1_" gradientUnits="userSpaceOnUse" x1="-69.4125" y1="-346.7752" x2="-51.2037" y2="-346.7752" gradientTransform="matrix(2.3302 0 0 -0.4291 161.0155 -125.8489)">
							<stop  offset="0" style="stop-color:#FF1F05"/>
							<stop  offset="1" style="stop-color:#FF8E12"/>
						</linearGradient>
						<path id="path280_12_" class="st3" d="M-0.7,48.8h281V-2.9h-281V48.8z"/>
					</g>
				</g>
			</g>
		</g>
		<g>
			<g id="g278_8_" transform="translate(0,115.38)">
				<g>
					<defs>
						<path id="SVGID_9_" d="M18,14.8h31.5v31.5h-4.7c-2.6,0-4.7,2.1-4.7,4.7v2.5l-7.5-6.2c-0.8-0.7-1.9-1.1-3-1.1H18V14.8z
							 M17.2,9.3c-2.6,0-4.7,2.1-4.7,4.7v33.1c0,2.6,2.1,4.7,4.7,4.7h12.1l10.2,8.4c1.6,1.3,3.9,1.1,5.2-0.5
							c0.5-0.7,0.8-1.5,0.8-2.4v-5.5h4.7c2.6,0,4.7-2.1,4.7-4.7V14c0-2.6-2.1-4.7-4.7-4.7L17.2,9.3z"/>
					</defs>
					<clipPath id="SVGID_10_">
						<use xlink:href="#SVGID_9_"  style="overflow:visible;"/>
					</clipPath>
				</g>
			</g>
			<g id="g284_8_" transform="translate(13.216,128.575)">
				<g>
					<defs>
						<polygon id="SVGID_11_" points="23.7,9.3 23.7,16.6 17.4,16.6 17.4,9.3 12.5,9.3 12.5,28.6 17.4,28.6 17.4,20.9 23.7,20.9 
							23.7,28.6 28.7,28.6 28.7,9.3 						"/>
					</defs>
					<clipPath id="SVGID_12_">
						<use xlink:href="#SVGID_11_"  style="overflow:visible;"/>
					</clipPath>
				</g>
			</g>
		</g>
	</g>
</g>
</svg>
