<svg id="b22d2b75-1594-4b05-a097-bd53fde70bbe" data-name="Layer 1" xmlns="http://www.w3.org/2000/svg" xmlns:xlink="http://www.w3.org/1999/xlink" width="40.54mm" height="65.11mm" viewBox="0 0 114.92 184.55">
  <defs>
    <style>
      .acb0d14a-9e12-4ffb-a9dc-f8b4ba470fd2 {
        fill: none;
      }

      .af8223de-3fd2-4f2c-9244-efe3c7f7e1e7 {
        fill: #111;
        opacity: 0.61;
      }

      .af8223de-3fd2-4f2c-9244-efe3c7f7e1e7, .ba1b4fbb-4527-4928-9f59-05b67fc807d5 {
        fill-rule: evenodd;
      }

      .b296342d-b848-44fa-8a56-fc7c9e76b3be {
        clip-path: url(#ecaf77ea-36be-49b5-943c-344b25d24f49);
      }

      .ba1b4fbb-4527-4928-9f59-05b67fc807d5 {
        fill: #000f86;
      }
    </style>
    <clipPath id="ecaf77ea-36be-49b5-943c-344b25d24f49" transform="translate(-28.67 -27.16)">
      <polygon class="acb0d14a-9e12-4ffb-a9dc-f8b4ba470fd2" points="0 0 230.37 0.06 230.37 230.65 0.34 230.65 0 0"/>
    </clipPath>
  </defs>
  <path class="af8223de-3fd2-4f2c-9244-efe3c7f7e1e7" d="M120.9,144.42,116,143.5l-2.9,3.39,4.93.92-3.32,3.86-4.93-.91-2.91,3.38,4.94.92-3.32,3.86-4.94-.91-2.9,3.38,4.94.92-3.22,3.75-9.87-1.84L114.14,139,124,140.8ZM142,124.94l-17.42-3.24a6,6,0,0,0-5.22,2c-1.25,1.46-.85,2.86.87,3.11l3.63.67-5.5,6.41-5.95-1.11-2.76-.51a6,6,0,0,0-5.23,2c-1.24,1.45-.85,2.86.87,3.11l2.76.51L80.66,169.74c-2.07,2.41-3,5-2.41,7.12a5.68,5.68,0,0,0,1.31,2.2l-5.39,6.28c-1.46,1.7-1.52,3.44-.28,4.44L57.51,208.87c-.83,1-.58,1.86.58,2.07a3.56,3.56,0,0,0,1.86-.21,4,4,0,0,0,1.62-1.1L78,190.53a10.71,10.71,0,0,0,6.36-3.3l5.4-6.28a29.22,29.22,0,0,0,4.21-1.18,21,21,0,0,0,8.79-5.94l27.38-31.9,2.76.51a5.53,5.53,0,0,0,2.8-.32,6.37,6.37,0,0,0,2.43-1.65c1.24-1.45.85-2.86-.87-3.11l-2.76-.51-6-1.1,5.5-6.41,3.62.68a5.53,5.53,0,0,0,2.8-.33,6.09,6.09,0,0,0,2.43-1.65C144.1,126.59,143.73,125.26,142,124.94Z" transform="translate(-28.67 -27.16)"/>
  <g class="b296342d-b848-44fa-8a56-fc7c9e76b3be">
    <path class="ba1b4fbb-4527-4928-9f59-05b67fc807d5" d="M66.86,69.67H58.2V76.8h8.66v8.14H58.2v7.13h8.66v8.15H58.2v7.13h8.66v7.89H49.55V62H66.86Zm6.62-42.51H42.93a5.35,5.35,0,1,0,0,10.69h6.36V51.34H34A5.35,5.35,0,1,0,34,62h4.84v67.21A19.34,19.34,0,0,0,44.46,143a22.72,22.72,0,0,0,4.83,3.57v13.23a9,9,0,0,0,5.35,8.15v40.22a3.48,3.48,0,0,0,3.56,3.56,3.47,3.47,0,0,0,3.57-3.56V167.93a8.94,8.94,0,0,0,5.34-8.15V146.55A22.54,22.54,0,0,0,72,143a18.5,18.5,0,0,0,5.6-13.74V62h4.84a5.21,5.21,0,0,0,5.34-5.34,5.22,5.22,0,0,0-5.34-5.35H67.11V37.85h6.37a5.21,5.21,0,0,0,5.34-5.34A5.22,5.22,0,0,0,73.48,27.16Z" transform="translate(-28.67 -27.16)"/>
  </g>
</svg>
