<svg id="e64ed787-f465-4bb0-97ba-c45d0d13f454" data-name="Layer 1" xmlns="http://www.w3.org/2000/svg" xmlns:xlink="http://www.w3.org/1999/xlink" width="39.22mm" height="65.11mm" viewBox="0 0 111.17 184.55">
  <defs>
    <style>
      .b4728e15-ed41-4ad1-b035-a27e456b3459 {
        fill: none;
      }

      .a5842176-7ebf-4033-be7f-c3796e9196af, .fc4f6a30-14a5-4c93-ad65-c02c6cf49543 {
        fill-rule: evenodd;
      }

      .a5842176-7ebf-4033-be7f-c3796e9196af {
        opacity: 0.52;
      }

      .f999a2f1-c0c8-4cdf-b575-6b8f2452f108 {
        clip-path: url(#ab2f3fd3-411b-4234-8ae2-66e71212621f);
      }

      .fc4f6a30-14a5-4c93-ad65-c02c6cf49543 {
        fill: #000f86;
      }
    </style>
    <clipPath id="ab2f3fd3-411b-4234-8ae2-66e71212621f" transform="translate(-28.67 -27.16)">
      <polygon class="b4728e15-ed41-4ad1-b035-a27e456b3459" points="0 0 230.37 0.06 230.37 230.65 0.34 230.65 0 0"/>
    </clipPath>
  </defs>
  <path class="a5842176-7ebf-4033-be7f-c3796e9196af" d="M116.16,131.64H111.4l-2.74,3.91h4.76L110.28,140h-4.75L102.79,144h4.75l-3.13,4.47H99.65l-2.74,3.92h4.76l-3,4.33H89.12l20.47-29.23h9.51Zm22.12-22.22-18.91-1.14a6.9,6.9,0,0,0-5,2.94c-1.17,1.68-.77,3,.88,2.94h3.5l-5.19,7.41h-8.39a6.92,6.92,0,0,0-5,2.93c-1.17,1.68-.77,3,.89,2.94h2.65L77.86,164.37c-2,2.79-2.82,5.52-2.21,7.55a4.55,4.55,0,0,0,1.28,2l-5.09,7.27c-1.37,2-1.41,3.71-.2,4.48l-15.47,22.1c-.78,1.11,1.6,3.09,2.71,3.09a3.66,3.66,0,0,0,1.79-.56,4.92,4.92,0,0,0,1.54-1.4l15.48-22.1a13,13,0,0,0,6.07-4.47L88.85,175a31.16,31.16,0,0,0,4-2,25.82,25.82,0,0,0,8.36-7.55l25.86-36.92h2.66a5.67,5.67,0,0,0,2.68-.84,7.8,7.8,0,0,0,2.31-2.1c1.18-1.68.78-3-.88-2.94h-8.39l5.19-7.41h3.49a5.71,5.71,0,0,0,2.69-.84,7.8,7.8,0,0,0,2.31-2.1C140.33,110.67,140,109.42,138.28,109.42Z" transform="translate(-28.67 -27.16)"/>
  <g class="f999a2f1-c0c8-4cdf-b575-6b8f2452f108">
    <path class="fc4f6a30-14a5-4c93-ad65-c02c6cf49543" d="M66.86,69.67H58.2V76.8h8.66v8.14H58.2v7.13h8.66v8.15H58.2v7.13h8.66v7.89H49.55V62H66.86Zm6.62-42.51H42.93a5.35,5.35,0,1,0,0,10.69h6.36V51.34H34A5.35,5.35,0,1,0,34,62h4.84v67.21A19.34,19.34,0,0,0,44.46,143a22.72,22.72,0,0,0,4.83,3.57v13.23a9,9,0,0,0,5.35,8.15v40.22a3.48,3.48,0,0,0,3.56,3.56,3.47,3.47,0,0,0,3.57-3.56V167.93a8.94,8.94,0,0,0,5.34-8.15V146.55A22.54,22.54,0,0,0,72,143a18.5,18.5,0,0,0,5.6-13.74V62h4.84a5.21,5.21,0,0,0,5.34-5.34,5.22,5.22,0,0,0-5.34-5.35H67.11V37.85h6.37a5.21,5.21,0,0,0,5.34-5.34A5.22,5.22,0,0,0,73.48,27.16Z" transform="translate(-28.67 -27.16)"/>
  </g>
</svg>
