<svg xmlns="http://www.w3.org/2000/svg" xmlns:xlink="http://www.w3.org/1999/xlink" width="281" height="51.749" viewBox="0 0 281 51.749"><defs><style>.a{fill:none;}.b{fill:#1d1d1b;}.b,.d{fill-rule:evenodd;}.c{clip-path:url(#a);}.d{fill:url(#b);}.e{clip-path:url(#c);}</style><clipPath id="a"><path class="a" d="M388.023,217.788h31.542V249.33h-4.711a4.731,4.731,0,0,0-4.726,4.726v2.5l-7.469-6.151a4.734,4.734,0,0,0-3-1.079H388.023Zm-.763-5.49a4.732,4.732,0,0,0-4.726,4.726v33.069a4.732,4.732,0,0,0,4.726,4.726h12.12l10.172,8.377a3.708,3.708,0,0,0,6.065-2.863v-5.514h4.712a4.731,4.731,0,0,0,4.726-4.726V217.024a4.732,4.732,0,0,0-4.726-4.726Z" transform="translate(-382.533 -212.298)"/></clipPath><linearGradient id="b" y1="0.5" x2="0.151" y2="0.5" gradientUnits="objectBoundingBox"><stop offset="0" stop-color="#ff1f05"/><stop offset="1" stop-color="#ff8e12"/></linearGradient><clipPath id="c"><path class="a" d="M417.66,233.173v7.256h-6.316v-7.256H406.41v19.315h4.934v-7.726h6.316v7.726h4.934V233.173Z" transform="translate(-406.41 -233.173)"/></clipPath></defs><g transform="translate(0 -115.38)"><path class="b" d="M78.529,14.763V33.514H74.912v-8h-8.5v8H62.763V14.763h3.644v7.58h8.5v-7.58h3.618" transform="translate(-1.462 116.618)"/><path class="b" d="M92.355,25.544a3.681,3.681,0,0,0-1.149-2.5,3.606,3.606,0,0,0-4.9.013,3.612,3.612,0,0,0-.779,1.083,3.809,3.809,0,0,0-.357,1.4ZM88.764,33.89a7.683,7.683,0,0,1-3.011-.567,6.789,6.789,0,0,1-3.763-3.816,7.289,7.289,0,0,1-.515-2.72,7.706,7.706,0,0,1,.5-2.787,6.8,6.8,0,0,1,1.453-2.3,6.937,6.937,0,0,1,2.311-1.571,7.69,7.69,0,0,1,3.05-.581,7.5,7.5,0,0,1,3.024.581,6.963,6.963,0,0,1,2.271,1.558,6.653,6.653,0,0,1,1.426,2.271A7.577,7.577,0,0,1,96,26.654q0,.344-.013.661a2.691,2.691,0,0,1-.066.528h-10.7a4.107,4.107,0,0,0,.4,1.452,3.558,3.558,0,0,0,1.954,1.77A3.724,3.724,0,0,0,88.9,31.3a4.08,4.08,0,0,0,1.994-.515,2.727,2.727,0,0,0,1.281-1.36l3.037.844a6.171,6.171,0,0,1-2.443,2.6,7.574,7.574,0,0,1-4,1.016Z" transform="translate(-1.898 116.507)"/><path class="b" d="M98.537,14.222h3.539V29.065a1.741,1.741,0,0,0,.37,1.188,1.327,1.327,0,0,0,1.057.423,2.657,2.657,0,0,0,.7-.105,4.7,4.7,0,0,0,.726-.264L105.4,33a6.853,6.853,0,0,1-1.664.528,9.092,9.092,0,0,1-1.717.185,3.541,3.541,0,0,1-2.574-.884,3.355,3.355,0,0,1-.911-2.522V14.222" transform="translate(-2.296 116.631)"/><path class="b" d="M114.239,30.88a3.183,3.183,0,0,0,1.466-.343,3.544,3.544,0,0,0,1.149-.925,4.325,4.325,0,0,0,.74-1.347,4.822,4.822,0,0,0,.264-1.585,4.477,4.477,0,0,0-.291-1.624,4.031,4.031,0,0,0-.805-1.307,3.748,3.748,0,0,0-1.215-.871,3.635,3.635,0,0,0-1.518-.317,3.312,3.312,0,0,0-1.03.172,3.637,3.637,0,0,0-.977.489,4.262,4.262,0,0,0-.805.739,3.067,3.067,0,0,0-.541.925v3.248a4.694,4.694,0,0,0,1.453,1.967A3.32,3.32,0,0,0,114.239,30.88Zm1.188,3.01a5.454,5.454,0,0,1-2.853-.726,5.16,5.16,0,0,1-1.9-1.967v8.055h-3.539V19.787h3.09v2.377a5.651,5.651,0,0,1,1.981-1.915,5.512,5.512,0,0,1,2.8-.7,5.917,5.917,0,0,1,2.588.568,6.389,6.389,0,0,1,2.047,1.531,7.139,7.139,0,0,1,1.347,2.271,7.818,7.818,0,0,1,.489,2.76,8.734,8.734,0,0,1-.449,2.826,7.236,7.236,0,0,1-1.254,2.3,5.858,5.858,0,0,1-1.915,1.531,5.356,5.356,0,0,1-2.43.554Z" transform="translate(-2.496 116.507)"/><path class="b" d="M139.758,33.514V21.1l-4.833,9.243h-1.981L128.111,21.1V33.514h-3.644V14.763h3.909l5.546,10.67,5.6-10.67H143.4V33.514h-3.644" transform="translate(-2.9 116.618)"/><path class="b" d="M147.76,36.326a6.929,6.929,0,0,0,.871.2,4.768,4.768,0,0,0,.713.066,1.517,1.517,0,0,0,.634-.132,1.365,1.365,0,0,0,.529-.462,4.531,4.531,0,0,0,.475-.911q.238-.582.5-1.453l-5.467-13.839h3.644l3.751,10.775,3.327-10.775h3.327l-5.81,16.586a4.962,4.962,0,0,1-1.717,2.377,4.827,4.827,0,0,1-3.01.924,5.723,5.723,0,0,1-.859-.066,5.426,5.426,0,0,1-.911-.224V36.326" transform="translate(-3.402 116.501)"/><path class="b" d="M173.866,19.672a4.511,4.511,0,0,0-.673-.5A8.224,8.224,0,0,0,172,18.55a10.394,10.394,0,0,0-1.519-.515,6.645,6.645,0,0,0-1.664-.212,3.734,3.734,0,0,0-2.244.554,1.836,1.836,0,0,0-.74,1.558,1.6,1.6,0,0,0,.278.965,2.382,2.382,0,0,0,.806.673,6.764,6.764,0,0,0,1.333.529q.805.237,1.862.5,1.374.37,2.5.792a6.773,6.773,0,0,1,1.9,1.057,4.375,4.375,0,0,1,1.2,1.518,5.053,5.053,0,0,1,.423,2.179,5.43,5.43,0,0,1-.568,2.574,4.778,4.778,0,0,1-1.532,1.73,6.657,6.657,0,0,1-2.219.964,11.113,11.113,0,0,1-2.628.3,14.117,14.117,0,0,1-4.172-.633,12.881,12.881,0,0,1-3.7-1.8l1.611-3.143a5.1,5.1,0,0,0,.859.621,13.084,13.084,0,0,0,1.466.766,11.349,11.349,0,0,0,1.875.646,8.457,8.457,0,0,0,2.113.264q3.011,0,3.01-1.928a1.583,1.583,0,0,0-.343-1.03,2.93,2.93,0,0,0-.977-.74,9.411,9.411,0,0,0-1.532-.581q-.9-.264-2.007-.581a17.066,17.066,0,0,1-2.338-.806,6.113,6.113,0,0,1-1.65-1.03,3.861,3.861,0,0,1-.991-1.373,4.749,4.749,0,0,1-.329-1.862,5.834,5.834,0,0,1,.527-2.535,5.133,5.133,0,0,1,1.466-1.849,6.638,6.638,0,0,1,2.179-1.122,9.015,9.015,0,0,1,2.668-.383,10.353,10.353,0,0,1,3.644.62,13.632,13.632,0,0,1,2.9,1.466l-1.611,2.958" transform="translate(-3.759 116.621)"/><path class="b" d="M187.056,32.811a15.806,15.806,0,0,1-1.743.634,7.313,7.313,0,0,1-2.166.316,5.027,5.027,0,0,1-1.386-.185,3.048,3.048,0,0,1-1.136-.594,2.9,2.9,0,0,1-.779-1.057,3.812,3.812,0,0,1-.291-1.571V22.406h-1.822v-2.72h1.822V15.2h3.539v4.49H186v2.72h-2.9v6.762a1.257,1.257,0,0,0,.383,1.043,1.459,1.459,0,0,0,.938.3,3.248,3.248,0,0,0,1.083-.185q.527-.185.844-.317l.713,2.8" transform="translate(-4.141 116.608)"/><path class="b" d="M197.411,22.852a6.987,6.987,0,0,0-2.879.62,3.634,3.634,0,0,0-1.823,1.783v8.372h-3.539V19.788h3.248v2.958a6.31,6.31,0,0,1,.872-1.28,6.7,6.7,0,0,1,1.082-.99,5.027,5.027,0,0,1,1.176-.647A3.247,3.247,0,0,1,196.7,19.6h.435a1.423,1.423,0,0,1,.278.026v3.222" transform="translate(-4.408 116.506)"/><path class="b" d="M208.921,25.544a3.681,3.681,0,0,0-1.149-2.5,3.606,3.606,0,0,0-4.9.013,3.612,3.612,0,0,0-.779,1.083,3.808,3.808,0,0,0-.357,1.4ZM205.33,33.89a7.681,7.681,0,0,1-3.011-.567,6.787,6.787,0,0,1-3.763-3.816,7.3,7.3,0,0,1-.515-2.72,7.706,7.706,0,0,1,.5-2.787,6.794,6.794,0,0,1,1.452-2.3,6.946,6.946,0,0,1,2.311-1.571,7.69,7.69,0,0,1,3.05-.581,7.5,7.5,0,0,1,3.024.581,6.963,6.963,0,0,1,2.271,1.558,6.662,6.662,0,0,1,1.426,2.271,7.59,7.59,0,0,1,.488,2.694q0,.344-.013.661a2.736,2.736,0,0,1-.066.528h-10.7a4.1,4.1,0,0,0,.4,1.452,3.558,3.558,0,0,0,1.954,1.77,3.72,3.72,0,0,0,1.321.237,4.08,4.08,0,0,0,1.994-.515,2.726,2.726,0,0,0,1.28-1.36l3.037.844a6.174,6.174,0,0,1-2.443,2.6,7.574,7.574,0,0,1-4,1.016Z" transform="translate(-4.614 116.507)"/><path class="b" d="M225.118,25.544a3.681,3.681,0,0,0-1.149-2.5,3.606,3.606,0,0,0-4.9.013,3.612,3.612,0,0,0-.779,1.083,3.809,3.809,0,0,0-.357,1.4Zm-3.592,8.346a7.683,7.683,0,0,1-3.011-.567,6.789,6.789,0,0,1-3.763-3.816,7.289,7.289,0,0,1-.515-2.72,7.706,7.706,0,0,1,.5-2.787,6.8,6.8,0,0,1,1.453-2.3,6.937,6.937,0,0,1,2.311-1.571,7.69,7.69,0,0,1,3.05-.581,7.5,7.5,0,0,1,3.024.581,6.963,6.963,0,0,1,2.271,1.558,6.653,6.653,0,0,1,1.426,2.271,7.59,7.59,0,0,1,.488,2.694q0,.344-.013.661a2.691,2.691,0,0,1-.066.528h-10.7a4.107,4.107,0,0,0,.4,1.452,3.558,3.558,0,0,0,1.954,1.77,3.724,3.724,0,0,0,1.321.237,4.08,4.08,0,0,0,1.994-.515,2.727,2.727,0,0,0,1.281-1.36l3.037.844a6.171,6.171,0,0,1-2.443,2.6,7.574,7.574,0,0,1-4,1.016Z" transform="translate(-4.992 116.507)"/><path class="b" d="M239.486,32.811a15.807,15.807,0,0,1-1.743.634,7.316,7.316,0,0,1-2.166.316,5.027,5.027,0,0,1-1.386-.185,3.044,3.044,0,0,1-1.136-.594,2.9,2.9,0,0,1-.779-1.057,3.812,3.812,0,0,1-.291-1.571V22.406h-1.822v-2.72h1.822V15.2h3.539v4.49h2.9v2.72h-2.9v6.762a1.258,1.258,0,0,0,.383,1.043,1.462,1.462,0,0,0,.938.3,3.248,3.248,0,0,0,1.083-.185q.527-.185.844-.317l.713,2.8" transform="translate(-5.363 116.608)"/><path class="b" d="M241.52,33.871h2.9v-3.8h-2.9Z" transform="translate(-5.627 116.262)"/><path class="b" d="M250.436,26.733a4.817,4.817,0,0,0,.278,1.678,4.1,4.1,0,0,0,.765,1.307,3.417,3.417,0,0,0,1.149.859,3.5,3.5,0,0,0,2.853,0,3.432,3.432,0,0,0,1.149-.859,4.072,4.072,0,0,0,.765-1.32,4.924,4.924,0,0,0,.278-1.691,4.847,4.847,0,0,0-.278-1.664,4.072,4.072,0,0,0-.765-1.32,3.44,3.44,0,0,0-1.149-.859,3.388,3.388,0,0,0-1.426-.3,3.247,3.247,0,0,0-1.426.317,3.575,3.575,0,0,0-1.149.871,4.072,4.072,0,0,0-.765,1.32A4.847,4.847,0,0,0,250.436,26.733Zm3.619,7.157a7.6,7.6,0,0,1-3.037-.581,6.808,6.808,0,0,1-2.284-1.572,6.927,6.927,0,0,1-1.439-2.284,7.692,7.692,0,0,1,0-5.468,6.942,6.942,0,0,1,1.439-2.284,6.824,6.824,0,0,1,2.284-1.571,7.6,7.6,0,0,1,3.037-.581,7.5,7.5,0,0,1,3.024.581A6.856,6.856,0,0,1,259.35,21.7a6.932,6.932,0,0,1,1.439,2.284,7.691,7.691,0,0,1,0,5.468,7.038,7.038,0,0,1-1.426,2.284,6.671,6.671,0,0,1-2.271,1.572,7.6,7.6,0,0,1-3.037.581Z" transform="translate(-5.75 116.507)"/><path class="b" d="M272.31,22.852a6.987,6.987,0,0,0-2.879.62,3.634,3.634,0,0,0-1.823,1.783v8.372H264.07V19.788h3.248v2.958a6.311,6.311,0,0,1,.872-1.28,6.7,6.7,0,0,1,1.082-.99,5.026,5.026,0,0,1,1.176-.647A3.247,3.247,0,0,1,271.6,19.6h.435a1.419,1.419,0,0,1,.278.026v3.222" transform="translate(-6.153 116.506)"/><path class="b" d="M280.414,30.88a3.339,3.339,0,0,0,1.109-.185,3.954,3.954,0,0,0,1.77-1.241,3.385,3.385,0,0,0,.528-.9v-3.3a4.307,4.307,0,0,0-1.492-1.954,3.568,3.568,0,0,0-2.126-.739,3.067,3.067,0,0,0-1.479.356,3.679,3.679,0,0,0-1.136.951,4.3,4.3,0,0,0-.726,1.36,5.057,5.057,0,0,0-.251,1.585,4.286,4.286,0,0,0,.29,1.585,4.06,4.06,0,0,0,.806,1.294,3.789,3.789,0,0,0,1.2.871A3.546,3.546,0,0,0,280.414,30.88Zm-1.188,2.825a5.7,5.7,0,0,1-2.535-.554,6.125,6.125,0,0,1-1.967-1.518,6.905,6.905,0,0,1-1.281-2.232,8.384,8.384,0,0,1,.026-5.493,7.264,7.264,0,0,1,1.32-2.271,6.031,6.031,0,0,1,2.034-1.532,6.1,6.1,0,0,1,2.614-.554,5.407,5.407,0,0,1,2.826.726,6.147,6.147,0,0,1,2.007,1.941v-2.43h3.09V32.966a6.293,6.293,0,0,1-.581,2.747,6.039,6.039,0,0,1-1.6,2.059,7.136,7.136,0,0,1-2.43,1.294,10.11,10.11,0,0,1-3.077.449,8.675,8.675,0,0,1-3.817-.752,7.745,7.745,0,0,1-2.654-2.126l1.927-1.875a5.479,5.479,0,0,0,1.994,1.532,6.007,6.007,0,0,0,2.549.554,5.478,5.478,0,0,0,1.571-.224,3.8,3.8,0,0,0,1.334-.7,3.257,3.257,0,0,0,.911-1.215,4.255,4.255,0,0,0,.331-1.743V31.223a4.673,4.673,0,0,1-1.928,1.835,5.679,5.679,0,0,1-2.668.647Z" transform="translate(-6.361 116.507)"/><g transform="translate(0 115.38)"><g class="c" transform="translate(0 0)"><path class="d" d="M0,52.13H281V.381H0Z" transform="translate(0 -0.381)"/></g></g><g transform="translate(13.216 128.575)"><g class="e" transform="translate(0 0)"><path class="d" d="M0,52.13H281V.381H0Z" transform="translate(-13.216 -12.597)"/></g></g></g></svg>