<?xml version="1.0" encoding="utf-8"?>
<!-- Generator: Adobe Illustrator 24.3.0, SVG Export Plug-In . SVG Version: 6.00 Build 0)  -->
<svg version="1.1" id="Layer_1" xmlns="http://www.w3.org/2000/svg" xmlns:xlink="http://www.w3.org/1999/xlink" x="0px" y="0px"
	 viewBox="0 0 320 200" style="enable-background:new 0 0 320 200;" xml:space="preserve">
<style type="text/css">
	.st0{fill:#282261;}
	.st1{fill:#1CCA77;}
	.st2{fill:#91F1C0;}
	.st3{fill:#FFFFFF;}
	.st4{fill:#8EDBF8;}
	.st5{fill:#00ACF2;}
	.st6{fill:none;stroke:#000000;stroke-width:0.25;stroke-miterlimit:10;}
	.st7{fill:#00A74E;}
	.st8{fill:#FDAE00;}
	.st9{fill:#E19600;}
	.st10{fill:#6ECFF2;}
	.st11{fill:#131262;}
	.st12{fill:#CA0728;}
	.st13{fill:#00ADEF;}
	.st14{clip-path:url(#SVGID_2_);}
	.st15{clip-path:url(#SVGID_4_);}
	.st16{fill:#8BC932;}
	.st17{clip-path:url(#SVGID_6_);}
	.st18{fill:#F0008C;}
	.st19{clip-path:url(#SVGID_8_);}
	.st20{fill:#EF5F08;}
	.st21{fill:#D9EFFB;}
	.st22{fill:#D17BAF;}
	.st23{fill:#985377;}
	.st24{fill:#94C248;}
	.st25{fill:#ACCF76;}
	.st26{fill:#C9DEA3;}
	.st27{fill:#009639;}
	.st28{fill:#2CAB5F;}
	.st29{fill:#563D2F;}
	.st30{fill:#7E5A40;}
	.st31{fill:#C9CED4;}
	.st32{fill:#738694;}
	.st33{fill:#AFB7BF;}
	.st34{fill:#A2B49C;}
	.st35{fill:#61745B;}
	.st36{fill:#B9C0A7;}
	.st37{fill:#271B41;}
	.st38{fill:#7E7168;}
	.st39{fill:#37333E;}
	.st40{fill:#888889;}
	.st41{fill:#84501E;}
	.st42{fill:#361F11;}
	.st43{fill:#AA6936;}
	.st44{fill:#ECB9B6;}
	.st45{fill:#BF938F;}
	.st46{fill:#1D1D1B;}
	.st47{fill:#F9D3D2;}
	.st48{fill:#6D86BA;}
	.st49{fill:#916F73;}
	.st50{fill:#93A9D8;}
	.st51{fill:#BED0ED;}
	.st52{fill:#ECC4C3;}
	.st53{clip-path:url(#SVGID_10_);fill:#A2B49C;}
	.st54{clip-path:url(#SVGID_12_);fill:#B9C0A7;}
	.st55{clip-path:url(#SVGID_14_);fill:#61745B;}
	.st56{clip-path:url(#SVGID_16_);}
	.st57{clip-path:url(#SVGID_18_);fill:#ECB9B6;}
	.st58{clip-path:url(#SVGID_20_);fill:#BF938F;}
	.st59{clip-path:url(#SVGID_22_);fill:#BF938F;}
	.st60{clip-path:url(#SVGID_24_);fill:#BF938F;}
	.st61{clip-path:url(#SVGID_26_);fill:#BF938F;}
	.st62{clip-path:url(#SVGID_28_);fill:#BF938F;}
	.st63{opacity:0.6;enable-background:new    ;}
	.st64{clip-path:url(#SVGID_30_);fill:#FFFFFF;}
	.st65{clip-path:url(#SVGID_32_);fill:#FFFFFF;}
	.st66{clip-path:url(#SVGID_34_);fill:#FFFFFF;}
	.st67{clip-path:url(#SVGID_36_);fill:#293E48;}
	.st68{clip-path:url(#SVGID_38_);fill:#223139;}
	.st69{clip-path:url(#SVGID_40_);fill:#3157A2;}
	.st70{clip-path:url(#SVGID_42_);fill:#243877;}
	.st71{clip-path:url(#SVGID_44_);fill:#98AAD0;}
	.st72{clip-path:url(#SVGID_46_);fill:#FCB68F;}
	.st73{clip-path:url(#SVGID_48_);fill:#D5A589;}
	.st74{clip-path:url(#SVGID_50_);fill:#FFCAAB;}
	.st75{clip-path:url(#SVGID_52_);fill:#39B4E8;}
	.st76{clip-path:url(#SVGID_54_);fill:#8CD2F2;}
	.st77{clip-path:url(#SVGID_56_);fill:#01A9D1;}
	.st78{clip-path:url(#SVGID_58_);fill:#FCB68F;}
	.st79{clip-path:url(#SVGID_60_);fill:#D5A589;}
	.st80{clip-path:url(#SVGID_62_);fill:#FFCAAB;}
	.st81{clip-path:url(#SVGID_64_);fill:#D5A589;}
	.st82{clip-path:url(#SVGID_66_);fill:#3157A2;}
	.st83{clip-path:url(#SVGID_68_);fill:#243877;}
	.st84{clip-path:url(#SVGID_70_);fill:#98AAD0;}
	.st85{clip-path:url(#SVGID_72_);fill:#FCB68F;}
	.st86{clip-path:url(#SVGID_74_);fill:#FFCAAB;}
	.st87{clip-path:url(#SVGID_76_);fill:#97832C;}
	.st88{clip-path:url(#SVGID_78_);fill:#716221;}
	.st89{clip-path:url(#SVGID_80_);fill:#B29A2E;}
	.st90{clip-path:url(#SVGID_82_);fill:#B29A2E;}
	.st91{clip-path:url(#SVGID_84_);fill:#B29A2E;}
	.st92{clip-path:url(#SVGID_86_);fill:#B29A2E;}
	.st93{clip-path:url(#SVGID_88_);fill:#D5A589;}
	.st94{clip-path:url(#SVGID_90_);fill:#1D1D1B;}
	.st95{clip-path:url(#SVGID_92_);fill:#97832C;}
	.st96{clip-path:url(#SVGID_94_);fill:#FFFFFF;}
	.st97{clip-path:url(#SVGID_96_);fill:#CFD7E0;}
	.st98{clip-path:url(#SVGID_98_);fill:#FCB68F;}
	.st99{clip-path:url(#SVGID_100_);fill:#D5A589;}
	.st100{clip-path:url(#SVGID_102_);fill:#39B4E8;}
	.st101{clip-path:url(#SVGID_104_);fill:#8CD2F2;}
	.st102{clip-path:url(#SVGID_106_);fill:#01A9D1;}
	.st103{clip-path:url(#SVGID_108_);fill:#EAEAEA;}
	.st104{clip-path:url(#SVGID_110_);fill:#C9CED4;}
	.st105{clip-path:url(#SVGID_112_);fill:#C9CED4;}
	.st106{clip-path:url(#SVGID_114_);fill:#C9CED4;}
	.st107{clip-path:url(#SVGID_116_);fill:#C9CED4;}
	.st108{clip-path:url(#SVGID_118_);fill:#C9CED4;}
	.st109{clip-path:url(#SVGID_120_);fill:#C9CED4;}
	.st110{clip-path:url(#SVGID_122_);fill:#C9CED4;}
	.st111{clip-path:url(#SVGID_124_);fill:#FCB68F;}
	.st112{clip-path:url(#SVGID_126_);fill:#D5A589;}
	.st113{clip-path:url(#SVGID_128_);fill:#FFCAAB;}
	.st114{clip-path:url(#SVGID_130_);fill:#39B4E8;}
	.st115{clip-path:url(#SVGID_132_);fill:#8CD2F2;}
	.st116{clip-path:url(#SVGID_134_);fill:#01A9D1;}
	.st117{clip-path:url(#SVGID_136_);fill:#FCB68F;}
	.st118{clip-path:url(#SVGID_138_);fill:#D5A589;}
	.st119{clip-path:url(#SVGID_140_);fill:#FFCAAB;}
	.st120{clip-path:url(#SVGID_142_);fill:#D5A589;}
</style>
<symbol  id="New_Symbol" viewBox="-23.6 -39 47.1 77.9">
	<path class="st0" d="M23.6,14.1C23.6,27.8,13,39,0,39s-23.6-11.1-23.6-24.8c0-0.1,0-0.1,0-0.1l0,0l9.2-25.4l0.8,0.3L-22.6,14
		c4,3.6,8.5,4,13.7,1.4l4.5-25.9l0.8,0.1L-8,15.5c5.4,3.7,10.5,3.7,15.5,0L3.6-10.1l0.8-0.1l3.9,25.6c6,2.7,10.6,2.2,14.3-1.4
		L13.5-9.7l0.8-0.3l9.2,24l0,0C23.5,14,23.6,14.1,23.6,14.1z"/>
	<g>
		<rect x="4" y="-6.2" class="st1" width="2" height="2.3"/>
		<rect x="4.3" y="-5.9" class="st2" width="1.4" height="1.7"/>
		<polygon class="st1" points="6.2,-4.5 2.1,-4.5 3.2,-3.3 6.2,-3.3 		"/>
		<polygon class="st2" points="2.8,-4.2 6,-4.2 6,-3.6 3.3,-3.6 		"/>
		<rect x="3.4" y="-7.9" class="st1" width="2.8" height="2.6"/>
		<rect x="3.7" y="-7.6" class="st2" width="2.3" height="2"/>
		<path class="st1" d="M7.9-15.1L0.4-15l0.1,3.2c-0.1,2.4,0.6,4.2,2,5.2l0.1,0.1l0.1,0C3.9-7,5.3-7.2,6.9-7L7-7l0-0.1
			c0.7-1.2,1-2.6,0.9-4.6L7.9-15.1z"/>
		<path class="st2" d="M0.7-14.7l6.9-0.1l0,3.1c0.1,1.9-0.1,3.3-0.8,4.4c-1.6-0.2-3,0-4.2,0.6c-1.3-1-2-2.7-1.9-4.9L0.7-14.7z"/>
		<path class="st3" d="M6.9-7.3c-1.6-0.2-3,0-4.2,0.6C2.5-6.9,2.4-7.1,2.2-7.2c1.1-1,2.8-1.2,5-0.8C7.1-7.8,7-7.6,6.9-7.3z"/>
	</g>
	<path class="st4" d="M-8.1-6l1.4-6l-9.6-0.6l-1.1,4C-13.9-8.4-10.7-7.6-8.1-6z"/>
	<path class="st5" d="M-1.6-4.6h-2.6c0.2-0.4-0.8-1-2.1-1.7c-0.3-0.2-0.5-0.5-0.5-0.8v-6.1h7.1v6.1c0,0.3-0.2,0.7-0.5,0.8
		C-1-5.7-1.7-5.2-1.6-4.6L-1.6-4.6z"/>
	<path class="st3" d="M-1.9-4.9C-1.8-5.5-1-6.1-0.2-6.6C0-6.7,0.1-6.9,0.1-7.2V-13h-6.5v5.9c0,0.2,0.1,0.4,0.3,0.5
		C-4.6-5.8-4-5.3-3.8-4.9c0,0,0,0,0,0H-1.9"/>
	<path class="st6" d="M-4.7-11.7"/>
	<rect x="-4.1" y="-4.9" class="st7" width="2.6" height="1.7"/>
	<path class="st8" d="M16.1-12.9c-1.6-2.9-4.4-4.4-6.4-3.3s-3.9,1.7-3,4.9c1.1,4.3,6.7,6.7,8.7,5.7S17.7-10,16.1-12.9z"/>
	<path class="st9" d="M12.9-8.9c0.4-0.1,0.6,0,0.6,0s-1.3,1.3-2.3,2.6c-0.2-0.1-0.4-0.2-0.6-0.3C11.2-7.7,12.3-8.7,12.9-8.9z"/>
	<path class="st9" d="M8.6-8.2c0.4-1.4,2.2-2.8,2.9-2.9c0.4-0.1,0.3,0.3,0.3,0.3s-1.7,1.8-2.6,3.2C9-7.8,8.8-8,8.6-8.2z"/>
	<path class="st9" d="M7.5-9.5c-0.2-0.3-0.4-0.7-0.5-1c0.6-1.2,1.8-2.2,2.4-2.4c0.4-0.1,0.3,0.3,0.3,0.3S8.3-11,7.5-9.5z"/>
	<path class="st3" d="M8,16.2C2.7,20-2.9,20-8.5,16.2c-5.3,2.7-10.1,2.3-14.1-1.1c0.5,12.8,10.5,23,22.7,23
		c12.2,0,22.2-10.2,22.7-23C18.8,18.5,14,18.9,8,16.2z"/>
	<path class="st10" d="M-17.5-8.6c0.9-0.9,8.8,1.1,9.4,2.6C-10.1-5.2-16.3-7.2-17.5-8.6z M-14.7-7.8c0.5,0.6,3,1.4,3.8,1
		C-11.1-7.3-14.3-8.2-14.7-7.8z"/>
	<g>
		<rect x="-17.5" y="-39" class="st3" width="34.6" height="27.2"/>
		<polygon class="st11" points="-4.7,-19.9 -17.5,-11.7 -4.7,-11.7 		"/>
		<polygon class="st11" points="-17.5,-17.9 -12.9,-20.8 -17.5,-20.8 		"/>
		<polygon class="st12" points="-11.2,-20.8 -17.5,-16.8 -17.5,-15.1 -8.1,-20.8 		"/>
		<polygon class="st11" points="4.4,-19.9 17.2,-11.7 4.4,-11.7 		"/>
		<polygon class="st11" points="17.2,-17.9 12.6,-20.8 17.2,-20.8 		"/>
		<polygon class="st12" points="7.8,-20.8 17.2,-14.8 17.2,-12.8 4.7,-20.8 		"/>
		<polygon class="st11" points="4.4,-30.7 17.2,-39 4.4,-39 		"/>
		<polygon class="st11" points="17.2,-32.8 12.6,-29.9 17.2,-29.9 		"/>
		<polygon class="st12" points="10.9,-29.9 17.2,-33.8 17.2,-35.5 7.8,-29.9 		"/>
		<polygon class="st11" points="-4.7,-30.7 -17.5,-39 -4.7,-39 		"/>
		<polygon class="st11" points="-17.5,-32.8 -12.9,-29.9 -17.5,-29.9 		"/>
		<polygon class="st12" points="-8.1,-29.9 -17.5,-35.8 -17.5,-37.8 -5,-29.9 		"/>
		<polygon class="st12" points="17.2,-22.5 2.7,-22.5 2.7,-11.7 -3,-11.7 -3,-22.5 -17.5,-22.5 -17.5,-28.2 -3,-28.2 -3,-39 
			2.7,-39 2.7,-28.2 17.2,-28.2 		"/>
	</g>
	
		<use xlink:href="#ageuk"  width="391" height="137.9" x="-195.5" y="-68.9" transform="matrix(8.315022e-02 0 0 8.315022e-02 4.608496e-02 26.3416)" style="overflow:visible;"/>
</symbol>
<symbol  id="ageuk" viewBox="-195.5 -68.9 391 137.9">
	<path id="path62_1_" class="st0" d="M7.7-12.5c2.4-4.9-2.7-11.1-15.4-9C-8-11.7,4.7-6.5,7.7-12.5 M18.6-32
		C2.6-41.5-5.8-34.7-7.3-29.4c31.4-6,39.4,28.4,10,28.3c-5.8,0-24.1-3.7-24.7-23.5C-22.9-52.2,11.6-51,21.8-38.7L18.6-32z"/>
	<path id="path66_1_" class="st0" d="M-92.8-31.7c-6-5.6-17.1-4.7-17.1,7.9c0,10.7,10.3,15,17.1,12.3V-31.7z M-73.8-36.7
		c-1.8-0.7-5.1-1.4-5.1,3.8v28.2c-17.6,8.2-44.4,3.1-44.4-22.2c0-10.8,6.7-20.1,17.5-20.1c7.2,0,11.4,4,13.8,7.5
		c1.3-3.7,4.1-7.5,9.5-7.5c6.1,0,10.6,4.3,10.6,4.3L-73.8-36.7z"/>
	<path id="path70_1_" class="st13" d="M95.4-23.7l19.5,18.4c-3.2,6.6-8.4,3.5-10.4,1.5L87.3-20.6v18c-2.5,1.9-8.4,2-8.4-3.3v-40.5
		h8.4V-28c6.8-3.5,14.9-10.9,19.6-18.3h9.7C113.1-38.9,103.3-29,95.4-23.7"/>
	<path id="path74_1_" class="st13" d="M72.8-25.5v22.9c-2.5,1.9-8.4,2-8.4-3.3v-21c0-6.2-3.1-12.3-11.4-12.3
		c-8.4,0-11.4,6.1-11.4,12.3v24.3c-2.5,1.9-8.4,2-8.4-3.3v-19.6c0-8,2.4-21.6,19.8-21.6C70.5-47.1,72.8-33.5,72.8-25.5"/>
	<path id="path78_1_" class="st0" d="M-41-31.7c-6-5.6-17.1-4.7-17.1,7.9c0,11.1,10.3,15,17.1,12.3V-31.7z M-71.5-26.9
		c0-10.8,6.7-20.1,17.5-20.1c6.3,0,10.7,3.3,13,6.5v-4.5c0-6.6-4.6-20.7-25-9.9l-3.1-7C-62-69.5-52-68.9-52-68.9
		c16.7,0,24.9,12.6,24.9,23.6c0,1.5,0,40.6,0,40.6C-44.7,3.4-71.5-2.2-71.5-26.9"/>
	<g>
		<defs>
			<path id="SVGID_1_" d="M-180.5-1.5c0,0,14.2-22.2,30.3-15.3c16,6.9,24,43.3,25.3,49.7C-135.8,17.2-160.1-7-180.5-1.5"/>
		</defs>
		<use xlink:href="#SVGID_1_"  style="overflow:visible;fill:#282261;"/>
		<clipPath id="SVGID_2_">
			<use xlink:href="#SVGID_1_"  style="overflow:visible;"/>
		</clipPath>
		<g id="g82_1_" transform="matrix(2.3805 0 0 -2.3805 -1031 1918.6)" class="st14">
			<g id="g88_1_">
				<g id="g90_1_">
					<path id="path102_1_" class="st0" d="M357.3,806.6c0,0,6,9.3,12.7,6.4c6.7-2.9,10.1-18.2,10.6-20.9
						C376,798.7,365.9,808.9,357.3,806.6"/>
				</g>
			</g>
		</g>
	</g>
	<g>
		<defs>
			<path id="SVGID_3_" d="M-168,34.4c-9.2,0-17.8-1.7-22.7-7c-15.8-17,12.3-36.1,12.3-36.1s-13.8,13.6-0.5,23
				c10.4,7.3,35.1,1.3,35.2,1.1c4.6,3.2,12.1,12.8,12.1,12.8S-150.8,34.4-168,34.4L-168,34.4z"/>
		</defs>
		<use xlink:href="#SVGID_3_"  style="overflow:visible;fill:#8BC932;"/>
		<clipPath id="SVGID_4_">
			<use xlink:href="#SVGID_3_"  style="overflow:visible;"/>
		</clipPath>
		<g id="g106_1_" transform="matrix(2.3805 0 0 -2.3805 -1031 1918.6)" class="st15">
			<g id="g112_1_">
				<g id="g114_1_">
					<path id="path130_1_" class="st16" d="M362.5,791.5c-3.9,0-7.5,0.7-9.5,2.9c-6.6,7.1,5.2,15.1,5.2,15.1s-5.8-5.7-0.2-9.7
						c4.4-3.1,14.7-0.5,14.8-0.5c1.9-1.4,5.1-5.4,5.1-5.4S369.8,791.5,362.5,791.5L362.5,791.5z"/>
				</g>
			</g>
		</g>
	</g>
	<g>
		<defs>
			<path id="SVGID_5_" d="M-104.4,63.9c-13.8-8.8-18.7-35.6-18.7-35.6s2.1,6.8,9.5,14.6c10.6,11.4,40.2,17.9,47.5,7.7
				c0,0-1.6,7.4-7.3,12c-4.5,3.7-10.4,5.1-16,5.1C-95.2,67.8-100.7,66.2-104.4,63.9"/>
		</defs>
		<use xlink:href="#SVGID_5_"  style="overflow:visible;fill:#F0008C;"/>
		<clipPath id="SVGID_6_">
			<use xlink:href="#SVGID_5_"  style="overflow:visible;"/>
		</clipPath>
		<g id="g134_1_" transform="matrix(2.3805 0 0 -2.3805 -1031 1918.6)" class="st17">
			<g id="g140_1_">
				<g id="g142_1_">
					<path id="path154_1_" class="st18" d="M389.3,779.1c-5.8,3.7-7.9,15-7.9,15s0.9-2.8,4-6.1c4.5-4.8,16.9-7.5,19.9-3.2
						c0,0-0.7-3.1-3.1-5.1c-1.9-1.5-4.4-2.2-6.7-2.2C393.1,777.5,390.8,778.1,389.3,779.1"/>
				</g>
			</g>
		</g>
	</g>
	<g>
		<defs>
			<path id="SVGID_7_" d="M-68.9,38.9c0,0-19.8-15.2-55.3-13.9c0,0-1.7-7.2-4.1-14.1c0.8-0.5,51.4-5.2,71.3,15.6
				c0,0,13.7,14.3-9.4,30.9C-66.3,57.4-58.1,47.2-68.9,38.9"/>
		</defs>
		<use xlink:href="#SVGID_7_"  style="overflow:visible;fill:#EF5F08;"/>
		<clipPath id="SVGID_8_">
			<use xlink:href="#SVGID_7_"  style="overflow:visible;"/>
		</clipPath>
		<g id="g158_1_" transform="matrix(2.3805 0 0 -2.3805 -1031 1918.6)" class="st19">
			<g id="g164_1_">
				<g id="g166_1_">
					<path id="path182_1_" class="st20" d="M404.2,789.6c0,0-8.3,6.4-23.2,5.8c0,0-0.7,3-1.7,5.9c0.3,0.2,21.6,2.2,30-6.6
						c0,0,5.7-6-3.9-13C405.2,781.9,408.7,786.1,404.2,789.6"/>
				</g>
			</g>
		</g>
	</g>
	<g>
		<path class="st0" d="M-18.2,67.8c0.1,0,0.2,0,0.3,0c0.1,0,0.2,0,0.4,0c0.2,0,0.4,0,0.5-0.1c0.2,0,0.4-0.1,0.6-0.3
			c0.2-0.1,0.3-0.3,0.4-0.5c0.1-0.2,0.2-0.5,0.2-0.9V51.2h6.5c0.6,0,1-0.1,1.3-0.4c0.3-0.3,0.4-0.6,0.4-1c0-0.1,0-0.2,0-0.3
			c0-0.1,0-0.1,0-0.2v-0.2h-10.6V67.8z"/>
		<path class="st0" d="M-2.4,66.5c0-0.4-0.1-0.8-0.4-1.1C-3.1,65.2-3.5,65-3.9,65s-0.8,0.1-1.1,0.4c-0.3,0.3-0.4,0.6-0.4,1.1
			c0,0.5,0.1,0.8,0.4,1.1c0.3,0.3,0.6,0.4,1.1,0.4s0.8-0.1,1.1-0.4C-2.5,67.4-2.4,67-2.4,66.5z M-5,62.4h0.2c0,0,0.1,0,0.2,0
			c0.1,0,0.1,0,0.2,0c0.5,0,1-0.1,1.3-0.4s0.5-0.8,0.5-1.5v-8.9c0-0.5,0.1-0.9,0.2-1.1c0.2-0.2,0.5-0.3,1.1-0.3v-1
			C-1.4,49-1.6,49-1.9,48.9c-0.3,0-0.6-0.1-0.9-0.1c-0.5,0-1,0.1-1.2,0.3c-0.3,0.2-0.5,0.4-0.6,0.7c-0.1,0.3-0.2,0.6-0.3,0.9
			c0,0.3,0,0.7,0,1V62.4z"/>
		<path class="st0" d="M2.3,62.3c0.4,0,0.8-0.1,1.2-0.3c0.3-0.2,0.6-0.6,0.6-1.1c0.4,0.4,1,0.8,1.8,1.1s1.6,0.5,2.6,0.5
			c1,0,1.8-0.2,2.3-0.5c0.6-0.3,1-0.7,1.3-1.2c0.3-0.5,0.5-1.1,0.6-1.8c0.1-0.7,0.1-1.4,0.1-2.1v-8h-2.4v7.9c0,0.5,0,1-0.1,1.4
			c0,0.4-0.2,0.8-0.3,1.1c-0.2,0.3-0.5,0.5-0.8,0.7c-0.4,0.2-0.9,0.3-1.5,0.3c-0.5,0-1-0.1-1.5-0.2c-0.4-0.1-0.8-0.3-1.1-0.4
			c-0.3-0.2-0.5-0.4-0.7-0.6s-0.3-0.5-0.3-0.7v-9.3H1.8v13.2h0.1c0,0,0.1,0,0.2,0C2.2,62.3,2.2,62.3,2.3,62.3z"/>
		<path class="st0" d="M22.8,50.7c0.8,0,1.5,0.2,2,0.5c0.6,0.4,1,0.7,1.2,1c0.1-0.1,0.2-0.2,0.3-0.3c0.1-0.1,0.2-0.3,0.3-0.4
			s0.2-0.3,0.3-0.4s0.1-0.3,0.1-0.4c0-0.2-0.1-0.4-0.3-0.6c-0.2-0.2-0.5-0.5-0.9-0.7c-0.4-0.2-0.9-0.4-1.4-0.5
			c-0.6-0.1-1.2-0.2-1.9-0.2c-0.6,0-1.3,0.1-2,0.3s-1.4,0.5-2,1c-0.6,0.5-1.2,1.2-1.6,2.1c-0.4,0.9-0.6,2.1-0.6,3.6
			c0,1.4,0.2,2.5,0.7,3.4c0.4,0.9,1,1.6,1.7,2.1c0.7,0.5,1.3,0.9,2.1,1.1c0.7,0.2,1.4,0.3,1.9,0.3c0.7,0,1.3-0.1,1.8-0.2
			c0.5-0.1,1-0.3,1.4-0.5c0.4-0.2,0.7-0.4,0.9-0.7c0.2-0.2,0.3-0.5,0.3-0.7c0-0.2-0.1-0.5-0.2-0.8s-0.3-0.5-0.4-0.7H26
			c-0.3,0.4-0.7,0.7-1.2,1c-0.5,0.3-1.2,0.5-2,0.5c-0.7,0-1.3-0.1-1.8-0.4c-0.5-0.2-0.9-0.6-1.2-1c-0.3-0.4-0.6-1-0.7-1.5
			c-0.1-0.6-0.2-1.2-0.2-1.9c0-0.7,0.1-1.3,0.2-1.9s0.4-1.1,0.7-1.6c0.3-0.4,0.8-0.8,1.3-1.1S22.1,50.7,22.8,50.7z"/>
		<path class="st0" d="M41.6,55.7c0-0.9-0.1-1.8-0.3-2.6c-0.2-0.9-0.6-1.6-1.1-2.3c-0.5-0.7-1.1-1.2-1.9-1.6s-1.7-0.6-2.9-0.6
			c-1.1,0-2.1,0.2-2.8,0.6c-0.8,0.4-1.4,0.9-1.9,1.5c-0.5,0.6-0.8,1.4-1.1,2.2c-0.2,0.8-0.3,1.7-0.3,2.7s0.1,1.8,0.4,2.7
			c0.3,0.8,0.7,1.6,1.2,2.2c0.5,0.6,1.2,1.1,1.9,1.5c0.8,0.4,1.7,0.6,2.7,0.6c1.1,0,2-0.2,2.8-0.6c0.8-0.4,1.4-0.9,1.9-1.5
			c0.5-0.6,0.8-1.3,1.1-2.2C41.4,57.5,41.6,56.6,41.6,55.7z M39,55.7c0,0.6-0.1,1.2-0.2,1.7c-0.1,0.6-0.3,1.1-0.5,1.5
			c-0.3,0.5-0.6,0.8-1.1,1.1c-0.5,0.3-1.1,0.4-1.8,0.4c-0.7,0-1.3-0.1-1.8-0.4c-0.5-0.3-0.9-0.6-1.1-1.1c-0.3-0.5-0.5-1-0.6-1.5
			c-0.1-0.6-0.2-1.1-0.2-1.7s0.1-1.2,0.2-1.8c0.1-0.6,0.3-1.1,0.6-1.6c0.3-0.5,0.7-0.9,1.1-1.2s1.1-0.5,1.8-0.5
			c0.7,0,1.4,0.2,1.8,0.5c0.5,0.3,0.9,0.7,1.1,1.2c0.3,0.5,0.4,1,0.5,1.6C39,54.5,39,55.1,39,55.7z"/>
		<path class="st0" d="M47.3,51.7c0-0.3,0-0.5,0-0.7s0.1-0.4,0.2-0.5c0.1-0.1,0.2-0.2,0.4-0.3c0.2-0.1,0.4-0.1,0.8-0.1v-1
			C48.5,49,48.3,49,48,48.9c-0.3,0-0.6-0.1-0.9-0.1c-0.5,0-1,0.1-1.2,0.3c-0.3,0.2-0.5,0.4-0.6,0.7c-0.1,0.3-0.2,0.6-0.3,0.9
			c0,0.3,0,0.7,0,1v17.1h0.2c0,0,0.1,0,0.2,0c0.1,0,0.1,0,0.2,0c0.5,0,1-0.1,1.3-0.4c0.4-0.3,0.5-0.8,0.5-1.5V51.7z"/>
		<path class="st0" d="M52.2,62.3c0.4,0,0.8-0.1,1.2-0.3c0.3-0.2,0.6-0.6,0.6-1.1c0.4,0.4,1,0.8,1.8,1.1s1.6,0.5,2.6,0.5
			c1,0,1.8-0.2,2.3-0.5c0.6-0.3,1-0.7,1.3-1.2c0.3-0.5,0.5-1.1,0.6-1.8c0.1-0.7,0.1-1.4,0.1-2.1v-8h-2.4v7.9c0,0.5,0,1-0.1,1.4
			c0,0.4-0.2,0.8-0.3,1.1c-0.2,0.3-0.5,0.5-0.8,0.7c-0.4,0.2-0.9,0.3-1.5,0.3c-0.5,0-1-0.1-1.5-0.2c-0.4-0.1-0.8-0.3-1.1-0.4
			c-0.3-0.2-0.5-0.4-0.7-0.6s-0.3-0.5-0.3-0.7v-9.3h-2.4v13.2h0.1c0,0,0.1,0,0.2,0C52.1,62.3,52.1,62.3,52.2,62.3z"/>
		<path class="st0" d="M88.7,49.1c-0.2-0.1-0.4-0.2-0.7-0.2c-0.2-0.1-0.5-0.1-0.7-0.1c-0.7,0-1.3,0.3-1.8,0.8l-1.8,2
			c-0.8-0.9-1.6-1.6-2.6-2.1c-0.9-0.5-2-0.8-3.2-0.8c-1.1,0-2,0.2-2.7,0.5c-0.8,0.3-1.4,0.7-1.9,1.2c-0.5,0.5-0.9,1.1-1.1,1.8
			c-0.2,0.7-0.3,1.4-0.3,2.1c0,0.8,0.1,1.6,0.4,2.3s0.6,1.3,1,1.8c0.4,0.5,0.9,1,1.5,1.4c0.6,0.4,1.2,0.7,1.8,0.9h0
			c-0.4,0.6-0.7,1.1-0.9,1.6c-0.2,0.5-0.3,1.1-0.3,1.7c0,0.6,0.1,1.2,0.4,1.7c0.3,0.5,0.6,1,1,1.3c0.4,0.4,1,0.6,1.5,0.8
			c0.6,0.2,1.2,0.3,1.9,0.3c0.6,0,1.1-0.1,1.6-0.2c0.5-0.1,0.9-0.3,1.3-0.4c0.4-0.2,0.6-0.4,0.8-0.6c0.2-0.2,0.3-0.5,0.3-0.7
			c0-0.2-0.1-0.5-0.3-0.8c-0.2-0.3-0.4-0.5-0.5-0.7h-0.3c-0.4,0.4-0.8,0.7-1.2,0.9c-0.4,0.2-1,0.4-1.6,0.4c-0.7,0-1.2-0.2-1.7-0.6
			c-0.5-0.4-0.7-0.9-0.7-1.7c0-0.5,0.1-0.9,0.3-1.4c0.2-0.4,0.5-0.9,0.9-1.3c0.7-0.9,1.5-1.9,2.3-2.9c0.8-1,1.6-2,2.4-2.9
			c0.3,0.7,0.5,1.3,0.6,2.1c0.2,0.7,0.2,1.5,0.2,2.3c0,0.2,0,0.4,0,0.7c0,0.3,0,0.5,0,0.8h4.5v-1.8h-2.5c0-1.1-0.2-2.1-0.4-3.1
			c-0.3-1-0.6-1.9-1-2.7L88.7,49.1z M78,50.8c1,0,1.8,0.2,2.4,0.6c0.7,0.4,1.3,1,1.9,1.9c-0.8,1-1.5,1.9-2.3,2.8
			c-0.7,0.9-1.5,1.9-2.3,2.8c-0.5-0.2-0.9-0.4-1.4-0.7c-0.4-0.3-0.8-0.6-1.1-1c-0.3-0.4-0.6-0.8-0.8-1.3c-0.2-0.5-0.3-1-0.3-1.5
			c0-1,0.3-1.9,1-2.6C75.9,51.2,76.8,50.8,78,50.8z"/>
		<path class="st0" d="M-18.8,19c0.6-0.5,1.3-0.9,2.1-1.3c0.8-0.4,1.7-0.5,2.7-0.5c0.7,0,1.3,0.1,1.8,0.3c0.5,0.2,0.9,0.4,1.2,0.7
			c0.3,0.3,0.5,0.6,0.6,1c0.1,0.4,0.2,0.8,0.2,1.2c0,0.5-0.1,1-0.2,1.4c-0.2,0.4-0.4,0.7-0.7,1c-0.3,0.3-0.7,0.5-1.2,0.7
			c-0.5,0.2-1,0.4-1.6,0.6c-0.7,0.2-1.4,0.4-2,0.7c-0.6,0.3-1.2,0.6-1.7,1s-0.9,0.9-1.2,1.5c-0.3,0.6-0.4,1.3-0.4,2.2
			c0,0.8,0.2,1.6,0.5,2.2c0.3,0.6,0.7,1.2,1.3,1.6s1.2,0.8,1.9,1c0.7,0.2,1.5,0.3,2.4,0.3c0.5,0,1.1-0.1,1.7-0.2
			c0.6-0.1,1.2-0.3,1.7-0.5c0.5-0.2,1-0.5,1.3-0.8c0.4-0.3,0.5-0.6,0.5-1c0-0.2-0.1-0.5-0.3-0.7c-0.2-0.3-0.4-0.5-0.7-0.8
			C-9,30.8-9.2,31-9.5,31.2c-0.3,0.2-0.6,0.4-1,0.6c-0.4,0.2-0.8,0.3-1.3,0.5c-0.5,0.1-1,0.2-1.6,0.2c-0.7,0-1.2-0.1-1.6-0.2
			c-0.4-0.2-0.8-0.4-1.1-0.6s-0.5-0.6-0.6-0.9c-0.1-0.3-0.2-0.7-0.2-1c0-0.5,0.1-0.9,0.3-1.2s0.5-0.6,0.8-0.9
			c0.4-0.3,0.8-0.5,1.3-0.7c0.5-0.2,1.1-0.4,1.7-0.6c0.6-0.2,1.3-0.5,1.8-0.7c0.6-0.3,1.1-0.6,1.6-1.1c0.4-0.4,0.8-0.9,1.1-1.5
			c0.3-0.6,0.4-1.3,0.4-2.1c0-0.9-0.2-1.8-0.5-2.5c-0.3-0.7-0.7-1.3-1.3-1.8c-0.6-0.5-1.2-0.8-2-1.1c-0.8-0.2-1.6-0.4-2.6-0.4
			c-0.7,0-1.4,0.1-2.1,0.2c-0.7,0.1-1.3,0.3-1.8,0.5c-0.5,0.2-1,0.4-1.3,0.7c-0.3,0.3-0.5,0.6-0.5,0.9c0,0.2,0.1,0.5,0.3,0.8
			S-19.1,18.7-18.8,19z"/>
		<path class="st0" d="M7.1,22.1c0-0.9-0.1-1.8-0.3-2.6c-0.2-0.9-0.6-1.6-1.1-2.3c-0.5-0.7-1.1-1.2-1.9-1.6C3,15.2,2.1,15,0.9,15
			c-1.1,0-2.1,0.2-2.8,0.6c-0.8,0.4-1.4,0.9-1.9,1.5c-0.5,0.6-0.8,1.4-1.1,2.2c-0.2,0.8-0.3,1.7-0.3,2.7s0.1,1.8,0.4,2.7
			c0.3,0.8,0.7,1.6,1.2,2.2c0.5,0.6,1.2,1.1,1.9,1.5c0.8,0.4,1.7,0.6,2.7,0.6c1.1,0,2-0.2,2.8-0.6c0.8-0.4,1.4-0.9,1.9-1.5
			c0.5-0.6,0.8-1.3,1.1-2.2C7,23.9,7.1,23,7.1,22.1z M4.6,22.1c0,0.6-0.1,1.2-0.2,1.7c-0.1,0.6-0.3,1.1-0.5,1.5
			c-0.3,0.5-0.6,0.8-1.1,1.1c-0.5,0.3-1.1,0.4-1.8,0.4c-0.7,0-1.3-0.1-1.8-0.4c-0.5-0.3-0.9-0.6-1.1-1.1c-0.3-0.5-0.5-1-0.6-1.5
			c-0.1-0.6-0.2-1.1-0.2-1.7s0.1-1.2,0.2-1.8c0.1-0.6,0.3-1.1,0.6-1.6c0.3-0.5,0.7-0.9,1.1-1.2s1.1-0.5,1.8-0.5
			c0.7,0,1.4,0.2,1.8,0.5c0.5,0.3,0.9,0.7,1.1,1.2c0.3,0.5,0.4,1,0.5,1.6C4.5,20.9,4.6,21.5,4.6,22.1z"/>
		<path class="st0" d="M15.6,17.1c0.5,0,1,0.1,1.4,0.2c0.4,0.1,0.8,0.3,1.1,0.5c0.3,0.2,0.5,0.4,0.7,0.7c0.2,0.2,0.3,0.4,0.3,0.6
			v9.6h0.2c0,0,0.1,0,0.2,0c0.1,0,0.1,0,0.2,0c0.5,0,1-0.1,1.3-0.4s0.5-0.8,0.5-1.5V15.5H19v1.2c-0.4-0.4-0.9-0.8-1.6-1.1
			c-0.7-0.3-1.5-0.5-2.6-0.5c-1.1,0-1.9,0.2-2.5,0.5s-1,0.8-1.3,1.3c-0.3,0.5-0.5,1.1-0.5,1.7c-0.1,0.6-0.1,1.2-0.1,1.8v8.4h0.2
			c0,0,0.1,0,0.2,0c0.1,0,0.1,0,0.2,0c0.5,0,1-0.1,1.3-0.4c0.4-0.3,0.5-0.7,0.5-1.5v-6.6c0-0.7,0.1-1.3,0.2-1.7
			c0.1-0.4,0.3-0.8,0.5-1s0.5-0.4,0.9-0.4C14.8,17.1,15.2,17.1,15.6,17.1z"/>
		<path class="st0" d="M25.8,17.1c-0.1,0.4-0.2,0.7-0.2,1.2c0,0.4,0,0.8,0,1.2v13.1h0.2c0,0,0.1,0,0.2,0c0.1,0,0.1,0,0.2,0
			c0.5,0,0.9-0.1,1.3-0.4c0.4-0.3,0.6-0.7,0.6-1.4v-2.2h4.2v-2h-4.2v-7.2c0-1.5,0.6-2.3,1.8-2.3c0.3,0,0.6,0.1,0.8,0.2
			s0.5,0.2,0.7,0.4c0.2,0.1,0.4,0.3,0.5,0.4c0.1,0.1,0.2,0.2,0.3,0.3c0.2-0.3,0.4-0.6,0.6-0.8c0.2-0.3,0.2-0.5,0.2-0.8
			c0-0.2-0.1-0.3-0.3-0.5c-0.2-0.2-0.4-0.4-0.7-0.5c-0.3-0.2-0.7-0.3-1.1-0.4S29.9,15,29.4,15c-1,0-1.7,0.2-2.3,0.6
			C26.4,16,26,16.5,25.8,17.1z"/>
		<path class="st0" d="M44.2,23.3c0,0.5,0,1-0.1,1.4c0,0.4-0.2,0.8-0.3,1.1c-0.2,0.3-0.5,0.5-0.8,0.7c-0.4,0.2-0.9,0.3-1.5,0.3
			c-0.5,0-1-0.1-1.5-0.2c-0.4-0.1-0.8-0.3-1.1-0.5c-0.3-0.2-0.5-0.4-0.7-0.6s-0.3-0.5-0.3-0.7v-9.3h-2.4v19.9h0.1c0,0,0.1,0,0.2,0
			c0.1,0,0.1,0,0.2,0c0.5,0,1-0.1,1.3-0.4s0.5-0.7,0.5-1.5v-6.2c0.5,0.5,1.1,1,1.8,1.2c0.7,0.3,1.5,0.4,2.4,0.4c1,0,1.8-0.2,2.4-0.5
			s1.1-0.8,1.4-1.3s0.5-1.1,0.6-1.8s0.1-1.3,0.1-1.9v-8h-2.4V23.3z"/>
		<path class="st0" d="M56.5,34.2c0.1,0,0.2,0,0.3,0c0.1,0,0.2,0,0.4,0c0.2,0,0.4,0,0.5-0.1c0.2,0,0.4-0.1,0.6-0.3
			c0.2-0.1,0.3-0.3,0.4-0.5c0.1-0.2,0.2-0.5,0.2-0.9V17.6h6.5c0.6,0,1-0.1,1.3-0.4c0.3-0.3,0.4-0.6,0.4-1c0-0.1,0-0.2,0-0.3
			c0-0.1,0-0.1,0-0.2v-0.2H56.5V34.2z"/>
		<path class="st0" d="M72.4,32.9c0-0.4-0.1-0.8-0.4-1.1c-0.3-0.3-0.6-0.4-1.1-0.4s-0.8,0.1-1.1,0.4c-0.3,0.3-0.4,0.6-0.4,1.1
			c0,0.5,0.1,0.8,0.4,1.1c0.3,0.3,0.6,0.4,1.1,0.4s0.8-0.1,1.1-0.4C72.2,33.8,72.4,33.4,72.4,32.9z M69.8,28.8h0.2c0,0,0.1,0,0.2,0
			c0.1,0,0.1,0,0.2,0c0.5,0,1-0.1,1.3-0.4s0.5-0.8,0.5-1.5V18c0-0.5,0.1-0.9,0.2-1.1c0.2-0.2,0.5-0.3,1.1-0.3v-1
			c-0.2-0.1-0.4-0.1-0.7-0.1c-0.3,0-0.6-0.1-0.9-0.1c-0.5,0-1,0.1-1.2,0.3c-0.3,0.2-0.5,0.4-0.6,0.7c-0.1,0.3-0.2,0.6-0.3,0.9
			c0,0.3,0,0.7,0,1V28.8z"/>
		<path class="st0" d="M77,28.7c0.4,0,0.8-0.1,1.2-0.3c0.3-0.2,0.6-0.6,0.6-1.1c0.4,0.4,1,0.8,1.8,1.1s1.6,0.5,2.6,0.5
			c1,0,1.8-0.2,2.3-0.5c0.6-0.3,1-0.7,1.3-1.2c0.3-0.5,0.5-1.1,0.6-1.8c0.1-0.7,0.1-1.4,0.1-2.1v-8h-2.4v7.9c0,0.5,0,1-0.1,1.4
			c0,0.4-0.2,0.8-0.3,1.1c-0.2,0.3-0.5,0.5-0.8,0.7c-0.4,0.2-0.9,0.3-1.5,0.3c-0.5,0-1-0.1-1.5-0.2c-0.4-0.1-0.8-0.3-1.1-0.4
			c-0.3-0.2-0.5-0.4-0.7-0.6s-0.3-0.5-0.3-0.7v-9.3h-2.4v13.2h0.1c0,0,0.1,0,0.2,0C76.9,28.7,76.9,28.7,77,28.7z"/>
		<path class="st0" d="M97.6,17.1c0.8,0,1.5,0.2,2,0.5c0.6,0.4,1,0.7,1.2,1c0.1-0.1,0.2-0.2,0.3-0.3c0.1-0.1,0.2-0.3,0.3-0.4
			s0.2-0.3,0.3-0.4s0.1-0.3,0.1-0.4c0-0.2-0.1-0.4-0.3-0.6c-0.2-0.2-0.5-0.5-0.9-0.7c-0.4-0.2-0.9-0.4-1.4-0.5
			c-0.6-0.1-1.2-0.2-1.9-0.2c-0.6,0-1.3,0.1-2,0.3s-1.4,0.5-2,1c-0.6,0.5-1.2,1.2-1.6,2.1C91.2,19.3,91,20.5,91,22
			c0,1.4,0.2,2.5,0.7,3.4c0.4,0.9,1,1.6,1.7,2.1c0.7,0.5,1.3,0.9,2.1,1.1c0.7,0.2,1.4,0.3,1.9,0.3c0.7,0,1.3-0.1,1.8-0.2
			c0.5-0.1,1-0.3,1.4-0.5c0.4-0.2,0.7-0.4,0.9-0.7c0.2-0.2,0.3-0.5,0.3-0.7c0-0.2-0.1-0.5-0.2-0.8s-0.3-0.5-0.4-0.7h-0.3
			c-0.3,0.4-0.7,0.7-1.2,1c-0.5,0.3-1.2,0.5-2,0.5c-0.7,0-1.3-0.1-1.8-0.4c-0.5-0.2-0.9-0.6-1.2-1c-0.3-0.4-0.6-1-0.7-1.5
			c-0.1-0.6-0.2-1.2-0.2-1.9c0-0.7,0.1-1.3,0.2-1.9s0.4-1.1,0.7-1.6c0.3-0.4,0.8-0.8,1.3-1.1S96.8,17.1,97.6,17.1z"/>
		<path class="st0" d="M116.3,22.1c0-0.9-0.1-1.8-0.3-2.6c-0.2-0.9-0.6-1.6-1.1-2.3c-0.5-0.7-1.1-1.2-1.9-1.6
			c-0.8-0.4-1.7-0.6-2.9-0.6c-1.1,0-2.1,0.2-2.8,0.6c-0.8,0.4-1.4,0.9-1.9,1.5c-0.5,0.6-0.8,1.4-1.1,2.2c-0.2,0.8-0.3,1.7-0.3,2.7
			s0.1,1.8,0.4,2.7c0.3,0.8,0.7,1.6,1.2,2.2c0.5,0.6,1.2,1.1,1.9,1.5c0.8,0.4,1.7,0.6,2.7,0.6c1.1,0,2-0.2,2.8-0.6
			c0.8-0.4,1.4-0.9,1.9-1.5c0.5-0.6,0.8-1.3,1.1-2.2C116.2,23.9,116.3,23,116.3,22.1z M113.8,22.1c0,0.6-0.1,1.2-0.2,1.7
			c-0.1,0.6-0.3,1.1-0.5,1.5c-0.3,0.5-0.6,0.8-1.1,1.1c-0.5,0.3-1.1,0.4-1.8,0.4c-0.7,0-1.3-0.1-1.8-0.4c-0.5-0.3-0.9-0.6-1.1-1.1
			c-0.3-0.5-0.5-1-0.6-1.5c-0.1-0.6-0.2-1.1-0.2-1.7s0.1-1.2,0.2-1.8c0.1-0.6,0.3-1.1,0.6-1.6c0.3-0.5,0.7-0.9,1.1-1.2
			s1.1-0.5,1.8-0.5c0.7,0,1.4,0.2,1.8,0.5c0.5,0.3,0.9,0.7,1.1,1.2c0.3,0.5,0.4,1,0.5,1.6C113.7,20.9,113.8,21.5,113.8,22.1z"/>
		<path class="st0" d="M122.1,18.1c0-0.3,0-0.5,0-0.7s0.1-0.4,0.2-0.5c0.1-0.1,0.2-0.2,0.4-0.3c0.2-0.1,0.4-0.1,0.8-0.1v-1
			c-0.2-0.1-0.4-0.1-0.7-0.1c-0.3,0-0.6-0.1-0.9-0.1c-0.5,0-1,0.1-1.2,0.3c-0.3,0.2-0.5,0.4-0.6,0.7c-0.1,0.3-0.2,0.6-0.3,0.9
			c0,0.3,0,0.7,0,1v17.1h0.2c0,0,0.1,0,0.2,0c0.1,0,0.1,0,0.2,0c0.5,0,1-0.1,1.3-0.4c0.4-0.3,0.5-0.8,0.5-1.5V18.1z"/>
		<path class="st0" d="M126.9,28.7c0.4,0,0.8-0.1,1.2-0.3c0.3-0.2,0.6-0.6,0.6-1.1c0.4,0.4,1,0.8,1.8,1.1s1.6,0.5,2.6,0.5
			c1,0,1.8-0.2,2.3-0.5c0.6-0.3,1-0.7,1.3-1.2c0.3-0.5,0.5-1.1,0.6-1.8c0.1-0.7,0.1-1.4,0.1-2.1v-8h-2.4v7.9c0,0.5,0,1-0.1,1.4
			c0,0.4-0.2,0.8-0.3,1.1c-0.2,0.3-0.5,0.5-0.8,0.7c-0.4,0.2-0.9,0.3-1.5,0.3c-0.5,0-1-0.1-1.5-0.2c-0.4-0.1-0.8-0.3-1.1-0.4
			c-0.3-0.2-0.5-0.4-0.7-0.6s-0.3-0.5-0.3-0.7v-9.3h-2.4v13.2h0.1c0,0,0.1,0,0.2,0C126.8,28.7,126.9,28.7,126.9,28.7z"/>
		<path class="st0" d="M148.8,28.2c0.4-0.2,0.6-0.4,0.8-0.6c0.1-0.2,0.2-0.4,0.2-0.5c0-0.2-0.1-0.4-0.2-0.7s-0.2-0.5-0.4-0.8l-0.4,0
			c-0.3,0.4-0.8,0.7-1.4,1c-0.6,0.3-1.3,0.4-1.9,0.4c-0.2,0-0.5,0-0.8-0.1c-0.3,0-0.6-0.1-0.8-0.3c-0.3-0.1-0.5-0.3-0.6-0.5
			c-0.2-0.2-0.3-0.5-0.3-0.8c0-0.5,0.2-0.8,0.5-1.1c0.3-0.2,0.8-0.5,1.3-0.6c0.5-0.2,1.1-0.4,1.7-0.5c0.6-0.2,1.2-0.4,1.7-0.7
			c0.5-0.3,1-0.7,1.3-1.2c0.3-0.5,0.5-1.2,0.5-2c0-0.7-0.1-1.3-0.4-1.8c-0.3-0.5-0.7-0.9-1.1-1.3c-0.5-0.3-1-0.6-1.6-0.8
			c-0.6-0.2-1.3-0.3-1.9-0.3c-0.7,0-1.4,0.1-1.9,0.2c-0.6,0.1-1,0.3-1.4,0.4s-0.6,0.4-0.8,0.5s-0.3,0.4-0.3,0.5
			c0,0.2,0.1,0.5,0.2,0.8s0.3,0.6,0.5,0.9c0.1-0.1,0.3-0.2,0.5-0.4c0.2-0.2,0.5-0.3,0.8-0.5c0.3-0.2,0.7-0.3,1.1-0.4
			c0.4-0.1,0.8-0.2,1.3-0.2c0.3,0,0.7,0,1,0.1c0.3,0.1,0.6,0.2,0.9,0.3s0.5,0.4,0.6,0.6c0.2,0.3,0.2,0.6,0.2,1c0,0.6-0.2,1-0.5,1.3
			c-0.3,0.3-0.8,0.5-1.3,0.7c-0.5,0.2-1.1,0.3-1.7,0.5c-0.6,0.1-1.2,0.4-1.7,0.6c-0.5,0.3-1,0.6-1.3,1.1s-0.5,1.1-0.5,1.9
			c0,0.6,0.1,1.2,0.4,1.6s0.6,0.9,1.1,1.2c0.4,0.3,1,0.5,1.5,0.7c0.6,0.2,1.2,0.2,1.8,0.2c0.7,0,1.4-0.1,1.9-0.2
			C148,28.6,148.5,28.4,148.8,28.2z"/>
		<path class="st0" d="M162.1,23.3c0,0.5,0,1-0.1,1.4c0,0.4-0.2,0.8-0.3,1.1c-0.2,0.3-0.5,0.5-0.8,0.7c-0.4,0.2-0.9,0.3-1.5,0.3
			c-0.5,0-1-0.1-1.5-0.2c-0.4-0.1-0.8-0.3-1.1-0.5c-0.3-0.2-0.5-0.4-0.7-0.6s-0.3-0.5-0.3-0.7v-9.3h-2.4v19.9h0.1c0,0,0.1,0,0.2,0
			c0.1,0,0.1,0,0.2,0c0.5,0,1-0.1,1.3-0.4s0.5-0.7,0.5-1.5v-6.2c0.5,0.5,1.1,1,1.8,1.2c0.7,0.3,1.5,0.4,2.4,0.4c1,0,1.8-0.2,2.4-0.5
			s1.1-0.8,1.4-1.3s0.5-1.1,0.6-1.8s0.1-1.3,0.1-1.9v-8h-2.4V23.3z"/>
		<path class="st0" d="M171.2,32.9c0-0.4-0.1-0.8-0.4-1.1c-0.3-0.3-0.6-0.4-1.1-0.4s-0.8,0.1-1.1,0.4c-0.3,0.3-0.4,0.6-0.4,1.1
			c0,0.5,0.1,0.8,0.4,1.1c0.3,0.3,0.6,0.4,1.1,0.4s0.8-0.1,1.1-0.4C171.1,33.8,171.2,33.4,171.2,32.9z M168.6,28.8h0.2
			c0,0,0.1,0,0.2,0c0.1,0,0.1,0,0.2,0c0.5,0,1-0.1,1.3-0.4s0.5-0.8,0.5-1.5V18c0-0.5,0.1-0.9,0.2-1.1c0.2-0.2,0.5-0.3,1.1-0.3v-1
			c-0.2-0.1-0.4-0.1-0.7-0.1c-0.3,0-0.6-0.1-0.9-0.1c-0.5,0-1,0.1-1.2,0.3c-0.3,0.2-0.5,0.4-0.6,0.7c-0.1,0.3-0.2,0.6-0.3,0.9
			c0,0.3,0,0.7,0,1V28.8z"/>
		<path class="st0" d="M175.9,28.7c0.4,0,0.8-0.1,1.2-0.3c0.3-0.2,0.6-0.6,0.6-1.1c0.3,0.4,0.7,0.8,1.2,1.1c0.5,0.3,1.1,0.5,1.8,0.5
			c0.2,0,0.4,0,0.7-0.1c0.2,0,0.5-0.1,0.7-0.2s0.4-0.2,0.5-0.4s0.2-0.3,0.2-0.6c0-0.3-0.1-0.6-0.2-1c-0.1-0.3-0.3-0.6-0.4-0.9
			c-0.2,0.2-0.5,0.4-0.8,0.5c-0.3,0.1-0.6,0.2-1.1,0.2c-0.3,0-0.6-0.1-0.9-0.2c-0.3-0.1-0.5-0.2-0.8-0.4c-0.2-0.2-0.4-0.4-0.5-0.6
			c-0.1-0.2-0.2-0.5-0.2-0.7v-9.3h-2.4v13.2h0.2c0.1,0,0.1,0,0.2,0C175.8,28.7,175.8,28.7,175.9,28.7z"/>
		<path class="st0" d="M190.7,17.1c0.5,0,1,0.1,1.4,0.2c0.4,0.1,0.8,0.2,1.1,0.4s0.5,0.3,0.7,0.5c0.2,0.2,0.4,0.4,0.5,0.5
			c0.2-0.3,0.4-0.5,0.5-0.8c0.2-0.3,0.2-0.5,0.2-0.7c0-0.2-0.1-0.5-0.4-0.7c-0.2-0.2-0.6-0.5-1-0.7c-0.4-0.2-0.9-0.4-1.5-0.5
			c-0.6-0.1-1.2-0.2-1.9-0.2c-0.9,0-1.7,0.1-2.5,0.4s-1.5,0.7-2,1.2c-0.6,0.6-1,1.3-1.4,2.2c-0.3,0.9-0.5,2-0.5,3.3
			c0,1.2,0.2,2.2,0.5,3.1c0.3,0.9,0.8,1.6,1.4,2.1c0.6,0.6,1.2,1,1.9,1.2c0.7,0.3,1.5,0.4,2.2,0.4c1,0,1.8-0.2,2.5-0.5
			c0.7-0.3,1.2-0.7,1.7-1.3c0.4-0.5,0.7-1.1,1-1.8c0.2-0.7,0.3-1.4,0.3-2.2c0-0.3,0-0.5,0-0.8c0-0.3,0-0.5-0.1-0.8h-8.8
			c0.1-1.4,0.4-2.5,1.1-3.3C188.3,17.5,189.3,17.1,190.7,17.1z M193.1,23.4c0,0.5-0.1,1-0.2,1.4c-0.1,0.4-0.3,0.8-0.5,1.1
			c-0.2,0.3-0.6,0.6-1,0.8c-0.4,0.2-0.9,0.3-1.5,0.3c-1,0-1.8-0.3-2.4-1c-0.6-0.6-1-1.5-1.1-2.6H193.1z"/>
	</g>
</symbol>
<g>
	<rect x="26.9" y="8.3" class="st21" width="116.7" height="91.7"/>
	
		<rect x="-15.1" y="46.6" transform="matrix(2.341301e-02 -0.9997 0.9997 2.341301e-02 -21.699 85.2531)" class="st22" width="95.8" height="14.3"/>
	<polygon class="st23" points="30,101.7 24.5,101.6 26.8,5.7 30.1,5.8 	"/>
	
		<rect x="-2.3" y="48.4" transform="matrix(2.341302e-02 -0.9997 0.9997 2.341302e-02 -9.5304 98.4683)" class="st22" width="95.8" height="11.5"/>
	<polygon class="st23" points="44.2,102 38.8,101.9 41.1,6 44.4,6.1 	"/>
	<rect x="182.1" y="8.3" class="st24" width="83.3" height="175"/>
	<polygon class="st25" points="262.8,10.5 182.1,8.3 182.1,183.3 265.4,183.3 	"/>
	<polygon class="st26" points="227.9,16.7 226.5,101.9 257.1,100 257.1,16.7 	"/>
	<polygon class="st24" points="227.9,16.7 227.9,100 257.1,100 258.3,15.6 	"/>
	<rect x="227.9" y="16.7" class="st21" width="29.2" height="83.3"/>
	<polygon class="st27" points="173.8,0 173.8,183.3 182.1,183.3 182.1,8.3 265.4,8.3 265.4,183.3 273.8,183.3 273.8,0 	"/>
	<polygon class="st26" points="190.4,16.7 188.6,101.6 219.6,100 219.6,16.7 	"/>
	<polygon class="st24" points="190.4,16.7 190.4,100 219.6,100 221.4,15.4 	"/>
	<polygon class="st28" points="173.8,0 173.8,183.3 180,183.3 182.1,8.3 267.5,6.3 265.4,183.3 273.8,183.3 273.8,0 	"/>
	<rect x="173.8" y="194.7" class="st29" width="100" height="5.3"/>
	<path class="st30" d="M272.7,194.5c-1,0.6-1.4-0.4-2.5-0.4c-0.3-1-0.4-1-1.5-0.9c0.2-2.4-0.8-0.4-2.3-1.2c0.4-1.8-0.7-2.5-2.4-2.5
		c0.6-2.8-1.1-1.4-2.8-1.9c-1,0-0.4-1.5-1.5-0.8c-0.3-0.7-0.2-1.1-1.2-1.3c0.8-2.2-2.4-4-3.1-1.4c-0.4-0.1-0.4-1-0.8-1.3
		c-1.2-1.5-0.9,0-1.5,1.1c-0.4-0.2-0.5-1.7-0.8-1.8c-1.2,0.7-2.1,2.7-2.9,0.6c-1.2-1-1.1,1.9-3,0.9c-0.3-1.9-0.9,0.1-1.9-0.6
		c-0.8,0.4-0.5-0.6-0.9-0.7c-1.1,0.5-1.8,0.3-2.9,0.3c-1.8-1-2.6,0.1-3.9,1.3c-0.4-1.8-0.6,0.1-1.4,0.1c-0.6-0.5-0.5-1.6-1.3-0.4
		c-0.7,0-1.2-0.7-2.2-0.5c-1.7-1.3-2,2-2.9-0.4c-0.7,0.9-0.2,0.8-0.9,0c-0.8,2-1.9,1.1-2.9-0.1c-0.6,1.1-1.8,0.6-2.9,0.3
		c-0.8,0.1-1.6,1-2.9,0.7c-0.8-1.3-0.7,0.4-1.5-1.4c-0.9,2.2-0.6,0.2-2.2,0.1c-1.7,0.5-2.8,0.9-4.4,1.3c-0.9-1.5-0.8-0.4-1.5,0.4
		c-0.5-0.5-1-2-1.9-1.4c-0.3-1.1-0.4-0.1-0.8-0.1c-0.6,0.6-0.8-0.6-1.2,0.3c-1.2,0.4-2.1-0.3-3.3-0.2c-0.7,1.4-0.9,0.6-1.5-0.3
		c-0.5,1.1-1,1.8-2.2,0.7c-1.3-1.1-2.6,2.1-3.6-0.8c-0.9-0.2-1,0.7-1.5,1.3c-0.4-0.9-0.4-1.6-1.5-0.9c-0.8,1.7-0.8,0.7-1.5-0.3
		c-1.8,0.2-2.9,1-2.4,2.8c-1.7,0.8-2.3,3.2-4.8,2c-2.2,0.9,1,1.8-2.4,2.4c-1.7,0.8,0.4,3.3-2.8,2c0,1,0.1,1.6-1.1,1.2
		c-0.3,1.1-1.8,1.9-2.8,1.5c-1.2,1-1.1,2,0.3,0.5c0.7,2,1.7,0.2,2.4,1.1c-2.8-0.6,1.6,2.4,1.1-0.5c0.4,0.4,0.6,1.4,0.9,0.3
		c0.6,1.1,1.4,1.2,2.1,0.2c0.6,1.7,1.4-0.4,2.1-0.2c0.4,0.9,0.7,0.6,0.8-0.4c0.9-0.1,0.8,1.1,1.2,1.6c0.8-1.6,0.8-0.2,2.1-0.3
		c1-1.3,0.7-0.4,1.5,0.3c0.6-1,1.4,0.1,1.6-1.5c0.3,1.5,1.6,0.7,2.4,0.3c0.7,0.6,0.8,1,1.1-0.3c0.7,2.9,2.1,0.1,3.4,0.2
		c1.6-2,0.8,3.4,2,0c0.4,1.1,0.5,1,1.2,0.3c0.4,0.2,0.7,0.7,0.9,0.1c0.9-1,1,1.1,1.8-0.7c1.9,2.2,1.4-1.1,2.5,1.7
		c0.5-2.2,1.6-1.1,2.8,0c2-0.1,2.7-0.8,4.3-0.2c0.8-1.4,0.6-1.1,1.5,0.1c0.7-0.5,1.1-1.1,1.9-0.3c0.6-1.3,1-0.5,1.7,0.4
		c1-2,1.9,1.6,3-1.1c3.9,1.8,3.3-0.6,4.7,0.9c3.4-2.1,1.5,1,3.5-1.1c0.6,0.6,0.4,2,1.5,0.7c1.1,0.3,1.4,0.2,1.8-0.9
		c0.5,0.7,0.7,1.5,1.8,0.9c1.1,1.1,1.9,0,3.2,0.3c0.5-0.4,0.4-1.1,1-0.3c0.4-0.3,0.5-1.5,1.4-0.9c0.2,2.7,2.4-1.7,3.5,1.1
		c0.7-1.7,0.7-1,1.5,0.1c1.2-0.9,1.2,1.2,2.1-0.9c0.7,2.2,0.8-1.9,2.1-0.1c0.6,1.2,2.6,1.5,2.9-0.2c0.3,1,0.4,1.8,1.4,0.6
		c0.7,0.6,2-0.1,2.2-0.6c0.2,1.7,2.2,1.7,2.5,0c0.5,0.8,1.6,1.1,2.3,0.3c0.5,1.8,0.8-0.1,1.6-0.5c0.5,0.7,0.4,2.3,1.5,0.6
		c0.7,1.1,1.5,1.3,2.2,0.2c0.2,0.8,1.2,0.4,1.5-0.2c0.5,1.5,0.7,0.4,1.4,0c0.2,1.1,0.8,1.6,1,0.3c1.1,0.1,1.9,0.2,2.4-1
		C273.7,196.5,274.2,195.5,272.7,194.5z"/>
	<rect x="202.9" y="116.7" class="st31" width="41.7" height="8.3"/>
	<polygon class="st32" points="244.6,125 202.9,125 244.6,116.7 	"/>
	<rect x="190.4" y="16.7" class="st21" width="29.2" height="83.3"/>
	<polygon class="st33" points="243.6,124 202.9,125 204,117.7 244.6,116.7 	"/>
	<polygon class="st3" points="190.4,55.7 219.6,91.4 219.6,86.4 190.4,50.7 	"/>
	<polygon class="st3" points="227.9,37.9 257.1,75.6 257.1,70.5 227.9,32.8 	"/>
	<polygon class="st3" points="227.9,25.9 257.1,62.7 257.1,53.9 227.9,17.1 	"/>
	<polygon class="st3" points="231.3,16.7 257.1,48.1 257.1,43.2 235.3,16.7 	"/>
	<polygon class="st3" points="190.4,69.7 214.4,100 219.6,100 219.6,97.7 190.4,60.8 	"/>
	<polygon class="st3" points="204.2,100 208.2,100 190.4,77.1 190.4,82.2 	"/>
	<polygon class="st27" points="18.6,0 18.6,100 26.9,100 26.9,8.3 143.6,8.3 143.6,100 151.9,100 151.9,0 	"/>
	<polygon class="st28" points="18.6,0 18.6,100 24.8,100 26.9,8.3 145.7,6.3 143.6,100 151.9,100 151.9,0 	"/>
	<rect x="18.6" y="100" class="st31" width="133.3" height="16.7"/>
	<polygon class="st32" points="151.9,116.7 18.6,116.7 151.9,100 	"/>
	<polygon class="st33" points="148.6,114.6 18.6,116.7 21.9,102.1 151.9,100 	"/>
	<path class="st34" d="M92.1,58.5c0,0,1.1-4.8,3.9-4.9c3.9-0.2,3.8,2.9,3.8,2.9c0.1,8,1.2,22.7,1.4,24.6c-0.6,5.6-6.8,4.1-7.7,1.5
		C91.8,74.5,91.5,66.5,92.1,58.5z"/>
	<path class="st35" d="M94.4,83.9c-0.9-7.6-3.9-24.3,0.7-30c-2.2,0.9-3.1,4.7-3.1,4.7C91.8,64.5,91.1,79,94.4,83.9z"/>
	<path class="st36" d="M99.7,56.6c0.2,0-0.3-3.4-4.1-2.9c3.3,0.1,3.2,2.9,3.2,2.9c0.1,7,1.1,21.5,1.5,26.6
		C102.1,79.3,99.4,66.6,99.7,56.6z"/>
	<path class="st34" d="M111.9,80.7c-8-0.2-13.4-1.6-21.4-3.9c-1.8-0.5-4.6,3.2-2,7.1c7.3,3.1,18.9,4.2,24,2.6
		C114.1,86.1,113.8,80.8,111.9,80.7z"/>
	<path class="st36" d="M113.3,81.8c-0.3-0.5-0.7-1-1.4-1c-7.9-0.2-13.4-1.6-21.5-3.9c-0.4-0.1-1,0-1.5,0.4
		C96.5,79.8,104.9,81.5,113.3,81.8z"/>
	<path class="st35" d="M88,83c0.1,0.3,0.3,0.6,0.5,0.9c7.3,3.1,18.9,4.2,24,2.6c1.7-0.4,2.1-7.2-0.6-5.8c0,0,0,0-0.1,0
		c-0.5,1.1-2,3.2-0.8,5.3C105.2,86.5,95.2,86,88,83z"/>
	<path class="st37" d="M117.8,100c0.5-3.3,1.9-12.1,1.9-13.8c0-5.8-9.6-5.8-9.6,0v2.1c0,1,2.1,0.9,2,0c-0.9-5.7,5.1-5.9,5.5-2.1
		c0,1.4-1.2,9.7-2,13.8H117.8z"/>
	<path class="st38" d="M70.8,90.4l28.9-0.5c0.5,3.8,0.5,5.9,0.1,10.1H70.4C69.5,95.6,69.9,94.1,70.8,90.4z"/>
	<path class="st39" d="M70.4,100h2.3c-0.4-4-0.2-6.1,0.3-9.6h-2.3C69.9,94.1,69.5,95.6,70.4,100z"/>
	<path class="st40" d="M98.8,100h1c0.4-4.2,0.4-6.4-0.1-10.1h-1C99,93.5,99,96.1,98.8,100z"/>
	<path class="st39" d="M84.9,94.8c-20.2-0.2-20.2-13.2,0-13.4C105.1,81.6,105.1,94.7,84.9,94.8z"/>
	<path class="st41" d="M100.4,89.7c-2,3.8-28.6,5-30.7,0.7c0,0-1.2-16.6,2.3-29c2.2-7.6,3-12.4,20.2-12c1.2,0,8.8,2.3,6.6,12
		C98.7,61.5,100.5,75.6,100.4,89.7z"/>
	<path class="st42" d="M69.7,90.4c0.3,0.6,1,1,2.2,1.5c0.2-4.8-2.3-36.5,9.7-41.7c-7.1,1.6-8,5.6-9.6,11.2
		C68.5,73.9,69.7,90.4,69.7,90.4z"/>
	<path class="st43" d="M99.6,90.4c0.4-0.3,0.6-0.5,0.7-0.7c0.1-14.1-1.8-28.1-1.8-28.1S99.8,76.4,99.6,90.4z"/>
	<path class="st42" d="M92.5,59c0.6,0.7,1.4,1.9,1.7,0.4c-0.4-0.3-0.9-0.7-1.4-1.1C92.7,58.4,92.6,58.8,92.5,59z"/>
	<path class="st42" d="M86.2,59c-0.1-0.2-0.2-0.4-0.3-0.6c-0.5,0.4-1,0.7-1.4,1C84.9,60.4,85.7,59.6,86.2,59z"/>
	<path class="st42" d="M86.7,92.9c0.4,0,0.9,0,1.5-0.1c0.4-9.9,0.7-21.2,0.9-29.4l-0.6,0.7C87.6,79.2,87,89.2,86.7,92.9z"/>
	<path class="st42" d="M90.5,68.1c-0.8,0-0.8-1.2,0-1.2S91.3,68.2,90.5,68.1z"/>
	<path class="st42" d="M90,73.1c-0.7,0-0.7-1.1,0-1.1C90.9,72,90.9,73.1,90,73.1z"/>
	<path class="st42" d="M90,78.3c-0.6,0-0.6-1,0-1C90.7,77.3,90.7,78.3,90,78.3z"/>
	<path class="st42" d="M89.9,84.3c-0.7,0-0.7-1.1,0-1C90.5,83.1,90.5,84.3,89.9,84.3z"/>
	<path class="st42" d="M89.9,89.8c-0.7,0-0.7-1.1,0-1C90.5,88.6,90.5,89.8,89.9,89.8z"/>
	<path class="st34" d="M84.5,56.2c1.9,2.7,3.5,6.2,4.6,10.2c1.5-2.2,2.9-5.1,4.5-10.2H84.5z"/>
	<path class="st35" d="M88.6,64.8c0.2-3,0.3-5.8,0-8.3H88C88.6,58.9,87.7,62.1,88.6,64.8z"/>
	<path class="st34" d="M94.2,59.4c1.6,1,0.9-9.6,0.3-10.3c-1-2.2-12-1.5-12.6,0.4c-0.4,0.1,1.1,11.1,2.6,9.9
		C88.5,55.9,90.1,55.6,94.2,59.4z"/>
	<path class="st36" d="M94.2,59.4c1.6,1.2,1.1-10.6-0.1-10.7c0,0,0,0,0,0.1C95.1,50.8,94.4,57.3,94.2,59.4z"/>
	<path class="st36" d="M83.7,59.3c0.8,1.4,3.2-3.5,7-2.5c-0.4-0.8-1.8-0.4-2.4-0.4C87.4,56.4,84.9,58.2,83.7,59.3z"/>
	<path class="st35" d="M92.8,58.2c-1-0.7-2.1-1.6-2.4-1.6c0.3,0,1.2,1.2,2.2,2.2C92.6,58.8,92.7,58.5,92.8,58.2z"/>
	<path class="st35" d="M85.8,58.3c0.1,0.2,0.2,0.4,0.3,0.6c0.9-1,1.9-2.3,2.5-2.3C88,56.8,86.8,57.5,85.8,58.3z"/>
	<path class="st35" d="M89.7,58.8c-0.5,0-0.5-0.8,0-0.7C90.2,57.9,90.2,58.8,89.7,58.8z"/>
	<path class="st35" d="M89.7,61.5c-0.5,0-0.5-0.8,0-0.7C90.2,60.7,90.2,61.6,89.7,61.5z"/>
	<path class="st35" d="M89.5,64c-0.5,0-0.5-0.8,0-0.7C90,63.2,90,64,89.5,64z"/>
	<path class="st44" d="M89.5,40.7c5.7-0.1,5.7,16.3,0,16.3c-2.4,0-4.4-3.6-4.4-8.1C85.1,44.5,84.8,40.1,89.5,40.7z"/>
	<path class="st45" d="M88,56.5c-2.2-2.8-2.5-11.3-0.6-14c1.3-0.9,3.3-1,4.7-0.2c-1.4-2.1-4-2.1-5.8-0.9
		C84.2,44.3,84.8,54.6,88,56.5z"/>
	<path class="st44" d="M84.1,45c-5.8,0.5-7.9-9.3-2.1-9.5c-4.9-17.6,28.1-12.1,21,3.1C103.2,51.5,89.5,62.4,84.1,45z"/>
	<path class="st46" d="M92.5,37.7c0.1,1.9,1.7,1.8,1.5-0.1C93.9,35.6,92.3,35.7,92.5,37.7z"/>
	<path class="st46" d="M100.9,36.9c0.1,1.9,1.7,1.8,1.5-0.1C102.2,34.9,100.7,35,100.9,36.9z"/>
	<path class="st47" d="M96.5,52.8c3.6-2.5,6.8-9,6.6-14.3c2.5-5.4,0-9.3-3.6-11.6c3.2,2.4,5.3,6.4,3,11.6
		C102.6,43.6,99.8,49.9,96.5,52.8z"/>
	<path class="st45" d="M100.3,43.3c-2.9,3-7.5,0.6-6.1-2.6c0.1-0.3,0.5-0.3,0.6,0c0.6,2.5,2.4,3,5.2,2.1
		C100.3,42.7,100.5,43,100.3,43.3z"/>
	<path class="st48" d="M90.4,32c-0.5,0-0.6,0.6-0.3,0.9c0.4,0.9,3.1,0.6,4.7-0.3c0.6-0.4,0.1-2.4-0.8-1.9C93.2,31.3,91.6,32,90.4,32
		z"/>
	<path class="st48" d="M103.7,30.8c0.5,0,0.7,0.5,0.5,0.9c-0.2,1-3,1.1-4.7,0.5c-0.7-0.3-0.6-2.3,0.5-2
		C101,30.5,102.6,30.9,103.7,30.8z"/>
	<path class="st49" d="M98.3,46c0.4-0.3,0.8,0.4,0.4,0.6c-0.7,1.3-7.2,0.9-5.3-0.5C94.9,47,97,47.1,98.3,46z"/>
	<path class="st45" d="M84.1,44.9c2.5,9.1,8.2,10.5,12.7,7.5c-4.5,1.6-9,0.9-11.4-8c-4.3,0.2-6.7-4.1-6.8-5.9
		C78.5,41.2,79.6,44.9,84.1,44.9z"/>
	<path class="st45" d="M87.7,25c-3.8,0.8-7.5,3.2-5.8,9.7c0.5-0.1,1-0.2,1.7-0.2C81.8,28.9,84.4,26.3,87.7,25z"/>
	<path class="st50" d="M86.2,36.1c0-1.6-1.1-4.5-3.4-3.6c0,0-0.1-1.9-1.5-2c-4.1-0.6-4.1,4.7-1.7,5.8c0.6-0.7,1.7-1,3.1-0.6
		C82.6,37.2,86,39.1,86.2,36.1z"/>
	<path class="st51" d="M86,36.9c0.6-1.7-0.9-5.4-3.2-4.4c0.1-0.2-0.4-2.3-1.9-2c1.7,0.1,1.4,2.4,1.4,2.4c2.3-0.9,3.8,1.7,3.9,3.6
		C86.1,36.6,86.1,36.8,86,36.9z"/>
	<path class="st48" d="M82.7,35.7c-0.1,1.5,2.9,3.1,3.3,0.8C84.9,37.5,82.9,36.8,82.7,35.7z"/>
	<path class="st48" d="M80.8,30.4c-3.5-0.3-3.4,4.8-1.1,5.8c0.1-0.2,0.3-0.3,0.5-0.4c-1.4-0.6-1.2-2.7-1.1-3.3
		C79.1,32,79.7,30.9,80.8,30.4z"/>
	<path class="st34" d="M72.4,55.5c0,0,3.2-3.6,5.7-2.5c3.4,1.6,1.9,4.3,1.9,4.3c-3.8,7.2-9.6,20.6-10.3,22.3
		c-3.2,4.6-7.9,0.4-7.6-2.3C64.6,69.5,68,62.2,72.4,55.5z"/>
	<path class="st36" d="M80,57.3c0.2,0,1.2-3.2-2.2-4.4c2.9,1.7,1.5,4.1,1.5,4.1c-3.1,6.1-9.1,19.5-11.1,24.2
		C71.5,78.5,75.1,66,80,57.3z"/>
	<path class="st35" d="M72.4,55.5C72.4,55.5,72.3,55.5,72.4,55.5c-2.5,3.9-9.6,15.9-10.3,21.9c-0.1,0.7,0.3,1.1,0.4,1.7
		c0.8,2.8,5.5,3.9,7.2,0.7c-0.1-0.2-7.3,2.8-7-2.6c3.1-6.9,7.9-21.5,14.6-24.3c-1.9-0.2-4,1.8-4.7,2.4
		C72.5,55.3,72.5,55.3,72.4,55.5C72.4,55.4,72.4,55.5,72.4,55.5z"/>
	<path class="st52" d="M115.1,86.7c0.6,0.3,1.3,0.3,1.5,0c1.4,2.9,5.9-4.9,2.5-4.1c0.2-1.5-0.8-1.7-1.7-1.2c-0.1-0.5-0.4-2-2.7-1.1
		C111.2,81.6,111.6,89.4,115.1,86.7z"/>
	<path class="st45" d="M114.9,86.7c0.6,0.3,1.2,0.3,1.5,0c0.1,0.9,1.7,0.7,2.2-0.1c-2,0.2-1.1-1.1-2.4-1c-3,2.2-4.1-1.4-2.8-4.5
		C111.5,83.4,111.8,89.2,114.9,86.7z"/>
	<g>
		<g>
			<defs>
				
					<rect id="SVGID_9_" x="59.1" y="36.1" transform="matrix(0.9904 -0.1379 0.1379 0.9904 -7.3256 9.7637)" width="15.4" height="43.3"/>
			</defs>
			<clipPath id="SVGID_10_">
				<use xlink:href="#SVGID_9_"  style="overflow:visible;"/>
			</clipPath>
			<path class="st53" d="M64.4,50.4c-2.7,5.5-4.2,19.5-2.3,28.2c3.8,3.7,8.2-1.3,8-3.3c-1-9.5-0.5-12.9-0.6-23
				C69.4,50,65.1,48.5,64.4,50.4z"/>
		</g>
		<g>
			<defs>
				
					<rect id="SVGID_11_" x="59.1" y="36.1" transform="matrix(0.9904 -0.1379 0.1379 0.9904 -7.3256 9.7637)" width="15.4" height="43.3"/>
			</defs>
			<clipPath id="SVGID_12_">
				<use xlink:href="#SVGID_11_"  style="overflow:visible;"/>
			</clipPath>
			<path class="st54" d="M69.4,77.3c0.4-0.7,0.7-1.5,0.7-2c-1-9.4-0.4-13.7-0.7-23.2c0-0.1,0-0.2,0-0.2c0-0.1-0.1-0.1-0.1-0.2
				c0-0.1-0.1-0.3-0.3-0.4c-0.1-0.2-0.4-0.4-0.6-0.5C68.6,59.4,68.8,68.7,69.4,77.3z"/>
		</g>
		<g>
			<defs>
				
					<rect id="SVGID_13_" x="59.1" y="36.1" transform="matrix(0.9904 -0.1379 0.1379 0.9904 -7.3256 9.7637)" width="15.4" height="43.3"/>
			</defs>
			<clipPath id="SVGID_14_">
				<use xlink:href="#SVGID_13_"  style="overflow:visible;"/>
			</clipPath>
			<path class="st55" d="M64.7,52.2c2.1,1.7,3.6,0.7,4.9,0.3C62,39.4,60,72.9,62.2,78.8c0.2,0.3,0.6,0.5,0.8,0.7
				C61.2,70.6,62.2,59.4,64.7,52.2z"/>
		</g>
	</g>
	<g>
		<g>
			<defs>
				
					<rect id="SVGID_15_" x="59.1" y="36.1" transform="matrix(0.9904 -0.1379 0.1379 0.9904 -7.3256 9.7637)" width="15.4" height="43.3"/>
			</defs>
			<clipPath id="SVGID_16_">
				<use xlink:href="#SVGID_15_"  style="overflow:visible;"/>
			</clipPath>
			<g class="st56">
				<g>
					<defs>
						
							<rect id="SVGID_17_" x="62.2" y="35.8" transform="matrix(0.9904 -0.1379 0.1379 0.9904 -5.4172 9.7143)" width="10.4" height="16.3"/>
					</defs>
					<clipPath id="SVGID_18_">
						<use xlink:href="#SVGID_17_"  style="overflow:visible;"/>
					</clipPath>
					<path class="st57" d="M62.7,42.1c0.5-0.3,1.1-0.1,1.3,0.4l1.2,1.5l-0.3-6.2c-0.1-0.4,0.3-0.8,0.7-0.8c0.4-0.1,0.8,0.3,0.8,0.7
						l0.5,4.8h0.3l-0.3-5.8c-0.1-0.4,0.3-0.8,0.7-0.8c0.4-0.1,0.8,0.3,0.8,0.7l0.3,5.6h0.1l0.2-4.9c0-0.4,0.3-0.8,0.7-0.7
						c0.4,0,0.8,0.3,0.7,0.7l-0.2,5.4l0.1,0.1l0.4-2.3c0-0.4,0.4-0.7,0.9-0.6s0.7,0.4,0.6,0.9c-0.3,4.4-0.9,7.9-1.9,8.3
						c-1.2,0.6-1.5,2.9-1.5,2.9c-1.6,0.4-2.7,0.3-4-1.1l0.1-2.3l-2.7-5.1C62,43.1,62.2,42.4,62.7,42.1z"/>
				</g>
				<g>
					<defs>
						
							<rect id="SVGID_19_" x="62.2" y="35.8" transform="matrix(0.9904 -0.1379 0.1379 0.9904 -5.4172 9.7143)" width="10.4" height="16.3"/>
					</defs>
					<clipPath id="SVGID_20_">
						<use xlink:href="#SVGID_19_"  style="overflow:visible;"/>
					</clipPath>
					<path class="st58" d="M66.9,36.7c-0.1-0.4,0.3-0.8,0.7-0.8c0.1,0,0.2,0.1,0.3,0.1c-0.3,0.1-0.5,0.4-0.5,0.7l0.3,5.6h-0.6
						L66.9,36.7z"/>
				</g>
				<g>
					<defs>
						
							<rect id="SVGID_21_" x="62.2" y="35.8" transform="matrix(0.9904 -0.1379 0.1379 0.9904 -5.4172 9.7143)" width="10.4" height="16.3"/>
					</defs>
					<clipPath id="SVGID_22_">
						<use xlink:href="#SVGID_21_"  style="overflow:visible;"/>
					</clipPath>
					<path class="st59" d="M65.5,37.1c-0.4,0.1-0.7,0.4-0.7,0.8c0,0-0.2,5.7,0,5.7l0.3,0.8c1.1-0.4,2.2,0.6,2.2,1
						c0.1-0.9,0.1-1.7-2-1.7l0.3-5.7c0-0.3,0.2-0.7,0.5-0.8C65.8,37,65.7,37.1,65.5,37.1z"/>
				</g>
				<g>
					<defs>
						
							<rect id="SVGID_23_" x="62.2" y="35.8" transform="matrix(0.9904 -0.1379 0.1379 0.9904 -5.4172 9.7143)" width="10.4" height="16.3"/>
					</defs>
					<clipPath id="SVGID_24_">
						<use xlink:href="#SVGID_23_"  style="overflow:visible;"/>
					</clipPath>
					<path class="st60" d="M64.4,46.5l-1.6-2.9c-0.3-0.5-0.1-1.1,0.4-1.3c0.1,0,0.2,0,0.2,0c-0.2-0.1-0.5-0.1-0.8,0
						c-0.5,0.3-0.7,0.8-0.4,1.3l2.7,5.1L64.8,51l0.6,0.4l0.1-2.8L64.4,46.5z"/>
				</g>
				<g>
					<defs>
						
							<rect id="SVGID_25_" x="62.2" y="35.8" transform="matrix(0.9904 -0.1379 0.1379 0.9904 -5.4172 9.7143)" width="10.4" height="16.3"/>
					</defs>
					<clipPath id="SVGID_26_">
						<use xlink:href="#SVGID_25_"  style="overflow:visible;"/>
					</clipPath>
					<path class="st61" d="M69.7,36.6c0.1,0,0.2,0.1,0.3,0.1c-0.3,0.1-0.5,0.4-0.5,0.7l-0.2,4.9h-0.6l0.2-4.8
						C68.9,36.9,69.5,36.5,69.7,36.6z"/>
				</g>
				<g>
					<defs>
						
							<rect id="SVGID_27_" x="62.2" y="35.8" transform="matrix(0.9904 -0.1379 0.1379 0.9904 -5.4172 9.7143)" width="10.4" height="16.3"/>
					</defs>
					<clipPath id="SVGID_28_">
						<use xlink:href="#SVGID_27_"  style="overflow:visible;"/>
					</clipPath>
					<path class="st62" d="M71.6,40c0.1,0,0.1,0.1,0.2,0.1c-0.2,0.1-0.5,0.3-0.4,0.6L71,43h-0.6l0.4-2.3C71,40,71.4,39.9,71.6,40z"
						/>
				</g>
			</g>
		</g>
	</g>
	<g class="st63">
		<g>
			<g>
				<defs>
					<rect id="SVGID_29_" x="26.8" y="73.9" width="72" height="26.2"/>
				</defs>
				<clipPath id="SVGID_30_">
					<use xlink:href="#SVGID_29_"  style="overflow:visible;"/>
				</clipPath>
				<polygon class="st64" points="82,100 97.8,100 26.9,74.8 26.9,80.4 				"/>
			</g>
		</g>
	</g>
	<g class="st63">
		<g>
			<g>
				<defs>
					<rect id="SVGID_31_" x="26.8" y="56.1" width="116.7" height="44"/>
				</defs>
				<clipPath id="SVGID_32_">
					<use xlink:href="#SVGID_31_"  style="overflow:visible;"/>
				</clipPath>
				<polygon class="st65" points="26.9,66.7 122.7,100 143.6,100 143.6,97.5 26.9,57 				"/>
			</g>
		</g>
	</g>
	<g class="st63">
		<g>
			<g>
				<defs>
					<rect id="SVGID_33_" x="26.8" y="45.7" width="116.7" height="45"/>
				</defs>
				<clipPath id="SVGID_34_">
					<use xlink:href="#SVGID_33_"  style="overflow:visible;"/>
				</clipPath>
				<polygon class="st66" points="26.9,51.4 143.6,90.5 143.6,85 26.9,45.8 				"/>
			</g>
		</g>
	</g>
	<g>
		<g>
			<defs>
				<rect id="SVGID_35_" x="280" y="183.3" width="25" height="10.2"/>
			</defs>
			<clipPath id="SVGID_36_">
				<use xlink:href="#SVGID_35_"  style="overflow:visible;"/>
			</clipPath>
			<path class="st67" d="M280,189.5l1.6,3.8l23.2,0.3l0.2-4.2l-2.3-3.5c-1.5-2.2-4.3-3.1-6.8-2.2L280,189.5z"/>
		</g>
		<g>
			<defs>
				<rect id="SVGID_37_" x="280" y="183.3" width="25" height="10.2"/>
			</defs>
			<clipPath id="SVGID_38_">
				<use xlink:href="#SVGID_37_"  style="overflow:visible;"/>
			</clipPath>
			<polygon class="st68" points="281.2,192.5 281.6,193.2 304.8,193.5 304.9,189.7 			"/>
		</g>
	</g>
	<g>
		<g>
			<defs>
				<rect id="SVGID_39_" x="286.3" y="139.6" width="18.1" height="48.3"/>
			</defs>
			<clipPath id="SVGID_40_">
				<use xlink:href="#SVGID_39_"  style="overflow:visible;"/>
			</clipPath>
			<path class="st69" d="M294.2,139.6c-5.1,0.7-8.6,5.5-7.8,10.6l6.1,35l11.9,2.5l-0.1-37.8C303.9,143.4,301.1,139.4,294.2,139.6z"
				/>
		</g>
		<g>
			<defs>
				<rect id="SVGID_41_" x="286.3" y="139.6" width="18.1" height="48.3"/>
			</defs>
			<clipPath id="SVGID_42_">
				<use xlink:href="#SVGID_41_"  style="overflow:visible;"/>
			</clipPath>
			<path class="st70" d="M294.2,139.6c-5.1,0.7-8.6,5.5-7.8,10.6l6.1,35l-4-35.2C287.8,146.7,290.9,140.1,294.2,139.6z"/>
		</g>
		<g>
			<defs>
				<rect id="SVGID_43_" x="286.3" y="139.6" width="18.1" height="48.3"/>
			</defs>
			<clipPath id="SVGID_44_">
				<use xlink:href="#SVGID_43_"  style="overflow:visible;"/>
			</clipPath>
			<path class="st71" d="M304.2,149.8c0-3.5-0.2-5-2.1-7l-0.2,44.4l2.4,0.7L304.2,149.8z"/>
		</g>
	</g>
	<g>
		<g>
			<defs>
				<rect id="SVGID_45_" x="282.1" y="52.1" width="14.5" height="40"/>
			</defs>
			<clipPath id="SVGID_46_">
				<use xlink:href="#SVGID_45_"  style="overflow:visible;"/>
			</clipPath>
			<path class="st72" d="M294.6,71.8l-10.8,0.9c0,0,0,8.3,0.1,14.4c0.2,6.2,10.5,7.2,10.9,0.3C294.9,80.7,294.6,71.8,294.6,71.8z"/>
		</g>
		<g>
			<defs>
				<rect id="SVGID_47_" x="282.1" y="52.1" width="14.5" height="40"/>
			</defs>
			<clipPath id="SVGID_48_">
				<use xlink:href="#SVGID_47_"  style="overflow:visible;"/>
			</clipPath>
			<path class="st73" d="M285.2,72.5l-1.6,0.2c0,0,0,8.2,0.1,14.3c0,2.2,0.5,2.7,1.2,3.1C285,85.7,285.1,75.8,285.2,72.5z"/>
		</g>
		<g>
			<defs>
				<rect id="SVGID_49_" x="282.1" y="52.1" width="14.5" height="40"/>
			</defs>
			<clipPath id="SVGID_50_">
				<use xlink:href="#SVGID_49_"  style="overflow:visible;"/>
			</clipPath>
			<path class="st74" d="M294.6,71.8h-1c0,1.9,0.7,10.5-0.3,16.6c-0.3,1.9-1.1,2.3-4,3.8c3,0.4,5.4-2.5,5.5-3.1
				C294.9,82.3,294.6,71.8,294.6,71.8z"/>
		</g>
		<g>
			<defs>
				<rect id="SVGID_51_" x="282.1" y="52.1" width="14.5" height="40"/>
			</defs>
			<clipPath id="SVGID_52_">
				<use xlink:href="#SVGID_51_"  style="overflow:visible;"/>
			</clipPath>
			<path class="st75" d="M296.3,65.5c0.1,7.6,0.3,9.1,0.3,9.1c-4.5,0.7-9.3,0.2-14.3-1c0,0-0.1-2.2-0.2-7
				c-0.1-7.7,3.2-14.5,7.3-14.5C293.5,52,296.2,57.9,296.3,65.5z"/>
		</g>
		<g>
			<defs>
				<rect id="SVGID_53_" x="282.1" y="52.1" width="14.5" height="40"/>
			</defs>
			<clipPath id="SVGID_54_">
				<use xlink:href="#SVGID_53_"  style="overflow:visible;"/>
			</clipPath>
			<path class="st76" d="M294.5,65.9c0,5.1,0.2,7.7,0.3,9c0.6-0.1,1.2-0.2,1.8-0.2c0,0-0.2-1.5-0.3-9.1c-0.2-7.2-2.6-12.9-6.2-13.4
				C292.7,54.2,294.4,59.5,294.5,65.9z"/>
		</g>
		<g>
			<defs>
				<rect id="SVGID_55_" x="282.1" y="52.1" width="14.5" height="40"/>
			</defs>
			<clipPath id="SVGID_56_">
				<use xlink:href="#SVGID_55_"  style="overflow:visible;"/>
			</clipPath>
			<path class="st77" d="M284.8,70.8c-0.1-4-0.8-7.5-2.1-9.9c-0.4,1.8-0.6,3.5-0.6,5.6c0.1,4.8,0.2,7,0.2,7c0.8,0.2,1.7,0.4,2.5,0.6
				C284.8,73.2,284.8,72,284.8,70.8z"/>
		</g>
	</g>
	<g>
		<g>
			<defs>
				<rect id="SVGID_57_" x="278.5" y="83.3" width="16.4" height="40.7"/>
			</defs>
			<clipPath id="SVGID_58_">
				<use xlink:href="#SVGID_57_"  style="overflow:visible;"/>
			</clipPath>
			<path class="st78" d="M283.8,87.3c0,1.9,0.1,3.5,0.1,4.7c0.3,4.1,1.6,12.4,1.3,16.5c-0.3,3-0.8,5.2-2.2,7.7
				c-0.2,0.3-4.6,2.7-4.4,3c0.4,0.6,0.8,0.7,1.8,0.7l3.3-1.3c0,0,0,3.4,0,4.2l9.1-0.3c0.2-0.4,0-8.2,0-8.2s-0.9-3.9-0.9-5.2
				c-0.1-4.2,2.5-11.7,2.8-16c0.1-0.9,0.1-2.3,0.1-3.9C295.4,81.7,284.1,81.8,283.8,87.3z"/>
		</g>
		<g>
			<defs>
				<rect id="SVGID_59_" x="278.5" y="83.3" width="16.4" height="40.7"/>
			</defs>
			<clipPath id="SVGID_60_">
				<use xlink:href="#SVGID_59_"  style="overflow:visible;"/>
			</clipPath>
			<path class="st79" d="M283.7,87.2c0,1.9,0.1,3.6,0.1,4.7c0.3,4.2,2,12.2,1.2,17.5c2-2.4,0.2-12.7-0.1-24.6
				C284.2,84.9,283.7,86.5,283.7,87.2z"/>
		</g>
		<g>
			<defs>
				<rect id="SVGID_61_" x="278.5" y="83.3" width="16.4" height="40.7"/>
			</defs>
			<clipPath id="SVGID_62_">
				<use xlink:href="#SVGID_61_"  style="overflow:visible;"/>
			</clipPath>
			<path class="st80" d="M294.7,89.2c0.3-1.5-0.6-3.9-1-3.9c0,1.7-0.1,6.9-0.1,7.8c-0.5,4.6-3,12.3-3,16.5c0,1.5,1,5.4,1,5.4
				s0.3,4.9,0.3,7.3l0.9-0.1c0.2-0.4-0.1-7.8-0.1-7.8s-0.9-3.9-0.9-5.2c-0.2-4.2,2.4-11.7,2.8-16C294.6,92.2,294.7,90.8,294.7,89.2z
				"/>
		</g>
		<g>
			<defs>
				<rect id="SVGID_63_" x="278.5" y="83.3" width="16.4" height="40.7"/>
			</defs>
			<clipPath id="SVGID_64_">
				<use xlink:href="#SVGID_63_"  style="overflow:visible;"/>
			</clipPath>
			<path class="st81" d="M285.9,121.6c-2.1-0.6-2-5.1-1.8-7.9c-0.3,0.8-0.9,1.4-1.5,2.2c-0.4,0.7-4.9,1.9-4,3.4l5-2.5
				c0,0,0,5.4,0,6.1c0.1,1.5,1.5,1.4,2.1,0.5c0.8,1.3,2,0.4,2.2-0.5c0.8,1.8,2.7,0.8,2.7-0.4c0,0.5,0.4,0.9,1,1s1.1-0.4,1.2-0.9
				c0.1-0.1,0.1-0.7,0.1-1.6C291.1,121.6,288,122.2,285.9,121.6z"/>
		</g>
	</g>
	<g>
		<g>
			<defs>
				<rect id="SVGID_65_" x="285.2" y="104.2" width="20.7" height="53.6"/>
			</defs>
			<clipPath id="SVGID_66_">
				<use xlink:href="#SVGID_65_"  style="overflow:visible;"/>
			</clipPath>
			<path class="st82" d="M285.2,114.6l1.1,34.4c0.1,2.6,1.2,4.8,3,6.5s4.2,2.6,6.8,2.4c2.5-0.3,4.7-1.6,6.2-3.5
				c1.2-1.6,2-3.5,2.2-5.7l0.9-32.6c0.5-5.4-2.9-13.9-7.8-11.2L285.2,114.6z"/>
		</g>
		<g>
			<defs>
				<rect id="SVGID_67_" x="285.2" y="104.2" width="20.7" height="53.6"/>
			</defs>
			<clipPath id="SVGID_68_">
				<use xlink:href="#SVGID_67_"  style="overflow:visible;"/>
			</clipPath>
			<path class="st83" d="M285.2,114.6l1.1,34.4c0.1,2.6,1.2,4.8,3,6.5l1-43.6L285.2,114.6z"/>
		</g>
		<g>
			<defs>
				<rect id="SVGID_69_" x="285.2" y="104.2" width="20.7" height="53.6"/>
			</defs>
			<clipPath id="SVGID_70_">
				<use xlink:href="#SVGID_69_"  style="overflow:visible;"/>
			</clipPath>
			<path class="st84" d="M302.4,154.4c1.1-1.1,1.6-2.4,2.1-4.6l1.5-35.3c-0.2,0.1-1.8,0-1.8,0C302,127.5,302.4,154.4,302.4,154.4z"
				/>
		</g>
	</g>
	<g>
		<g>
			<defs>
				<rect id="SVGID_71_" x="267.5" y="18.8" width="27.3" height="37.6"/>
			</defs>
			<clipPath id="SVGID_72_">
				<use xlink:href="#SVGID_71_"  style="overflow:visible;"/>
			</clipPath>
			<path class="st85" d="M288.6,39.8c0,0,2.6-7.5-0.9-11.1c-4.9-5.1-16.1-6.2-16.9-3.1c-1.2,5.4-0.1,8.1-0.2,9.1
				c-0.1,0.9-2.6,4.4-2.2,5.8c0.9,2.9,10.6,7.2,10.6,7.2l3,7.7c1,2.1,7.4,0.5,7.9-3.9C290.3,47.9,289.6,43.9,288.6,39.8z"/>
		</g>
		<g>
			<defs>
				<rect id="SVGID_73_" x="267.5" y="18.8" width="27.3" height="37.6"/>
			</defs>
			<clipPath id="SVGID_74_">
				<use xlink:href="#SVGID_73_"  style="overflow:visible;"/>
			</clipPath>
			<path class="st86" d="M288.8,39.6l-0.4,1.6c0.8,3.5,1.5,8.1,1.2,11.5l0.4-1.4C290.3,47.7,289.6,43.6,288.8,39.6z"/>
		</g>
		<g>
			<defs>
				<rect id="SVGID_75_" x="267.5" y="18.8" width="27.3" height="37.6"/>
			</defs>
			<clipPath id="SVGID_76_">
				<use xlink:href="#SVGID_75_"  style="overflow:visible;"/>
			</clipPath>
			<path class="st87" d="M286.8,20.4c-1.2-0.8-2.9-0.9-4.3-0.4c-3-2.1-6-0.9-8.3,0.4c-2.8-0.7-5.2,0.7-5.7,1.4
				c-1.6,2-0.9,5.3,1.8,6.3c0.1-0.6,0.2-1.4,0.2-1.4c5.1,2.7,7.2,1.7,9.1,2.5c1,0.4,1.9,3.7,2.1,5.5c0.2,0.7,0.7,1.2,1.4,1.2
				l2.1,0.2l1.9,5.5c0.8,1,2.6,0.6,2.7-0.8c0.2-2,0.6-4,1.5-4.3c0.7-0.3,1.2-0.8,1.7-1.5C296.3,30.9,295.1,20,286.8,20.4z"/>
		</g>
		<g>
			<defs>
				<rect id="SVGID_77_" x="267.5" y="18.8" width="27.3" height="37.6"/>
			</defs>
			<clipPath id="SVGID_78_">
				<use xlink:href="#SVGID_77_"  style="overflow:visible;"/>
			</clipPath>
			<path class="st88" d="M268.5,21.7c-1.7,2.1-1,5.4,1.8,6.2c0.1-0.5,0.1-1,0.2-1.4C268.5,26.6,268.2,24.6,268.5,21.7z"/>
		</g>
		<g>
			<defs>
				<rect id="SVGID_79_" x="267.5" y="18.8" width="27.3" height="37.6"/>
			</defs>
			<clipPath id="SVGID_80_">
				<use xlink:href="#SVGID_79_"  style="overflow:visible;"/>
			</clipPath>
			<path class="st89" d="M274.1,20.3c4.1-1,7.6-0.5,10.5,1.4C280.7,17.3,276.8,18.6,274.1,20.3z"/>
		</g>
		<g>
			<defs>
				<rect id="SVGID_81_" x="267.5" y="18.8" width="27.3" height="37.6"/>
			</defs>
			<clipPath id="SVGID_82_">
				<use xlink:href="#SVGID_81_"  style="overflow:visible;"/>
			</clipPath>
			<path class="st90" d="M268.5,21.8c2.8-1,5.6-1.2,8.4-0.4C272.5,19.3,269.8,20,268.5,21.8z"/>
		</g>
		<g>
			<defs>
				<rect id="SVGID_83_" x="267.5" y="18.8" width="27.3" height="37.6"/>
			</defs>
			<clipPath id="SVGID_84_">
				<use xlink:href="#SVGID_83_"  style="overflow:visible;"/>
			</clipPath>
			<path class="st91" d="M287.2,20.4c5.7,2.4,7.2,8.2,5.7,14.8C296.3,30.9,295.5,20.1,287.2,20.4z"/>
		</g>
		<g>
			<defs>
				<rect id="SVGID_85_" x="267.5" y="18.8" width="27.3" height="37.6"/>
			</defs>
			<clipPath id="SVGID_86_">
				<use xlink:href="#SVGID_85_"  style="overflow:visible;"/>
			</clipPath>
			<path class="st92" d="M282.5,19.9c2,0.1,3.8,0.5,5.3,1.5C286.7,19.7,284.5,19.1,282.5,19.9z"/>
		</g>
		<g>
			<defs>
				<rect id="SVGID_87_" x="267.5" y="18.8" width="27.3" height="37.6"/>
			</defs>
			<clipPath id="SVGID_88_">
				<use xlink:href="#SVGID_87_"  style="overflow:visible;"/>
			</clipPath>
			<path class="st93" d="M280.4,47c0,0-10-4.4-10.9-7.4c-0.4-1.5,0.9-4.4,1-5.2c-0.2,0.8-2.6,4.4-2.2,5.8c1,3,10.6,7.3,10.6,7.3
				l2.5,7.3c0.9,1.2,1.8,1.8,2.7,1.5L280.4,47z"/>
		</g>
		<g>
			<defs>
				<rect id="SVGID_89_" x="267.5" y="18.8" width="27.3" height="37.6"/>
			</defs>
			<clipPath id="SVGID_90_">
				<use xlink:href="#SVGID_89_"  style="overflow:visible;"/>
			</clipPath>
			<path class="st94" d="M271.8,36c-0.2,1.9,1.2,2,1.4,0.1C273.4,34.3,271.9,34.2,271.8,36z"/>
		</g>
		<g>
			<defs>
				<rect id="SVGID_91_" x="267.5" y="18.8" width="27.3" height="37.6"/>
			</defs>
			<clipPath id="SVGID_92_">
				<use xlink:href="#SVGID_91_"  style="overflow:visible;"/>
			</clipPath>
			<path class="st95" d="M274.1,32.7c-0.8-0.6-2-1.1-3.8-1.6c-0.8-0.2-1.5,1-0.5,1.1c2.1,0.1,4.5,1.5,4.6,1.5
				C274.7,33.9,275.8,33.7,274.1,32.7z"/>
		</g>
		<g>
			<defs>
				<rect id="SVGID_93_" x="267.5" y="18.8" width="27.3" height="37.6"/>
			</defs>
			<clipPath id="SVGID_94_">
				<use xlink:href="#SVGID_93_"  style="overflow:visible;"/>
			</clipPath>
			<path class="st96" d="M285.9,40.3c-1.6,1.8-3.1,3.4-4.7,4.9c-2.8-1.8-4.1-3.4-4.3-6.3c2.6-0.6,4.8-1.6,6.9-2.7
				c0.6-0.3,1.2-0.4,1.9-0.4s1.2,0.4,1.4,0.9C287.2,37.5,287.2,38.9,285.9,40.3z M283.2,35.2c-4.3,2.5-9.3,3.4-14.5,3.9
				c-0.8,0-1.4,0.9-1,1.8c1.5,3.2,3.4,6.1,5.8,8.6c0.9,0.9,2.5,1,3.6,0.3c4-2.8,7-5.8,9.6-8.9C290,37.3,287.6,33.1,283.2,35.2z"/>
		</g>
		<g>
			<defs>
				<rect id="SVGID_95_" x="267.5" y="18.8" width="27.3" height="37.6"/>
			</defs>
			<clipPath id="SVGID_96_">
				<use xlink:href="#SVGID_95_"  style="overflow:visible;"/>
			</clipPath>
			<path class="st97" d="M277.9,48.7c-1.2,0.8-3,0.7-4.2-0.3c-1.9-1.6-3.5-3.3-5-5.3c1.2,2.3,2.8,4.5,4.7,6.4c0.9,0.9,2.5,1,3.6,0.3
				c1.8-1.4,3.4-2.6,4.9-4.1C280.9,46.8,279.4,47.8,277.9,48.7z"/>
		</g>
		<g>
			<defs>
				<rect id="SVGID_97_" x="267.5" y="18.8" width="27.3" height="37.6"/>
			</defs>
			<clipPath id="SVGID_98_">
				<use xlink:href="#SVGID_97_"  style="overflow:visible;"/>
			</clipPath>
			<path class="st98" d="M286.6,34.2c-1.8-0.1-3.2,1.3-3.3,3.3c-0.1,2.1,0,3.6,1.9,3.9c1.9,0.2,4.2-1.5,4.3-3.5
				C289.5,35.8,288.4,34.4,286.6,34.2z"/>
		</g>
		<g>
			<defs>
				<rect id="SVGID_99_" x="267.5" y="18.8" width="27.3" height="37.6"/>
			</defs>
			<clipPath id="SVGID_100_">
				<use xlink:href="#SVGID_99_"  style="overflow:visible;"/>
			</clipPath>
			<path class="st99" d="M289.1,36.1c0.1,0.2,0,0.4-0.1,0.7c-0.1,2.1-2.5,3.8-4.3,3.5c-0.8-0.1-0.9,0.9,0.2,1
				c1.8,0.2,4.2-1.5,4.3-3.5C289.4,37.2,289.3,36.6,289.1,36.1z"/>
		</g>
	</g>
	<g>
		<g>
			<defs>
				<rect id="SVGID_101_" x="276.9" y="49" width="34.9" height="78.4"/>
			</defs>
			<clipPath id="SVGID_102_">
				<use xlink:href="#SVGID_101_"  style="overflow:visible;"/>
			</clipPath>
			<path class="st100" d="M292,49.5c-0.8-0.6-2.1-0.6-3,0l-10.2,7.6c-5.1,19.7,3,51.9,0,60.5c10.3,3.4,18.9,11.1,32.7,9.7
				C313.2,109.4,306.3,60.7,292,49.5z"/>
		</g>
		<g>
			<defs>
				<rect id="SVGID_103_" x="276.9" y="49" width="34.9" height="78.4"/>
			</defs>
			<clipPath id="SVGID_104_">
				<use xlink:href="#SVGID_103_"  style="overflow:visible;"/>
			</clipPath>
			<path class="st101" d="M292.1,49.5c-0.6-0.5-1.6-0.6-2.4-0.3c13.4,12.5,20.1,59.7,18.9,78.2c1,0,2-0.1,3-0.2
				C313.3,109.4,306.5,60.6,292.1,49.5z"/>
		</g>
		<g>
			<defs>
				<rect id="SVGID_105_" x="276.9" y="49" width="34.9" height="78.4"/>
			</defs>
			<clipPath id="SVGID_106_">
				<use xlink:href="#SVGID_105_"  style="overflow:visible;"/>
			</clipPath>
			<path class="st102" d="M277.5,85.6c0.5,11-2.1,31.7,0.5,32.5c4.8,1,9.6,3.5,14.9,5.7C281,116,280.4,99,277.5,85.6z"/>
		</g>
	</g>
	<g>
		<g>
			<defs>
				<rect id="SVGID_107_" x="236.7" y="151.6" width="48.1" height="43.8"/>
			</defs>
			<clipPath id="SVGID_108_">
				<use xlink:href="#SVGID_107_"  style="overflow:visible;"/>
			</clipPath>
			<path class="st103" d="M267.7,165.1c-0.9,0.8-2.8,1-4,0.3l-3.2-1.9c-0.9-0.6-1.5-1.2-1.6-2.1l-0.8-6.7l11.5-1
				C270.8,158.8,270.2,162.6,267.7,165.1z M284.5,181.7c-2-7.1-10.6-28-10.6-28c-0.5-1.4-2.6-2.3-5-2.2l-11.1,0.8c0,0-7,4-8.8,8.5
				c-3.6,9.3-12.6,18-12.4,24.4c0.1,4.7,17.9,10.5,25.4,10.1C280.9,194.2,285.8,186.1,284.5,181.7z"/>
		</g>
		<g>
			<defs>
				<rect id="SVGID_109_" x="236.7" y="151.6" width="48.1" height="43.8"/>
			</defs>
			<clipPath id="SVGID_110_">
				<use xlink:href="#SVGID_109_"  style="overflow:visible;"/>
			</clipPath>
			<path class="st104" d="M262.2,195.2c14.2-0.8,20.5-5.7,22.1-9.8c-3.3,2.3-7.1,4.5-12,6.5l-6.2,0.3c-0.1,0.8-1.8,1.9-4,3H262.2z"
				/>
		</g>
		<g>
			<defs>
				<rect id="SVGID_111_" x="236.7" y="151.6" width="48.1" height="43.8"/>
			</defs>
			<clipPath id="SVGID_112_">
				<use xlink:href="#SVGID_111_"  style="overflow:visible;"/>
			</clipPath>
			<path class="st105" d="M245.7,185.5l-3.3-1.5c4-5,6.5-10.2,8.3-15.5l-5.9,5.3l-0.1-4.7c-3.9,6-8.1,11.5-7.9,15.9
				c0.1,3.1,8,6.7,15.4,8.7C248.8,190.9,246.2,188.2,245.7,185.5z"/>
		</g>
		<g>
			<defs>
				<rect id="SVGID_113_" x="236.7" y="151.6" width="48.1" height="43.8"/>
			</defs>
			<clipPath id="SVGID_114_">
				<use xlink:href="#SVGID_113_"  style="overflow:visible;"/>
			</clipPath>
			<path class="st106" d="M251.5,185.1l10.9,4.1l-0.1,1.3l-5.6,0.5C252.7,189.2,251.3,187.2,251.5,185.1z"/>
		</g>
		<g>
			<defs>
				<rect id="SVGID_115_" x="236.7" y="151.6" width="48.1" height="43.8"/>
			</defs>
			<clipPath id="SVGID_116_">
				<use xlink:href="#SVGID_115_"  style="overflow:visible;"/>
			</clipPath>
			<path class="st107" d="M259.7,179.4l15.4-0.7l-7.8,3.9C263.3,182.6,260.3,181.8,259.7,179.4z"/>
		</g>
		<g>
			<defs>
				<rect id="SVGID_117_" x="236.7" y="151.6" width="48.1" height="43.8"/>
			</defs>
			<clipPath id="SVGID_118_">
				<use xlink:href="#SVGID_117_"  style="overflow:visible;"/>
			</clipPath>
			<path class="st108" d="M254.8,159.5c0.8,4.2,3.8,7.7,3.1,11.7l-4.1-2.4L254.8,159.5z"/>
		</g>
		<g>
			<defs>
				<rect id="SVGID_119_" x="236.7" y="151.6" width="48.1" height="43.8"/>
			</defs>
			<clipPath id="SVGID_120_">
				<use xlink:href="#SVGID_119_"  style="overflow:visible;"/>
			</clipPath>
			<path class="st109" d="M268.9,163.6c-0.4,0.5-0.7,1-1.1,1.5c-0.9,0.8-2.8,1-4,0.3l-3.2-1.9c-0.9-0.6-1.5-1.2-1.6-2.1v-0.5
				C256.9,167.3,267.4,170.2,268.9,163.6z"/>
		</g>
		<g>
			<defs>
				<rect id="SVGID_121_" x="236.7" y="151.6" width="48.1" height="43.8"/>
			</defs>
			<clipPath id="SVGID_122_">
				<use xlink:href="#SVGID_121_"  style="overflow:visible;"/>
			</clipPath>
			<path class="st110" d="M271.2,153.4c1.4,1.8,2.4,5.7,3.3,10.7c-1.8,0.3-2.9,1.8-3.8,3.5c0.6-4-0.1-8.8-1.1-13.9L271.2,153.4z"/>
		</g>
	</g>
	<g>
		<g>
			<defs>
				<rect id="SVGID_123_" x="283.2" y="52.1" width="14.5" height="40"/>
			</defs>
			<clipPath id="SVGID_124_">
				<use xlink:href="#SVGID_123_"  style="overflow:visible;"/>
			</clipPath>
			<path class="st111" d="M295.7,71.8l-10.8,0.9c0,0,0,8.3,0.1,14.4c0.2,6.2,10.5,7.2,10.9,0.3C296,80.7,295.7,71.8,295.7,71.8z"/>
		</g>
		<g>
			<defs>
				<rect id="SVGID_125_" x="283.2" y="52.1" width="14.5" height="40"/>
			</defs>
			<clipPath id="SVGID_126_">
				<use xlink:href="#SVGID_125_"  style="overflow:visible;"/>
			</clipPath>
			<path class="st112" d="M286.3,72.5l-1.6,0.2c0,0,0,8.2,0.1,14.3c0,2.2,0.5,2.7,1.3,3.1C286.1,85.7,286.2,75.8,286.3,72.5z"/>
		</g>
		<g>
			<defs>
				<rect id="SVGID_127_" x="283.2" y="52.1" width="14.5" height="40"/>
			</defs>
			<clipPath id="SVGID_128_">
				<use xlink:href="#SVGID_127_"  style="overflow:visible;"/>
			</clipPath>
			<path class="st113" d="M295.7,71.8h-1c0,1.9,0.7,10.5-0.3,16.6c-0.3,1.9-1.1,2.3-4,3.8c3,0.4,5.4-2.5,5.5-3.1
				C296,82.3,295.7,71.8,295.7,71.8z"/>
		</g>
		<g>
			<defs>
				<rect id="SVGID_129_" x="283.2" y="52.1" width="14.5" height="40"/>
			</defs>
			<clipPath id="SVGID_130_">
				<use xlink:href="#SVGID_129_"  style="overflow:visible;"/>
			</clipPath>
			<path class="st114" d="M297.3,65.5c0.1,7.6,0.3,9.1,0.3,9.1c-4.5,0.7-9.3,0.2-14.3-1c0,0-0.1-2.2-0.2-7
				c-0.1-7.7,3.2-14.5,7.3-14.5C294.5,52,297.2,57.9,297.3,65.5z"/>
		</g>
		<g>
			<defs>
				<rect id="SVGID_131_" x="283.2" y="52.1" width="14.5" height="40"/>
			</defs>
			<clipPath id="SVGID_132_">
				<use xlink:href="#SVGID_131_"  style="overflow:visible;"/>
			</clipPath>
			<path class="st115" d="M295.5,65.9c0,5.1,0.2,7.7,0.3,9c0.6-0.1,1.2-0.2,1.8-0.2c0,0-0.2-1.5-0.3-9.1c-0.2-7.2-2.6-12.9-6.2-13.4
				C293.8,54.2,295.4,59.5,295.5,65.9z"/>
		</g>
		<g>
			<defs>
				<rect id="SVGID_133_" x="283.2" y="52.1" width="14.5" height="40"/>
			</defs>
			<clipPath id="SVGID_134_">
				<use xlink:href="#SVGID_133_"  style="overflow:visible;"/>
			</clipPath>
			<path class="st116" d="M285.9,70.8c-0.1-4-0.8-7.5-2.1-9.9c-0.4,1.8-0.6,3.5-0.6,5.6c0.1,4.8,0.2,7,0.2,7
				c0.8,0.2,1.7,0.4,2.5,0.6C285.9,73.2,285.9,72,285.9,70.8z"/>
		</g>
	</g>
	<g>
		<g>
			<defs>
				
					<rect id="SVGID_135_" x="254.7" y="80" transform="matrix(0.9877 -0.1564 0.1564 0.9877 -10.411 44.1034)" width="40.7" height="16.4"/>
			</defs>
			<clipPath id="SVGID_136_">
				<use xlink:href="#SVGID_135_"  style="overflow:visible;"/>
			</clipPath>
			<path class="st117" d="M290.8,82.8c-1.9,0.3-3.5,0.7-4.6,0.8c-4,0.9-12,3.5-16.1,3.8c-3,0.2-5.3,0-8-1c-0.3-0.2-3.4-4.1-3.7-3.8
				c-0.6,0.5-0.6,0.9-0.4,1.9l1.8,3.1c0,0-3.4,0.5-4.1,0.7l1.7,8.9c0.4,0.1,8.1-1.3,8.1-1.3s3.7-1.5,5-1.7
				c4.1-0.8,11.9,0.6,16.3,0.3c0.9,0,2.3-0.3,3.8-0.5C298.2,93.4,296.3,82.2,290.8,82.8z"/>
		</g>
		<g>
			<defs>
				
					<rect id="SVGID_137_" x="254.7" y="80" transform="matrix(0.9877 -0.1564 0.1564 0.9877 -10.411 44.1034)" width="40.7" height="16.4"/>
			</defs>
			<clipPath id="SVGID_138_">
				<use xlink:href="#SVGID_137_"  style="overflow:visible;"/>
			</clipPath>
			<path class="st118" d="M290.9,82.7c-1.9,0.3-3.6,0.7-4.6,0.8c-4.1,1-11.7,3.9-17.1,4c2.7,1.6,12.6-1.8,24.3-3.9
				C293.2,82.8,291.6,82.6,290.9,82.7z"/>
		</g>
		<g>
			<defs>
				
					<rect id="SVGID_139_" x="254.7" y="80" transform="matrix(0.9877 -0.1564 0.1564 0.9877 -10.411 44.1034)" width="40.7" height="16.4"/>
			</defs>
			<clipPath id="SVGID_140_">
				<use xlink:href="#SVGID_139_"  style="overflow:visible;"/>
			</clipPath>
			<path class="st119" d="M290.7,93.9c1.5,0.1,3.7-1.2,3.6-1.6c-1.6,0.3-6.8,1-7.7,1.1c-4.6,0.2-12.6-1.1-16.7-0.4
				c-1.4,0.2-5.2,1.9-5.2,1.9s-4.8,1.1-7.2,1.4l0.2,0.9c0.4,0.1,7.7-1.3,7.7-1.3s3.7-1.5,5-1.7c4.1-0.9,11.9,0.5,16.3,0.3
				C287.7,94.3,289,94.1,290.7,93.9z"/>
		</g>
		<g>
			<defs>
				
					<rect id="SVGID_141_" x="254.7" y="80" transform="matrix(0.9877 -0.1564 0.1564 0.9877 -10.411 44.1034)" width="40.7" height="16.4"/>
			</defs>
			<clipPath id="SVGID_142_">
				<use xlink:href="#SVGID_141_"  style="overflow:visible;"/>
			</clipPath>
			<path class="st120" d="M257.3,90.2c0.3-2.2,4.7-2.8,7.5-3c-0.9-0.2-1.5-0.7-2.4-1.1c-0.8-0.3-2.6-4.5-4-3.4l3.3,4.5
				c0,0-5.3,0.8-6.1,1c-1.4,0.3-1.1,1.7-0.2,2.1c-1.1,1-0.1,2,0.9,2.1c-1.6,1.1-0.4,2.8,0.8,2.6c-0.5,0.1-0.9,0.6-0.9,1.2
				s0.6,1.1,1.1,1.1c0.1,0.1,0.7,0,1.6-0.1C258.1,95.4,257,92.5,257.3,90.2z"/>
		</g>
	</g>
</g>
<g>
	
		<use xlink:href="#ageuk"  width="391" height="137.9" x="-195.5" y="-68.9" transform="matrix(0.2838 0 0 -0.2838 63.9791 157.5411)" style="overflow:visible;"/>
	<g>
		<path class="st0" d="M36.7,180.5H39l-3.6,10.6h-2.1l-3.6-10.6H32l2.3,8.1L36.7,180.5z"/>
		<path class="st0" d="M42,182.4h-2.1v-1.9H42V182.4z M39.9,183.3H42v7.9h-2.1V183.3z"/>
		<path class="st0" d="M43.2,184.8v-1.5h1.1v-2.2h2v2.2h1.3v1.5h-1.3v4.2c0,0.3,0,0.5,0.1,0.6c0.1,0.1,0.3,0.1,0.7,0.1
			c0.1,0,0.1,0,0.2,0c0.1,0,0.1,0,0.2,0v1.5l-1,0c-1,0-1.6-0.1-2-0.5c-0.2-0.2-0.3-0.6-0.3-1.1v-4.8H43.2z"/>
		<path class="st0" d="M52,186.4c0.4,0,0.7-0.1,0.8-0.2c0.3-0.1,0.4-0.3,0.4-0.6c0-0.3-0.1-0.5-0.3-0.7c-0.2-0.1-0.6-0.2-1-0.2
			c-0.5,0-0.8,0.1-1,0.4c-0.1,0.2-0.2,0.4-0.3,0.7h-2c0-0.7,0.2-1.3,0.6-1.7c0.5-0.7,1.5-1,2.8-1c0.9,0,1.6,0.2,2.3,0.5
			c0.7,0.3,1,1,1,1.9v3.6c0,0.2,0,0.6,0,0.9c0,0.3,0.1,0.5,0.1,0.5s0.2,0.2,0.3,0.2v0.3h-2.2c-0.1-0.2-0.1-0.3-0.1-0.4
			c0-0.1,0-0.3-0.1-0.5c-0.3,0.3-0.6,0.6-1,0.8c-0.4,0.3-0.9,0.4-1.5,0.4c-0.7,0-1.3-0.2-1.8-0.6c-0.5-0.4-0.7-1-0.7-1.7
			c0-1,0.4-1.7,1.1-2.1c0.4-0.2,1-0.4,1.8-0.5L52,186.4z M53.3,187.3c-0.1,0.1-0.3,0.1-0.4,0.2c-0.1,0.1-0.3,0.1-0.6,0.1l-0.5,0.1
			c-0.4,0.1-0.8,0.2-0.9,0.3c-0.3,0.2-0.5,0.5-0.5,0.9c0,0.4,0.1,0.6,0.3,0.8c0.2,0.2,0.4,0.2,0.7,0.2c0.4,0,0.9-0.1,1.2-0.4
			c0.4-0.3,0.6-0.7,0.6-1.4V187.3z"/>
		<path class="st0" d="M59.2,191.2h-2.1v-10.6h2.1V191.2z"/>
		<path class="st0" d="M62.8,188.6c0,0.4,0.1,0.6,0.3,0.8c0.3,0.3,0.7,0.4,1.4,0.4c0.4,0,0.7-0.1,1-0.2c0.2-0.1,0.4-0.3,0.4-0.5
			c0-0.2-0.1-0.4-0.3-0.5c-0.2-0.1-0.9-0.3-2.1-0.6c-0.9-0.2-1.5-0.5-1.9-0.8c-0.4-0.3-0.5-0.8-0.5-1.4c0-0.7,0.3-1.3,0.9-1.9
			c0.6-0.5,1.4-0.8,2.4-0.8c1,0,1.8,0.2,2.4,0.6c0.6,0.4,1,1.1,1.1,2h-2.1c0-0.3-0.1-0.5-0.2-0.6c-0.2-0.3-0.6-0.4-1.2-0.4
			c-0.4,0-0.8,0.1-1,0.2c-0.2,0.1-0.3,0.3-0.3,0.5c0,0.2,0.1,0.4,0.3,0.5c0.2,0.1,0.9,0.3,2.1,0.6c0.8,0.2,1.4,0.5,1.8,0.9
			c0.4,0.4,0.6,0.9,0.6,1.5c0,0.8-0.3,1.4-0.9,1.9c-0.6,0.5-1.5,0.7-2.7,0.7c-1.2,0-2.2-0.3-2.7-0.8c-0.6-0.5-0.9-1.2-0.9-2H62.8z"
			/>
		<path class="st0" d="M76.8,180.4c0.1,0,0.2,0,0.4,0v1.7c-0.1,0-0.3,0-0.6,0c-0.3,0-0.5,0.1-0.6,0.2s-0.2,0.3-0.2,0.4s0,0.4,0,0.7
			h1.3v1.4h-1.3v6.3h-2v-6.3h-1.2v-1.4h1.1v-0.5c0-0.8,0.1-1.4,0.4-1.7c0.3-0.5,1-0.7,2.2-0.7C76.5,180.4,76.6,180.4,76.8,180.4z"/>
		<path class="st0" d="M85,190.2c-0.7,0.8-1.7,1.2-3,1.2s-2.4-0.4-3-1.2c-0.7-0.8-1-1.8-1-3c0-1.1,0.3-2.1,1-2.9s1.7-1.2,3-1.2
			s2.4,0.4,3,1.2c0.7,0.8,1,1.8,1,2.9C86,188.4,85.6,189.4,85,190.2z M83.3,189.1c0.3-0.4,0.5-1,0.5-1.8c0-0.8-0.2-1.4-0.5-1.8
			c-0.3-0.4-0.8-0.6-1.4-0.6s-1.1,0.2-1.4,0.6c-0.3,0.4-0.5,1-0.5,1.8c0,0.8,0.2,1.4,0.5,1.8c0.3,0.4,0.8,0.6,1.4,0.6
			S83,189.5,83.3,189.1z"/>
		<path class="st0" d="M91.8,183.1c0,0,0.1,0,0.2,0v2.1c-0.1,0-0.2,0-0.3,0c-0.1,0-0.2,0-0.2,0c-0.8,0-1.4,0.3-1.7,0.8
			c-0.2,0.3-0.2,0.8-0.2,1.4v3.8h-2.1v-7.9h2v1.4c0.3-0.5,0.6-0.9,0.8-1.1C90.6,183.3,91.1,183.1,91.8,183.1
			C91.7,183.1,91.8,183.1,91.8,183.1z"/>
		<path class="st0" d="M103.7,180.5h2.3l-3.6,10.6h-2.1l-3.6-10.6H99l2.3,8.1L103.7,180.5z"/>
		<path class="st0" d="M111.4,183.5c0.5,0.2,1,0.6,1.4,1.2c0.3,0.5,0.5,1,0.6,1.6c0.1,0.4,0.1,0.9,0.1,1.6h-5.7
			c0,0.8,0.3,1.3,0.8,1.7c0.3,0.2,0.7,0.3,1.1,0.3c0.5,0,0.8-0.1,1.1-0.4c0.2-0.1,0.3-0.3,0.4-0.5h2.1c-0.1,0.5-0.3,0.9-0.8,1.4
			c-0.7,0.8-1.7,1.1-3,1.1c-1,0-2-0.3-2.8-1c-0.8-0.6-1.2-1.7-1.2-3.1c0-1.4,0.4-2.4,1.1-3.1c0.7-0.7,1.7-1.1,2.8-1.1
			C110.3,183.1,110.9,183.2,111.4,183.5z M108.4,185.2c-0.3,0.3-0.5,0.7-0.5,1.2h3.5c0-0.5-0.2-1-0.5-1.2c-0.3-0.3-0.7-0.4-1.2-0.4
			C109.1,184.8,108.6,184.9,108.4,185.2z"/>
		<path class="st0" d="M113.7,184.8v-1.5h1.1v-2.2h2v2.2h1.3v1.5h-1.3v4.2c0,0.3,0,0.5,0.1,0.6c0.1,0.1,0.3,0.1,0.7,0.1
			c0.1,0,0.1,0,0.2,0c0.1,0,0.1,0,0.2,0v1.5l-1,0c-1,0-1.6-0.1-2-0.5c-0.2-0.2-0.3-0.6-0.3-1.1v-4.8H113.7z"/>
		<path class="st0" d="M124.6,183.5c0.5,0.2,1,0.6,1.4,1.2c0.3,0.5,0.5,1,0.6,1.6c0.1,0.4,0.1,0.9,0.1,1.6h-5.7
			c0,0.8,0.3,1.3,0.8,1.7c0.3,0.2,0.7,0.3,1.1,0.3c0.5,0,0.8-0.1,1.1-0.4c0.2-0.1,0.3-0.3,0.4-0.5h2.1c-0.1,0.5-0.3,0.9-0.8,1.4
			c-0.7,0.8-1.7,1.1-3,1.1c-1,0-2-0.3-2.8-1c-0.8-0.6-1.2-1.7-1.2-3.1c0-1.4,0.4-2.4,1.1-3.1c0.7-0.7,1.7-1.1,2.8-1.1
			C123.4,183.1,124,183.2,124.6,183.5z M121.5,185.2c-0.3,0.3-0.5,0.7-0.5,1.2h3.5c0-0.5-0.2-1-0.5-1.2c-0.3-0.3-0.7-0.4-1.2-0.4
			C122.2,184.8,121.8,184.9,121.5,185.2z"/>
		<path class="st0" d="M132,183.1c0,0,0.1,0,0.2,0v2.1c-0.1,0-0.2,0-0.3,0c-0.1,0-0.2,0-0.2,0c-0.8,0-1.4,0.3-1.7,0.8
			c-0.2,0.3-0.2,0.8-0.2,1.4v3.8h-2.1v-7.9h2v1.4c0.3-0.5,0.6-0.9,0.8-1.1C130.8,183.3,131.3,183.1,132,183.1
			C131.9,183.1,132,183.1,132,183.1z"/>
		<path class="st0" d="M136.5,186.4c0.4,0,0.7-0.1,0.8-0.2c0.3-0.1,0.4-0.3,0.4-0.6c0-0.3-0.1-0.5-0.3-0.7c-0.2-0.1-0.6-0.2-1-0.2
			c-0.5,0-0.8,0.1-1,0.4c-0.1,0.2-0.2,0.4-0.3,0.7h-2c0-0.7,0.2-1.3,0.6-1.7c0.5-0.7,1.5-1,2.8-1c0.9,0,1.6,0.2,2.3,0.5
			c0.7,0.3,1,1,1,1.9v3.6c0,0.2,0,0.6,0,0.9c0,0.3,0.1,0.5,0.1,0.5s0.2,0.2,0.3,0.2v0.3H138c-0.1-0.2-0.1-0.3-0.1-0.4
			c0-0.1,0-0.3-0.1-0.5c-0.3,0.3-0.6,0.6-1,0.8c-0.4,0.3-0.9,0.4-1.5,0.4c-0.7,0-1.3-0.2-1.8-0.6c-0.5-0.4-0.7-1-0.7-1.7
			c0-1,0.4-1.7,1.1-2.1c0.4-0.2,1-0.4,1.8-0.5L136.5,186.4z M137.8,187.3c-0.1,0.1-0.3,0.1-0.4,0.2s-0.3,0.1-0.6,0.1l-0.5,0.1
			c-0.4,0.1-0.8,0.2-0.9,0.3c-0.3,0.2-0.5,0.5-0.5,0.9c0,0.4,0.1,0.6,0.3,0.8s0.4,0.2,0.7,0.2c0.4,0,0.9-0.1,1.2-0.4
			c0.4-0.3,0.6-0.7,0.6-1.4V187.3z"/>
		<path class="st0" d="M147.9,183.7c0.5,0.4,0.8,1.1,0.8,2.1v5.3h-2.1v-4.8c0-0.4-0.1-0.7-0.2-1c-0.2-0.4-0.6-0.6-1.1-0.6
			c-0.7,0-1.2,0.3-1.4,0.9c-0.1,0.3-0.2,0.7-0.2,1.2v4.3h-2.1v-7.8h2v1.1c0.3-0.4,0.5-0.7,0.7-0.9c0.4-0.3,1-0.5,1.6-0.5
			C146.8,183.1,147.4,183.3,147.9,183.7z"/>
		<path class="st0" d="M152.2,188.6c0,0.4,0.1,0.6,0.3,0.8c0.3,0.3,0.7,0.4,1.4,0.4c0.4,0,0.7-0.1,1-0.2c0.2-0.1,0.4-0.3,0.4-0.5
			c0-0.2-0.1-0.4-0.3-0.5c-0.2-0.1-0.9-0.3-2.1-0.6c-0.9-0.2-1.5-0.5-1.9-0.8c-0.4-0.3-0.5-0.8-0.5-1.4c0-0.7,0.3-1.3,0.9-1.9
			c0.6-0.5,1.4-0.8,2.4-0.8c1,0,1.8,0.2,2.4,0.6c0.6,0.4,1,1.1,1.1,2H155c0-0.3-0.1-0.5-0.2-0.6c-0.2-0.3-0.6-0.4-1.2-0.4
			c-0.4,0-0.8,0.1-1,0.2c-0.2,0.1-0.3,0.3-0.3,0.5c0,0.2,0.1,0.4,0.3,0.5c0.2,0.1,0.9,0.3,2.1,0.6c0.8,0.2,1.4,0.5,1.8,0.9
			c0.4,0.4,0.6,0.9,0.6,1.5c0,0.8-0.3,1.4-0.9,1.9c-0.6,0.5-1.5,0.7-2.7,0.7c-1.2,0-2.2-0.3-2.7-0.8c-0.6-0.5-0.9-1.2-0.9-2H152.2z"
			/>
	</g>
	<g>
		<path class="st0" d="M162.8,127.4c0-13.7-10.6-24.8-23.6-24.8s-23.6,11.1-23.6,24.8c0,0.1,0,0.1,0,0.1l0,0L125,153l0.8-0.3
			l-9.1-25.1c4-3.6,8.5-4,13.7-1.4l4.5,25.9l0.8-0.1l-4.5-25.8c5.4-3.7,10.5-3.7,15.5,0l-3.9,25.6l0.8,0.1l3.9-25.6
			c6-2.7,10.6-2.2,14.3,1.4l-9.1,23.7l0.8,0.3l9.2-24l0,0C162.8,127.5,162.8,127.5,162.8,127.4z"/>
		<g>
			<rect x="143.3" y="145.5" class="st1" width="2" height="2.3"/>
			<rect x="143.5" y="145.7" class="st2" width="1.4" height="1.7"/>
			<polygon class="st1" points="145.5,146 141.4,146 142.5,144.9 145.5,144.9 			"/>
			<polygon class="st2" points="142,145.7 145.3,145.7 145.3,145.2 142.6,145.2 			"/>
			<rect x="142.7" y="146.9" class="st1" width="2.8" height="2.6"/>
			<rect x="143" y="147.2" class="st2" width="2.3" height="2"/>
			<path class="st1" d="M147.2,156.7l-7.5-0.1l0.1-3.2c-0.1-2.4,0.6-4.2,2-5.2l0.1-0.1l0.1,0c1.1,0.6,2.5,0.8,4.2,0.6l0.1,0l0,0.1
				c0.7,1.2,1,2.6,0.9,4.6L147.2,156.7z"/>
			<path class="st2" d="M140,156.2l6.9,0.1l0-3.1c0.1-1.9-0.1-3.3-0.8-4.4c-1.6,0.2-3,0-4.2-0.6c-1.3,1-2,2.7-1.9,4.9L140,156.2z"/>
			<path class="st3" d="M146.2,148.9c-1.6,0.2-3,0-4.2-0.6c-0.2,0.1-0.4,0.3-0.5,0.5c1.1,1,2.8,1.2,5,0.8
				C146.4,149.4,146.3,149.1,146.2,148.9z"/>
		</g>
		<path class="st4" d="M131.2,147.6l1.4,6l-9.6,0.6l-1.1-4C125.4,150,128.6,149.1,131.2,147.6z"/>
		<path class="st5" d="M137.7,146.2h-2.6c0.2,0.4-0.8,1-2.1,1.7c-0.3,0.2-0.5,0.5-0.5,0.8v6.1h7.1v-6.1c0-0.3-0.2-0.7-0.5-0.8
			C138.3,147.3,137.6,146.7,137.7,146.2L137.7,146.2z"/>
		<path class="st3" d="M137.4,146.5c0.1,0.6,0.9,1.2,1.7,1.7c0.2,0.1,0.3,0.3,0.3,0.6v5.9h-6.5v-5.9c0-0.2,0.1-0.4,0.3-0.5
			c1.5-0.8,2.1-1.3,2.2-1.7c0,0,0,0,0,0H137.4"/>
		<path class="st6" d="M134.6,153.3"/>
		<rect x="135.2" y="144.7" class="st7" width="2.6" height="1.7"/>
		<path class="st8" d="M155.4,154.5c-1.6,2.9-4.4,4.4-6.4,3.3c-2-1.1-3.9-1.7-3-4.9c1.1-4.3,6.7-6.7,8.7-5.7
			C156.6,148.4,157,151.6,155.4,154.5z"/>
		<path class="st9" d="M152.2,150.4c0.4,0.1,0.6,0,0.6,0s-1.3-1.3-2.3-2.6c-0.2,0.1-0.4,0.2-0.6,0.3
			C150.5,149.3,151.6,150.2,152.2,150.4z"/>
		<path class="st9" d="M147.9,149.8c0.4,1.4,2.2,2.8,2.9,2.9c0.4,0.1,0.3-0.3,0.3-0.3s-1.7-1.8-2.6-3.2
			C148.3,149.4,148.1,149.6,147.9,149.8z"/>
		<path class="st9" d="M146.8,151.1c-0.2,0.3-0.4,0.7-0.5,1c0.6,1.2,1.8,2.2,2.4,2.4c0.4,0.1,0.3-0.3,0.3-0.3
			S147.6,152.6,146.8,151.1z"/>
		<path class="st3" d="M147.3,125.4c-5.3-3.9-10.9-3.9-16.5,0c-5.3-2.7-10.1-2.3-14.1,1.1c0.5-12.8,10.5-23,22.7-23
			c12.2,0,22.2,10.2,22.7,23C158.1,123,153.3,122.7,147.3,125.4z"/>
		<path class="st10" d="M121.8,150.1c0.9,0.9,8.8-1.1,9.4-2.6C129.2,146.7,123,148.7,121.8,150.1z M124.6,149.4c0.5-0.6,3-1.4,3.8-1
			C128.2,148.9,124.9,149.7,124.6,149.4z"/>
		<g>
			<rect x="121.8" y="153.3" class="st3" width="34.6" height="27.2"/>
			<polygon class="st11" points="134.6,161.5 121.8,153.3 134.6,153.3 			"/>
			<polygon class="st11" points="121.8,159.4 126.4,162.3 121.8,162.3 			"/>
			<polygon class="st12" points="128.1,162.3 121.8,158.4 121.8,156.7 131.2,162.3 			"/>
			<polygon class="st11" points="143.7,161.5 156.5,153.3 143.7,153.3 			"/>
			<polygon class="st11" points="156.5,159.4 151.9,162.3 156.5,162.3 			"/>
			<polygon class="st12" points="147.1,162.3 156.5,156.4 156.5,154.4 144,162.3 			"/>
			<polygon class="st11" points="143.7,172.3 156.5,180.5 143.7,180.5 			"/>
			<polygon class="st11" points="156.5,174.4 151.9,171.4 156.5,171.4 			"/>
			<polygon class="st12" points="150.2,171.4 156.5,175.4 156.5,177.1 147.1,171.4 			"/>
			<polygon class="st11" points="134.6,172.3 121.8,180.5 134.6,180.5 			"/>
			<polygon class="st11" points="121.8,174.4 126.4,171.4 121.8,171.4 			"/>
			<polygon class="st12" points="131.2,171.4 121.8,177.4 121.8,179.4 134.3,171.4 			"/>
			<polygon class="st12" points="156.5,164 142,164 142,153.3 136.3,153.3 136.3,164 121.8,164 121.8,169.7 136.3,169.7 
				136.3,180.5 142,180.5 142,169.7 156.5,169.7 			"/>
		</g>
		
			<use xlink:href="#ageuk"  width="391" height="137.9" x="-195.5" y="-68.9" transform="matrix(8.315022e-02 0 0 -8.315022e-02 139.3381 115.2152)" style="overflow:visible;"/>
	</g>
</g>
<g>
	
		<use xlink:href="#ageuk"  width="391" height="137.9" x="-195.5" y="-68.9" transform="matrix(0.2838 0 0 -0.2838 63.9791 157.5411)" style="overflow:visible;"/>
	<g>
		<path class="st0" d="M36.7,180.5H39l-3.6,10.6h-2.1l-3.6-10.6H32l2.3,8.1L36.7,180.5z"/>
		<path class="st0" d="M42,182.4h-2.1v-1.9H42V182.4z M39.9,183.3H42v7.9h-2.1V183.3z"/>
		<path class="st0" d="M43.2,184.8v-1.5h1.1v-2.2h2v2.2h1.3v1.5h-1.3v4.2c0,0.3,0,0.5,0.1,0.6c0.1,0.1,0.3,0.1,0.7,0.1
			c0.1,0,0.1,0,0.2,0c0.1,0,0.1,0,0.2,0v1.5l-1,0c-1,0-1.6-0.1-2-0.5c-0.2-0.2-0.3-0.6-0.3-1.1v-4.8H43.2z"/>
		<path class="st0" d="M52,186.4c0.4,0,0.7-0.1,0.8-0.2c0.3-0.1,0.4-0.3,0.4-0.6c0-0.3-0.1-0.5-0.3-0.7c-0.2-0.1-0.6-0.2-1-0.2
			c-0.5,0-0.8,0.1-1,0.4c-0.1,0.2-0.2,0.4-0.3,0.7h-2c0-0.7,0.2-1.3,0.6-1.7c0.5-0.7,1.5-1,2.8-1c0.9,0,1.6,0.2,2.3,0.5
			c0.7,0.3,1,1,1,1.9v3.6c0,0.2,0,0.6,0,0.9c0,0.3,0.1,0.5,0.1,0.5s0.2,0.2,0.3,0.2v0.3h-2.2c-0.1-0.2-0.1-0.3-0.1-0.4
			c0-0.1,0-0.3-0.1-0.5c-0.3,0.3-0.6,0.6-1,0.8c-0.4,0.3-0.9,0.4-1.5,0.4c-0.7,0-1.3-0.2-1.8-0.6c-0.5-0.4-0.7-1-0.7-1.7
			c0-1,0.4-1.7,1.1-2.1c0.4-0.2,1-0.4,1.8-0.5L52,186.4z M53.3,187.3c-0.1,0.1-0.3,0.1-0.4,0.2c-0.1,0.1-0.3,0.1-0.6,0.1l-0.5,0.1
			c-0.4,0.1-0.8,0.2-0.9,0.3c-0.3,0.2-0.5,0.5-0.5,0.9c0,0.4,0.1,0.6,0.3,0.8c0.2,0.2,0.4,0.2,0.7,0.2c0.4,0,0.9-0.1,1.2-0.4
			c0.4-0.3,0.6-0.7,0.6-1.4V187.3z"/>
		<path class="st0" d="M59.2,191.2h-2.1v-10.6h2.1V191.2z"/>
		<path class="st0" d="M62.8,188.6c0,0.4,0.1,0.6,0.3,0.8c0.3,0.3,0.7,0.4,1.4,0.4c0.4,0,0.7-0.1,1-0.2c0.2-0.1,0.4-0.3,0.4-0.5
			c0-0.2-0.1-0.4-0.3-0.5c-0.2-0.1-0.9-0.3-2.1-0.6c-0.9-0.2-1.5-0.5-1.9-0.8c-0.4-0.3-0.5-0.8-0.5-1.4c0-0.7,0.3-1.3,0.9-1.9
			c0.6-0.5,1.4-0.8,2.4-0.8c1,0,1.8,0.2,2.4,0.6c0.6,0.4,1,1.1,1.1,2h-2.1c0-0.3-0.1-0.5-0.2-0.6c-0.2-0.3-0.6-0.4-1.2-0.4
			c-0.4,0-0.8,0.1-1,0.2c-0.2,0.1-0.3,0.3-0.3,0.5c0,0.2,0.1,0.4,0.3,0.5c0.2,0.1,0.9,0.3,2.1,0.6c0.8,0.2,1.4,0.5,1.8,0.9
			c0.4,0.4,0.6,0.9,0.6,1.5c0,0.8-0.3,1.4-0.9,1.9c-0.6,0.5-1.5,0.7-2.7,0.7c-1.2,0-2.2-0.3-2.7-0.8c-0.6-0.5-0.9-1.2-0.9-2H62.8z"
			/>
		<path class="st0" d="M76.8,180.4c0.1,0,0.2,0,0.4,0v1.7c-0.1,0-0.3,0-0.6,0c-0.3,0-0.5,0.1-0.6,0.2s-0.2,0.3-0.2,0.4s0,0.4,0,0.7
			h1.3v1.4h-1.3v6.3h-2v-6.3h-1.2v-1.4h1.1v-0.5c0-0.8,0.1-1.4,0.4-1.7c0.3-0.5,1-0.7,2.2-0.7C76.5,180.4,76.6,180.4,76.8,180.4z"/>
		<path class="st0" d="M85,190.2c-0.7,0.8-1.7,1.2-3,1.2s-2.4-0.4-3-1.2c-0.7-0.8-1-1.8-1-3c0-1.1,0.3-2.1,1-2.9s1.7-1.2,3-1.2
			s2.4,0.4,3,1.2c0.7,0.8,1,1.8,1,2.9C86,188.4,85.6,189.4,85,190.2z M83.3,189.1c0.3-0.4,0.5-1,0.5-1.8c0-0.8-0.2-1.4-0.5-1.8
			c-0.3-0.4-0.8-0.6-1.4-0.6s-1.1,0.2-1.4,0.6c-0.3,0.4-0.5,1-0.5,1.8c0,0.8,0.2,1.4,0.5,1.8c0.3,0.4,0.8,0.6,1.4,0.6
			S83,189.5,83.3,189.1z"/>
		<path class="st0" d="M91.8,183.1c0,0,0.1,0,0.2,0v2.1c-0.1,0-0.2,0-0.3,0c-0.1,0-0.2,0-0.2,0c-0.8,0-1.4,0.3-1.7,0.8
			c-0.2,0.3-0.2,0.8-0.2,1.4v3.8h-2.1v-7.9h2v1.4c0.3-0.5,0.6-0.9,0.8-1.1C90.6,183.3,91.1,183.1,91.8,183.1
			C91.7,183.1,91.8,183.1,91.8,183.1z"/>
		<path class="st0" d="M103.7,180.5h2.3l-3.6,10.6h-2.1l-3.6-10.6H99l2.3,8.1L103.7,180.5z"/>
		<path class="st0" d="M111.4,183.5c0.5,0.2,1,0.6,1.4,1.2c0.3,0.5,0.5,1,0.6,1.6c0.1,0.4,0.1,0.9,0.1,1.6h-5.7
			c0,0.8,0.3,1.3,0.8,1.7c0.3,0.2,0.7,0.3,1.1,0.3c0.5,0,0.8-0.1,1.1-0.4c0.2-0.1,0.3-0.3,0.4-0.5h2.1c-0.1,0.5-0.3,0.9-0.8,1.4
			c-0.7,0.8-1.7,1.1-3,1.1c-1,0-2-0.3-2.8-1c-0.8-0.6-1.2-1.7-1.2-3.1c0-1.4,0.4-2.4,1.1-3.1c0.7-0.7,1.7-1.1,2.8-1.1
			C110.3,183.1,110.9,183.2,111.4,183.5z M108.4,185.2c-0.3,0.3-0.5,0.7-0.5,1.2h3.5c0-0.5-0.2-1-0.5-1.2c-0.3-0.3-0.7-0.4-1.2-0.4
			C109.1,184.8,108.6,184.9,108.4,185.2z"/>
		<path class="st0" d="M113.7,184.8v-1.5h1.1v-2.2h2v2.2h1.3v1.5h-1.3v4.2c0,0.3,0,0.5,0.1,0.6c0.1,0.1,0.3,0.1,0.7,0.1
			c0.1,0,0.1,0,0.2,0c0.1,0,0.1,0,0.2,0v1.5l-1,0c-1,0-1.6-0.1-2-0.5c-0.2-0.2-0.3-0.6-0.3-1.1v-4.8H113.7z"/>
		<path class="st0" d="M124.6,183.5c0.5,0.2,1,0.6,1.4,1.2c0.3,0.5,0.5,1,0.6,1.6c0.1,0.4,0.1,0.9,0.1,1.6h-5.7
			c0,0.8,0.3,1.3,0.8,1.7c0.3,0.2,0.7,0.3,1.1,0.3c0.5,0,0.8-0.1,1.1-0.4c0.2-0.1,0.3-0.3,0.4-0.5h2.1c-0.1,0.5-0.3,0.9-0.8,1.4
			c-0.7,0.8-1.7,1.1-3,1.1c-1,0-2-0.3-2.8-1c-0.8-0.6-1.2-1.7-1.2-3.1c0-1.4,0.4-2.4,1.1-3.1c0.7-0.7,1.7-1.1,2.8-1.1
			C123.4,183.1,124,183.2,124.6,183.5z M121.5,185.2c-0.3,0.3-0.5,0.7-0.5,1.2h3.5c0-0.5-0.2-1-0.5-1.2c-0.3-0.3-0.7-0.4-1.2-0.4
			C122.2,184.8,121.8,184.9,121.5,185.2z"/>
		<path class="st0" d="M132,183.1c0,0,0.1,0,0.2,0v2.1c-0.1,0-0.2,0-0.3,0c-0.1,0-0.2,0-0.2,0c-0.8,0-1.4,0.3-1.7,0.8
			c-0.2,0.3-0.2,0.8-0.2,1.4v3.8h-2.1v-7.9h2v1.4c0.3-0.5,0.6-0.9,0.8-1.1C130.8,183.3,131.3,183.1,132,183.1
			C131.9,183.1,132,183.1,132,183.1z"/>
		<path class="st0" d="M136.5,186.4c0.4,0,0.7-0.1,0.8-0.2c0.3-0.1,0.4-0.3,0.4-0.6c0-0.3-0.1-0.5-0.3-0.7c-0.2-0.1-0.6-0.2-1-0.2
			c-0.5,0-0.8,0.1-1,0.4c-0.1,0.2-0.2,0.4-0.3,0.7h-2c0-0.7,0.2-1.3,0.6-1.7c0.5-0.7,1.5-1,2.8-1c0.9,0,1.6,0.2,2.3,0.5
			c0.7,0.3,1,1,1,1.9v3.6c0,0.2,0,0.6,0,0.9c0,0.3,0.1,0.5,0.1,0.5s0.2,0.2,0.3,0.2v0.3H138c-0.1-0.2-0.1-0.3-0.1-0.4
			c0-0.1,0-0.3-0.1-0.5c-0.3,0.3-0.6,0.6-1,0.8c-0.4,0.3-0.9,0.4-1.5,0.4c-0.7,0-1.3-0.2-1.8-0.6c-0.5-0.4-0.7-1-0.7-1.7
			c0-1,0.4-1.7,1.1-2.1c0.4-0.2,1-0.4,1.8-0.5L136.5,186.4z M137.8,187.3c-0.1,0.1-0.3,0.1-0.4,0.2s-0.3,0.1-0.6,0.1l-0.5,0.1
			c-0.4,0.1-0.8,0.2-0.9,0.3c-0.3,0.2-0.5,0.5-0.5,0.9c0,0.4,0.1,0.6,0.3,0.8s0.4,0.2,0.7,0.2c0.4,0,0.9-0.1,1.2-0.4
			c0.4-0.3,0.6-0.7,0.6-1.4V187.3z"/>
		<path class="st0" d="M147.9,183.7c0.5,0.4,0.8,1.1,0.8,2.1v5.3h-2.1v-4.8c0-0.4-0.1-0.7-0.2-1c-0.2-0.4-0.6-0.6-1.1-0.6
			c-0.7,0-1.2,0.3-1.4,0.9c-0.1,0.3-0.2,0.7-0.2,1.2v4.3h-2.1v-7.8h2v1.1c0.3-0.4,0.5-0.7,0.7-0.9c0.4-0.3,1-0.5,1.6-0.5
			C146.8,183.1,147.4,183.3,147.9,183.7z"/>
		<path class="st0" d="M152.2,188.6c0,0.4,0.1,0.6,0.3,0.8c0.3,0.3,0.7,0.4,1.4,0.4c0.4,0,0.7-0.1,1-0.2c0.2-0.1,0.4-0.3,0.4-0.5
			c0-0.2-0.1-0.4-0.3-0.5c-0.2-0.1-0.9-0.3-2.1-0.6c-0.9-0.2-1.5-0.5-1.9-0.8c-0.4-0.3-0.5-0.8-0.5-1.4c0-0.7,0.3-1.3,0.9-1.9
			c0.6-0.5,1.4-0.8,2.4-0.8c1,0,1.8,0.2,2.4,0.6c0.6,0.4,1,1.1,1.1,2H155c0-0.3-0.1-0.5-0.2-0.6c-0.2-0.3-0.6-0.4-1.2-0.4
			c-0.4,0-0.8,0.1-1,0.2c-0.2,0.1-0.3,0.3-0.3,0.5c0,0.2,0.1,0.4,0.3,0.5c0.2,0.1,0.9,0.3,2.1,0.6c0.8,0.2,1.4,0.5,1.8,0.9
			c0.4,0.4,0.6,0.9,0.6,1.5c0,0.8-0.3,1.4-0.9,1.9c-0.6,0.5-1.5,0.7-2.7,0.7c-1.2,0-2.2-0.3-2.7-0.8c-0.6-0.5-0.9-1.2-0.9-2H152.2z"
			/>
	</g>
	
		<use xlink:href="#New_Symbol"  width="47.1" height="77.9" x="-23.6" y="-39" transform="matrix(1 0 0 -1 139.292 141.5568)" style="overflow:visible;"/>
</g>
<use xlink:href="#New_Symbol"  width="47.1" height="77.9" x="-23.6" y="-39" transform="matrix(0.3064 -7.585262e-02 -6.712063e-02 -0.2477 267.3929 179.7266)" style="overflow:visible;"/>
</svg>
