<?xml version="1.0" encoding="utf-8"?>
<!-- Generator: Adobe Illustrator 24.3.0, SVG Export Plug-In . SVG Version: 6.00 Build 0)  -->
<svg version="1.1" id="Layer_1" xmlns="http://www.w3.org/2000/svg" xmlns:xlink="http://www.w3.org/1999/xlink" x="0px" y="0px"
	 viewBox="0 0 320 200" style="enable-background:new 0 0 320 200;" xml:space="preserve">
<style type="text/css">
	.st0{fill:#DC9AF7;}
	.st1{fill:#C78775;}
	.st2{fill:#FFCDB8;}
	.st3{fill:#E89E89;}
	.st4{fill:#00B414;}
	.st5{fill:#00820E;}
	.st6{fill:#F5BCA4;}
	.st7{fill:#1E1E1C;}
	.st8{fill:#FFFFFF;}
	.st9{fill:#966658;}
	.st10{fill:#E5BC8C;}
	.st11{fill:#C1905E;}
	.st12{fill:#906145;}
	.st13{fill:#F5AC96;}
	.st14{fill:#D6956F;}
	.st15{fill:#EF505C;}
	.st16{fill:#FC6B83;}
	.st17{fill:#C12F40;}
	.st18{fill:#FBE4B4;}
	.st19{fill:#DD902A;}
	.st20{fill:#68363B;}
	.st21{fill:#F3C396;}
	.st22{fill:#F7D4BC;}
	.st23{fill:#F2F96B;}
	.st24{fill:#D8D82A;}
	.st25{fill:#D69D67;}
	.st26{fill:#F9F9AF;}
	.st27{fill:#FFB052;}
	.st28{fill:#C47516;}
	.st29{fill:#EFCA30;}
	.st30{fill:#525C84;}
	.st31{fill:#6A79AB;}
	.st32{fill:#A5A8C9;}
	.st33{fill:#958A27;}
	.st34{fill:#85C8FD;}
	.st35{fill:#494C43;}
	.st36{fill:#363123;}
	.st37{fill:#DB9570;}
	.st38{fill:#C1BA89;}
	.st39{fill:#473C2E;}
	.st40{fill:#C0AB74;}
	.st41{fill:#FAE4AE;}
	.st42{fill:#998662;}
	.st43{fill:#2E2F2D;}
	.st44{fill:#5E4D41;}
	.st45{fill:#574935;}
	.st46{fill:#615C52;}
	.st47{fill:#0C0C0F;}
	.st48{fill:#DBBE86;}
	.st49{fill:#33363D;}
	.st50{fill:#30241C;}
	.st51{fill:#DDC395;}
	.st52{fill:#776341;}
	.st53{fill:#3A2909;}
	.st54{fill:#B5A869;}
	.st55{fill:#3B3410;}
	.st56{fill:#EFBF37;}
	.st57{enable-background:new    ;}
	.st58{fill:#8E6E33;}
	.st59{fill:#F4D250;}
	.st60{fill:#FFDE72;}
	.st61{fill:#60692E;}
	.st62{fill:#9BA767;}
	.st63{fill:#657033;}
	.st64{fill:#424B1C;}
	.st65{fill:#6A4D00;}
	.st66{fill:#E8DA7C;}
	.st67{fill:#E5C46C;}
	.st68{fill:#524C3D;}
	.st69{fill:#FACAAC;}
	.st70{fill:#C9CED4;}
	.st71{fill:#919DA9;}
	.st72{fill:#78B82B;}
	.st73{fill:#EF8D06;}
</style>
<polygon class="st0" points="301.6,140 50.2,168 19.9,0 313.6,34.2 "/>
<g>
	<g>
		<rect x="59" y="154" class="st1" width="80.5" height="46"/>
		<rect x="62.2" y="154" class="st2" width="77.4" height="46"/>
		<rect x="62.2" y="154" class="st3" width="74" height="46"/>
		<path class="st3" d="M119.5,96.3c1.7,5.6,10.5-1.8,11.2-6.6c1.9-4.3-1.7-15.4-6.1-11.5C124.6,78.4,119.5,96.3,119.5,96.3z"/>
		<g>
			<path class="st4" d="M72.2,200h52.1l1.7-23.1c8.8-6.6,18.6-19.6,18.6-19.6c-2.9-6.8-9.8-31-16.1-35.5l0,0
				c-22.5-16.3-50.5-2-56.3,2.2h-0.1c-12.1,10.1-15.6,42.8-18.4,50.4c2.9,2.1,17.3,7.4,17.3,7.4C71,183.5,71.5,191.3,72.2,200z"/>
			<path class="st3" d="M121.7,117.9c-16.5-7.6-27.7-4.8-37.2-0.2c-2.7,1.3-2.5,13,15.6,13.8C120.6,132.4,124,119,121.7,117.9z"/>
			<path class="st5" d="M124.3,200l1.7-23.1c8.8-6.6,18.6-19.6,18.6-19.6c-2.9-6.8-9.8-31-16.1-35.5l0,0
				c-7.2-4.7,10.8,17.8,12.4,36.1l-15.7,16.6l-1-29.5l-10.9,54.6l11,0.5C124.3,200.1,124.3,200,124.3,200z"/>
			<path class="st3" d="M90.2,88l21.3-0.3l0.6,38.5c-4.8,3.5-16.7,3.8-21.3-1.8L90.2,88z"/>
			<path class="st1" d="M111.8,125.9l-0.3-20.7l-6.4,0.1l0.4,22.9C108,127.9,110.2,127,111.8,125.9z"/>
			<path class="st6" d="M93,88h-3l0.6,36.4c1.1,1.2,2.5,2.1,4.1,2.9L93,88z"/>
			<path class="st5" d="M72.2,200h3.2c-1.2-22.8-2.7-51.3-2.7-51.3l-1.6,31.1c0,0-12.3-4.2-14.1-5.6c6.7-39.1,18.8-52.8,15.3-50.3
				h-0.1c-12.1,10.1-15.6,42.8-18.4,50.4c2.9,2.1,17.3,7.4,17.3,7.4C71,183.5,71.5,191.3,72.2,200z"/>
		</g>
		<path class="st3" d="M128.5,72.5c-4.6-31.6-52.5-28.3-52.3,3.6c0.9,11.2,4.5,33.1,18.7,39.7c2.6,1.2,4.2,1.6,7.3,1.6
			c2.4,0,5.8-0.6,8.1-2.2C120.9,107.4,129.3,83.4,128.5,72.5z"/>
		<path class="st1" d="M128.5,72.5c-2.3-15.5-14.9-22.5-27.1-22c11.5,0.5,22.5,7.6,24.6,22c0.8,10.9-7.6,34.9-18.3,42.7
			c-1.9,1.4-4.6,2-6.8,2.2c0.4,0,0.8,0,1.2,0c2.4,0,5.8-0.6,8.1-2.2C120.9,107.4,129.3,83.4,128.5,72.5z"/>
		<path class="st6" d="M101.4,116.6C87.3,110,83.7,88.1,82.8,76.9C82.7,60,95.9,51.1,109.2,51.1c-15-3.5-33.1,5.3-32.9,24.9
			c0.9,11.2,4.5,33.1,18.7,39.7c2.6,1.2,4.2,1.6,7.3,1.6c0.4,0,0.8,0,1.2,0C102.7,117.2,102.1,117,101.4,116.6z"/>
		<path class="st7" d="M115.6,80.5c0-1.1-0.4-2.4-1.3-3c-0.5-0.2-1.2-0.1-1.6,0.1c-0.1,0.1-0.3,0.2-0.3,0.3
			c-0.1,0.1-0.1,0.3-0.2,0.4c0,1.8-0.5,4.3,1.2,5.5c0.5,0.2,1.2,0.1,1.6-0.1c0.1-0.1,0.3-0.2,0.3-0.3c0.4-0.6,0.6-1.5,0.7-2.2
			C115.6,80.9,115.6,80.8,115.6,80.5z"/>
		<path class="st7" d="M96.1,80.5c0-1.1-0.4-2.4-1.3-3c-0.5-0.2-1.2-0.1-1.6,0.1c-0.1,0.1-0.3,0.2-0.3,0.3c-1,1.7-0.9,4.7,0.7,6
			c0.5,0.2,1.2,0.1,1.6-0.1c0.1-0.1,0.3-0.2,0.3-0.3C96,82.6,96.2,81.6,96.1,80.5z"/>
		<path class="st1" d="M102.5,92.3c2.8,0.5,4.3-1.2,4.1-0.2c0,0.9-1.7,2.2-4.5,2.6C97.3,95.2,98.2,91.5,102.5,92.3z"/>
		<path class="st8" d="M96.2,102.3c3.9,1.3,10.6-0.6,13.2,1C105.2,112.5,92.4,105,96.2,102.3z"/>
		<path class="st9" d="M111.7,109.4c-2-1.2,0.3-5,0.6-7.2c0.5-3.7-2.7-6.8-10.4-6.3c-4.3,0.3-7.2,0.7-9.5,5.7
			c-0.9,2,2.3,8.4-0.3,9.2c-0.8,0.2-2.5,0.4-4,0.3c1.9,2,4.1,3.7,6.6,4.8c2.6,1.2,4.2,1.6,7.3,1.6c2.4,0,5.8-0.6,8.1-2.2
			c2.1-1.6,4.2-3.8,6.1-6.5C114.8,109.2,112.5,109.8,111.7,109.4z M102.8,110.3c-3.9,0-8.3-4.6-8.3-7.4s4.4-2.7,8.3-2.7
			s8.2-0.2,8.2,2.6S106.7,110.3,102.8,110.3z"/>
		<path class="st9" d="M128.5,76.2c0.1-1.3,0.1-2.5,0-3.6C123.9,41,76,44.3,76.2,76.2c0,0.4,0.1,0.8,0.1,1.2
			C78.6,47.9,123.9,45.5,128.5,76.2z"/>
		<path class="st3" d="M79.2,77.5c-3.8-4.5-9,5.7-7.8,10.4c-0.1,4.7,7.6,13.5,10.1,8.2C81.6,96,79.2,77.5,79.2,77.5z"/>
		<path class="st6" d="M73.5,88c-0.9-3.3,1-9,3.6-11.6c-3.3,0.2-6.6,7.7-5.6,11.5c0,3.5,4.2,9.3,7.4,9.8C76.1,95.3,73.5,91,73.5,88z
			"/>
		<path class="st9" d="M106.3,72c7.7-4.6,13.3,1.1,12.9,3.1c-4.5-2.1-8.9-2.9-12.7-0.9C105.8,73.7,105.7,73,106.3,72z"/>
		<path class="st9" d="M100,74.7c-3.9-2-8.2-1.2-12.7,0.9c-0.4-2,5.2-7.6,12.9-3.1C100.9,73.5,100.8,74.2,100,74.7z"/>
	</g>
	<g>
		<path class="st10" d="M19.2,195.3c0,0,5.6,2.7,13.8,4.6c9.9,0,19.9,0,29.7,0.1c7.7-2.3,15.1-6.9,20.9-15.2c0,0,12.4-13.1,2.3-36.8
			c-6.9-16.4,7.5-59.4-22.5-68.2c0,0-8.1-5.8-19.5-1.5c-42.2,1.4-19,54.6-36.1,80.8C7.8,159-9.7,185.8,19.2,195.3z"/>
		<path class="st11" d="M19.2,195.3c0,0,5.6,2.7,13.9,4.6c0.8,0,1.7,0,2.5,0c-6.6-1.5-11-3.2-11-3.2c-29.3-8-13.2-35.6-13.2-35.6
			C27,133.9,1,82,43.1,78.4c0.2-0.1,0.3-0.1,0.5-0.2C1.9,79.8,24.9,132.8,7.9,159C7.8,159-9.7,185.8,19.2,195.3z"/>
		<path class="st12" d="M23.5,149.1c0.1-5.9,1.1-6.5,4.8-11c4-5.8-6.1-17.9-0.3-22.4c6.8-3,15.2-1.8,22.4-1.8
			c7,0.2,14.5-2.3,20.9,1.7c5,5.2-3.6,10.8-0.6,17.6c1.5,2.8,6.1,6.4,5.6,10c-4,12.1-9.8,9.2-19.5,14.8c-6.8,2.5-13.4,5.7-20.4,7.6
			L23.5,149.1z"/>
		<path class="st13" d="M25.2,199.8c18,0,35.8,0.1,53.8,0.2c1.4-18.5-1.5-32-7.2-51.5L23,151c-7.4,16.2-11.3,32.3-7.8,48.9
			C18.5,199.9,21.9,199.8,25.2,199.8z"/>
		<path class="st14" d="M17.5,199.9c-3.6-16.6,0.2-32.8,7.6-49l-2.2,0.1c-7.4,16.2-11.3,32.3-7.8,48.9
			C15.9,199.9,16.7,199.9,17.5,199.9z"/>
		<path class="st15" d="M25.2,199.8c14.9,0,29.8,0,44.7,0.1L70,198c0,0,2.7-46.8,2.1-52.2l0,0c-19.1-15.4-42.7-1.9-47.6,2h-0.1
			l0.5,51.9C25,199.8,25.1,199.8,25.2,199.8z"/>
		<path class="st13" d="M66.6,142.2c-13.9-7.2-28.9-1.8-37,2.5c-2.3,1.2,2.4,25.1,5.7,26.8c6.3,3.3,14.7,2.9,25.2,1
			C67.2,171.4,68.4,143.2,66.6,142.2z"/>
		<path class="st16" d="M69.9,200l0.1-1.9c1.7-15.1,1.4-53.4,1.4-53.4l-3,23.1L66.6,200C67.7,199.9,68.8,200,69.9,200z"/>
		<g>
			<path class="st13" d="M39,112.5h15.7v36.4c-3.6,3.2-12.4,3.4-15.7-1.9V112.5z"/>
			<path class="st14" d="M54.6,148.7v-19.6h-4.8v21.7C51.8,150.5,53.4,149.7,54.6,148.7z"/>
			<path class="st2" d="M41.2,112.5H39V147c0.8,1.2,1.8,2.1,3,2.8L41.2,112.5z"/>
			<path class="st13" d="M75.2,105.6c0,12-15.9,40.2-25.1,40.2c-11.2,0-24.9-28.3-24.9-40.3C27.1,76.6,73.2,76.7,75.2,105.6z"/>
			<path class="st2" d="M37.7,137c-6.3-11.9-4.4-38-1.2-49.6C17.3,98.9,26.1,120.2,37.7,137z"/>
			<path class="st14" d="M31,100.5c-3-5.4-9.1,5-8.5,10.3C22,116,28,126.6,31,121.1V100.5z"/>
			<path class="st13" d="M24.1,114.1c0-4.6,1.3-8.6,3.1-11.1c-6,3.8-6,17-0.5,21.3C24.9,121.8,24.1,118.1,24.1,114.1z"/>
			<path class="st7" d="M66,112c0.1-1.1-0.2-2.3-1-3c-0.5-0.3-1.1-0.1-1.5,0c-0.1,0.1-0.3,0.1-0.3,0.3c-0.1,0.1-0.1,0.3-0.3,0.4
				c-0.1,1.7-0.8,4,0.8,5.3c0.5,0.3,1.1,0.1,1.5,0c0.1-0.1,0.3-0.1,0.3-0.3c0.5-0.5,0.7-1.3,0.8-2.1C66,112.4,66,112.2,66,112z"/>
			<path class="st7" d="M47.3,109.6c0.1-1.1-0.2-2.3-1-3c-0.5-0.3-1.1-0.1-1.5,0c-0.1,0.1-0.3,0.1-0.3,0.3c-1.1,1.5-1.2,4.3,0.3,5.7
				c0.5,0.3,1.1,0.1,1.5,0c0.1-0.1,0.3-0.1,0.3-0.3C47.1,111.5,47.3,110.6,47.3,109.6z"/>
			<path class="st14" d="M54.4,124.7c2.2,1.5,4.1,0.8,3.6,1.5c-0.4,0.8-2.3,1.2-4.9,0.4C48.7,125.1,51.1,122.1,54.4,124.7z"/>
			<path class="st8" d="M45.9,129.2c2.8,2,8.4,1.9,10.1,3.8C51.2,139.8,42.5,130.7,45.9,129.2z"/>
			<path class="st14" d="M73.6,106c0,6.6-4,17.6-9.3,26.7c10.9-17.1,17.1-35.9-2.3-46.2C68.7,91,73.6,98.1,73.6,106z"/>
		</g>
		<path class="st17" d="M25.2,199.8c0.8,0,1.6,0,2.5,0c-0.6-26-1.6-53.1-3.2-51.9h-0.1l-1.6,3.1c0,2.1,0.9,25.6,1.8,48.8
			C24.8,199.8,25,199.8,25.2,199.8z"/>
		<path class="st18" d="M18.9,154.5c-6.7,3.8-9.7,9.6-5.6,19.3C12.2,166.7,13.8,160.2,18.9,154.5z"/>
		<path class="st2" d="M76.7,200c0.8,0,1.5,0,2.3,0c1.4-18.5-1.5-32-7.2-51.5l-2.3,0.2C75.1,168.1,78.1,181.6,76.7,200z"/>
		<path id="XMLID_3_" class="st10" d="M23,151c23.7-11.2,0.2-16.2,4.5-38.2c0,0,3.9-2.4,6.8-13.2l6.1-7.4c0,0,6.5,5.1,16.1-0.9
			c4.9,4.8,11,6.5,15.1,6.2c-3.5,7,0.1,25.7,2.1,29.1c0.4,0.7-4.8,14.9-2.5,28.9c1.5,9.2-6.1,15.8-5,19.5c2.7,9.5,20.7,6.2,21.2,1.4
			c0.3-3.1-11.8-65.9-10.7-70.6C84.6,70.1,16,64.9,22,110.1C21.7,110,9.9,157.2,23,151z"/>
		<path class="st18" d="M67.8,175.2c-1.1-3.7,6.5-10.3,5-19.5c-2.3-14.1,3.3-28.8,2.5-28.9c-2.8-0.3-4.6-24.4-4.1-28.9
			c-3.4,7,0.2,25.6,2.2,28.9c0.4,0.7-4.8,14.9-2.5,28.9c1.5,9.2-6.1,15.8-5,19.5c1.4,4.7,6.6,6.3,11.5,6
			C73,180.9,68.9,179.2,67.8,175.2z"/>
		<path class="st18" d="M83.8,173.3c4-8,3.8-16.5-4.7-25.7C83.6,155.3,85.4,163.8,83.8,173.3z"/>
		<path class="st18" d="M75.7,111.7c5.4-6.2,6-12.9-2.3-20.3C77.5,97.6,78.5,104.3,75.7,111.7z"/>
		<path class="st18" d="M22.7,109c7.2-1.5,10.3-5.4,5.9-14C29.7,100.9,28,105.6,22.7,109z"/>
		<path class="st18" d="M77.2,163.8c-5.8,4.5-6.9,9.4,0.8,15.1C74.4,174.2,73.9,169.2,77.2,163.8z"/>
		<path class="st18" d="M27.7,147.5c5.4-5.1,6.4-10.7-1.2-17.1C30.1,135.7,30.8,141.4,27.7,147.5z"/>
		<path class="st11" d="M40.6,93.3c0,0,6.6,4.5,15.5-0.3c1.4,6.5,14.9,5.4,15.7,4.2c-8.6,0.8-15-7.9-14.7-9.3
			c-2.1,2.8-6.9,6.5-10.5,5.9c-3.5-0.6-6.6-3.7-9.6-5.6c0.5,1.8,2.7,12.2-5.5,12C31.4,100.1,39.8,101.3,40.6,93.3z"/>
		<path class="st18" d="M22,110.5c-2.3-18.7,7.3-26.7,18-26.7c-12-2.3-21.5,7.3-20.5,26s4.3,24.7,0.7,35
			C26.5,137.7,22,110.5,22,110.5z"/>
		<path class="st11" d="M60.9,78.6c0,0-7.4-5.9-16.3-0.5c-9.4-2.7-17.1,4.4-18,5.6c12.7-6.7,18-1.4,17.7,0c2.1-2.7,7-6.3,10.6-5.7
			c3.5,0.7,2.1,4,5.1,6c5.1-4.9,8.7-0.5,15.4,2.9C75.2,87,69.1,78.3,60.9,78.6z"/>
	</g>
	<g>
		<path class="st19" d="M183.5,159.2c-7.1-7.3-4.3-10.1,0.4-21.9c3.6-9.3,1.9-18-0.6-33.5c-2.5-15.2-8.5-17.6-26.4-19.9
			c-11.4-4.3-19.5,1.5-19.5,1.5c-22.2,6.6-20.6,24.4-13.1,43.4c2.8,7.2-3.3,15.3-6.7,25.2L183.5,159.2z"/>
		<path class="st20" d="M124.5,148.7c-0.5-3.6,4.1-7.2,5.6-10c3-6.8-5.6-12.4-0.6-17.6c6.4-4,13.9-1.5,20.9-1.7
			c7.3,0,15.7-1.2,22.4,1.8c5.8,4.6-4.3,16.7-0.3,22.4C176.3,148.2,124.5,148.7,124.5,148.7z"/>
		<path class="st21" d="M186.6,200c1.7-14.7-2.1-29.1-8.7-43.4l-49-2.5c-5.1,17.4-7,30.1-6.5,45.9H186.6z"/>
		<path class="st22" d="M186.6,200c1.7-14.7-2.1-29.1-8.7-43.4l-2.2-0.1c6.6,14.4,10.3,28.8,8.5,43.5H186.6z"/>
		<path class="st23" d="M175.8,200l0.5-46.5h-0.1c-4.9-3.9-28.5-17.4-47.6-2l0,0c-0.5,4.4,1.3,37.4,1.9,48.5H175.8z"/>
		<path class="st21" d="M139.3,166.6c12,6.8,21.4,2.9,27.3-2.1c2.9-2.5,6.9-13,4.6-14.2c-8.1-4.3-23.1-9.7-37-2.5
			C132.4,148.8,133.5,163.3,139.3,166.6z"/>
		<path class="st24" d="M133.9,200l-1.5-26.5l-4.2-23.6c0,0,1.3,33.2,2.2,50.2L133.9,200L133.9,200z"/>
		<g>
			<path class="st21" d="M161.8,152.6c-3.3,5.3-12.1,5.1-15.7,1.9v-36.4h15.7V152.6z"/>
			<path class="st22" d="M151,156.5v-21.7h-4.8v19.6C147.4,155.3,149,156.1,151,156.5z"/>
			<path class="st25" d="M158.8,155.4c1.2-0.7,2.2-1.6,3-2.8v-34.5h-2.2L158.8,155.4z"/>
			<path class="st21" d="M175.7,111.1c0.7,19.1-13.8,40.3-24.9,40.3c-9.3,0-24.7-21.7-25.1-40.2C125,82.2,174.7,82.1,175.7,111.1z"
				/>
			<path class="st25" d="M164.2,93c3.2,11.6,7.3,36.7,1,48.6C176.8,124.8,183.5,104.5,164.2,93z"/>
			<path class="st22" d="M169.8,126.7c3,5.5,9.1-5.1,8.5-10.3c0.6-5.3-5.5-15.7-8.5-10.3C169.8,106.1,169.8,126.7,169.8,126.7z"/>
			<path class="st13" d="M174.2,129.9c5.5-4.3,5.5-17.5-0.5-21.3c1.8,2.5,3.1,6.5,3.1,11.1C176.8,123.7,175.9,127.4,174.2,129.9z"/>
			<path class="st7" d="M134.6,118.2c0.1,0.8,0.3,1.6,0.8,2.1c0,0.2,0.2,0.2,0.3,0.3c0.4,0.1,1,0.3,1.5,0c1.6-1.3,0.9-3.6,0.8-5.3
				c-0.2-0.1-0.2-0.3-0.3-0.4c0-0.2-0.2-0.2-0.3-0.3c-0.4-0.1-1-0.3-1.5,0c-0.8,0.7-1.1,1.9-1,3C134.8,117.8,134.8,118,134.6,118.2z
				"/>
			<path class="st7" d="M154.2,117.9c0,0.2,0.2,0.2,0.3,0.3c0.4,0.1,1,0.3,1.5,0c1.5-1.4,1.4-4.2,0.3-5.7c0-0.2-0.2-0.2-0.3-0.3
				c-0.4-0.1-1-0.3-1.5,0c-0.8,0.7-1.1,1.9-1,3C153.5,116.2,153.7,117.1,154.2,117.9z"/>
			<path class="st25" d="M147.7,132.2c-2.6,0.8-4.5,0.4-4.9-0.4c-0.5-0.7,1.4,0,3.6-1.5C149.7,127.7,152.1,130.7,147.7,132.2z"/>
			<path class="st8" d="M142.7,137c2.4-1.6,8.8,0.2,12.5-1.2C158.8,138.4,146.6,145.9,142.7,137z"/>
			<path class="st22" d="M138.2,90.4c-22.6,14.5-8.9,50.1,9.5,60.3c-14.2-13.4-17.9-28.2-18.7-35.9
				C128.2,105.5,130.6,96.3,138.2,90.4z"/>
		</g>
		<path class="st25" d="M128.7,163.5c-0.3-1.6,0-8.8-0.3-10.4c-4.3,15.3-7.1,31.2-6.8,46.9h2.3C123.5,187.2,125.3,176.5,128.7,163.5
			z"/>
		<path class="st26" d="M176.4,200c0.8-21.4,1.6-41.4,1.6-43.4l-1.6-3.1h-0.1c-1.4-1.1-2.4,22.2-3,46.5H176.4z"/>
		<path class="st19" d="M179.1,115.6c6-45.2-65.2-39.3-57.3-3.6c0.4,1.6,6,12.9,4.4,23.7c-1,7-5.6,11.9-8.5,18.3
			c4.2,5,12.9,3.1,18.5,3.2c0-11.1-9.1-24.2-8.8-24.8c2-3.4,5.6-22.1,2.1-29.1c4.1,0.3,10.2-1.4,15.1-6.2c9.6,6,15.8-1.4,15.8-1.4
			c-0.2,13.4,6.5,17.7,12.3,19.7c3.8,19.9-16.6,33.9-2.8,43.1c4.2,1.8,8.9,1.6,13.6,0.7C172.3,148.7,179.1,115.6,179.1,115.6z"/>
		<path class="st27" d="M178.9,157c-3.2-12.4,0.8-17.6,2.4-39.7S166,82.8,150.4,83.2c15,0.5,30.7,11.3,27.8,33.2
			C178.2,116.4,172.9,148.3,178.9,157z"/>
		<path class="st27" d="M130,91.9c-8.5,9.3-8.7,17.8-4.7,25.7C123.7,108.2,125.5,99.7,130,91.9z"/>
		<path class="st27" d="M174.3,136c-7.6,6.4-6.6,12-1.2,17.1C170,147,170.7,141.3,174.3,136z"/>
		<path class="st28" d="M166.3,108.3c-8.2,0.3-6-13-5.5-15.4c-3,2.4-3.6,6.7-3.6,6.7C158,109.8,166.4,108.3,166.3,108.3z"/>
		<path class="st28" d="M172.3,110.4c-8,1.6-8.3-13.7-8.2-16.5c-2.5,3.2-2.4,8.1-2.4,8.1C164.3,113.4,172.3,110.3,172.3,110.4z"/>
		<path class="st19" d="M162.1,108.1c-8.1-1.7-2.9-14.1-1.8-16.3c-3.5,1.7-5.1,5.7-5.1,5.7C153.6,107.6,162.1,108.1,162.1,108.1z"/>
		<path class="st19" d="M156.8,108.1c-8.1-1.7-2.9-14.1-1.8-16.3c-3.5,1.7-5.1,5.7-5.1,5.7C148.2,107.6,156.7,108.1,156.8,108.1z"/>
		<path class="st19" d="M149.9,108.3c-7.6-3-0.5-14.4,0.9-16.4c-3.7,1.1-6,4.8-6,4.8C141.5,106.4,149.8,108.3,149.9,108.3z"/>
		<path class="st28" d="M159.8,107.8c-8.1-0.7-3.5-12.8-2.7-15.1c-3.2,2-4.4,6.2-4.4,6.2C152.2,109.1,159.9,107.8,159.8,107.8z"/>
		<path class="st28" d="M155.2,108.8c-8.2-0.8-4.4-13.7-3.6-16c-3.2,2-4.4,6.2-4.4,6.2C146.7,109.3,155.2,108.8,155.2,108.8z"/>
		<path class="st28" d="M149.7,109c-8.2-0.8-4.4-13.7-3.6-16c-3.2,2-4.4,6.2-4.4,6.2C141.2,109.4,149.7,108.9,149.7,109z"/>
		<path class="st28" d="M144.2,109c-7.6-3-0.4-14.3,1.1-16.3c-3.7,1-6,4.7-6,4.7C135.9,107.1,144.2,109,144.2,109z"/>
		<path class="st28" d="M136.2,110.6c-6-5.6,4.8-13.6,6.9-14.9c-3.8-0.4-7.3,2.2-7.3,2.2C129.2,105.8,136.2,110.6,136.2,110.6z"/>
		<path class="st19" d="M141.5,109.8c-7.6-3-0.4-14.3,1.1-16.3c-3.7,1-6,4.7-6,4.7C133.2,107.9,141.5,109.9,141.5,109.8z"/>
		<path class="st28" d="M132.5,111.1c-6-5.6,4.8-13.6,6.9-14.9c-3.8-0.4-7.3,2.2-7.3,2.2C125.4,106.2,132.5,111,132.5,111.1z"/>
		<path class="st28" d="M125.4,92.5c6.7-3.4,10.3-7.8,15.4-2.9c3-2,1.6-5.3,5.1-6c3.6-0.6,8.5,3,10.6,5.7c-0.2-1.5,8.4-5.9,21.1,0.8
			c-0.8-1.2-11.9-9.2-21.3-6.5c-8.9-5.4-16.3,0.5-16.3,0.5C131.7,83.9,125.6,92.5,125.4,92.5z"/>
		<path class="st29" d="M167.9,163.7c-7.5,7.2-9.6,4.3-13.1,6.8c-2.3,1.7,6.5,2.4,8.6,4.4c0.9,3.8-7.7,2.3-2.3,8.6
			c0.2-0.3,0.4-0.7,0.6-1c2.5-2,11.4-3.6,9.1-7.7c-0.6-1-2.1-1.4-2.3-2.6c0.1-0.7,1-0.8,1.6-1c2.4-1.2,0.9-4.1-1.4-4.3
			C167,166.2,168.9,162.6,167.9,163.7z"/>
		<path class="st29" d="M140,172.8c-1.6-0.2-5.1-0.4-4.3,2.2c2.1,1.6,5.8,0,8.4,0.6c-2.4,2.4-6.8,2.3-7.4,8
			c-0.2,1.6,3.3,1.7,3.3,3.5c-4,8.5,5,6.1,7.9,1.9c0.3-1.1-1.2-1.8-2.2-2.3c-7.6-5.2-2.9-6.5,3.3-8c2.1-0.9,1.2-5.4-0.6-6.2
			C145.3,170.5,143,171.8,140,172.8z"/>
		<path class="st29" d="M168.4,189c-5.2-2.5-15.5,1.1-14,7.8c1,1.1,0.3,2.2-0.7,3.2h5c-0.7-1.5-1.1-3.1,0.5-3.8
			C162.2,195.5,172.1,193.3,168.4,189z"/>
		<path class="st27" d="M120.1,153c9.1-5.3,10.3-11.7,7.2-18.8C127.9,141.8,125.3,148,120.1,153z"/>
	</g>
	<g>
		<path class="st13" d="M42.2,200c6.9-5.3,12.4-10.6,17.1-16L55,173.3c-2.2-0.4-6.2,3.8-13.7,9.2c-7.6,5.6-16.7,9.9-19.6,12.2
			c-1.2,1.9-2,3.6-2.5,5.2C26.9,200,34.6,200,42.2,200z"/>
		<path class="st2" d="M43.3,183.1c6.1-4.3,9.8-7.8,12.1-8.9l-0.3-0.8c-2.3-0.3-6.3,3.8-13.7,9.2c-5,3.7-10.5,6.6-14.6,9
			C30.8,189.7,37.3,187.4,43.3,183.1z"/>
		<path class="st14" d="M39.3,200c0.9,0,1.8,0,2.7,0c7-5.3,12.7-10.7,17.4-16.2l-4.2-10.7c-0.1,0-0.1-0.1-0.2,0
			c-3.6,2.6-2.1,7.1,2.1,11.4C51.3,190.3,46.3,194.7,39.3,200z"/>
		<path class="st30" d="M72.8,164.3l-10.9,23.8c-0.7,1.4-2,2.3-3.4,2.1l-14.8-0.8l9.6-26.7c0.5-1,2.8-3.4,3.8-3.2l14.5,2.7
			C72.7,162.3,73.2,163.3,72.8,164.3z"/>
		<polygon class="st31" points="53.9,160.4 41.9,187.2 44.4,187.9 55,162.1 		"/>
		<path class="st32" d="M55,162.1c0.5-1,1.7-1.7,2.7-1.5l13.7,1.7c0.4,0.1,0.9,0.3,1.1,0.6l0.1-0.1c0,0-1.2-2-2.4-2.1l-13.6-1.9
			c-1.1-0.2-2.4,0.5-2.7,1.5L55,162.1z"/>
		<path class="st13" d="M47.8,174c-6,1.5-6.6,11.6-5.1,14.4c3,5.3,11.9,3.9,17.3,0.9c2-1.2,3.9-5.9,4.4-8.8c0.3-1.2-1.1-2.1-2.2-1.6
			l-3.6,2.1c-0.3,0.1-0.7,0.2-1,0.2l-7.1-0.8c-0.9-0.2-1.9-0.9-2.2-1.6C47.1,176.4,47.8,174,47.8,174z"/>
		<path class="st2" d="M47.8,174c-5.9,1.5-6.5,11-5.1,14C42.9,179.6,45.5,175.5,47.8,174z"/>
		<ellipse class="st32" cx="58.7" cy="164.8" rx="2" ry="1.5"/>
	</g>
</g>
<g>
	<g>
		<polygon class="st33" points="289.9,88.8 198.2,88.4 199.7,110.9 290.9,104.8 		"/>
		<polygon class="st34" points="289.9,88.8 198.2,88.4 195.9,53.7 287.1,47.6 		"/>
		<path class="st35" d="M214.5,57.3c-0.1-1.4-0.6-2-0.6-2s-0.4,0.7-0.3,1.9c0.1,1.2,0.2,2.8,0.2,2.8l1,0.1
			C214.6,60.1,214.6,58.7,214.5,57.3z"/>
		<path class="st35" d="M219.5,58.1c-0.1-1.4-0.6-2-0.6-2s-0.4,0.7-0.3,1.9c0.1,1.2,0.2,2.8,0.2,2.8l1,0.1
			C219.7,60.8,219.6,59.4,219.5,58.1z"/>
		<path class="st35" d="M209.3,56.3c-0.1-1.4-0.6-2-0.6-2s-0.4,0.7-0.3,1.9c0.1,1.2,0.2,2.8,0.2,2.8l1,0.1
			C209.5,59.1,209.4,57.7,209.3,56.3z"/>
		<path class="st35" d="M207.1,57.4c-0.1-1.4-0.6-2-0.6-2s-0.4,0.7-0.3,1.9c0.1,1.2,0.4,3.5,0.4,3.5l0.8-0.5
			C207.3,60.2,207.2,58.8,207.1,57.4z"/>
		<path class="st35" d="M204.9,59.5c-0.1-1.4-0.6-2-0.6-2s-0.4,0.7-0.3,1.9c0.1,1.2,0.4,3.5,0.4,3.5l0.8-0.5
			C205.1,62.3,205,60.9,204.9,59.5z"/>
		<polygon class="st36" points="228.3,70.8 234.9,70.6 236,91.6 231,92.2 229.4,92.4 		"/>
		<polygon class="st37" points="272.3,52.4 224.2,70.6 234.9,70.6 229.9,76.6 262.4,68.5 		"/>
		<polygon class="st38" points="209.9,77.3 205.2,78.9 204.1,63.7 208.8,60.8 		"/>
		<polygon class="st39" points="209.7,75.7 220.6,74.1 219.8,62.1 208.8,60.8 		"/>
		<polygon class="st40" points="228.3,70.8 205.2,78.9 206.1,92.3 229.4,92.4 		"/>
		<polygon class="st41" points="228.1,66.6 226,67.5 226,69.2 224.7,69.8 224.4,68.1 222.8,68.7 222.9,70.4 221.7,70.8 221.7,69.2 
			220.3,69.7 220.3,71.4 219,71.8 219,70.3 217.5,70.9 217.6,72.5 216.5,72.9 216.3,71.3 215.2,71.8 215.3,73.4 214.6,73.6 
			214.5,72.1 213,72.7 213.1,74.1 212.2,74.5 212.2,73 210.8,73.5 211,75 210.2,75.3 210,73.8 208.7,74.4 208.9,75.8 208.2,76.2 
			208,74.7 206.9,75.1 207,76.5 206.5,76.7 206.3,75.4 205,75.9 205.2,78.9 228.3,70.8 		"/>
		<polygon class="st42" points="208.6,57.8 207.4,58.6 207.6,59.9 207,60.4 206.7,59.1 205.6,59.8 205.8,60.9 205.2,61.3 
			205.1,60.2 203.9,60.9 204.1,63.7 208.8,60.8 		"/>
		<polygon class="st43" points="219.8,62.1 219.5,59.1 218,58.7 218.2,60 217.2,59.8 217.1,58.4 215.4,58.3 215.4,59.7 214.2,59.5 
			214.2,58.2 213.1,58 213,59.5 212,59.4 212,57.8 211.1,57.7 210.8,59.2 210.1,59.1 210.1,57.8 208.6,57.8 208.8,60.8 		"/>
		<path class="st44" d="M210,83.5c-0.2-2.5-1.7-3.4-1.7-3.4s-1.3,1.4-1.2,3.6s0.3,5.1,0.3,5.1l2.9-0.2C210.4,88.5,210.2,86,210,83.5
			z"/>
		
			<rect x="204.4" y="86" transform="matrix(0.9978 -6.577821e-02 6.577821e-02 0.9978 -5.4279 14.0363)" class="st45" width="12.1" height="6.9"/>
		<polygon class="st46" points="198.9,86.7 200.9,81.1 204.2,86.4 204.6,93.2 199.4,93.6 		"/>
		<path class="st44" d="M222.5,81.2c-0.2-3.3-2.2-4.5-2.2-4.5s-1.7,1.9-1.5,4.7s0.4,6.6,0.4,6.6l3.7-0.2
			C223,87.8,222.7,84.5,222.5,81.2z"/>
		<path class="st47" d="M202.9,88.6c-0.2-3-1.6-4.1-1.6-4.1s-1.2,1.7-1,4.3c0.2,2.6,0.4,4.6,0.4,4.6h2.6
			C203.2,93.4,203.1,91.6,202.9,88.6z"/>
		<path class="st48" d="M207.3,65.1c-0.1-1.3-0.7-1.4-0.7-1.4s-0.6,1.1-0.5,2.3c0.1,1.2,0.2,2.7,0.2,2.7l1.2-0.8
			C207.5,67.8,207.4,66.5,207.3,65.1z"/>
		<path class="st49" d="M215.9,64.9c-0.1-1.3-1.4-1.9-1.4-1.9s-1.2,0.7-1.1,1.8c0.1,1.2,0.2,2.7,0.2,2.7h2.5
			C216.1,67.5,216,66.2,215.9,64.9z"/>
		<polygon class="st50" points="228.1,66.6 229.6,66.6 229.7,68.1 231,68.1 230.9,66.8 232.9,66.9 233,68.1 236.1,68.1 234.9,70.6 
			228.3,70.8 		"/>
		<polygon class="st51" points="229.9,76.6 262.4,68.5 264.1,92.7 230.7,92.3 		"/>
		<polygon class="st52" points="217.3,86.8 206,87.5 202.6,82.3 213.8,82.3 		"/>
		<polygon class="st45" points="205.3,86.3 204.2,86.4 200.9,81.1 202,81.1 		"/>
		<polygon class="st53" points="272.3,52.4 262.4,68.5 264.1,92.7 279.3,90.3 		"/>
		<path class="st54" d="M218.5,89.2c0,0-0.4-3.6-3.4-3.5c-3.6,0.2-3.4,3.9-3.4,3.9l0.2,10.7h0.6L218.5,89.2z"/>
		<path class="st55" d="M219,89.2c0,0-0.4-3.6-3.4-3.5c-3.6,0.2-3.4,3.9-3.4,3.9l0.2,10.7l6.7-1.1L219,89.2z"/>
		<path class="st56" d="M258.6,49.4c0,0.1,0,0.2-0.1,0.3c-0.3,0.1-0.5,0.2-0.8,0.3c-0.2,0.1-0.5-0.2-0.8-0.5l-3.5,0.2
			c0.1,0.6,0.3,1.3,0.2,1.4c-0.2,0.1-1.5-1.4-1.7-1.2c-0.2,0.1,0.4,1.8,0.2,1.9c-0.2,0.2-0.3,0.5-0.6,0.7c-0.2,0.2-0.5,0.3-0.7,0.4
			c-0.2,0.2-1.4-1-1.7-0.8c-0.2,0.2,1.3,2.6,1.1,2.8s-1.2-0.6-1.4-0.4c-0.2,0.2-1.3-0.6-1.5-0.4c-0.2,0.2,1.6,2.5,1.5,2.7
			c-0.2,0.2-1.9-1-2.1-0.8c-0.2,0.2-0.4,0.4-0.6,0.7c-0.2,0.2,1,1.2,0.9,1.5s-0.7,0.1-0.7,0.4c-0.1,0.3-1,0.7-0.8,0.9
			c0.1,0.2,0,1.5,0.3,1.7c0.2,0.1,0.8,0.7,1.2,0.7c0.3,0,0.8-1.2,1.1-1.2s0.7,1.4,1,1.4s0.3-2.2,0.6-2.2s0.8,1,1,0.9
			c0.3-0.1,0.7,0.5,1,0.5c0.3-0.1,0-2.3,0.3-2.4c0.3-0.1,0.2-1,0.5-1.1s1,1.3,1.3,1.2s0.6,0,0.9-0.1c0.3-0.1,0.9,0.6,1.1,0.5
			c0.3-0.1,0-1.5,0.3-1.6c0.3-0.1,0.8,0.4,1,0.3c0.3-0.1,0.6,0,0.9-0.2c0.3-0.1,0.4-0.5,0.7-0.6c0.3-0.1-0.2-1.6,0.1-1.7
			c0.3-0.1,1.7,2,1.9,1.8c0.3-0.1-0.8-2.7-0.6-2.8c0.2-0.1,1.6,1.6,1.8,1.5c0.2-0.1-0.5-1.9-0.2-2c0.2-0.1,0.7,0.1,1,0
			c0.2-0.2-0.1-1.1,0.1-1.3s2.1,2,2.3,1.8c0.2-0.2,0.8,0,1-0.1c0.2-0.2-1.4-2.8-1.2-3c0.2-0.2,1,0.3,1.2,0.2
			c0.2-0.2,1.4,0.7,1.6,0.6c0.2-0.2,0.9,0,1-0.2c0.2-0.2-2-2.7-1.9-2.9c0.2-0.2,1,0.2,1.2,0s1.1,0.1,1.3-0.2c0-0.1,0.1-0.2,0.1-0.2
			L258.6,49.4z"/>
		<g class="st57">
			<path class="st58" d="M259,63.7c0.1,0.3-1,1.2-0.8,1.4s0.6,0.2,0.8,0.4c0.2,0.1,0.7-0.5,1-0.4s0.2,1.6,0.5,1.6s0.7-0.4,1-0.4
				s0.6,1.3,0.9,1.3s0.5-2.8,0.7-2.8c0.3,0,0.6,1,0.9,1s0.5-0.3,0.8-0.3s0.5-0.1,0.8-0.2s0.2-1.5,0.4-1.6c0.3-0.1,1,1.7,1.3,1.6
				s0.3-0.8,0.6-0.9c0.3-0.1,0.9,0.9,1.2,0.8c0.3-0.1,0.2-1.2,0.4-1.3c0.3-0.1,0.1-1.1,0.4-1.3c0.3-0.1,1,0.9,1.3,0.8
				c0.3-0.1,0-1.3,0.2-1.4c0.3-0.1,0.8,0.3,1,0.2c0.3-0.1,0.5-0.3,0.7-0.4c0.2-0.1,1,0.6,1.3,0.5c0.2-0.2,0.3-0.6,0.5-0.8
				s-0.3-1.5-0.1-1.6c0.2-0.2,2.3,2.1,2.5,1.9c0.2-0.2-0.2-1.3,0-1.4c0.2-0.2-0.7-1.6-0.5-1.8s1.1,0.4,1.3,0.2
				c0.2-0.2,0.9,0.1,1.1-0.1c0.2-0.2,1.2,0.2,1.4,0c0.2-0.2,0.7-0.3,0.9-0.5c0.2-0.2-0.7-1.3-0.6-1.5c0.2-0.3,1.6,0.1,1.7-0.2
				s-1.7-1.5-1.6-1.7c0.1-0.3,1.3-0.4,1.3-0.6c0-0.3,0.7-0.9,0.7-1.2s-2.3,0-2.4-0.3s-0.8,0.4-1,0.2s0.6-1.4,0.4-1.6
				c-0.2-0.1-0.4-0.5-0.7-0.5c-0.3-0.1-0.4-1-0.7-1.1c-0.3,0-0.8,1.3-1.1,1.3c-0.3,0-0.5-0.7-0.8-0.7s-0.6-0.2-0.9-0.2
				s-0.6,0.3-0.8,0.4c-0.3,0-0.3,1.5-0.6,1.6c-0.3,0-1.1-2.4-1.3-2.3c-0.3,0.1,0.1,2.8-0.2,2.9c-0.3,0.1-1.1-2-1.4-1.9s0,2-0.2,2
				c-0.3,0.1-0.7-0.3-1-0.2s-0.1,1.1-0.4,1.2c-0.3,0.1-1.6-2.4-1.9-2.3c-0.3,0.1-0.8-0.2-1,0c-0.3,0.1,0.9,3.1,0.6,3.2
				c-0.3,0.1-0.9-0.5-1.1-0.4c-0.3,0.1-1.2-1-1.5-0.9c-0.2,0.1-0.8-0.2-1.1,0c-0.2,0.2,1.3,3.1,1.1,3.3c-0.2,0.2-1-0.5-1.2-0.3
				s-1.1-0.5-1.3-0.3c-0.2,0.2-0.3,0.6-0.5,0.8s0.5,1.4,0.2,1.6c-0.2,0.2-2.3-1.6-2.5-1.4c-0.2,0.2,1.4,2.2,1.2,2.4
				c-0.2,0.2-2.4-1.4-2.6-1.2s2.1,2.4,1.9,2.6c-0.2,0.2-2.1-0.8-2.2-0.5c-0.2,0.3,1.4,1.4,1.3,1.6c-0.1,0.3-2.8-0.5-2.9-0.3
				c-0.1,0.3-0.2,0.8-0.2,1.1s1.2,0.7,1.2,1C257.6,63.7,258.8,63.4,259,63.7z"/>
		</g>
		<g class="st57">
			<path class="st59" d="M257.5,74.4c0.1,0.3,0.1,0,0.4,0.2c0.2,0.2-1.3,2.8-1.1,2.9c0.2,0.1,1.4-1.5,1.7-1.4c0.3,0.1,0.2,2,0.5,2
				s0.7-0.5,1-0.5s0.6,1,0.9,1s0.7,0,1,0s0.3-3,0.6-3.1c0.3,0,0.4-0.8,0.7-0.8c0.3,0,0.6,0.3,0.9,0.3c0.3-0.1,0.9,1.5,1.2,1.5
				c0.3-0.1,0.1-1.8,0.4-1.9s0.3-0.6,0.6-0.7c0.3-0.1,1.3,2.2,1.6,2.1c0.3-0.1-0.3-2.2,0-2.3c0.3-0.1,1.4,2,1.7,1.8
				c0.3-0.1,0.2-0.9,0.5-1.1c0.3-0.1,0.2-0.9,0.4-1c0.3-0.1,0-1.2,0.2-1.4c0.3-0.1,2,2.4,2.2,2.2c0.2-0.1,0.9,0.2,1.1,0.1
				c0.2-0.2-1-2.6-0.7-2.7c0.2-0.2,1.5,1.2,1.7,1s-0.5-1.6-0.2-1.8c0.2-0.2,2,1.6,2.3,1.5c0.2-0.2-1-2.1-0.8-2.3
				c0.2-0.2,0.7-0.1,0.9-0.3c0.2-0.2-0.5-1.3-0.3-1.5s1.5,0.6,1.7,0.4s0.2-0.6,0.4-0.8c0.2-0.2-0.3-0.9-0.1-1.1
				c0.2-0.3,1.6,0.2,1.7,0c0.1-0.3-0.2-0.8-0.1-1.1c0.1-0.3,1.4-0.4,1.5-0.7c0-0.3-2.7-0.6-2.8-0.9c0-0.3,1-0.6,0.8-0.9
				c-0.1-0.3-0.4-0.3-0.6-0.5s-0.4-0.3-0.6-0.4c-0.2-0.1-0.9,1.2-1.1,1.1c-0.3-0.1,0-1.9-0.3-2c-0.3,0-0.6,0.6-0.9,0.6
				s-0.5-1.2-0.8-1.2s-0.5,1.1-0.8,1.1s-0.4,1.1-0.7,1.1c-0.3,0-0.7-1.1-1-1.1s-0.3,1.3-0.6,1.3c-0.3,0.1-0.7-0.5-0.9-0.5
				c-0.3,0.1-0.5,0.1-0.8,0.2c-0.3,0.1-0.9-0.9-1.1-0.8c-0.3,0.1-0.4,0.5-0.7,0.6c-0.3,0.1,0,1.5-0.3,1.6s-1.7-2.6-2-2.4
				c-0.3,0.1-0.1,1.3-0.3,1.4c-0.3,0.1,0.2,1.8,0,1.9c-0.3,0.1-1-0.6-1.2-0.5c-0.3,0.1-0.9-0.4-1.1-0.2c-0.2,0.1-1.1-0.6-1.3-0.4
				c-0.2,0.2-0.7,0-1,0.2c-0.2,0.2,0.2,1.4,0,1.6s-1.3-0.8-1.6-0.6c-0.2,0.2,0.9,2.1,0.6,2.2c-0.2,0.2-1.2-0.5-1.4-0.3
				c-0.2,0.2-0.9-0.1-1.1,0.1s1.2,2,1,2.2s0.3,1,0.2,1.2c-0.2,0.2-1.5-0.5-1.7-0.3s-0.5,0.3-0.7,0.6c-0.2,0.3-1.1,0.1-1.2,0.4
				s1,1.1,0.9,1.4s-0.8,0.4-0.8,0.7c0,0.3-0.2,0.7-0.2,1C255.6,74.5,257.4,74.1,257.5,74.4z"/>
		</g>
		<g class="st57">
			<path class="st60" d="M265.2,81.8c0.1,0.3-0.6,0.6-0.4,0.8c0.2,0.2-0.8,2.2-0.6,2.4c0.2,0.1,1.3-1.3,1.6-1.2c0.3,0.1,0.5,0,0.8,0
				s0.5-0.3,0.8-0.3s0.5,2.1,0.8,2.1s0.5-1.6,0.8-1.6s0.8,1.7,1.1,1.6c0.3,0,0.4-1.1,0.7-1.1c0.3,0,0.5-0.4,0.8-0.5s1,1.5,1.3,1.4
				s-0.2-2.8,0.1-2.9c0.3-0.1,0.8,0.8,1.1,0.7c0.3-0.1,0.8,0.6,1.1,0.5c0.3-0.1,0-1.5,0.3-1.7c0.3-0.1,1.1,1.1,1.3,1
				c0.3-0.1,0.1-1.2,0.4-1.3c0.3-0.1,0-1.2,0.3-1.3c0.3-0.1,0.7,0.2,0.9,0c0.3-0.1,1.3,1.1,1.5,1s0.1-0.9,0.4-1.1
				c0.2-0.2,0.1-0.9,0.3-1c0.2-0.2,0.7,0,0.9-0.1c0.2-0.2,0.1-0.7,0.4-0.9c0.2-0.2,1.6,1.1,1.8,0.9c0.2-0.2,0.2-0.7,0.4-0.9
				c0.2-0.2,1,0.2,1.2,0s-1.5-2.3-1.3-2.5s0.2-0.5,0.4-0.7c0.2-0.2,2.7,1.4,2.9,1.2c0.2-0.2-1.2-1.6-1.1-1.8c0.2-0.3,2,0.4,2.1,0.1
				s-0.2-0.9-0.1-1.2c0.1-0.3-1.7-2-1.9-2.3c-0.1-0.3-0.6,0.3-0.8,0.1c-0.2-0.2,0.2-0.5-0.1-0.6c-0.2-0.1,0.3-1.8,0-1.9
				s-0.9,1.5-1.2,1.4c-0.3,0-0.5,0.5-0.8,0.4c-0.3,0-0.4-2.5-0.7-2.5c-0.3,0-0.4,2.2-0.7,2.2c-0.3,0-0.8-2.3-1.1-2.3
				c-0.3,0-0.5,0.8-0.8,0.9c-0.3,0-0.4,0.8-0.7,0.9c-0.3,0.1-0.2,1.2-0.5,1.3c-0.3,0.1-1.4-2.8-1.6-2.7c-0.3,0.1-0.8-0.4-1.1-0.3
				c-0.3,0.1,0.4,2.7,0.1,2.8c-0.3,0.1-1.2-1.5-1.5-1.4s0.1,1.7-0.2,1.8c-0.3,0.1-1.6-2.1-1.9-1.9c-0.3,0.1,0.5,2.3,0.2,2.4
				s-0.7,0-0.9,0.1c-0.3,0.1,0.2,1.4-0.1,1.6c-0.2,0.1-1.3-1-1.5-0.8s-0.4,0.5-0.6,0.6c-0.2,0.2-0.1,0.9-0.3,1.1
				c-0.2,0.2-1.3-0.9-1.6-0.7c-0.2,0.2-0.1,0.8-0.4,1c-0.2,0.2-1.3-0.6-1.5-0.4s1.5,2.4,1.3,2.6s-1.2-0.4-1.3-0.2
				c-0.2,0.2-0.2,0.6-0.4,0.8c-0.2,0.2-0.3,0.5-0.5,0.7s0.9,1.2,0.8,1.4c-0.2,0.3-1.9-0.5-2-0.2s0.4,0.7,0.3,1s-1.3,0.3-1.3,0.5
				c0,0.3,1,0.6,1,0.8C264.2,81.9,265.1,81.5,265.2,81.8z"/>
		</g>
		<path class="st61" d="M287.7,55.3c-0.3-0.3-0.6-1.3-0.9-1.3s-0.4,1.1-0.7,1.2c-0.3,0-0.3,1.1-0.6,1.2c-0.3,0.1-0.6-0.3-0.9-0.3
			c-0.3,0.1-1-1.4-1.3-1.3c-0.3,0.1-0.3,0.9-0.6,1c-0.3,0.1-0.3,0.8-0.6,0.9c-0.3,0.1-0.7-0.2-0.9-0.1c-0.3,0.1-0.3,0.7-0.6,0.8
			c-0.3,0.1-1.3-1.4-1.5-1.3c-0.3,0.1-0.3,0.7-0.6,0.8c-0.3,0.1-0.9-0.5-1.2-0.3c-0.3,0.1,0.8,2.6,0.6,2.8c-0.2,0.1-0.4,0.4-0.6,0.6
			c-0.2,0.2-2.1-2.2-2.4-2.1c-0.2,0.2,0.6,1.9,0.4,2.1c-0.2,0.2-1.6-1.2-1.8-1c-0.2,0.2-0.1,0.8-0.4,1c-0.2,0.2-1.1-0.3-1.3-0.1
			c-0.2,0.2-0.5,0.4-0.7,0.6c-0.2,0.2,1.7,2.5,1.5,2.7s0.2,0.8,0,1.1c-0.2,0.2-0.6,0.1-0.8,0.3c-0.2,0.2-1.7-0.5-1.9-0.3
			c-0.2,0.3,1.2,1.3,1.1,1.5c-0.1,0.3,0.3,0.5,0.2,0.8c-0.1,0.3-2.5-0.1-2.6,0.2c0,0.3,2.1,0.5,2.1,0.7c0,0.3-2.7,1.4-2.6,1.7
			c0.1,0.3,2-0.6,2.2-0.4s-0.9,2.5-0.6,2.6c0.2,0.1,1.4-1.3,1.7-1.2c0.3,0.1,0.3,1.5,0.6,1.6c0.3,0,0.8-1.5,1.1-1.5
			c0.3,0,0.6,0.8,0.9,0.8s0.6,0.1,0.9,0.1s0.4-1.8,0.7-1.8c0.3,0,0.7,0.9,1,0.8c0.3,0,0.6,0,0.9,0c0.3-0.1,0.3-1.3,0.5-1.4
			c0.3-0.1,0.7,0.5,1,0.4s0.3-0.8,0.6-0.9c0.3-0.1,0.2-0.9,0.5-1s1.5,2.2,1.7,2.1c0.3-0.1,0.7,0.2,1,0.1s0-1.5,0.2-1.6
			c0.3-0.1,0.6-0.1,0.8-0.2c0.3-0.1,0.5-0.3,0.8-0.4s0.8,0.2,1.1,0.1c0.2-0.1,0.1-1,0.3-1.2c0.2-0.2,1.4,1.1,1.6,0.9s-1.2-2.8-1-3
			c0.2-0.2,0.2-0.6,0.4-0.8c0.2-0.2,0.8,0.1,1,0l0,0L287.7,55.3z"/>
		<path class="st62" d="M288,85.7c0.1-0.2,1.3,0.2,1.8,0.2l-0.9-13.8c-0.3,0.4-0.7,1.1-0.9,1c-0.3,0-0.4-0.9-0.7-0.9
			c-0.3,0-0.6-0.1-0.9-0.1s-0.3,1.2-0.6,1.2c-0.3,0.1-0.7-0.4-0.9-0.3c-0.3,0.1-0.3,0.7-0.5,0.8c-0.3,0.1-0.1,0.9-0.4,1
			c-0.2,0.1-1.7-1.8-1.9-1.6c-0.2,0.2-0.8,0-1,0.1c-0.2,0.2,0.3,1.4,0.1,1.6c-0.2,0.2-0.5,0.2-0.8,0.4c-0.2,0.2-0.4,0.4-0.6,0.6
			s-0.8,0-1,0.2s0.2,0.9,0,1.2c-0.2,0.2-1.6-0.6-1.7-0.3c-0.2,0.2,1.8,2.2,1.6,2.4c-0.2,0.2,0,0.6-0.2,0.9c-0.2,0.2-0.7,0.1-0.9,0.4
			c-0.2,0.2-1.4-0.2-1.5,0c-0.2,0.2-0.2,0.6-0.3,0.8c-0.1,0.3,0.9,1.1,0.8,1.4s-0.9,0.1-1,0.4s-2.1-0.3-2.2-0.1
			c-0.1,0.3,1.3,1.2,1.2,1.4c-0.1,0.3-0.1,0.6-0.1,0.8c-0.1,0.3,0.2,0.6,0.1,0.9s-2,0.1-2.1,0.4s1.3,0.9,1.3,1.2
			c-0.1,0.3-1.7,0.4-1.7,0.7c0,0.3,0.9,0.7,0.9,1s0.3,0.6,0.3,0.9s-1.5,0.8-1.5,1.1c0,0.3,2.6,0.1,2.7,0.4s-0.7,0.8-0.6,1
			c0.1,0.3-0.4,0.9-0.3,1.2c0.2,0.2,1.4-0.3,1.6-0.1c0.2,0.2-1,2.2-0.7,2.4c0.2,0.2,1.9-2.4,2.2-2.2c0.3,0.1,0.2,0.6,0.5,0.6
			s0.4-0.7,0.7-0.7c0.3,0,0.8,3.4,1.1,3.3c0.3,0,0-2.8,0.3-2.9s1.3,2.2,1.6,2.1c0.3-0.1-0.4-2.5-0.1-2.6s1.2,1.1,1.5,1
			c0.2-0.1-0.3-1.6-0.1-1.8c0.2-0.2,0.1-0.8,0.3-1c0.2-0.2,1.1,0.7,1.4,0.5c0.2-0.2,1.4,0.7,1.6,0.5s0.4-0.4,0.6-0.6
			s0.7-0.2,0.9-0.4c0.2-0.2-0.6-1.4-0.4-1.6s0.1-0.7,0.3-0.9c0.2-0.2,0.8-0.1,1-0.3c0.2-0.2-1.2-1.6-1.1-1.8
			c0.2-0.2,0.8-0.1,0.9-0.3c0.2-0.2,1.4,0.2,1.5,0C288.9,86.9,287.8,86,288,85.7z"/>
		<path class="st63" d="M289,94.8c0.1-0.2,0.9,0.2,1.4,0.3l-1.1-16c-0.3-0.1-0.6-1.1-0.9-1s-1-1.2-1.3-1.1s-0.6,0.3-0.8,0.4
			c-0.3,0.1-0.8-0.1-1,0.1c-0.2,0.1,0.2,1.5-0.1,1.6c-0.2,0.2-0.3,0.6-0.5,0.8c-0.2,0.2-0.8-0.1-1,0.1s0.8,1.8,0.6,2
			c-0.2,0.2-0.8-0.1-1,0.1s-1.3-0.5-1.5-0.3s0.6,1.3,0.4,1.6c-0.2,0.2-1.7-0.8-1.9-0.5c-0.2,0.2-0.2,0.6-0.3,0.8
			c-0.2,0.2-1.4-0.3-1.5,0c-0.2,0.2,0.7,1.2,0.5,1.5c-0.2,0.2-1.2-0.1-1.4,0.2c-0.2,0.2-0.3,0.5-0.4,0.8s-0.7,0.3-0.9,0.6
			c-0.1,0.3-0.1,0.7-0.2,0.9c-0.1,0.3,2.2,1.6,2.1,1.9s-2.7-0.5-2.8-0.2c-0.1,0.3-0.1,0.6-0.2,0.9s1.6,1.1,1.5,1.4s-2.4,0-2.4,0.3
			c-0.1,0.3,1.4,0.9,1.4,1.2c-0.1,0.3-1.3,0.4-1.4,0.7c0,0.3,1.4,0.7,1.4,1s-0.7,0.6-0.7,0.9s-0.1,0.7,0,0.9c0,0.3,1.7,0.3,1.7,0.5
			c0.1,0.3-0.7,0.8-0.6,1c0.1,0.3,0.1,0.6,0.3,0.8c0.2,0.2,1.1-0.3,1.3-0.1c0.2,0.2,0.3,0.2,0.5,0.4c0.2,0.2-0.5,2.3-0.3,2.4
			c0.3,0.1,1.2-2.1,1.5-2c0.3,0,0.4-0.5,0.7-0.5c0.3,0,0.6,1.7,0.9,1.6c0.3,0,0.2-1.6,0.5-1.6c0.3-0.1,0.8,1,1.1,0.9
			c0.3-0.1,1.3,1.5,1.6,1.4c0.3-0.1-0.1-1.7,0.1-1.8c0.2-0.1,0.8,0.2,1.1,0c0.2-0.2,0-1,0.2-1.2s0.7-0.1,0.9-0.2
			c0.2-0.2,0.2-0.6,0.5-0.8c0.2-0.2-0.1-0.9,0.2-1.1c0.2-0.2,0.1-0.7,0.3-0.9c0.2-0.2,2.2,1.2,2.3,1C289.9,96.4,288.8,95.1,289,94.8
			z"/>
		<path class="st64" d="M289.1,81.4c0.2-0.2-0.7-1.2-0.5-1.5c0.1-0.1,0.4,0,0.7,0.1l-1.1-16.1c-0.1,0.2-0.2,0.4-0.4,0.4
			c-0.3,0-0.6-0.2-0.9-0.2c-0.3,0.1-0.4,0.5-0.7,0.6c-0.3,0.1-0.2,0.8-0.5,1c-0.3,0.1-0.2,0.6-0.5,0.7c-0.2,0.1-1.7-1.8-2-1.6
			c-0.2,0.2,0.5,1.7,0.3,1.9c-0.2,0.2-1.4-0.9-1.6-0.7c-0.2,0.2-0.8,0.1-1,0.3c-0.2,0.2-0.7,0.2-0.9,0.4c-0.2,0.2-0.2,0.7-0.4,0.9
			c-0.2,0.2,1.5,2.1,1.3,2.4c-0.2,0.2-2.2-1.2-2.4-0.9c-0.2,0.2,1.4,1.8,1.2,2.1c-0.2,0.2-1.9-0.7-2.1-0.5s0.3,0.9,0.1,1.1
			c-0.2,0.2,1.3,1.5,1.2,1.7c-0.2,0.2-0.6,0.2-0.8,0.5c-0.1,0.3-0.4,0.4-0.5,0.6c-0.1,0.3-0.7,0.2-0.9,0.5c-0.1,0.3-1,0.2-1.2,0.4
			c-0.1,0.3-0.7,0.4-0.8,0.6c-0.1,0.3-1,0.3-1,0.6c-0.1,0.3,2.7,1.4,2.6,1.7c-0.1,0.3-0.6,0.4-0.6,0.7c-0.1,0.3,0.7,0.7,0.6,0.9
			c-0.1,0.3-3.5,0.1-3.5,0.4s2.7,0.8,2.7,1.1c0,0.3-2.5,0.6-2.5,0.9s2.5,0.4,2.5,0.7c0,0.3-1.4,0.8-1.3,1.1c0.1,0.3,1.6,0,1.7,0.3
			s0.7,0,0.9,0.3c0.2,0.2-0.7,1.1-0.5,1.3c0.2,0.2-0.1,1.1,0.1,1.2c0.2,0.2,1-0.8,1.3-0.7c0.3,0.1,0.3,1,0.5,1.1
			c0.3,0,0.6-1.8,0.9-1.8s0.8,3,1.1,2.9c0.3,0,0.4-1.3,0.7-1.3c0.3-0.1,0-1.6,0.3-1.7s0.3-0.4,0.6-0.6c0.3-0.1,1,0.8,1.2,0.7
			c0.2-0.1,0.5-0.2,0.7-0.4c0.2-0.2-0.3-1.4-0.1-1.5c0.2-0.2,1.9,1.6,2.1,1.4s0.9,0.2,1.2,0c0.2-0.2,0.7-0.2,0.9-0.4
			c0.2-0.2,0.4-0.5,0.6-0.7s-0.7-1.5-0.5-1.7s1.5,0.5,1.6,0.2C289.5,82.4,289,81.6,289.1,81.4z"/>
		<path class="st64" d="M286.9,57c0.1-0.1,0.5,0.2,0.9,0.5l-0.7-10l-7.9,0.5c0,0.1,0,0.1-0.1,0.2c-0.1,0.3-0.4,0.4-0.5,0.7
			s-0.4,0.4-0.5,0.7s-0.3,0.5-0.4,0.7c-0.1,0.3-2-0.2-2.1,0.1s2.2,1.4,2.1,1.7s-2.4-0.1-2.4,0.2c-0.1,0.3,2.1,1.2,2.1,1.4
			c-0.1,0.3,0.4,0.6,0.3,0.9c-0.1,0.3-1.8,0.3-1.8,0.6s1.5,0.6,1.4,0.9c0,0.3-1.2,0.5-1.2,0.8s-1.8,0.8-1.8,1.1s1.6,0.4,1.7,0.6
			c0.1,0.3-0.4,0.8-0.3,1c0.1,0.3,1,0.2,1.2,0.4s0.1,0.7,0.3,0.9c0.2,0.2,0.5,0.3,0.8,0.4c0.2,0.2,0.2,1,0.5,1.1s1-1.9,1.3-1.8
			c0.3,0,0.3,1.9,0.6,1.9c0.3,0,0.4-1.7,0.7-1.8c0.3,0,1.1,2.3,1.3,2.3c0.3-0.1,0.1-1.6,0.4-1.7c0.3-0.1,0.5-0.3,0.7-0.4
			c0.3-0.1,1.5,1.7,1.8,1.5c0.2-0.1-0.8-2.5-0.5-2.6c0.2-0.2,0.2-0.6,0.5-0.8c0.2-0.2,0-0.8,0.3-1c0.2-0.2,1.2,0.7,1.4,0.5
			C287.3,58.2,286.7,57.2,286.9,57z"/>
		<path class="st65" d="M286.5,47.8c0.1-0.1,0.4,0.1,0.8,0.3v-0.5l-16.1,1.1c0.1,0.3,0.2,0.5,0.2,0.6c-0.1,0.1-0.5-0.2-1-0.5
			l-1.6,0.1c0,0.1,0,0.2,0,0.2c-0.2,0.2,1,1.5,0.8,1.7s0,0.5-0.1,0.8c-0.2,0.3-1.3-0.2-1.5,0c-0.1,0.3-0.3,0.4-0.4,0.7
			s1.3,0.7,1.2,0.9c0,0.3-2.6,0.4-2.6,0.7s1.2,0.3,1.3,0.5c0.1,0.3,0.5,0.1,0.7,0.3s0.1,0.5,0.4,0.6c0.2,0.1,0.1,1.2,0.4,1.2
			c0.3,0.1,0.6,0,0.9,0s0.5,1.3,0.8,1.3s0.7-1.7,1-1.7s0.7,2.1,1,2.1s0.2-3.6,0.5-3.6s0.9,2.4,1.2,2.3c0.3,0,0.2-1.7,0.5-1.8
			s0.3-0.9,0.6-1c0.3-0.1,1.1,2,1.4,1.9s0.7,0.4,1,0.3c0.3-0.1,0.6-0.1,0.9-0.2c0.3-0.1,0.2-1.1,0.5-1.2c0.3-0.1-0.2-1.8,0.1-2
			c0.3-0.1,0.3-0.5,0.6-0.6c0.3-0.1,1.9,2.6,2.2,2.5c0.3-0.1-0.1-1.5,0.1-1.7c0.3-0.1-0.2-1.4,0.1-1.6c0.2-0.1,1.4,1.3,1.7,1.1
			c0.2-0.2-0.8-2.3-0.6-2.5c0.2-0.2,2.2,2.2,2.4,2c0.2-0.2,0.6-0.3,0.8-0.4c0.2-0.2-1.4-2.7-1.2-2.9c0.2-0.2,1.1,0.5,1.3,0.3
			C287,49.1,286.3,48,286.5,47.8z"/>
		<g class="st57">
			<path class="st66" d="M237.7,50.9C237.7,50.8,237.7,50.8,237.7,50.9l-4.1,0.2c0.1,0.3,0.2,0.6,0.1,0.7c-0.2,0.2-1.3-0.7-1.5-0.5
				s0.1,1.1-0.1,1.3c-0.2,0.2-0.1,0.7-0.3,0.9s-1.3-0.5-1.5-0.3s-0.6,0.2-0.8,0.4s-0.5,0.4-0.6,0.6c-0.2,0.2,0,0.8-0.2,1
				s0.4,1.1,0.2,1.3s-0.2,0.6-0.4,0.8s-1.8-0.5-1.9-0.3c-0.2,0.2,0.3,0.9,0.2,1.2c-0.2,0.3,0.3,0.9,0.2,1.1
				c-0.1,0.3-1.2,0.1-1.3,0.3c-0.1,0.3,1,1,0.9,1.2c-0.1,0.3-1.7,0.3-1.7,0.6s1.2,0.1,1.3,0.3c0.2,0.2,0,0.8,0.4,0.7
				c0.2,0,0.7,0.5,1.1,0.4c0.2-0.1,0.2-1,0.5-1.2c0.2-0.1,1.1,0.7,1.3,0.5c0.2-0.1,0.6-0.2,0.9-0.3c0.2-0.2-0.1-1.1,0.2-1.3
				c0.2-0.2,0.5-0.3,0.7-0.5s0.5-0.3,0.7-0.5s0.6-0.2,0.9-0.4c0.2-0.2-0.2-1,0-1.2s1.4,0.5,1.6,0.3c0.2-0.2-0.4-1.2-0.2-1.4
				s-0.3-1-0.1-1.2s0.3-0.5,0.5-0.7s1.2,0.2,1.4,0s0.1-0.6,0.3-0.9c0.2-0.2,1-0.1,1.1-0.3c0.2-0.3,0.4-0.5,0.5-0.7
				c0.1-0.3,0.1-0.7,0.2-0.9C238.2,51.7,237.7,51.2,237.7,50.9z"/>
		</g>
		<g class="st57">
			<path class="st67" d="M235.6,71.6c0.2,0.2,0.7-0.3,1.1-0.3c0.2,0,0.3-0.4,0.6-0.6c0.2-0.1,0.9,0.8,1.2,0.6c0.2-0.1,0.2-0.8,0.5-1
				c0.2-0.1,0.8,0.2,1,0s0.4-0.4,0.7-0.6c0.2-0.2,0-0.9,0.3-1.1c0.2-0.2,0.6-0.2,0.8-0.4c0.2-0.2,0.1-0.7,0.3-0.9
				c0.2-0.2,1.1,0.3,1.3,0.1c0.2-0.2-0.4-1.2-0.2-1.4c0.2-0.2,1.3,0.4,1.5,0.2c0.2-0.2-0.6-1.3-0.4-1.5c0.2-0.2,0.9,0,1.1-0.2
				c0.2-0.2,0.1-0.7,0.3-0.9s0-0.7,0.2-0.9s0.4-0.4,0.6-0.6c0.2-0.3,0.1-0.5,0.3-0.8c0.1-0.3,0.8-0.2,0.9-0.5
				c0.1-0.3-0.2-0.6-0.1-0.9c0.1-0.3,0.8-0.4,0.8-0.7s0.3-1.1,0.2-1.3c-0.2-0.2-0.9,0.5-1.2,0.5c-0.2,0-0.8-1-1.1-0.9
				c-0.2,0.1-0.7,0.1-1,0.2c-0.2,0.1-0.1,1.1-0.3,1.3c-0.2,0.1-0.5,0.2-0.8,0.4c-0.2,0.2-0.5,0.3-0.8,0.4c-0.2,0.2-0.7,0.1-0.9,0.3
				s0.1,1-0.1,1.2c-0.2,0.2-1.3-0.6-1.6-0.4c-0.2,0.2,0.3,1.2,0.1,1.4s0.2,1,0,1.2s-0.3,0.5-0.5,0.7s-1.2-0.3-1.4-0.1
				c-0.2,0.2-0.2,0.6-0.3,0.8c-0.2,0.2-1,0-1.2,0.2s-0.4,0.4-0.6,0.7c-0.2,0.2-0.1,0.6-0.3,0.9s0.3,0.8,0.1,1.1
				c-0.1,0.3-0.1,0.6-0.2,0.8c-0.1,0.3-0.4,0.5-0.4,0.7c-0.1,0.3-0.7,0.5-0.7,0.8C235.3,70.9,235.4,71.4,235.6,71.6z"/>
		</g>
		<path class="st54" d="M225.5,88.7c0,0-0.1-1.4-1.3-1.4c-1.4,0.1-1.3,1.5-1.3,1.5L223,93h0.2L225.5,88.7z"/>
		<path class="st55" d="M225.7,88.6c0,0-0.1-1.4-1.3-1.4c-1.4,0.1-1.3,1.5-1.3,1.5l0.1,4.1l2.5-0.4V88.6z"/>
		<polygon class="st68" points="234.2,87.4 231.4,87.5 230.8,79.4 233.7,78.9 		"/>
		<polygon class="st68" points="251.5,85.8 249.7,86 249,74.8 250.8,74.4 		"/>
		<polygon class="st68" points="254,85.7 252,85.8 251.4,74.3 253.4,73.9 		"/>
		<path class="st54" d="M237.5,89.2c0,0-0.3-2.8-2.5-2.7c-2.7,0.1-2.6,3-2.6,3l0.2,8.2h0.4L237.5,89.2z"/>
		<path class="st55" d="M238,89.2c0,0-0.3-2.8-2.5-2.7c-2.7,0.1-2.6,3-2.6,3l0.2,8.2l5-0.9L238,89.2z"/>
	</g>
	<polygon class="st8" points="289.5,51.5 200.4,56.9 197.1,35 286.1,29.5 	"/>
	<g>
		<path class="st13" d="M196.2,105.2c15.5,11.7,4.7,26-10.8,14.4C169.9,107.8,180.6,93.6,196.2,105.2z"/>
		<path class="st2" d="M185.9,117.5c-4.8-4.8-7.2-10.9-6.1-15.1c-9.2,9.2,11.2,21.8,19.4,25.4l2.8-3.5
			C198.3,124.1,189.8,121.4,185.9,117.5z"/>
		<path class="st14" d="M185.8,101c8,1.7,18.1,14,13.2,19.7c-1.4,1.9,1.6,3.3,3.6,0.7C208.2,114.5,194.4,100.7,185.8,101z"/>
	</g>
	<polygon class="st69" points="202.1,146.2 201.3,139.4 194.8,145 	"/>
	<path class="st70" d="M200.4,97.9l4.6,101.9l92.5-0.1c0,0-3.4-59-6.2-107.3L200.4,97.9z"/>
	<polygon class="st70" points="205,199.8 205,199.8 201.4,199.8 	"/>
	<g>
		<polygon class="st71" points="281,164.3 286,169.8 288.5,197.8 292.9,197.6 286.3,160.1 		"/>
		<polygon class="st71" points="272.8,171.6 276.8,169 272.8,165.2 271.5,166.3 272.3,167.4 263.8,173.2 264.1,174.4 259.1,176.5 
			261.2,180.7 264.3,179.6 264.7,180.3 268.1,178.6 267.5,177 270.7,174.6 272.7,177.3 270.8,178.8 273.3,182.4 278.1,179 		"/>
		<polygon class="st71" points="265.9,107.1 263.9,102.9 260.3,103.7 263.6,115.5 267.7,114.7 		"/>
		<polygon class="st71" points="271,188.6 267.5,191.3 268.6,193.7 270.3,194.1 270.6,196.2 278.1,198.2 		"/>
		<polygon class="st71" points="287.3,124.8 288.3,125.8 287.9,122.7 286.9,123 		"/>
		<polygon class="st71" points="256.4,150.2 256.8,152 254.3,152.5 253.8,151 252.6,151.4 253.6,155.9 257.8,155.1 257.6,153.3 
			258.8,153.2 259,154 262.6,153.3 261.7,149.1 		"/>
		<polygon class="st71" points="243.9,174.8 238.3,179 241.1,182.7 243.5,181 244.8,182.8 248,180.3 		"/>
		<polygon class="st71" points="276.4,96.5 275.4,93.3 272.6,93.5 272.7,94.3 268.8,96 269.6,99.5 274.6,97.8 275.3,99.9 
			278.7,98.6 278,96.2 		"/>
		<polygon class="st71" points="253.9,187.4 248.2,191.7 250.8,195.1 253.1,193.9 254,194.2 257.1,191.9 		"/>
		<polygon class="st71" points="243.6,142 244.1,142.6 246.8,141.9 244.9,134.6 240.2,135.7 241.6,140.8 		"/>
		<polygon class="st71" points="256.4,102.5 259.5,101.9 258.7,97.9 254.4,98.8 254.3,99.7 253.4,100 		"/>
		<polygon class="st71" points="283.2,92.8 283.4,93.9 281.5,94.4 283.4,100.2 284.4,100.1 285.2,101.3 287.4,100.6 285.4,92.7 		
			"/>
		<polygon class="st71" points="224.7,185.4 221.9,187.2 222.3,188 221.7,188.4 220.9,187.9 218.1,189.6 220.4,193 227.2,188.4 		
			"/>
		<polygon class="st71" points="287.8,139.3 288.5,142.4 287.8,142.6 287.2,141.1 284.3,141.7 285.3,146 287.7,145.2 288.2,145.8 
			289.4,145.5 289.3,144.3 289.9,144.1 289.6,138.9 		"/>
		<polygon class="st71" points="264.3,131.4 263.6,128.1 266.2,127 265.6,124.4 259.6,125.8 261.1,132.2 		"/>
		<polygon class="st71" points="255,123.6 251.8,123.9 252.5,126.7 254.6,128 258.6,127 257.3,122 		"/>
		<polygon class="st71" points="270.2,141.6 267.9,142.1 268.3,144.5 263.7,145.6 264.6,149.6 269.9,148.7 269,144.4 270.9,143.8 		
			"/>
		<polygon class="st71" points="244.9,134 243.8,129.1 238,130.7 239.1,135.4 		"/>
		<polygon class="st71" points="237.5,127.8 242.7,126.5 242.3,124.6 236.3,124.9 		"/>
		<polygon class="st71" points="251.6,151.9 249.5,152.4 248.9,151.1 246.3,151.7 248.2,158.2 252.1,157.3 251.9,156.3 252.4,155.9 
					"/>
		<polygon class="st71" points="272.6,125.2 271.8,121.3 266.5,122.5 267.1,125.3 270,124.7 272.4,128.9 275.4,128.2 274.8,125.5 		
			"/>
		<polygon class="st71" points="269.4,107.3 270.3,110.9 277.9,109.1 277,105.5 		"/>
		<polygon class="st71" points="281.2,116.4 273.7,118.1 274.5,121.7 282,119.9 		"/>
		<polygon class="st71" points="231.8,110.2 233.1,110.1 232.7,103.9 230.7,104.2 		"/>
		<polygon class="st71" points="279.2,141.7 275,142.1 276.4,148.1 278.9,147.7 278.9,146.9 280.2,146.6 		"/>
		<polygon class="st71" points="247.3,142.5 243,144.3 244.4,149.5 248.9,148.3 		"/>
		<polygon class="st71" points="228.8,182.1 226,184.3 232,188.7 233.4,187.6 		"/>
		<polygon class="st71" points="249.6,188.9 252.6,186.6 248.9,182.2 245.8,184.5 		"/>
		<polygon class="st71" points="232.6,178.9 230.9,180.2 231.1,180.9 230.1,181.8 234.6,185.7 236.9,183.9 		"/>
		<polygon class="st71" points="265.7,130.8 266.2,136.3 269.7,135.8 269.5,132.5 270.9,132.3 270.8,130.3 		"/>
		<polygon class="st71" points="283.4,168.6 279.8,165.1 277,164.6 276.8,164.9 277.6,166.1 277,166.9 279.2,169.7 281.2,168.3 		
			"/>
		<polygon class="st71" points="253.5,129.7 246.4,131.9 247.2,134.4 254.3,132.3 		"/>
		<polygon class="st71" points="257.7,192.2 253.4,195.2 255.7,198.3 259.9,195.3 		"/>
		<polygon class="st71" points="280.9,137.5 280.8,136.9 281.9,136.7 281.9,136.7 281.9,135.9 285.9,131.9 285.2,130.4 279,135.7 
			279.5,137.8 		"/>
		<polygon class="st71" points="268.5,185.1 265.4,187.6 265.6,188.3 265.1,188.9 266.5,190.9 267.3,191 271,188.2 		"/>
		<polygon class="st71" points="265.4,181.3 262.7,183.4 262.9,184.1 262,184.9 263.5,186.7 264,186.4 264.9,187.1 268,184.8 		"/>
		<polygon class="st71" points="229.7,195.3 224.8,199.2 225.3,199.8 231.3,197.5 		"/>
		<polygon class="st71" points="267.2,98.6 266.4,94.5 265.8,94 263.8,94.5 		"/>
		<polygon class="st71" points="264.9,102 264.7,100 264.2,99.5 259.8,100.4 260.2,102.9 		"/>
		<polygon class="st71" points="267.1,139.2 266.5,136.7 263.8,137.3 264.5,139.8 		"/>
		<polygon class="st71" points="260.3,145.6 260.9,148.3 262.7,147.8 262.1,145.1 		"/>
		<polygon class="st71" points="262.7,198.7 261.4,196.7 258.2,198.9 		"/>
		<polygon class="st71" points="235.2,199.8 234.2,198.3 232,199.8 		"/>
		<polygon class="st71" points="216.7,112.9 221.4,111.8 219.1,105.8 214.9,107.1 		"/>
		<polygon class="st71" points="214.3,97 214.6,97.9 217.1,96.9 217,96.9 		"/>
		<polygon class="st71" points="202.4,98.4 201.6,98.6 202.3,100.9 203.7,100.4 203.1,98.2 		"/>
		<polygon class="st71" points="217,144.9 220.3,144 215.8,131.1 212.7,132 		"/>
		<polygon class="st71" points="226.2,157.7 226.6,159.3 224,160.3 225.6,165.1 230.7,163.9 228.3,157 		"/>
		<polygon class="st71" points="231.8,157.9 232.4,160.3 231.5,160.9 232.2,163.2 237.5,161.8 236.4,157.8 234.6,158.1 233.9,157.2 
					"/>
		<polygon class="st71" points="226.6,140.6 230.8,139.4 229.5,135 225.3,136.1 		"/>
		<polygon class="st71" points="225.7,126.6 222.3,127.7 224.3,134.6 227.7,133.6 		"/>
		<polygon class="st71" points="230.9,141.3 225.8,142.7 226.7,145.9 231.9,144.4 		"/>
		<polygon class="st71" points="230.5,148.3 228.9,149.1 229.4,150.9 234.1,149.5 232.7,146 230.2,146.7 		"/>
		<polygon class="st71" points="226.6,96.3 227.7,98.3 230,97.1 229.4,96.1 		"/>
		<polygon class="st71" points="208.7,97.4 209.8,99.5 212.2,98.5 211.7,97.2 		"/>
	</g>
	<path class="st72" d="M224.7,165.2c-2.2-4.7-7.9-6.7-10.1-11.4c1.4-0.4,2.9-0.9,4.4-1.4c-0.2-0.9-0.4-1.7-0.8-2.7
		c-1.4,0.4-2.8,0.8-4.2,1.3c0.8,0.7-8.4-21.1-4-22.2c-1.3-4.2-4.8-22.6-8.5-28.8l0.1,1.9l-1.3-3.2l4.8,101.1l2-0.1v0.1h11.2
		c-1.6-2.2-4.4-8.4-3.7-7.6c0-5.4,4.6-9.2,7.1-13.6C224.8,175.1,227.1,169.8,224.7,165.2z"/>
	<path class="st8" d="M286.6,154.9c-0.7-5.7-9.8-10.7-4.6-16.6c1.9-1.5,5.1-2.8,4.5-5.8c-0.1-0.4-5.7-23.2-6.9-28.2
		c-0.1-1.2-1.7-0.7-1.2,0.3c0.8,5.1,8.4,29.6,6.4,30.1c-2.5,2-5.8,3.5-5.4,7.1c-0.2,6.8,4.4,7.5,5.6,13.3l-5.4,2.1l-6.8-19.6
		c0,0-0.9-0.4-1.1,0.4l6.5,19.6c0,0-23,5.5-34.2,9.2c-3.3-11.7-6.7-23.2-10-34.8c1.4-0.4,12.4-3.6,12.9-3.7l-1.2-1.1
		c-13.1,2.8-11.2,7.1-14.5-4c37.1-6.1,35.4-8.5-0.4-1.3c-1.5-5.4-3-10.7-4.9-16c-0.2-0.5,0.5-0.9,0.5-0.9s28.1-7.5,37.1-11l-5.4,0.3
		c-12,3.5-32,9.4-32,9.4c-0.7,0.2-0.9,0.1-1.1-0.6c-0.9-2-1.3-4.4-1-6.7l-1.3,0.1c-0.3,8,6,20.2,6.8,25.8
		c-1.4,0.3-13.1,3.7-17.6,5.1c-5.3,1.7-3.8,7.2-3.2,9.1l3.7,11.2c0,0-0.1,1.9-1.6,2.1c0,0-5.8,1.4-7.5,2.2c-0.5,0.3,0.1,1,0.4,1
		l6.9-1.4c1.6-0.5,2.4-1.3,3-2.3c0.2-0.3,3.5-0.6,3.7-0.8c0.7-0.8,0.7-1.1-0.3-1.1c-0.5,0-2.2,0.4-3.2,0.5
		c-7.4-22.6-7.9-17.1,15.9-24.3c4.7,14.4,8.4,29.1,12.9,43.5c-7.8,2.7-18.9,6.5-37.8,21.9l0.3,1.5l4.2-3.3l3.2,4.8
		c0,0-5.7,3.7-6.7,4.3l0.1,1.8c2.1-1.5,7.3-5.1,7.3-5.1l4.8,6.7h1.7l-9.2-13.5c0,0,16.6-13.2,32.5-18c0.3-0.1,16.5,22.4,21.8,29.5
		c0.7,0.8,1.3,1.1,2.2,0.7c-7.6-10.2-15.4-20.1-22.7-30.6c13.5-4.7,27.6-6.9,41.1-11.4c1.3,2.8,3.3,5.4,5.2,7.9
		c0-0.7-0.3-2.2-0.3-2.9c-1.1-1.2-3.4-4.2-3.3-5.2c1-0.1,4.5-0.3,5.5-0.3c0.2-0.4-0.1-1.7-0.1-1.7
		C291.2,154.3,287.9,154.8,286.6,154.9z"/>
	<g>
		<path class="st30" d="M287.4,33.9l4.7,77l6.8,0.4l-3.1-76.6c-0.3-6.8-7.2-9.7-13.2-8.4C282.8,26.1,287.4,33.9,287.4,33.9z"/>
		<path class="st31" d="M291.9,35.1c-0.2-5.3-4.9-9.3-10.2-8.9c-3,0.8-86.7,3.9-86.1,8.4l-1.7,7.1l7.7,158.2h5.7
			c0.6-1.7-9-160.5-7-161.8c1.1-2.2,80.8-4.6,82.4-5.3c1.3-0.1,2.6,1,2.6,2.3c1.7,30.1,6.1,133.5,7.8,164.8h6.6L291.9,35.1z"/>
		<path class="st32" d="M192.8,40.3l7.5,159.6h1.7l-7.6-158c-0.2-5.1,3.6-9.3,8.6-9.7l79.4-6.2c-0.2-0.1-80.8,4.6-81.1,4.5
			C196.3,30.9,192.4,35.3,192.8,40.3z"/>
	</g>
	<path class="st8" d="M204.5,122.4c1.6-1.4-2.1-7.4-2.3-9.7l0.3,5.2c0.3,1.2,1.1,2.3,1,3.5c-0.2,0.1-0.5,0.2-0.7,0.3
		c0,0.2,0.1,1.1,0.1,1.4C203.3,122.8,203.9,122.6,204.5,122.4z"/>
	<polygon class="st71" points="191.1,178.8 191.1,178.8 191.3,178.6 	"/>
	<g>
		<path class="st13" d="M299.8,101.6c-15.9-6.4-10.7,27.9-6.9,33.1c-0.3,4.7,0.2,10.1,1.1,15.4c-5,12.3-3,31.8,1.4,50h21.2
			l-0.3-23.6l-4.3-25.6C308,138.1,303.1,114.7,299.8,101.6z"/>
		<path class="st2" d="M294.7,149.8c-0.9-5.3-1.4-10.5-1.1-15.2c-3.1-5.7-7-29.2,3.2-33.8c-13.1-1-8.7,28.1-5.5,33.8
			c-0.3,4.7,0.2,9.9,1.1,15.2c-5,12.3-1.4,32,3,50.1h2.2C293.3,181.8,289.7,162.1,294.7,149.8z"/>
		<path class="st14" d="M313.6,156.5c0.9-11-4.9-25.1-9.2-36.2c0-6.6-3.4-17.9-4.6-18.8c1.6,5.5,1.7,12.7,2.1,18.8
			c4.6,11.9,11.2,27.2,9,39.6c3.8,7.2,5.2,23.3,5.7,40h0.7C320.7,194.1,318.6,170.4,313.6,156.5z"/>
	</g>
	<g>
		<path class="st13" d="M203.8,156.1c-0.1,15.3-13.6,15.3-13.7,0C190.3,140.8,203.8,140.8,203.8,156.1z"/>
		<path class="st2" d="M191.8,155.5c0.7-5.4,3.3-9.7,6.3-11c-8.5-1.9-10.1,17.3-4.5,21.7C192,163.8,191.2,159.9,191.8,155.5z"/>
		<path class="st14" d="M201.7,147.5c2.6,5.7-0.2,18.1-5.8,17.7c-1.7,0-1.2,2.6,1.2,2.6C203.8,168.1,205.8,152.7,201.7,147.5z"/>
	</g>
	<g>
		<path class="st13" d="M205.7,176.5c1.7,15.2-13.1,16.9-14.8,1.7C189.2,162.9,203.9,161.3,205.7,176.5z"/>
		<path class="st2" d="M192.4,177.4c0.2-5.4,2.6-10,5.7-11.7c-9.2-1-9.2,18.2-2.4,22.2C193.6,185.6,192.3,181.8,192.4,177.4z"/>
		<path class="st14" d="M202.3,168.3c3.5,5.7,1.7,18-4.4,18.3c-1.9,0.2-1.1,2.7,1.6,2.4C206.8,188.5,207.4,173.1,202.3,168.3z"/>
	</g>
	<path class="st13" d="M192.4,199.9h13.7C206.7,183.9,190.1,182.8,192.4,199.9z"/>
	<path class="st2" d="M192.4,199.9h1.3c-0.5-5.1,1.9-11,5.2-12.6C194.1,186.8,191.3,193.7,192.4,199.9z"/>
	<path class="st14" d="M204.4,199.9h1.7c0.2-3.6-1.2-8-3.2-10.2C204.5,192.5,205.1,196.8,204.4,199.9z"/>
	<g>
		<polygon class="st7" points="224.9,43.8 223.9,43.8 224,46 221.6,46.2 221.5,43.9 220.4,44 220.8,49.4 221.7,49.4 221.7,47 
			224.1,47 224.1,49.3 225.2,49.2 		"/>
		<path class="st7" d="M229.8,46.2c-0.9-2-4.2-1.2-4,1c-0.1,2,3.2,2.7,3.9,0.9l-0.9-0.2c-0.4,1-2,0.6-2-0.4l3-0.2
			C230.1,47,230,46.5,229.8,46.2z M226.9,46.7c0-1.2,2-1.4,2-0.1L226.9,46.7z"/>
		<path class="st7" d="M231,48.6c0.4,0.4,1.2,0.2,1.7,0l-0.2-0.8c-1.5,1.2-0.8-4.2-1.1-4.6l-1,0.1C230.5,43.8,230.5,48.4,231,48.6z"
			/>
		<path class="st7" d="M236.5,45.1c-0.7-0.8-2.2-0.6-2.7,0.4v-0.7l-0.9,0.1l0.4,5.6l1.1-0.1l-0.1-2.3
			C235.8,50.2,238.3,46.6,236.5,45.1z M236,47c-0.5,1.6-2.4,0.5-2-0.9C234.5,44.7,236.5,45.7,236,47z"/>
		<polygon class="st7" points="240.3,47.4 240.9,47.4 242.1,44.6 242.3,48.2 243.3,48.1 243.1,42.8 241.9,42.8 240.5,46 238.7,43 
			237.7,43 237.9,48.5 239,48.4 238.8,44.8 		"/>
		<path class="st7" d="M246,47.1l-1.2-3l-1.1,0.1l1.8,3.9c-0.1,0.6-0.4,1.1-1,0.8v0.9c2.4,1,2.6-4.7,3.2-5.9l-1,0.1L246,47.1z"/>
		<path class="st7" d="M248.2,44.1c0.1,1.5,2,1.2,2.9,1.9c0.7,1.4-2,1-2.6,0.4l-0.4,0.9c1.5,1.2,5,0.6,4-1.8
			c-0.5-1.2-2.5-0.4-2.9-1.6c0-1.1,1.7-0.6,2.3-0.2l0.4-0.9C250.7,41.9,248.1,42.2,248.2,44.1z"/>
		<path class="st7" d="M255,46.5c-1.2,0.6-0.7-1.8-0.9-2.2l0.8-0.1v-0.8l-0.8,0.1l-0.1-1.3l-1,0.1l0.1,1.3h-0.5v0.8h0.5
			c0.1,1.6-0.2,4.3,2.3,2.9l-0.2-0.9C255.2,46.4,255.1,46.5,255,46.5z"/>
		<path class="st7" d="M256.9,45c0.2-0.5,0.8-0.7,1.2-0.8l-0.1-1c-0.6,0-1.1,0.4-1.3,1l-0.1-0.8l-0.9,0.1l0.3,4l1-0.1L256.9,45z"/>
		<path class="st7" d="M259.7,47.1c1,0.3,2.2,0,2.7-1l-0.9-0.2c-0.4,1-2,0.6-2-0.4l3-0.2C262.4,40.6,255.3,44.8,259.7,47.1z
			 M261.1,44c0.2,0.2,0.4,0.4,0.4,0.7l-2,0.1C259.3,44,260.4,43.5,261.1,44z"/>
		<path class="st7" d="M264.9,43c-4.4,0.7-0.4,6.6,2,3l-0.9-0.2c-0.4,1-2,0.6-2-0.4l3-0.2C267.2,43.9,266.1,42.8,264.9,43z
			 M264,44.6c0-1.2,2-1.4,2-0.1L264,44.6z"/>
		<path class="st7" d="M269.6,45.7c-1.2,0.6-0.7-1.8-0.9-2.2l0.8-0.1v-0.8l-0.8,0.1l-0.1-1.3l-1,0.1l0.1,1.3h-0.5v0.8h0.5
			c0.1,1.6-0.2,4.3,2.3,2.9l-0.2-0.9C269.7,45.6,269.7,45.7,269.6,45.7z"/>
		
			<rect x="270.5" y="45.4" transform="matrix(0.9984 -5.667285e-02 5.667285e-02 0.9984 -2.1687 15.4266)" class="st7" width="0.8" height="1.1"/>
		<path class="st7" d="M275.5,42.9c-2-1.9-4.9,1.2-2.9,3.1C274.5,47.8,277.5,44.7,275.5,42.9z M275,44.8c-0.4,1.5-2.5,0.4-2-0.8
			C273.6,42.4,275.5,43.5,275,44.8z"/>
		<path class="st7" d="M278.9,42.1c-0.5,0-1,0.5-1.2,1l-0.1-0.8l-0.9,0.1l0.3,4l1-0.1c0-1-0.6-3.4,1.2-3.2L278.9,42.1
			C279,42.1,278.9,42.1,278.9,42.1z"/>
		<path class="st7" d="M282.3,47.6c2-0.5,0.9-4.3,1-5.6l-0.9,0.1v0.7c-4.3-3.4-3.9,6.3,0,2.5c0.4,1.5-1.4,2.3-2.5,1.2l-0.5,0.6
			C280.1,47.8,281.4,47.8,282.3,47.6z M282.3,44.7c-1.2,1.4-2.8-0.9-1.4-1.9C281.9,42.2,282.8,43.9,282.3,44.7z"/>
		<path class="st73" d="M212.1,54.2l-0.1-1.8c1.2-0.1,3.2,0.1,3.1-1.6l-0.5-9.2c0.3-2.7-9.5-0.4-10.8-0.8c-2.7-0.3-0.4,9.5-0.8,10.8
			c0.1,2,3.2,1.2,4.4,1.2C208.3,53.4,211.5,57.4,212.1,54.2z"/>
		<path class="st8" d="M210.4,51l3.2-0.2l-0.5-9.2l-9.2,0.5l0.5,9.2c3.4-0.4,3.7-0.2,6.2,2.2L210.4,51z M206.3,49.5l-0.4-5.8
			l1.4-0.1l0.1,2.1l2.3-0.1l-0.1-2.1l1.4-0.1l0.4,5.8l-1.4,0.1l-0.1-2.1l-2.3,0.1l0.1,2.1L206.3,49.5z"/>
	</g>
	<g>
		<path class="st73" d="M226.4,121.1l-0.1-1.3c0.9-0.1,2.4,0.1,2.3-1.2l-0.4-7c0.2-2-7.2-0.3-8.1-0.6c-2-0.2-0.3,7.2-0.6,8.1
			c0.1,1.5,2.4,0.9,3.3,0.9C223.6,120.4,226,123.5,226.4,121.1z"/>
		<path class="st8" d="M225.2,118.7l2.4-0.1l-0.4-7l-7,0.4l0.4,7c2.5-0.3,2.8-0.1,4.7,1.7L225.2,118.7z M222.1,117.6l-0.3-4.4
			l1.1-0.1l0.1,1.6l1.7-0.1l-0.1-1.6l1.1-0.1l0.3,4.4l-1.1,0.1l-0.1-1.6l-1.7,0.1l0.1,1.6L222.1,117.6z"/>
	</g>
	<g>
		<path class="st73" d="M273,154.8l-0.1-1.3c0.9-0.1,2.4,0.1,2.3-1.2l-0.4-7c0.2-2-7.2-0.3-8.1-0.6c-2-0.2-0.3,7.2-0.6,8.1
			c0.1,1.5,2.4,0.9,3.3,0.9C270.2,154.1,272.6,157.2,273,154.8z"/>
		<path class="st8" d="M271.8,152.4l2.4-0.1l-0.4-7l-7,0.4l0.4,7c2.5-0.3,2.8-0.1,4.7,1.7L271.8,152.4z M268.7,151.3l-0.3-4.4
			l1.1-0.1l0.1,1.6l1.7-0.1l-0.1-1.6l1.1-0.1l0.3,4.4l-1.1,0.1l-0.1-1.6l-1.7,0.1l0.1,1.6L268.7,151.3z"/>
	</g>
	<g>
		<path class="st73" d="M238.3,166.8l-0.1-1.3c0.9-0.1,2.4,0.1,2.3-1.2l-0.4-7c0.2-2-7.2-0.3-8.1-0.6c-2-0.2-0.3,7.2-0.6,8.1
			c0.1,1.5,2.4,0.9,3.3,0.9C235.5,166.1,237.9,169.2,238.3,166.8z"/>
		<path class="st8" d="M237,164.4l2.4-0.1l-0.4-7l-7,0.4l0.4,7c2.5-0.3,2.8-0.1,4.7,1.7L237,164.4z M233.9,163.2l-0.3-4.4l1.1-0.1
			l0.1,1.6l1.7-0.1l-0.1-1.6l1.1-0.1l0.3,4.4l-1.1,0.1l-0.1-1.6l-1.7,0.1l0.1,1.6L233.9,163.2z"/>
	</g>
	<g>
		<path class="st73" d="M267.3,190.4l-0.1-1.3c0.9-0.1,2.4,0.1,2.3-1.2l-0.4-7c0.2-2-7.2-0.3-8.1-0.6c-2-0.2-0.3,7.2-0.6,8.1
			c0.1,1.5,2.4,0.9,3.3,0.9C264.4,189.7,266.9,192.8,267.3,190.4z"/>
		<path class="st8" d="M266,188l2.4-0.1l-0.4-7l-7,0.4l0.4,7c2.5-0.3,2.8-0.1,4.7,1.7L266,188z M262.9,186.8l-0.3-4.4l1.1-0.1
			l0.1,1.6l1.7-0.1l-0.1-1.6l1.1-0.1l0.3,4.4l-1.1,0.1l-0.1-1.6l-1.7,0.1l0.1,1.6L262.9,186.8z"/>
	</g>
	<g>
		<path class="st73" d="M261,115.2l-0.1-1.3c0.9-0.1,2.4,0.1,2.3-1.2l-0.4-7c0.2-2-7.2-0.3-8.1-0.6c-2-0.2-0.3,7.2-0.6,8.1
			c0.1,1.5,2.4,0.9,3.3,0.9C258.2,114.6,260.6,117.7,261,115.2z"/>
		<path class="st8" d="M259.7,112.8l2.4-0.1l-0.4-7l-7,0.4l0.4,7c2.5-0.3,2.8-0.1,4.7,1.7L259.7,112.8z M256.6,111.7l-0.3-4.4
			l1.1-0.1l0.1,1.6l1.7-0.1l-0.1-1.6l1.1-0.1l0.3,4.4l-1.1,0.1l-0.1-1.6l-1.7,0.1l0.1,1.6L256.6,111.7z"/>
	</g>
</g>
<g>
	<path class="st8" d="M43.2,40.7c-11.3-6.9,2.3-21.8,10.9-12.5l-2.4,2.2c-2.9-3.6-9.3-1.6-9.1,3.2c-0.3,4.8,6.2,6.9,9.1,3.2l2.4,2.2
		C51.6,42,46.6,42.5,43.2,40.7z"/>
	<path class="st8" d="M58.3,40.8c-7.7-4.3-0.3-15.2,6.9-10.9C72.8,34.2,65.5,45,58.3,40.8z M63.9,37.8c2.8-2.9-1.3-8-4.5-4.9
		C56.6,35.8,60.8,41,63.9,37.8z"/>
	<path class="st8" d="M90,30.4c2.2,1.8,1.1,8.4,1.3,11h-3.5c-0.5-2.2,1.5-9.4-2.3-9.3c-4.2-0.2-2.3,6.9-2.7,9.3h-3.5
		c-0.4-2.1,1.4-9.6-2.3-9.3c-4.1-0.1-2.3,6.9-2.7,9.3h-3.5V29.3h3.4v1.4c1.9-2.2,6.2-2.2,7.8,0.4C83.7,28.7,88,28.4,90,30.4z"/>
	<path class="st8" d="M113.7,30.4c2.2,1.8,1.1,8.4,1.3,11h-3.5c-0.5-2.2,1.5-9.4-2.3-9.3c-4.2-0.2-2.3,6.9-2.7,9.3H103
		c-0.4-2.1,1.4-9.6-2.3-9.3C96.6,32,98.4,39,98,41.5h-3.5V29.3h3.4v1.4c1.9-2.2,6.2-2.2,7.8,0.4C107.5,28.7,111.8,28.4,113.7,30.4z"
		/>
	<path class="st8" d="M130.5,29.3v12.2h-3.4V40c-1.8,2.2-5.8,2.1-7.6,0.2c-2.2-1.8-1.2-8.4-1.4-11h3.5c0.4,2.2-1.5,9.6,2.5,9.3
		c4.3,0.2,2.4-6.8,2.8-9.3L130.5,29.3L130.5,29.3z"/>
	<path class="st8" d="M144.9,30.5c2.2,1.8,1.2,8.4,1.4,11h-3.5c-0.5-2.3,1.6-9.5-2.5-9.3c-4.4-0.2-2.6,6.8-2.9,9.3h-3.5V29.3h3.4
		v1.4C139,28.7,143,28.5,144.9,30.5z"/>
	<path class="st8" d="M149.6,27c-2.1-2,1.3-4.6,3.2-2.8C154.9,26.2,151.5,28.8,149.6,27z M149.5,29.3h3.5v12.2h-3.5V29.3z"/>
	<path class="st8" d="M164.1,40.9c-7.2,3.1-7.9-3.1-7.4-8.6h-1.9v-2.7h1.9v-3h3.5v3h3v2.7h-3c0.2,1.9-1.1,8.6,2.9,6.1L164.1,40.9z"
		/>
	<path class="st8" d="M178,29.3c-2.9,4.6-5.4,21.6-14,15.6l1.3-2.5c1.3,1.2,3.5,1.1,4-0.9L164,29.2h3.6l3.4,8.3l3.4-8.3L178,29.3
		L178,29.3z"/>
</g>
</svg>
