<?xml version="1.0" encoding="utf-8"?>
<!-- Generator: Adobe Illustrator 24.3.0, SVG Export Plug-In . SVG Version: 6.00 Build 0)  -->
<svg version="1.1" id="Layer_1" xmlns="http://www.w3.org/2000/svg" xmlns:xlink="http://www.w3.org/1999/xlink" x="0px" y="0px"
	 viewBox="0 0 320 200" style="enable-background:new 0 0 320 200;" xml:space="preserve">
<style type="text/css">
	.st0{fill:#FCE2FF;}
	.st1{fill:none;}
	.st2{fill:#824D9E;}
	.st3{fill:#523163;}
	.st4{fill:#FFFFFF;}
	.st5{fill:#98DB40;}
	.st6{fill:#AD7A59;}
	.st7{fill:#BCF078;}
	.st8{fill:#966A4D;}
	.st9{fill:#634633;}
	.st10{fill:#1E1E1C;}
	.st11{fill:#73A630;}
	.st12{fill:#AD72CC;}
	.st13{fill:#B960C2;}
	.st14{fill:#FFB226;}
	.st15{fill:#D6911B;}
	.st16{fill:#96E6FF;}
	.st17{fill:#94FF94;}
	.st18{fill:#70C270;}
	.st19{fill:#40D1FF;}
	.st20{fill:#FFCC70;}
	.st21{fill:#EE4AA0;}
</style>
<polygon class="st0" points="8.2,17.8 320,0 312.4,93.3 78.4,152.4 "/>
<rect class="st1" width="320" height="200"/>
<path id="XMLID_4_" class="st2" d="M44.6,10.9c-29.5,3.4-8.9,38.8-23.8,57.8c0,0-15.3,19.3,9.9,26.2c0,0,42,13.2,60.8-9
	c0,0,16.1-13.2,0.9-25.9c-13.3-6.6-0.2-53.4-29-56.4C63.4,3.5,48.4,1.2,44.6,10.9z"/>
<path class="st3" d="M27.1,76.4c0.1-5,1.5-9.9,4.7-13.7c3.4-4.9,3.2-12.2,8-16.1c5.7-2.6,12.8-1.5,18.9-1.5c5.9,0.1,12.3-2,17.7,1.5
	c4.2,4.4,8.3,9.4,10.9,15c1.3,2.4,3,3.9,2.5,7c-3.3,10.2-17.4,9-25.6,13.7c-5.7,2.1-11.3,4.8-17.2,6.4c-10.9,1.6-23.2-7.8-19.3-19.4
	"/>
<g>
	<path class="st4" d="M72.5,145.4c-0.6,0.8-3.2-1.4-3.2-1.4c-3.2,5.8-3.3,1.3-2.7-1.8c-3.2-1.5-4.1-3.6,0.4-4.1
		c0-4.4,1.2-6.6,2.9-0.7c5.1-2.1,3.1,1.8,1.4,3.6C71.4,141,73.1,144.5,72.5,145.4z"/>
</g>
<path class="st5" d="M77.1,72.1L77.1,72.1C61,59.2,41,70.5,36.9,73.9h-0.1c-8.7,8.1-11.1,34.3-13.1,40.3c2,1.7,12.3,5.9,12.3,5.9
	c0,3.6,2.4,37.2,2.4,37.2l34.2-0.3l2.7-40.8c6.3-5.3,13.3-15.6,13.3-15.6C86.6,95.1,81.6,75.7,77.1,72.1z"/>
<g>
	<path class="st4" d="M66.4,84c-0.6,0.8-3.2-1.4-3.2-1.4c-3.2,5.8-3.3,1.3-2.7-1.8c-3.2-1.5-4.1-3.6,0.4-4.1c0-4.4,1.2-6.6,2.9-0.7
		c5.1-2.1,3.1,1.8,1.4,3.6C65.2,79.6,66.9,83.1,66.4,84z"/>
</g>
<path class="st6" d="M77.1,72.1C61,59.2,41,70.5,36.9,73.9C48.1,83.7,58.6,87.4,77.1,72.1z"/>
<path class="st7" d="M77.1,72.1L77.1,72.1c-5.1-3.7-6-3.8-10.7-5.3c12,3.9,15.4,22.1,19.6,34.2l-11.2,13.2L74,90.6L70,157h2.6
	l2.7-40.8c6.3-5.3,13.3-15.6,13.3-15.6C86.6,95.1,81.6,75.7,77.1,72.1z"/>
<g>
	<path class="st8" d="M49.1,43.9h13.3v30.8c-3,2.7-10.4,2.8-13.3-1.6V43.9z"/>
	<path class="st9" d="M62.3,74.5V58h-4v18.4C59.9,76,61.3,75.4,62.3,74.5z"/>
	<path class="st6" d="M50.9,43.9H49v29.2c0.7,1,1.5,1.7,2.5,2.4L50.9,43.9z"/>
	<path class="st8" d="M79.7,38c0,10.1-13.4,34-21.2,34C49,72,37.3,48.1,37.3,37.9C39,13.5,78,13.6,79.7,38z"/>
	<path class="st6" d="M48,64.6c-5.3-10-3.7-32.1-1-41.9C30.7,32.4,38.2,50.4,48,64.6z"/>
	<path class="st8" d="M41.4,29c-2.5-4.6-7.7,4.2-7.2,8.7c-0.5,4.4,4.7,13.3,7.2,8.7V29z"/>
	<path class="st6" d="M35.6,38c0-3.9,1.1-7.3,2.6-9.4c-5,3.2-5.1,14.3-0.4,18C36.4,44.6,35.6,41.4,35.6,38z"/>
	<path class="st10" d="M73.2,44.4c0.1-0.9-0.2-1.9-0.9-2.5c-0.4-0.2-0.9-0.1-1.3,0c-0.1,0.1-0.2,0.1-0.2,0.2
		c-0.1,0.1-0.1,0.2-0.2,0.3c-0.1,1.4-0.6,3.4,0.7,4.5c0.4,0.2,0.9,0.1,1.3,0c0.1-0.1,0.2-0.1,0.2-0.2c0.4-0.5,0.6-1.1,0.7-1.7
		C73.2,44.7,73.2,44.6,73.2,44.4z"/>
	<path class="st10" d="M56.1,41.4c0.1-0.9-0.2-1.9-0.9-2.5c-0.4-0.2-0.9-0.1-1.3,0c-0.1,0.1-0.2,0.1-0.2,0.2c-0.9,1.3-1,3.7,0.2,4.8
		c0.4,0.2,0.9,0.1,1.3,0c0.1-0.1,0.2-0.1,0.2-0.2C55.9,43.1,56.1,42.3,56.1,41.4z"/>
	<path class="st9" d="M62,54.2c1.9,1.3,3.5,0.7,3,1.3c-0.3,0.7-2,1-4.1,0.3C57.3,54.5,59.3,52,62,54.2z"/>
	<path class="st4" d="M53,56.8c1.9,2.2,6.5,3.3,7.5,5.2C55.2,66.6,49.9,57.3,53,56.8z"/>
	<path class="st9" d="M78.4,38.4c0,5.6-3.4,14.8-7.8,22.6c9.2-14.4,14.5-30.4-2-39.1C74.2,25.6,78.4,31.7,78.4,38.4z"/>
</g>
<path id="XMLID_3_" class="st2" d="M37.8,48.3c0,0,2,0.6,1.5-5.6c0,0,11.8-6.9,14.2-16c0,0,5.9,10.3,13.3,8.7c0,0,1.6,7.1,9.9,6.4
	c-0.3,3.3,4.5,6.6,3.9-5.1C83.8,6,29.4,2.2,34.5,40.4C34.5,40.4,35.3,48.6,37.8,48.3z"/>
<path class="st3" d="M74,35.1c-4.1,1.1-5.6-1.9-7.5-4.9c-4.5,1.5-10.4-0.1-13-4.2c-3.9,3.9-8.7,16.2-15.1,15.4c0.4,2-1,5.2-3.3,3.3
	c0.8,4.1,4.6,6.8,4-1.9c0,0,11.8-6.9,14.2-16c0,0,5.9,10.3,13.3,8.7c0,0,1.6,7.1,9.9,6.4c-0.4,2.9,4.2,6.5,4-3.9
	C78.1,38.7,75,38.1,74,35.1z"/>
<g>
	<path class="st4" d="M44.7,118.7c-0.6,0.8-3.2-1.4-3.2-1.4c-3.2,5.8-3.3,1.3-2.7-1.8c-3.2-1.5-4.1-3.6,0.4-4.1
		c0-4.4,1.2-6.6,2.9-0.7c5.1-2.1,3.1,1.8,1.4,3.6C43.6,114.4,45.3,117.9,44.7,118.7z"/>
</g>
<g>
	<path class="st4" d="M53.6,138.8c-0.6,0.8-3.2-1.4-3.2-1.4c-3.2,5.8-3.3,1.3-2.7-1.8c-3.2-1.5-4.1-3.6,0.4-4.1
		c0-4.4,1.2-6.6,2.9-0.7c5.1-2.1,3.1,1.8,1.4,3.6C52.4,134.4,54.2,137.9,53.6,138.8z"/>
</g>
<path class="st4" d="M74.2,126.2c-1.8-5.9-2.9-3.6-2.9,0.7c-4.5,0.5-3.6,2.6-0.4,4.1c-0.6,3.1-0.5,7.5,2.7,1.8c0,0,0.3,0.2,0.7,0.5
	l0.5-7.3C74.4,126.1,74.2,126.2,74.2,126.2z"/>
<g>
	<path class="st4" d="M82.5,96.3c-0.6,0.8-3.2-1.4-3.2-1.4c-3.2,5.8-3.3,1.3-2.7-1.8c-3.2-1.5-4.1-3.6,0.4-4.1
		c0-4.4,1.2-6.6,2.9-0.7c5.1-2.1,3.1,1.8,1.4,3.6C81.3,91.9,83.1,95.4,82.5,96.3z"/>
</g>
<g>
	<path class="st4" d="M60.8,127.6c-0.6,0.8-3.2-1.4-3.2-1.4c-3.2,5.8-3.3,1.3-2.7-1.8c-3.2-1.5-4.1-3.6,0.4-4.1
		c0-4.4,1.2-6.6,2.9-0.7c5.1-2.1,3.1,1.8,1.4,3.6C59.6,123.2,61.4,126.7,60.8,127.6z"/>
</g>
<g>
	<path class="st4" d="M55.5,101.3c-0.6,0.8-3.2-1.4-3.2-1.4c-3.2,5.8-3.3,1.3-2.7-1.8c-3.2-1.5-4.1-3.6,0.4-4.1
		c0-4.4,1.2-6.6,2.9-0.7c5.1-2.1,3.1,1.8,1.4,3.6C54.3,97,56,100.5,55.5,101.3z"/>
</g>
<g>
	<path class="st4" d="M71,110.5c-0.6,0.8-3.2-1.4-3.2-1.4c-3.2,5.8-3.3,1.3-2.7-1.8c-3.2-1.5-4.1-3.6,0.4-4.1c0-4.4,1.2-6.6,2.9-0.7
		c5.1-2.1,3.1,1.8,1.4,3.6C69.8,106.2,71.5,109.7,71,110.5z"/>
</g>
<g>
	<path class="st4" d="M39.2,94.8c-0.6,0.8-3.2-1.4-3.2-1.4c-3.2,5.8-3.3,1.3-2.7-1.8c-3.2-1.5-4.1-3.6,0.4-4.1
		c0-4.4,1.2-6.6,2.9-0.7c5.1-2.1,3.1,1.8,1.4,3.6C38.1,90.4,39.8,93.9,39.2,94.8z"/>
</g>
<path class="st11" d="M42.8,70.5c0,0,0.3-0.2,0.8-0.6c-3.5,1.8-4.1,2-6.6,3.9h-0.1c-8.7,8.1-11.1,34.3-13.1,40.3
	c2,1.7,12.3,5.9,12.3,5.9c0,3.6,2.4,37.2,2.4,37.2h1.8c0-0.4-3-63.6-3-63.6l-1.1,24.9c0,0-8.8-3.4-10.1-4.5
	C29.2,105.1,28.6,79.5,42.8,70.5z"/>
<path class="st12" d="M45,11c-1.7,6.3,0.1,11.5,8.3,14.8C48.4,22.2,45.5,17.4,45,11z"/>
<path class="st12" d="M67.7,28.4c3.8-6.6,4-13.7-2.7-22C68.4,13.2,69.5,20.5,67.7,28.4z"/>
<path class="st12" d="M29.8,25.7c-1.7,6.3,0.1,11.5,8.3,14.8C33.2,37,30.2,32.2,29.8,25.7z"/>
<path class="st13" d="M0,140.8c66.6-13,247.9-9.7,320,5V200H0V140.8z"/>
<polygon class="st14" points="47.1,157.6 173.2,138.6 173.2,140 157.8,161.1 47.1,161.1 "/>
<polygon class="st15" points="68.6,138.6 173.2,138.6 157.8,159.6 47.1,159.6 "/>
<g>
	<path class="st4" d="M25.8,158.1c-10.8-1-5.6-9.3-0.7-9.7c3,0,15.4-5.2,12.4-1.8c-1.3,1.3-18.6,2.5-16.6,7.8
		c1.5,3.7,7.5,1.8,13.7,1c0.3,0,2.5-0.3,4.3-2c0.3-0.3,0.7-0.2,1,0c0.3,0.3,0.2,0.7,0,1c-2.3,2.2-4.9,2.4-5.2,2.4
		C30.5,156.9,28.7,158.2,25.8,158.1z"/>
</g>
<g>
	<path class="st4" d="M78.4,152.4c-2.8,0.2-7.9-1.9-12.7-2c-0.4,0-0.7-0.3-0.7-0.6c3.5-2.9,16.3,5.8,20.5-2.1
		c-2.3-5.4-12-3.7-17.7-4.4c-0.4,0-0.7-0.3-0.7-0.7c0.7-1.6,11.7-0.1,14.5,0.5C87.6,144.1,90.4,151.4,78.4,152.4z"/>
</g>
<path id="XMLID_8_" class="st16" d="M36.1,146.5l2.9,8c0,0,0.2,1.4,4.4,0.2c0,0,14.3-3.4,20.2-3.8c0,0,3.9,0.5,4.8-2l1.4-6.8
	c0,0,0.8-1.6-2.2-2.2C68.2,139.8,42.2,137.5,36.1,146.5z"/>
<g>
	<g>
		<path class="st4" d="M11.8,181.7c-6,0.6-10.2-3.5-8.1-7.6c-0.3-4.9,18.1-7.5,20.8-6.9v1.8c-4.8,0-17.6,1-19.1,5.7
			c-1.4,4.9,2.1,5.9,12.7,4.5l0.3,1.8C15.9,181.5,13.7,181.7,11.8,181.7z"/>
	</g>
	<g>
		<path class="st4" d="M75.2,186c-3.8,0.3-19.2-0.7-20.7-1.7l0.5-1.7c1.2,1.2,22.5,1.9,23.1,1.6c5,0.1,7.8-5.6,6.6-8.3
			c-0.4-1.5-6.6-4-18.8-4.6l0.1-1.8c3.2,0.2,19.1,1.2,20.4,5.9C88.2,180.9,83,187,75.2,186z"/>
	</g>
	<path id="XMLID_6_" class="st17" d="M17.7,175.4c5.7-14.4,13.7-6.7,28.1-6.5c15.6,1.2,30.6-5.6,16.8,9.7c0,0-3.9,6.3-7.3,6.9
		c-6.9,1.2-20-0.3-20-0.3s-15.9-1.7-18.7-2.9C15,181.3,15.9,179.2,17.7,175.4z"/>
	<path class="st18" d="M55.3,185.7c2-0.3,4.1-2.6,5.6-4.4c-2.9-0.8-5.7,2.2-8.7,2.3c-12.1,1.2-24.5-1.1-36.5-2.9
		C16.3,184.5,48.3,186.9,55.3,185.7z"/>
	<g>
		<path class="st18" d="M26.4,170.5c5.5-0.4,10.6,2.5,16,3.1c5.4,0.7,11-1,16.3-0.3c-5.3-0.3-10.9,1.4-16.4,0.7
			C36.9,173.4,31.8,170.5,26.4,170.5z"/>
	</g>
	<g>
		<path class="st18" d="M25,174.7c4.9-1,9.6,1.4,14.4,2.4c5.3,0.9,10.9-1.4,16-0.8c-5.2-0.2-10.8,2.2-16.1,1.3
			C34.5,176.5,29.9,174.1,25,174.7z"/>
	</g>
	<g>
		<path class="st18" d="M25.3,178.3c9.1,1,18.6,2.7,27.8,1.4C43.7,181.6,34.4,179.8,25.3,178.3z"/>
	</g>
	<g>
		<path class="st4" d="M17.9,180.1c-0.6-0.4,0.2-1.5,0.2-2C19,177.2,18.2,180.2,17.9,180.1z M18.9,176.7c-0.6-0.2,0.2-1.2,0.3-1.5
			C20.2,173.3,19.6,176.3,18.9,176.7z M20.4,173.4c-0.6-0.4,0.5-1.4,0.7-1.9c0.1,0,0.3,0.1,0.4,0.2C21,172.2,20.9,173,20.4,173.4z
			 M22.3,170.3c-0.6-0.4,0.7-1.3,0.7-1.9C24,167.9,22.7,170.2,22.3,170.3z"/>
	</g>
	<g>
		<path class="st4" d="M57.3,183.4c-0.7,0.1,0.9-2.1,1.2-1.9C58.6,182.1,57.7,183,57.3,183.4z M59.4,180.5c-0.6-0.2,0.2-0.8,0.4-1.1
			C61.4,177.3,60.3,180.1,59.4,180.5z M61.6,177.7c-0.6-0.3,0.9-1.8,1.3-1.8C63.1,176.5,62.1,177.3,61.6,177.7z M64,174.9
			c-0.6-0.2,0.1-0.7,0.3-0.9C66.1,171.5,64.9,174.4,64,174.9z M66,171.9c-0.6-0.3,0.5-1.5,0.4-1.9C67.2,169.2,66.6,171.7,66,171.9z"
			/>
	</g>
</g>
<g>
	<g>
		<path class="st4" d="M115,180.1c-6,0.6-10.2-3.5-8.1-7.6c-0.3-4.9,18.1-7.5,20.8-6.9v1.8c-4.8,0-17.6,1-19.1,5.7
			c-1.4,4.9,2.1,5.9,12.7,4.5l0.3,1.8C119.1,179.9,116.9,180.1,115,180.1z"/>
	</g>
	<g>
		<path class="st4" d="M178.4,184.4c-3.8,0.3-19.2-0.7-20.7-1.7l0.5-1.7c1.2,1.2,22.5,1.9,23.1,1.6c5,0.1,7.8-5.6,6.6-8.3
			c-0.4-1.5-6.6-4-18.8-4.6l0.1-1.8c3.2,0.2,19.1,1.2,20.4,5.9C191.3,179.3,186.1,185.4,178.4,184.4z"/>
	</g>
	<path id="XMLID_1_" class="st17" d="M120.9,173.8c5.7-14.4,13.7-6.7,28.1-6.5c15.6,1.2,30.6-5.6,16.8,9.7c0,0-3.9,6.3-7.3,6.9
		c-6.9,1.2-20-0.3-20-0.3s-15.9-1.7-18.7-2.9C118.1,179.6,119.1,177.5,120.9,173.8z"/>
	<path class="st18" d="M158.4,184.1c2-0.3,4.1-2.6,5.6-4.4c-2.9-0.8-5.7,2.2-8.7,2.3c-12.1,1.2-24.5-1.1-36.5-2.9
		C119.5,182.8,151.5,185.3,158.4,184.1z"/>
	<g>
		<path class="st18" d="M129.5,168.8c5.5-0.4,10.6,2.5,16,3.1c5.4,0.7,11-1,16.3-0.3c-5.3-0.3-10.9,1.4-16.4,0.7
			C140,171.8,135,168.8,129.5,168.8z"/>
	</g>
	<g>
		<path class="st4" d="M121.1,178.5c-0.6-0.4,0.2-1.5,0.2-2C122.1,175.5,121.4,178.5,121.1,178.5z M122.1,175
			c-0.6-0.2,0.2-1.2,0.3-1.5C123.3,171.7,122.7,174.7,122.1,175z M123.5,171.7c-0.6-0.4,0.5-1.4,0.7-1.9c0.1,0,0.3,0.1,0.4,0.2
			C124.2,170.6,124,171.4,123.5,171.7z M125.5,168.7c-0.6-0.4,0.7-1.3,0.7-1.9C127.2,166.3,125.9,168.6,125.5,168.7z"/>
	</g>
	<g>
		<path class="st4" d="M160.4,181.8c-0.7,0.1,0.9-2.1,1.2-1.9C161.8,180.4,160.9,181.4,160.4,181.8z M162.6,178.8
			c-0.6-0.2,0.2-0.8,0.4-1.1C164.6,175.7,163.5,178.4,162.6,178.8z M164.8,176c-0.6-0.3,0.9-1.8,1.3-1.8
			C166.2,174.9,165.2,175.6,164.8,176z M167.1,173.3c-0.6-0.2,0.1-0.7,0.3-0.9C169.2,169.9,168.1,172.8,167.1,173.3z M169.2,170.3
			c-0.6-0.3,0.5-1.5,0.4-1.9C170.4,167.6,169.7,170.1,169.2,170.3z"/>
	</g>
</g>
<path class="st14" d="M152.9,154.2c-0.1-1.2,4.4-1.2,4.4,0C157.3,155.3,152.8,155.3,152.9,154.2z"/>
<path class="st14" d="M53,155.2c-0.1-1.2,4.4-1.2,4.4,0S52.9,156.4,53,155.2z"/>
<path class="st14" d="M164.2,139.4c-0.1-1.2,4.4-1.2,4.4,0C168.6,140.6,164.1,140.6,164.2,139.4z"/>
<g>
	<path class="st4" d="M40.2,152.7c-0.3,0-1-2.3-0.2-1.6C40.1,151.6,40.7,152.4,40.2,152.7z M39.2,150.2c-0.4-0.1-1.3-2.1-0.4-1.5
		C38.8,149.1,39.8,149.9,39.2,150.2z M38.1,147.7c-0.3-0.1-1.1-2.2-0.3-1.6C37.9,146.4,38.7,147.5,38.1,147.7z"/>
</g>
<g>
	<path class="st4" d="M67.1,148.7c-0.5-0.2,0.1-1,0.1-1.6C67.9,146.3,67.5,148.7,67.1,148.7z M67.6,146c-0.4,0-0.1-1.8,0.2-1.8
		C68.2,144.4,67.9,146,67.6,146z M68,143.4c-0.5-0.2,0.1-1.2,0.1-1.6C68.9,141.1,68.4,143.2,68,143.4z"/>
</g>
<rect x="66.1" y="135.8" width="0.4" height="9.1"/>
<rect x="65.8" y="129" width="1.1" height="9.1"/>
<path class="st19" d="M65,150c-9-0.9-18,5.1-26.7,2.8c1.2,2.1-0.6,3.2,5.1,2.1c0,0,14.3-3.4,20.2-3.8c0,0,3.7,0.5,4.7-1.8
	C67.1,149.4,65.6,149.9,65,150z"/>
<path class="st19" d="M41.5,146.8c8.1-3.6,13-5.9,22.2-3.9C53.5,141.6,50.4,143.7,41.5,146.8z"/>
<path class="st19" d="M44.2,148.8c5.4-3,11.7-3.6,17.7-3.6C55.9,145.8,49.7,146.5,44.2,148.8z"/>
<path class="st19" d="M45.5,151.6c6.5-3.8,13-1.5,18.7-3.9C58.7,150.6,51.2,148.7,45.5,151.6z"/>
<g>
	<g>
		<path class="st4" d="M101.8,185.5c-6,0.6-10.2-3.5-8.1-7.6c-0.3-4.9,18.1-7.5,20.8-6.9v1.8c-4.8,0-17.6,1-19.1,5.7
			c-1.4,4.9,2.1,5.9,12.7,4.5l0.3,1.8C105.9,185.3,103.7,185.5,101.8,185.5z"/>
	</g>
	<g>
		<path class="st4" d="M165.1,189.8c-3.8,0.3-19.2-0.7-20.7-1.7l0.5-1.7c1.2,1.2,22.5,1.9,23.1,1.6c5,0.1,7.8-5.6,6.6-8.3
			c-0.4-1.5-6.6-4-18.8-4.6l0.1-1.8c3.2,0.2,19.1,1.2,20.4,5.9C178.1,184.8,172.9,190.8,165.1,189.8z"/>
	</g>
	<path id="XMLID_2_" class="st16" d="M107.7,179.2c5.7-14.4,13.7-6.7,28.1-6.5c15.6,1.2,30.6-5.6,16.8,9.7c0,0-3.9,6.3-7.3,6.9
		c-6.9,1.2-20-0.3-20-0.3s-15.9-1.7-18.7-2.9C104.9,185.1,105.8,183,107.7,179.2z"/>
	<path class="st19" d="M145.2,189.6c2-0.3,4.1-2.6,5.6-4.4c-2.9-0.8-5.7,2.2-8.7,2.3c-12.1,1.2-24.5-1.1-36.5-2.9
		C106.3,188.3,138.2,190.7,145.2,189.6z"/>
	<g>
		<path class="st19" d="M116.3,174.3c5.5-0.4,10.6,2.5,16,3.1c5.4,0.7,11-1,16.3-0.3c-5.3-0.3-10.9,1.4-16.4,0.7
			C126.8,177.2,121.7,174.3,116.3,174.3z"/>
	</g>
	<g>
		<path class="st19" d="M114.9,178.5c4.9-1,9.6,1.4,14.4,2.4c5.3,0.9,10.9-1.4,16-0.8c-5.2-0.2-10.8,2.2-16.1,1.3
			C124.4,180.4,119.8,177.9,114.9,178.5z"/>
	</g>
	<g>
		<path class="st19" d="M115.2,182.1c9.1,1,18.6,2.7,27.8,1.4C133.6,185.4,124.3,183.7,115.2,182.1z"/>
	</g>
	<g>
		<path class="st4" d="M107.8,183.9c-0.6-0.4,0.2-1.5,0.2-2C108.9,181,108.2,184,107.8,183.9z M108.8,180.5
			c-0.6-0.2,0.2-1.2,0.3-1.5C110.1,177.1,109.5,180.2,108.8,180.5z M110.3,177.2c-0.6-0.4,0.5-1.4,0.7-1.9c0.1,0,0.3,0.1,0.4,0.2
			C111,176,110.8,176.8,110.3,177.2z M112.2,174.2c-0.6-0.4,0.7-1.3,0.7-1.9C113.9,171.8,112.6,174,112.2,174.2z"/>
	</g>
	<g>
		<path class="st4" d="M147.2,187.2c-0.7,0.1,0.9-2.1,1.2-1.9C148.6,185.9,147.6,186.9,147.2,187.2z M149.3,184.3
			c-0.6-0.2,0.2-0.8,0.4-1.1C151.3,181.1,150.2,183.9,149.3,184.3z M151.6,181.5c-0.6-0.3,0.9-1.8,1.3-1.8
			C153,180.3,152,181.1,151.6,181.5z M153.9,178.7c-0.6-0.2,0.1-0.7,0.3-0.9C156,175.4,154.8,178.2,153.9,178.7z M155.9,175.8
			c-0.6-0.3,0.5-1.5,0.4-1.9C157.2,173,156.5,175.5,155.9,175.8z"/>
	</g>
</g>
<g>
	<g>
		<path class="st4" d="M266.1,165.5c6,0,9.8-4.5,7.3-8.3c-0.2-4.9-18.8-5.6-21.4-4.8l0.2,1.8c4.8-0.5,17.6-0.7,19.6,3.8
			c1.9,4.7-1.5,6.1-12.2,5.8l-0.1,1.8C262,165.8,264.2,165.7,266.1,165.5z"/>
	</g>
	<g>
		<path class="st4" d="M203.4,176.2c3.8-0.1,19-2.6,20.4-3.7l-0.7-1.7c-1.1,1.3-22.2,4.2-22.8,3.9c-5,0.6-8.3-4.8-7.4-7.6
			c0.3-1.6,6.1-4.6,18.2-6.4l-0.3-1.8c-3.1,0.5-18.9,3.1-19.7,7.9C190.1,172.5,195.8,178,203.4,176.2z"/>
	</g>
	<path id="XMLID_5_" class="st16" d="M259.6,159.9c-7.2-13.7-14.3-5.3-28.6-3.6c-15.4,2.8-31-2.5-15.7,11.4c0,0,4.5,5.9,8,6.2
		c7,0.5,19.9-2.4,19.9-2.4s15.7-3.3,18.3-4.8C262.9,165.4,261.8,163.4,259.6,159.9z"/>
	<path class="st19" d="M223.3,173.9c-2-0.1-4.4-2.1-6-3.8c2.8-1.1,5.9,1.6,8.9,1.4c12.2,0,24.3-3.6,36-6.6
		C261.9,168.8,230.3,174.4,223.3,173.9z"/>
	<g>
		<path class="st19" d="M250.5,155.8c-5.5,0.2-10.2,3.6-15.6,4.7c-5.3,1.3-11.1,0.2-16.2,1.4c5.2-0.8,11,0.3,16.3-0.9
			S245.1,156.4,250.5,155.8z"/>
	</g>
	<g>
		<path class="st19" d="M252.3,159.9c-5-0.4-9.4,2.4-14,3.8c-5.1,1.5-11-0.3-16,0.8c5.1-0.7,10.9,1.1,16.1-0.4
			C243,162.7,247.3,159.8,252.3,159.9z"/>
	</g>
	<g>
		<path class="st19" d="M252.4,163.5c-8.9,1.9-18.2,4.6-27.5,4.2C234.3,168.6,243.5,166,252.4,163.5z"/>
	</g>
	<g>
		<path class="st4" d="M259.6,164.4c0-0.5-1.2-2.3-0.2-1.8C259.5,162.9,260.6,165.1,259.6,164.4z M258.3,161.1
			c-0.1-0.5-1.5-2.1-0.4-1.8C258,159.7,259.3,161.5,258.3,161.1z M256.5,158c-0.3-0.5-0.7-1-1-1.4c0.1-0.1,0.3-0.2,0.4-0.3
			C256.1,156.6,257.6,158.3,256.5,158z M254.3,155.2c-0.3-0.3-1.8-2.1-0.7-1.7C253.7,153.9,255.4,155.4,254.3,155.2z"/>
	</g>
	<g>
		<path class="st4" d="M220.9,171.7c-0.3-0.5-1.4-1.1-1.2-1.7C220,169.8,222,172.1,220.9,171.7z M218.4,169.1
			c-0.3-0.5-1.4-1-1.2-1.6C217.6,167.2,219.5,169.3,218.4,169.1z M215.9,166.5c-0.3-0.3-2.1-1.6-1-1.6
			C215.2,165.3,217,166.5,215.9,166.5z M213.3,164c-0.3-0.5-1.4-1-1.2-1.6C212.5,162.1,214.5,164.3,213.3,164z M211,161.2
			c-0.4-0.5-1.3-2.4-0.4-1.8C210.5,159.7,212,161.5,211,161.2z"/>
	</g>
</g>
<g>
	<path id="XMLID_7_" class="st8" d="M20.1,135.9c0,0,1.6-4.7,4.8-21l10.6,4.8l-3.2,9.4c0,0,13.3,4,23.5,6.5l9.4,5.7
		c1.5,0.6,5.5,7.9,4.7,10.6c-1,0.5-2.2-2.3-3.1-3.9c-1.3-2.3-3.7-3.7-3.7-3.7s4.3,11.1,2.2,11.7c-1.4,0.4-1.5-2.6-3-5.2
		c-1.4-2.6-3-5-3-5s4.6,10.1,2.7,10.9c-1.3,0.6-1.8-2.6-3.1-5.2c-1.4-2.7-3.5-4.3-3.5-4.3s4.7,9.4,3.6,10.1
		c-1.4,0.8-1.8-1.9-3.6-4.3c-1.8-2.4-3.6-5.5-3.6-5.5s-6.2-0.6-6.8-5.2C45.1,142.2,29,140.5,20.1,135.9z"/>
	<g>
		<path class="st6" d="M57.7,152c-1.4-2.7-3.5-4.3-3.5-4.3s3.5,6.9,3.8,9.3C60.7,158.5,58.4,153.2,57.7,152z"/>
		<path class="st6" d="M61.9,144.9c0,0,3.2,8.3,2.7,10.9C67.8,157.4,64.7,145.5,61.9,144.9z"/>
		<path class="st6" d="M68.1,145.2c-1.5-4.8-9.1-7.1-12.3-9.6c-10.2-2.5-23.5-6.5-23.5-6.5l3.2-9.5l-2.8-0.9l-1.7,11
			c0,0,13.3,4,23.5,6.5l9.4,5.7c1.9,1.2,3.9,5.5,4.8,9.5C72,154.1,68.1,145.1,68.1,145.2z"/>
		<path class="st6" d="M61.1,151.3c-1.4-2.6-3-5-3-5s3.4,7.5,3.2,10C63.9,157.4,61.8,152.6,61.1,151.3z"/>
	</g>
	<path class="st9" d="M56.7,154.7c-0.3-3.8-3.2-7.3-5.5-9.9c-2.2-1.1-4.5-2-5-4.8c-4.9-5.9-18.1-3.7-25.2-6.7
		c-0.4,1.8-0.8,2.6-0.8,2.6c8.8,4.6,25,6.3,25,6.3c0.6,4.6,6.8,5.2,6.8,5.2C51.8,147.4,55.5,152.8,56.7,154.7z"/>
</g>
<g>
	<g>
		<path id="XMLID_12_" class="st8" d="M81,110.7c0,0,5.6,17.4,7.7,19.1c0,0-5.9,4.2-13.7,6.2c-0.9,13.8,18.2,3.8,26.4-3.9
			c0,0-5.9-12.6-13-29.6L81,110.7z"/>
		<path class="st6" d="M77.2,136.5c7.7-2.1,13.7-6.2,13.7-6.2c-1.6-1.3-4.9-15-8.5-21.1l-1.4,1.5c0,0,5.6,17.4,7.7,19.1
			c0,0-5.9,4.2-13.7,6.2c0,0-0.7,6.7,5.2,7C76.7,141.4,77.2,136.5,77.2,136.5z"/>
		<path class="st9" d="M100.9,130.5c-4.7,2.4-9,5.8-13.1,9c-1.2,1.2,0.6,0.3-0.7,1.5c-0.3,0.2-0.5,0.5-0.8,0.8
			c2.6-1.4,13.3-6.9,15.2-9.7C101.4,132,101.3,131.5,100.9,130.5z"/>
	</g>
	<g>
		<path id="XMLID_11_" class="st8" d="M69.7,136.5c0,0,6.6-3.3,11.3-0.3c4.2,2.5,9.9,9.5-2.5,7.9c0,0-1.6,1-3.1,2.6
			c-1.5,1.5-1.2,4-2.7,3.6c-1.6-0.4,2.4-8.2,2.4-8.2s-1.5,1.4-3.3,3.3c-1.8,1.9-2.4,5.3-3.9,4.4c-1.5-0.9,3.9-9,3.9-9
			s-1.8,1.4-3.7,3.5c-1.9,2.1-2.8,5.1-4,4.7c-2.2-0.6,5.1-9.3,5.1-9.3s-1.8,1.1-3.5,2.9c-1.8,1.8-2,4.5-3.6,4.1
			C59.3,145.7,68.9,136,69.7,136.5z"/>
		<g>
			<path class="st6" d="M74.1,144.3c-1,2.2-2.2,5.3-1.5,5.9c0.2-2.2,2.8-7.1,2.8-7.1S74.9,143.6,74.1,144.3z"/>
			<path class="st6" d="M64.8,141.8c5.5-6.5,15-9.4,21.4,0.4c-4.8-10.7-16.5-8-21.7-1.3c-1.7,2.4-3.6,5.1-2.6,5.8
				C62.2,145.5,63.6,143.5,64.8,141.8z"/>
			<path class="st6" d="M69.6,140.8c-1.5,0.3-7.3,7.8-5.5,8.3C64.7,146.6,69.6,140.8,69.6,140.8z"/>
			<path class="st6" d="M72.2,141.8c-1.7,0.6-5.6,7.6-4.1,8C68.4,147.5,72.2,141.8,72.2,141.8z"/>
		</g>
		<path class="st9" d="M86,141.9c-2.1-0.6-4.4,1.2-6.4,1c-4.1-1.6-6.7,4.1-6.8,7.4c1.5,0.3,1.2-2.1,2.7-3.6s3.1-2.6,3.1-2.6
			c5.1,0.7,7.2,0.2,7.7-2.1C86.2,141.9,86.1,141.9,86,141.9z"/>
	</g>
</g>
<g>
	<path class="st20" d="M121.1,137.8c1.3,7,1,13,1,13c5,1.4,9.7,1.9,13.7,1.9C137.6,140,130.8,138.5,121.1,137.8z"/>
	<g>
		<path id="XMLID_10_" class="st14" d="M57.4,113.9c0,0,0-22,1.6-23.1c0,0,86.2-1.4,94.9,1.2c0,0,1.3,47.1-0.4,56.7
			c0,0-12.8,7.4-31.4,2.2c0,0,1.8-35.1-21.6-34.8l-19.9-0.2c1.2,2.6-22.1,36.2-22.8,4.4c0,0-2.4,1-2.5-2.4
			C55.3,117.7,54.4,113.9,57.4,113.9z"/>
		<rect x="63" y="84.6" class="st15" width="3.5" height="6.6"/>
		<path id="XMLID_9_" class="st4" d="M98.2,83.2c0.4,0.2,8.7-0.6,8.3,0.5c-0.2,0.4,0.5,7.1-0.5,6.8c-0.4-0.2-8.7,0.6-8.3-0.5
			C97.9,89.6,97.2,82.9,98.2,83.2z"/>
		<path class="st15" d="M119.9,82.6c0.5,0.2,3.6-0.5,3.5,0.5v6.8c0.1,1-3,0.3-3.5,0.5c-0.3,0-0.5-0.2-0.5-0.5
			C119.6,89.5,118.8,82.3,119.9,82.6z"/>
		<rect x="135.1" y="87.6" class="st15" width="2.7" height="3.1"/>
		<path class="st20" d="M74.2,90.6c-5.2,0.1-9.5,0.1-12.1,0.2v42.7c4.9,0.8,9.2-3,12.1-6.3V90.6z"/>
		<path class="st15" d="M80.4,98.3c-0.1-3.5,5.5-3.5,5.4,0C85.8,101.8,80.3,101.8,80.4,98.3z"/>
		<path class="st20" d="M102.4,106c-0.1-6.5,10.1-6.5,10,0C112.5,112.4,102.3,112.4,102.4,106z"/>
		<path class="st15" d="M106.2,105.8c0-2.7,4.2-2.7,4.1,0C110.4,108.4,106.2,108.4,106.2,105.8z"/>
		<path class="st15" d="M130.6,110.1c0-3,4.6-3,4.6,0C135.2,113.1,130.5,113.1,130.6,110.1z"/>
		<path class="st15" d="M146.7,114.1c0-2.4,3.7-2.4,3.6,0C150.4,116.4,146.7,116.4,146.7,114.1z"/>
		<path class="st15" d="M124.6,131.9C122,119.4,109.3,111.6,97,112c-5.7-0.3-15.5-1.4-19.9,3.4c-3.9,5.9-10.4,14.5-18.4,13
			c1.5,5.1,4.3,5.2,4.3,5.2c12-1,17.6-17.9,17.6-17.9l19.9,0.2c23.4-0.3,21.6,34.8,21.6,34.8c0.3,0.1,0.5,0.1,0.8,0.2
			C127.5,146,124.3,138.2,124.6,131.9z"/>
		<path class="st20" d="M154.2,108c-0.1-9.1-0.3-16-0.3-16c-6-1.8-49.3-1.7-75.2-1.5c19.2,4.8,52.8-1.7,69.2,11.7
			C150.4,103.7,151,108.4,154.2,108z"/>
	</g>
	<path class="st14" d="M97.5,82.7h9.1c0.5,0,0.6,0.6,0.5,1c0,0.3-0.2,0.5-0.5,0.5h-9.1C96.8,84.2,96.8,82.6,97.5,82.7z"/>
	<path class="st15" d="M101.5,80.9c0.4,0.1,1.7-0.3,1.7,0.5c0,0.4,0.1,1.3-0.5,1.3c-0.4-0.1-1.7,0.3-1.7-0.5
		C100.9,81.7,100.8,80.9,101.5,80.9z"/>
</g>
<g id="WvR6c6_1_">
	<g>
		<g>
			<path class="st21" d="M210.3,22.8c0.6-0.8,1-1.3,1.3-1.8c1.2-1.8,2.8-2.9,4.9-2.6c2.5,0.3,3.8,2.1,4.5,4.4
				c1.3,4.2,0,7.6-3.6,10.1c-2.6,1.8-5.2,3.7-7.1,6.3c-0.1,0.1-0.3,0.2-0.6,0.3c-0.4-0.6-0.8-1.2-1.2-1.6c-1.6-1.5-3.2-3-4.8-4.5
				c-1.8-1.7-3.9-3.1-4.4-5.8c-0.5-3,0.1-5.9,2.2-8.1c2.6-2.8,6.5-1.3,8,1.6C209.7,21.4,209.9,22,210.3,22.8z"/>
			<path class="st21" d="M288.2,46.8c2.7,0,5.2,0,7.8,0c1,1.3,1.8,2.6,1,4.4c-0.4,0.8-0.1,1.5,0.4,2.3c1.9,2.8,0.4,5.7-2.9,5.9
				c-1.8,0.1-3.7,0-5.5,0C288.6,55.2,288.4,51.1,288.2,46.8z M292.4,53.9c0-0.7,0-1.3,0-2c1.1-0.3,2-0.9,1.4-2.3
				c-0.8-0.5-1.6-1-2.7,0.3c0.1,1.8,0.3,4,0.5,6.1c0,0.3,0.7,0.9,1,0.9c0.5-0.1,1.1-0.5,1.3-0.9c0.2-0.3-0.1-0.9-0.3-1.3
				C293.3,54.3,292.8,54.1,292.4,53.9z"/>
			<path class="st21" d="M147.9,46.7c1,0,1.9,0,2.8,0c0.1,1.4,0.2,2.7,0.2,4c1.4,0,2.6,0,3.9,0c0.2-1.3,0.4-2.6,0.6-4
				c1,0,1.8,0,2.8,0c0,4.2,0,8.2,0,12.4c-0.5,0.1-0.9,0.1-1.3,0.2c-0.4,0-0.9,0-1.5-0.1c-0.2-1.7-0.5-3.4-0.8-5.1
				c-1.1,0-2.2,0-3.5,0c0,1.6,0,3.2,0,5.1c-1.3,0.1-2.2,0.1-3.4,0.2C147.9,55.1,147.9,51,147.9,46.7z"/>
			<path class="st21" d="M265.9,59.2c0-4.4,0-8.5,0-12.9c2.5,0,4.9-0.2,7.3,0.1c2.3,0.3,3.1,3.7,1.3,5.7c-0.4,0.5-1.1,0.9-1.9,1.6
				c1.1,1,2,1.8,2.8,2.5c0.1-0.1,0.2-0.1,0.3-0.2c0.2,0.9,0.4,1.8,0.5,2.7c-2.7,0.6-3.4,0.3-4.7-1.9c-0.4-0.7-0.7-1.3-1.1-2
				c-0.8-1.5-0.7-2,0.6-3.1c0.7-0.6,1.2-1.2,0.7-2.1c-0.5-0.8-1.4-0.8-2.3-0.3c-0.2,3.2-0.4,6.5-0.6,9.9
				C267.9,59.2,267,59.2,265.9,59.2z"/>
			<path class="st21" d="M126.4,53c-0.2,1.4,0.3,2.2,1.3,2.5c1.5,0.6,1.8,1.7,1.6,3.3c-0.9,0-1.8,0-2.7,0c-2.2-1.7-3.4-4.1-3.3-6.5
				c0.7-0.6,1.3-1.3,2.3-2.2c-1.1-0.6-1.8-1-2.8-1.5c-1.5,3.6-0.3,7-1,10.5c-0.8,0.1-1.7,0.1-2.7,0.2c0-4.4,0-8.6,0-13
				c2.3,0,4.6-0.1,6.8,0c1.2,0.1,2,0.9,2.3,2.2c0.4,1.5-0.2,2.7-1.1,3.8C127,52.6,126.6,52.8,126.4,53z"/>
			<path class="st21" d="M287.8,59.5c-1.8-0.3-3.2-0.4-5-0.7c-3,1.7-5.8-0.6-5.8-4.3c0-2.4,0-4.8,0-7.3c0.8,0,1.8,0,3.1,0
				c0,1.6-0.1,3.2,0,4.7c0.1,1,0.3,2,0.7,2.9c0.6,1.4,2.1,1.4,2.8,0.1c0.4-0.8,0.6-1.8,0.6-2.7c0.1-1.5,0-3.1,0-4.7
				c0.9,0,1.8,0,2.9,0C287.4,51.3,287.6,55.2,287.8,59.5z"/>
			<path class="st21" d="M106.5,53c0.2-1.1,0.3-2.3,0.7-3.3c0.8-2.1,3.6-4.1,5.2-3.8c3.4,0.7,4.7,1.9,5.4,5.2c0.5,2.5,0,4.9-2.1,6.7
				c-1.8,1.6-3.7,2-5.9,1.1c-1.8-0.7-3.1-2.7-3.1-4.8c0-0.4,0-0.8,0-1.1C106.7,53.1,106.6,53,106.5,53z M109.8,52.5
				c0,0.4-0.1,0.9,0,1.3c0.2,1.3,1.9,2.8,3,2.8c1-0.1,2.1-1.1,2.2-2.7c0.1-1,0.1-2-0.2-3c-0.4-1.5-1.5-2.1-2.8-2
				C110.6,49.1,109.7,50.4,109.8,52.5z"/>
			<path class="st21" d="M187.2,59.6c-4.4,0.1-6.3-4.6-5.6-7.8c0.4-2,0.9-4,3.2-5c1.9-0.8,4.3-0.9,5.8,0.4c1.8,1.4,2.8,5.4,1.9,7.5
				c-0.6,1.4-1,2.9-2.6,3.6C189.1,58.8,188.2,59.2,187.2,59.6z M190,52.8C190,52.8,190,52.8,190,52.8c0-0.4,0.1-0.9,0-1.3
				c-0.2-1.4-1.1-2.4-2.4-2.5c-1.5-0.1-2.3,0.3-2.6,2.1c-0.2,1.3-0.2,2.8,0.3,4c0.4,1,1.3,1.9,2.7,1.6c1.3-0.3,1.8-1.3,2-2.5
				C190,53.7,190,53.3,190,52.8z"/>
			<path class="st21" d="M220.6,53.4c0-2.5,0.4-4.8,2.6-6.4c2.3-1.7,6.1-1,7.5,1.6c1.8,3.3,1.4,7.1-1.4,9.5
				c-1.7,1.5-3.7,1.6-5.5,0.9c-1.9-0.7-3.1-2.3-3.2-4.5C220.6,54.2,220.6,53.8,220.6,53.4z M229.2,53c-0.2-0.9-0.3-1.6-0.5-2.3
				c-0.4-1.2-1.3-1.7-2.6-1.7c-1.4,0-2.1,0.9-2.2,2c-0.1,1.4,0,2.9,0.4,4.2c0.7,1.9,3.2,2,4.2,0.2C228.9,54.6,229,53.7,229.2,53z"/>
			<path class="st21" d="M303.6,55.1c-0.8-0.6-1.6-1.1-2.3-1.7c-0.9-0.7-2.2-1-2.5-2.4c-0.3-1.8,0.6-3.8,2.4-4.1
				c1.8-0.4,3.6-0.4,5.6-0.5c0,1.2,0,2.2,0,3.2c-1.3,1-3.1-0.6-4.3,1.2c1,0.6,1.9,1.3,2.9,1.8c2,1,2.2,2.5,1.8,4.7
				c-0.2,1.4-1.6,2.2-3.6,2.1c-1.6,0-3.1-0.1-4.7-0.2c0-0.9-0.1-1.6-0.1-2.1c0.7-0.9,1.4-0.8,2.3-0.5
				C302.1,56.9,303,56.7,303.6,55.1z"/>
			<path class="st21" d="M247.2,59.3c-0.1-1.1-0.1-2-0.1-3c1.5-0.3,3.1,1,4.6-0.5c0.4-0.6-0.1-1.2-0.8-1.7c-0.6-0.4-1.2-0.8-1.8-1.1
				c-1.7-0.9-2.2-1.7-2-3.5c0.1-1,1.3-2.5,2.5-2.8c1.4-0.3,2.9-0.4,4.3-0.4c0.4,0,0.8,0.4,1.1,0.5c0,0.9,0,1.7,0,2.7
				c-1.4,0.1-2.7,0.2-4.1,0.2c-0.1,0.2-0.1,0.3-0.2,0.5c0.4,0.4,0.7,0.9,1.1,1.2c0.7,0.5,1.4,0.8,2.1,1.3c1.5,1,2,2.8,1.5,4.5
				c-0.4,1.1-1.7,2-3.3,2C250.6,59.3,249.1,59.3,247.2,59.3z"/>
			<path class="st21" d="M201.7,47c1.3,0.1,2.2,0.2,3.3,0.3c-1.2,4-2.4,7.8-3.6,11.6c-1.2,0.2-2.3,0.4-3.4,0.6
				c-1.5-4-2.9-7.8-4.3-11.6c1-1.3,2.1-0.5,3.3-0.9c0.8,2.4,1.6,4.7,2.3,6.9c0.1,0,0.2,0,0.4,0C200.4,51.6,201,49.4,201.7,47z"/>
			<path class="st21" d="M206,59.2c-0.2-4-0.3-7.9-0.5-12c2.6,0,5,0,7.7,0c0,0.8-0.1,1.6-0.1,2.2c-1.6,0.7-3.3-0.4-4.7,1.4
				c1.1,0.3,1.9,0.5,2.9,0.7c0.1,0.8,0.1,1.7,0.2,2.6c-0.9,0.1-1.6,0.2-2.5,0.3c-0.1,0.5-0.2,1-0.3,1.7c1.5,0,2.8,0,4.4,0
				c0,1.1,0,2,0,3C210.6,59.2,208.4,59.2,206,59.2z"/>
			<path class="st21" d="M166.5,56.4c0,1.2,0,1.9,0,2.8c-2.2,0-4.3,0-6.7,0c-0.2-4-0.3-7.9-0.5-12c2.4,0,4.6,0,6.8,0
				c1,0.7,0.9,1.6,0.3,2.4c-1.4,0.6-3-0.5-4.3,1.3c1,0.3,1.8,0.5,2.8,0.7c0,0.8,0,1.6,0,2.5c-0.7,0.8-3-0.4-2.3,2.1
				C163.9,56.2,165.1,56.3,166.5,56.4z"/>
			<path class="st21" d="M264.9,46.7c0,1.1,0,2,0,2.9c-3.8,0-5.8,1.1-5.7,3.3c0,1.2,0,2.8,1.6,3.1c1.2,0.3,2.4,0.1,3.8,0.1
				c0,1,0,2,0,3.1c-2.3,0.5-4.5,0.4-6.6-0.9c-1.1-0.7-1.8-1.7-1.7-3.2c0.1-0.8,0.1-1.5,0-2.3c-0.3-3.4,1.5-5.7,5.4-6
				C262.7,46.6,263.8,46.7,264.9,46.7z"/>
			<path class="st21" d="M147.1,46.7c-0.2,1-0.3,1.7-0.4,2.5c-1.2,0.2-2.2,0.5-3.5,0.7c-0.8,3-0.1,6.1-0.5,9.3c-0.9,0-1.9,0-2.9,0
				c0-3,0-6,0-9.2c-1.1-0.2-2-0.3-3.2-0.5c-0.1-0.7-0.2-1.6-0.3-2.9C139.9,46.7,143.4,46.7,147.1,46.7z"/>
			<path class="st21" d="M232.7,47.3c0.3-0.1,0.5-0.3,0.7-0.3c1.9,0,3.8,0,5.8,0c0.5,0.8,1.1,1.6,0.2,2.5c-1.2,0.4-2.9-0.5-3.9,1.5
				c0.8,0.3,1.5,0.5,2.5,0.8c0,0.7,0,1.6,0,2.5c-0.7,0.2-1.2,0.3-2,0.5c0,1.3,0,2.6,0,4.1c-1.2,0-2.2,0-3.3,0
				C232.7,55.2,232.7,51.3,232.7,47.3z"/>
			<path class="st21" d="M104.5,54.5c-0.7,0.2-1.3,0.4-1.9,0.6c0,1.4,0,2.6,0,4.1c-1,0-1.9,0-3,0c-0.2-3.9-0.3-7.8-0.5-11.9
				c2.4,0,4.7,0,7.1,0c0,0.8,0.1,1.5,0.1,2c-1.2,1.2-3.7-0.5-3.9,2.2C104.9,51.9,105.1,52.2,104.5,54.5z"/>
			<path class="st21" d="M177.2,55.7c1.4,0.1,2.5,0.2,3.8,0.2c0,1.1,0.1,2.1,0.1,3.2c-2.3,0-4.5,0-6.7,0c0-4.2,0-8.3,0-12.7
				c0.8,0,1.7-0.1,2.8-0.2C177.2,49.5,177.2,52.5,177.2,55.7z"/>
		</g>
	</g>
</g>
</svg>
