<?xml version="1.0" encoding="utf-8"?>
<!-- Generator: Adobe Illustrator 24.3.0, SVG Export Plug-In . SVG Version: 6.00 Build 0)  -->
<svg version="1.1" id="Layer_1" xmlns="http://www.w3.org/2000/svg" xmlns:xlink="http://www.w3.org/1999/xlink" x="0px" y="0px"
	 viewBox="0 0 320 200" style="enable-background:new 0 0 320 200;" xml:space="preserve">
<style type="text/css">
	.st0{fill:#C6F9C2;}
	.st1{fill:#F7F6F4;stroke:#738694;stroke-miterlimit:10;}
	.st2{fill:#1E91D6;}
	.st3{fill:#E8F4FB;}
	.st4{fill:#F3A31D;}
	.st5{fill:#EF8D03;}
	.st6{fill:#FFD56F;}
	.st7{fill:#99C159;}
	.st8{fill:#6A8D03;}
	.st9{fill:#FACAAC;}
	.st10{fill:#DBA587;}
	.st11{fill:#FBDCCB;}
	.st12{fill:#FACAAB;}
	.st13{fill:#1E1E1C;}
	.st14{fill:#C07F1B;}
	.st15{fill:#FFFFFF;}
	.st16{fill:#FFFFFF;stroke:#DDDDDD;stroke-width:0.5;}
	.st17{fill:#25AC10;}
	.st18{fill:#131614;}
	.st19{fill:none;stroke:#DDDDDD;stroke-width:0.5;stroke-miterlimit:10;}
	.st20{fill:#001489;}
	.st21{fill:none;stroke:#DDDDDD;stroke-width:0.5;}
	.st22{fill:#9FA3B3;}
	.st23{fill:#FF8F12;}
	.st24{fill:none;stroke:#001489;stroke-width:0.5;stroke-miterlimit:10;}
	.st25{fill:#FF4E00;}
	.st26{fill:#AA6936;}
	.st27{fill:#84501E;}
	.st28{fill:#361F11;}
	.st29{fill:#FBE104;}
	.st30{fill:#FBF194;}
	.st31{fill:#BCA903;}
	.st32{fill:#985377;}
	.st33{fill:#425565;}
	.st34{fill:#738694;}
	.st35{fill:#919DA9;}
	.st36{fill:#525C84;}
	.st37{fill:#6A79AB;}
	.st38{fill:#A5A8C9;}
	.st39{fill:none;stroke:#131614;stroke-linecap:round;}
	.st40{fill:url(#SVGID_1_);}
</style>
<polygon class="st0" points="276.9,155 50.5,183.6 13,12.3 295.2,37.1 "/>
<g>
	<path class="st1" d="M314,143.6H130.7c-2.2,0-4-1.8-4-4V6c0-2.2,1.8-4,4-4H314c2.2,0,4,1.8,4,4v133.6
		C318,141.8,316.2,143.6,314,143.6z"/>
	<rect x="156.5" y="11.8" class="st2" width="14.8" height="3"/>
	<g>
		<circle class="st3" cx="145.6" cy="14.7" r="7"/>
		<path class="st4" d="M150.7,17.4c-1.1-1.2-2.4-1.3-3.6-0.4c-1.4,0.9-2.7,3.3-2,4.4c0.1,0.2,0.2,0.3,0.4,0.4c0.1,0,0.1,0,0.2,0
			c2.3,0,4.3-1.1,5.6-2.8C151.2,18.3,151,17.8,150.7,17.4z"/>
		<path class="st5" d="M150.7,17.4c-0.2-0.2-0.3-0.4-0.5-0.5c0.2,1.2-0.5,3.2-2.1,4c-0.7,0.3-1.2,0.6-1.8,0.8c2-0.2,3.7-1.2,4.9-2.7
			C151.2,18.3,151,17.8,150.7,17.4z"/>
		<path class="st4" d="M145.3,15.5c-1.1-0.8-3.7,0.1-4.8,1.4c-0.5,0.5-0.7,1.2-0.7,1.8c0.8,1.1,1.9,2,3.1,2.5
			c0.7-0.1,1.3-0.6,1.7-1.3C145.5,18.4,146.4,16.3,145.3,15.5z"/>
		<path class="st6" d="M140.5,16.9c-0.5,0.5-0.7,1.2-0.7,1.8c0.2,0.3,0.4,0.6,0.7,0.8c-0.3-1-0.1-2.3,0.5-3.1
			c0.1-0.1,0.2-0.2,0.3-0.3C141.1,16.4,140.8,16.6,140.5,16.9z"/>
		<path class="st4" d="M145.6,11.5c1.1,0.7,0.1,2.9-0.7,4.4c-0.8,1.3-2,1.8-3.5,1.1c-1.2-0.5-2-2.2-0.4-3.9
			C142,11.8,144.5,10.8,145.6,11.5z"/>
		<path class="st4" d="M146,16.3c-0.5-0.9,0.1-1.6,1.4-2.5c1.2-0.8,2.8-0.4,3.7,0.6c0.7,0.8,0.9,2.2-1.1,3
			C148.5,18,146.5,17.2,146,16.3z"/>
		<path class="st6" d="M141.1,12.8c-0.1,0.1-0.1,0.1-0.2,0.2c-1.5,1.7-0.7,3.4,0.4,3.9c0.3,0.1,0.5,0.2,0.8,0.2
			C140.4,16.2,139.9,14.4,141.1,12.8z"/>
		<path class="st5" d="M151.1,14.4c-0.3-0.3-0.7-0.6-1.1-0.8c1,1.2,0.9,3.1-1.4,4c0.5,0,0.9,0,1.3-0.2
			C152.1,16.5,151.9,15.1,151.1,14.4z"/>
		<path class="st7" d="M145.6,21.7c0.7,0,1.4-0.1,2-0.3c-0.2-1-0.3-1.5-0.3-1.8c-0.2-1.2-1.2-2.2-2.5-2.2s-2.1,0.7-2.4,1.9
			c-0.1,0.2-0.2,0.7-0.3,1.4C143.1,21.3,144.3,21.7,145.6,21.7z"/>
		<path class="st8" d="M144.8,20.4c1,0,1.9-0.5,2.3-1.3c-0.4-1-1.2-1.7-2.4-1.7s-1.9,0.6-2.3,1.6C142.8,19.8,143.8,20.4,144.8,20.4z
			"/>
		<path class="st9" d="M144.3,15.1h1.8v4.2c-0.4,0.4-1.4,0.4-1.8-0.2V15.1z"/>
		<path class="st10" d="M146,19.3V17h-0.6v2.5C145.7,19.5,145.9,19.4,146,19.3z"/>
		<path class="st11" d="M144.5,15.1h-0.2v4c0.1,0.1,0.2,0.2,0.3,0.3L144.5,15.1z"/>
		<path class="st9" d="M148.8,14.3c0,1.4-1.8,4.6-2.9,4.6c-1.3,0-2.9-3.3-2.9-4.6c0-1.4,1.5-2.5,2.9-2.5
			C147.3,11.7,148.8,12.9,148.8,14.3z"/>
		<path class="st11" d="M144.5,17.9c-0.7-1.4-0.5-4.4-0.1-5.7c-0.8,0.5-1.3,1.2-1.3,2.1C143.1,15.2,143.7,16.8,144.5,17.9z"/>
		<path class="st12" d="M143.6,13.1c0-0.1-0.1-0.2-0.2-0.2c-0.4,0.1-0.7,0.7-0.7,1.4s0.3,1.2,0.7,1.4c0.1,0,0.2,0,0.2-0.2V13.1z"/>
		<path class="st11" d="M142.9,14.3c0-0.5,0.1-1,0.4-1.3c-0.3,0.2-0.5,0.7-0.5,1.2s0.2,0.9,0.5,1.2C143,15.2,142.9,14.8,142.9,14.3z
			"/>
		<path class="st13" d="M148,15.2C148,15.1,148,15.1,148,15.2c0-0.1,0-0.1,0-0.1s0,0,0-0.1c0,0,0,0,0-0.1l0,0l0,0l0,0l0,0l0,0l0,0
			l0,0l0,0c0,0,0,0,0,0.1c0,0,0,0,0,0.1S148,15.1,148,15.2c0,0,0,0,0,0.1c0,0,0,0,0,0.1c0,0,0,0,0,0.1c0,0,0,0,0,0.1c0,0,0,0,0,0.1
			l0,0l0,0l0,0l0,0l0,0l0,0l0,0l0,0c0,0,0,0,0-0.1c0,0,0,0,0-0.1C148,15.3,148,15.2,148,15.2L148,15.2z"/>
		<path class="st13" d="M145.6,14.8C145.6,14.7,145.6,14.7,145.6,14.8c0-0.1,0-0.1,0-0.1s0,0,0-0.1c0,0,0,0,0-0.1l0,0l0,0l0,0l0,0
			l0,0l0,0l0,0l0,0c0,0,0,0,0,0.1c0,0,0,0,0,0.1S145.6,14.7,145.6,14.8c0,0,0,0,0,0.1c0,0,0,0,0,0.1c0,0,0,0,0,0.1c0,0,0,0,0,0.1
			s0,0,0,0.1l0,0l0,0l0,0l0,0l0,0l0,0l0,0l0,0c0,0,0,0,0-0.1c0,0,0,0,0-0.1C145.6,14.9,145.6,14.9,145.6,14.8L145.6,14.8z"/>
		<path class="st10" d="M146.5,16.5c0.3,0.2,0.5,0.1,0.4,0.2c0,0.1-0.3,0.1-0.6,0s-0.3-0.2-0.2-0.3
			C146.1,16.3,146.3,16.4,146.5,16.5z"/>
		<path class="st14" d="M145.7,13.6c-0.3-0.1-0.8,0-0.8-0.1s0.5-0.3,0.9-0.2c0.3,0.1,0.3,0.2,0.3,0.3
			C146.1,13.8,145.9,13.8,145.7,13.6z"/>
		<path class="st14" d="M147.8,14c0.3-0.1,0.8,0.2,0.8,0.1c0-0.1-0.4-0.4-0.9-0.3c-0.3,0-0.3,0.1-0.3,0.2
			C147.4,14,147.6,14.1,147.8,14z"/>
		<path class="st15" d="M145.2,16.8c0.3,0.3,0.7,0.5,1,0.6v0.1c-0.2,0.2-0.6,0.2-0.8,0C145.2,17.5,145.1,17.2,145.2,16.8
			C145.1,16.8,145.2,16.8,145.2,16.8z"/>
		<path class="st10" d="M148.7,14.3c0,0.8-0.5,2-1.1,3.1C148.3,16.4,148.8,15,148.7,14.3c0.1-0.9-0.5-1.7-1.4-2.2
			C148.1,12.6,148.7,13.4,148.7,14.3z"/>
		<path class="st4" d="M149.4,14.4c-0.6,0.9-1.4-1.5-2.8-2c-1.4-0.4-1.4-0.8-1-2.1c0.4-1,1.3-1.6,3.2-0.4
			C150.9,11.2,149.9,13.5,149.4,14.4z"/>
		<path class="st5" d="M149.3,10.3c0.9,1.3,0.4,3.1-0.1,3.7c-0.7,0.8-0.8-1.4-2.8-1.6c-0.1,0-0.1,0-0.2,0c0.1,0,0.3,0.1,0.4,0.1
			c1.4,0.4,2.2,2.9,2.8,2C149.9,13.6,150.8,11.5,149.3,10.3z"/>
		<path class="st4" d="M148.3,9.4c0.7,1.1-0.9,2.8-2.3,3.7c-1.4,0.9-3,1.2-3.7,0.1s-0.7-3,0.9-4.1C144.6,8.3,147.6,8.3,148.3,9.4z"
			/>
		<path class="st6" d="M143.5,9.4c0.9-0.6,2.5-0.8,3.6-0.7c-1.2-0.3-2.9-0.1-4,0.5c-1.6,1-1.6,3-0.9,4.1l0.1,0.1
			C141.8,12.4,142,10.4,143.5,9.4z"/>
		<path class="st5" d="M145.8,13c-0.9,0.6-1.7,0.9-2.5,1c0.8,0.2,1.8-0.2,2.7-0.8c1.1-0.7,2.3-2,2.5-3C148,11.2,146.8,12.3,145.8,13
			z"/>
	</g>
	<path class="st16" d="M307.7,140.3H179.9c-1.1,0-2-0.9-2-2V28.5c0-1.1,0.9-2,2-2h127.7c1.1,0,2,0.9,2,2v109.8
		C309.7,139.4,308.8,140.3,307.7,140.3z"/>
	<path class="st16" d="M170.6,33.2h-29c-1.7,0-3.2-1.4-3.2-3.2l0,0c0-1.7,1.4-3.2,3.2-3.2h29c1.7,0,3.2,1.4,3.2,3.2l0,0
		C173.8,31.8,172.4,33.2,170.6,33.2z"/>
	<circle class="st17" cx="173.4" cy="27.7" r="2"/>
	<g>
		<path d="M157,18.5c-0.1,0-0.3,0-0.4-0.1c-0.1,0-0.2-0.1-0.3-0.2l0.1-0.1c0.1,0.1,0.1,0.1,0.2,0.2c0.1,0,0.2,0.1,0.3,0.1
			c0.2,0,0.3,0,0.3-0.1c0.1-0.1,0.1-0.1,0.1-0.2s0-0.1-0.1-0.2c0,0-0.1-0.1-0.2-0.1c-0.1,0-0.1,0-0.3-0.1c-0.1,0-0.2-0.1-0.3-0.1
			s-0.1-0.1-0.2-0.1c-0.1-0.1-0.1-0.1-0.1-0.3c0-0.1,0-0.2,0.1-0.2c0-0.1,0.1-0.1,0.2-0.2c0.1,0,0.2-0.1,0.4-0.1c0.1,0,0.2,0,0.3,0
			s0.2,0.1,0.2,0.1l-0.1,0.1c-0.1,0-0.1-0.1-0.2-0.1c-0.1,0-0.2,0-0.2,0c-0.2,0-0.3,0-0.3,0.1c-0.1,0.1-0.1,0.1-0.1,0.2
			s0,0.1,0.1,0.2c0,0,0.1,0.1,0.2,0.1c0.1,0,0.1,0,0.3,0.1c0.1,0,0.2,0.1,0.3,0.1s0.1,0.1,0.2,0.1c0.1,0.1,0.1,0.1,0.1,0.3
			c0,0.1,0,0.2-0.1,0.2c0,0.1-0.1,0.1-0.2,0.2C157.3,18.4,157.1,18.5,157,18.5L157,18.5z"/>
		<path d="M158.7,18.4l-0.1,0.1c0,0-0.1,0-0.2,0c-0.1,0-0.2,0-0.3-0.1s-0.1-0.2-0.1-0.3v-0.8h-0.2v-0.1h0.2v-0.3h0.2v0.3h0.4v0.1
			h-0.4v0.8c0,0.1,0,0.1,0.1,0.2c0,0,0.1,0.1,0.2,0.1h0.1L158.7,18.4L158.7,18.4z"/>
		<path d="M159.2,17.4c0-0.1,0.1-0.2,0.2-0.2c0.1,0,0.2-0.1,0.3-0.1v0.2l0,0c-0.1,0-0.2,0-0.3,0.1s-0.1,0.2-0.1,0.4v0.7H159v-1.3
			h0.2V17.4L159.2,17.4z"/>
		<path d="M161.1,17.9H160c0,0.1,0.1,0.2,0.2,0.3c0.1,0.1,0.2,0.1,0.4,0.1c0.1,0,0.2,0,0.2,0c0.1,0,0.1-0.1,0.2-0.1l0.1,0.1
			c-0.1,0.1-0.1,0.1-0.2,0.2c-0.1,0-0.2,0.1-0.3,0.1s-0.3,0-0.4-0.1c-0.1-0.1-0.2-0.1-0.2-0.2c-0.1-0.1-0.1-0.2-0.1-0.3
			c0-0.1,0-0.2,0.1-0.3c0.1-0.1,0.1-0.2,0.2-0.2c0.1-0.1,0.2-0.1,0.3-0.1s0.2,0,0.3,0.1s0.2,0.1,0.2,0.2
			C161.1,17.6,161.1,17.7,161.1,17.9L161.1,17.9z M160.5,17.3c-0.1,0-0.2,0-0.3,0.1s-0.1,0.2-0.1,0.3h0.9c0-0.1-0.1-0.2-0.1-0.3
			C160.7,17.3,160.6,17.3,160.5,17.3L160.5,17.3z"/>
		<path d="M162.6,17.9h-1.1c0,0.1,0.1,0.2,0.2,0.3c0.1,0.1,0.2,0.1,0.4,0.1c0.1,0,0.2,0,0.2,0c0.1,0,0.1-0.1,0.2-0.1l0.1,0.1
			c-0.1,0.1-0.1,0.1-0.2,0.2c-0.1,0-0.2,0.1-0.3,0.1s-0.3,0-0.4-0.1c-0.1-0.1-0.2-0.1-0.2-0.2c-0.1-0.1-0.1-0.2-0.1-0.3
			c0-0.1,0-0.2,0.1-0.3c0.1-0.1,0.1-0.2,0.2-0.2c0.1-0.1,0.2-0.1,0.3-0.1s0.2,0,0.3,0.1s0.2,0.1,0.2,0.2
			C162.6,17.6,162.6,17.7,162.6,17.9L162.6,17.9z M162,17.3c-0.1,0-0.2,0-0.3,0.1s-0.1,0.2-0.1,0.3h0.9c0-0.1-0.1-0.2-0.1-0.3
			C162.2,17.3,162.1,17.3,162,17.3L162,17.3z"/>
		<path d="M163.6,18.4l-0.1,0.1c0,0-0.1,0-0.2,0c-0.1,0-0.2,0-0.3-0.1s-0.1-0.2-0.1-0.3v-0.8h-0.2v-0.1h0.2v-0.3h0.2v0.3h0.4v0.1
			h-0.4v0.8c0,0.1,0,0.1,0.1,0.2c0,0,0.1,0.1,0.2,0.1h0.1L163.6,18.4L163.6,18.4z"/>
		<path d="M165.4,18.5c-0.2,0-0.3,0-0.5-0.1c-0.1-0.1-0.2-0.2-0.3-0.3c-0.1-0.1-0.1-0.3-0.1-0.5s0-0.3,0.1-0.5
			c0.1-0.1,0.2-0.2,0.3-0.3c0.1-0.1,0.3-0.1,0.5-0.1c0.1,0,0.2,0,0.4,0.1c0.1,0,0.2,0.1,0.3,0.2l-0.1,0.1c-0.1-0.1-0.3-0.2-0.5-0.2
			c-0.1,0-0.3,0-0.4,0.1c-0.1,0.1-0.2,0.1-0.3,0.3c-0.1,0.1-0.1,0.2-0.1,0.4c0,0.1,0,0.3,0.1,0.4s0.2,0.2,0.3,0.3
			C165.2,18.5,165.3,18.5,165.4,18.5c0.3,0,0.5-0.1,0.6-0.2l0.1,0.1c-0.1,0.1-0.2,0.1-0.3,0.2C165.6,18.4,165.5,18.5,165.4,18.5
			L165.4,18.5z"/>
		<path d="M167,17.1c0.2,0,0.3,0,0.4,0.1c0.1,0.1,0.1,0.2,0.1,0.4v0.8h-0.2v-0.7c0-0.1,0-0.2-0.1-0.3c-0.1-0.1-0.2-0.1-0.3-0.1
			s-0.3,0-0.3,0.1c-0.1,0.1-0.1,0.2-0.1,0.3v0.7h-0.2v-1.8h0.2v0.8c0-0.1,0.1-0.1,0.2-0.2C166.8,17.2,166.9,17.1,167,17.1L167,17.1z
			"/>
		<path d="M168.5,17.1c0.2,0,0.3,0,0.4,0.1c0.1,0.1,0.1,0.2,0.1,0.4v0.8h-0.2v-0.2c0,0.1-0.1,0.1-0.2,0.2c-0.1,0-0.2,0.1-0.3,0.1
			s-0.3,0-0.3-0.1c-0.1-0.1-0.1-0.2-0.1-0.3c0-0.1,0-0.2,0.1-0.3c0.1-0.1,0.2-0.1,0.4-0.1h0.4v-0.1c0-0.1,0-0.2-0.1-0.3
			c-0.1-0.1-0.2-0.1-0.3-0.1s-0.2,0-0.2,0c-0.1,0-0.1,0.1-0.2,0.1l-0.1-0.1c0.1-0.1,0.1-0.1,0.2-0.1
			C168.3,17.2,168.4,17.1,168.5,17.1L168.5,17.1z M168.4,18.3c0.1,0,0.2,0,0.3-0.1c0.1,0,0.1-0.1,0.2-0.2v-0.2h-0.4
			c-0.2,0-0.3,0.1-0.3,0.2s0,0.1,0.1,0.2C168.2,18.3,168.3,18.3,168.4,18.3L168.4,18.3z"/>
		<path d="M171.1,17.1c0.2,0,0.3,0,0.4,0.1c0.1,0.1,0.1,0.2,0.1,0.4v0.8h-0.2v-0.7c0-0.1,0-0.2-0.1-0.3c-0.1-0.1-0.2-0.1-0.3-0.1
			s-0.2,0-0.3,0.1s-0.1,0.2-0.1,0.3v0.7h-0.2v-0.7c0-0.1,0-0.2-0.1-0.3c-0.1-0.1-0.2-0.1-0.3-0.1s-0.2,0-0.3,0.1s-0.1,0.2-0.1,0.3
			v0.7h-0.2v-1.3h0.2v0.2c0-0.1,0.1-0.1,0.2-0.2c0.1,0,0.2-0.1,0.3-0.1s0.2,0,0.3,0.1c0.1,0,0.1,0.1,0.2,0.2c0-0.1,0.1-0.2,0.2-0.2
			C170.9,17.2,171,17.1,171.1,17.1L171.1,17.1z"/>
		<path d="M172.8,17.1c0.1,0,0.2,0,0.3,0.1s0.2,0.1,0.2,0.2c0.1,0.1,0.1,0.2,0.1,0.3c0,0.1,0,0.2-0.1,0.3c-0.1,0.1-0.1,0.2-0.2,0.2
			c-0.1,0.1-0.2,0.1-0.3,0.1s-0.2,0-0.3-0.1c-0.1,0-0.2-0.1-0.2-0.2v0.7h-0.2v-1.8h0.2v0.3c0.1-0.1,0.1-0.2,0.2-0.2
			C172.6,17.2,172.7,17.1,172.8,17.1L172.8,17.1z M172.8,18.3c0.1,0,0.2,0,0.2-0.1c0.1,0,0.1-0.1,0.2-0.2c0-0.1,0.1-0.2,0.1-0.3
			c0-0.1,0-0.2-0.1-0.3c0-0.1-0.1-0.1-0.2-0.2c-0.1,0-0.2-0.1-0.2-0.1c-0.1,0-0.2,0-0.2,0.1c-0.1,0-0.1,0.1-0.2,0.2
			c0,0.1-0.1,0.2-0.1,0.3c0,0.1,0,0.2,0.1,0.3c0,0.1,0.1,0.1,0.2,0.2C172.6,18.3,172.7,18.3,172.8,18.3L172.8,18.3z"/>
		<path d="M173.9,16.9C173.8,16.9,173.8,16.9,173.9,16.9c-0.1-0.1-0.1-0.1-0.1-0.1v-0.1h0.1h0.1v0.1C174,16.8,174,16.8,173.9,16.9
			L173.9,16.9L173.9,16.9z M173.8,17.2h0.2v1.3h-0.2V17.2z"/>
		<path d="M175,18.5c-0.1,0-0.2,0-0.3-0.1s-0.2-0.1-0.2-0.2c-0.1-0.1-0.1-0.2-0.1-0.3c0-0.1,0-0.2,0.1-0.3c0.1-0.1,0.1-0.2,0.2-0.2
			c0.1-0.1,0.2-0.1,0.3-0.1s0.2,0,0.3,0.1s0.2,0.1,0.2,0.2c0.1,0.1,0.1,0.2,0.1,0.3c0,0.1,0,0.2-0.1,0.3c-0.1,0.1-0.1,0.2-0.2,0.2
			C175.2,18.4,175.1,18.5,175,18.5L175,18.5z M175,18.3c0.1,0,0.2,0,0.2-0.1c0.1,0,0.1-0.1,0.2-0.2c0-0.1,0.1-0.2,0.1-0.3
			c0-0.1,0-0.2-0.1-0.3c0-0.1-0.1-0.1-0.2-0.2c-0.1,0-0.2-0.1-0.2-0.1c-0.1,0-0.2,0-0.2,0.1c-0.1,0-0.1,0.1-0.2,0.2
			c0,0.1-0.1,0.2-0.1,0.3c0,0.1,0,0.2,0.1,0.3c0,0.1,0.1,0.1,0.2,0.2C174.8,18.3,174.9,18.3,175,18.3L175,18.3z"/>
		<path d="M176.7,17.1c0.2,0,0.3,0,0.4,0.1c0.1,0.1,0.1,0.2,0.1,0.4v0.8H177v-0.7c0-0.1,0-0.2-0.1-0.3c-0.1-0.1-0.2-0.1-0.3-0.1
			s-0.3,0-0.3,0.1c-0.1,0.1-0.1,0.2-0.1,0.3v0.7H176v-1.3h0.2v0.2c0-0.1,0.1-0.1,0.2-0.2C176.5,17.2,176.6,17.1,176.7,17.1
			L176.7,17.1z"/>
	</g>
	<path class="st18" d="M142,30.9c-1.2,0.1-1.2-1.8,0-1.8C143.2,29,143.2,30.9,142,30.9L142,30.9z M142,30.5c0.7,0,0.7-1.1,0-1.1
		S141.3,30.5,142,30.5z"/>
	<path class="st18" d="M144,29.5c1.2,0,0.5,2-0.4,1.2v0.6h-0.4v-1.8h0.4v0.2C143.6,29.6,143.8,29.5,144,29.5z M143.9,30.5
		c0.4,0,0.4-0.7,0-0.7S143.5,30.6,143.9,30.5z"/>
	<path class="st18" d="M146.2,30.2c0,0,0,0,0,0.1h-1c0.1,0.3,0.5,0.3,0.7,0.1l0.2,0.2C143.8,31.8,145.3,27.8,146.2,30.2L146.2,30.2z
		 M145.5,29.8c-0.2,0-0.3,0.1-0.3,0.3h0.6C145.8,29.9,145.6,29.8,145.5,29.8L145.5,29.8z"/>
	<path class="st18" d="M147.2,29.5c0.7,0,0.5,0.9,0.5,1.3h-0.4c0.2-1.3-0.8-1.3-0.6,0h-0.4v-1.3h0.4v0.2
		C146.9,29.6,147,29.5,147.2,29.5z"/>
	<path class="st18" d="M149.9,30.8c-0.1-0.2-0.4-0.6-0.7-0.5v0.5h-0.4v-1.7c0.8-0.2,2.2,0.4,1.1,1.2l0.4,0.5H149.9z M149.9,29.7
		c0-0.4-0.4-0.3-0.7-0.3V30C149.5,30,149.9,30.1,149.9,29.7L149.9,29.7z"/>
	<path class="st18" d="M151.9,30.2c0,0,0,0,0,0.1h-1c0.1,0.3,0.5,0.3,0.7,0.1l0.2,0.2C149.5,31.8,151,27.8,151.9,30.2L151.9,30.2z
		 M151.2,29.8c-0.2,0-0.3,0.1-0.3,0.3h0.6C151.5,29.9,151.4,29.8,151.2,29.8L151.2,29.8z"/>
	<path class="st18" d="M153.5,29.5v1.8h-0.4v-0.6c-1.4,0.9-1.3-2,0-1v-0.2C153.1,29.5,153.5,29.5,153.5,29.5z M152.7,30.5
		c0.4,0,0.4-0.7,0-0.7S152.3,30.6,152.7,30.5z"/>
	<path class="st18" d="M155.1,29.5v1.3h-0.4v-0.2c-0.8,0.7-1.1-0.5-1-1.2h0.4c-0.2,1.3,0.8,1.3,0.6,0h0.4V29.5z"/>
	<path class="st18" d="M156.8,30.2c0,0,0,0,0,0.1h-1c0.1,0.3,0.5,0.3,0.7,0.1l0.2,0.2C154.4,31.8,155.9,27.8,156.8,30.2L156.8,30.2z
		 M156.1,29.8c-0.2,0-0.3,0.1-0.3,0.3h0.6C156.4,29.9,156.3,29.8,156.1,29.8L156.1,29.8z"/>
	<path class="st18" d="M157.5,30.8c-0.2,0-0.4,0-0.6-0.1l0.1-0.3c1,0.3,0.7-0.1,0-0.3c-0.4-0.6,0.6-0.8,1-0.5l-0.1,0.3
		c-0.1-0.1-0.8-0.2-0.6,0.1C158.1,29.9,158.4,30.9,157.5,30.8L157.5,30.8z"/>
	<path class="st18" d="M159.2,30.8c-0.6,0.4-0.6-0.5-0.6-0.9h-0.1v-0.3h0.1v-0.3h0.3v0.3h0.2v0.3h-0.2c0,0.1-0.1,0.9,0.2,0.7
		L159.2,30.8z"/>
	<path class="st18" d="M159.8,30.8c-0.2,0-0.4,0-0.6-0.1l0.1-0.3c1,0.3,0.7-0.1,0-0.3c-0.4-0.6,0.6-0.8,1-0.5l-0.1,0.3
		c-0.1-0.1-0.8-0.2-0.6,0.1C160.5,29.9,160.7,30.9,159.8,30.8L159.8,30.8z"/>
	<polygon class="st15" points="173.9,28.2 173.7,28.2 173.7,28.4 173.5,28.4 173.5,28.2 172.9,28.2 172.9,28 173.4,27.3 173.7,27.3 
		173.2,27.9 173.5,27.9 173.5,27.7 173.7,27.7 173.7,27.9 173.9,27.9 	"/>
	<polygon class="st18" points="142.7,38.6 142.7,37.5 142.2,38.4 142,38.4 141.5,37.6 141.5,38.6 141.2,38.6 141.2,36.8 141.5,36.8 
		142.1,37.9 142.8,36.8 143.1,36.8 143.1,38.6 	"/>
	<path class="st18" d="M144.8,37.2c-0.3,0.5-0.6,2.3-1.5,1.7l0.1-0.3c0.1,0.1,0.4,0.1,0.4-0.1l-0.6-1.3h0.4l0.4,0.9l0.4-0.9
		C144.4,37.2,144.8,37.2,144.8,37.2z"/>
	<path class="st18" d="M146.8,38.2H146l-0.2,0.4h-0.4l0.8-1.7h0.4l0.8,1.7H147L146.8,38.2z M146.6,37.9l-0.3-0.7l-0.3,0.7H146.6z"/>
	<path class="st18" d="M148.1,38.6c-1.5-0.1-0.2-2.2,0.6-1l-0.3,0.2c-0.8-0.8-0.8,1.2,0,0.4l0.3,0.2
		C148.6,38.5,148.4,38.6,148.1,38.6L148.1,38.6z"/>
	<path class="st18" d="M149.5,38.6c-1.5-0.1-0.2-2.2,0.6-1l-0.3,0.2c-0.8-0.8-0.8,1.2,0,0.4l0.3,0.2C150,38.5,149.8,38.6,149.5,38.6
		L149.5,38.6z"/>
	<path class="st18" d="M151.6,37.9C151.6,37.9,151.6,37.9,151.6,37.9l-1,0.1c0.1,0.3,0.5,0.3,0.7,0.1l0.2,0.2
		C149.2,39.5,150.7,35.6,151.6,37.9L151.6,37.9z M150.9,37.5c-0.2,0-0.3,0.1-0.3,0.3h0.6C151.2,37.6,151.1,37.5,150.9,37.5
		L150.9,37.5z"/>
	<path class="st18" d="M152.6,37.2c1.2,0,0.5,2-0.4,1.2V39h-0.4v-1.8h0.4v0.2C152.3,37.3,152.4,37.2,152.6,37.2z M152.6,38.3
		c0.4,0,0.4-0.7,0-0.7C152.1,37.5,152.1,38.3,152.6,38.3z"/>
	<path class="st18" d="M154.4,38.5c-0.7,0.4-0.9-0.4-0.8-0.9h-0.2v-0.3h0.2V37h0.4v0.3h0.3v0.3H154c0,0.2-0.1,0.9,0.3,0.7
		L154.4,38.5z"/>
	<path class="st18" d="M155.8,37.9C155.8,37.9,155.8,37.9,155.8,37.9l-1,0.1c0.1,0.3,0.5,0.3,0.7,0.1l0.2,0.2
		C153.4,39.5,154.9,35.6,155.8,37.9L155.8,37.9z M155.2,37.5c-0.2,0-0.3,0.1-0.3,0.3h0.6C155.5,37.6,155.3,37.5,155.2,37.5
		L155.2,37.5z"/>
	<path class="st18" d="M157.4,36.7v1.8H157v-0.2c-1.3,0.9-1.4-1.9,0-1v-0.6H157.4z M156.7,38.3c0.4,0,0.4-0.7,0-0.7
		C156.3,37.5,156.3,38.3,156.7,38.3z"/>
	<path class="st18" d="M159.6,38.6l-0.3-0.5c0,0-0.3,0-0.4,0v0.5h-0.4v-1.7c0.8-0.2,2.2,0.4,1.1,1.2l0.4,0.5H159.6z M159.6,37.5
		c0-0.4-0.4-0.3-0.7-0.3v0.6C159.1,37.8,159.6,37.8,159.6,37.5L159.6,37.5z"/>
	<path class="st18" d="M161.6,37.9C161.6,37.9,161.6,37.9,161.6,37.9l-1,0.1c0.1,0.3,0.5,0.3,0.7,0.1l0.2,0.2
		C159.1,39.5,160.7,35.6,161.6,37.9L161.6,37.9z M160.9,37.5c-0.2,0-0.3,0.1-0.3,0.3h0.6C161.2,37.6,161,37.5,160.9,37.5L160.9,37.5
		z"/>
	<path class="st18" d="M163.1,37.2V39h-0.4v-0.6c-1.4,0.9-1.3-2,0-1v-0.2H163.1z M162.4,38.3c0.4,0,0.4-0.7,0-0.7
		C162,37.5,162,38.3,162.4,38.3z"/>
	<path class="st18" d="M164.8,37.2v1.3h-0.4v-0.2c-0.8,0.7-1.1-0.5-1-1.2h0.4c-0.2,1.3,0.8,1.3,0.6,0h0.4V37.2z"/>
	<path class="st18" d="M166.5,37.9C166.5,37.9,166.5,37.9,166.5,37.9l-1,0.1c0.1,0.3,0.5,0.3,0.7,0.1l0.2,0.2
		C164,39.5,165.6,35.6,166.5,37.9L166.5,37.9z M165.8,37.5c-0.2,0-0.3,0.1-0.3,0.3h0.6C166.1,37.6,165.9,37.5,165.8,37.5L165.8,37.5
		z"/>
	<path class="st18" d="M167.1,38.6c-0.2,0-0.4,0-0.6-0.1l0.1-0.3c1,0.3,0.8-0.1,0-0.3c-0.4-0.6,0.6-0.8,1-0.5l-0.1,0.3
		c-0.1-0.1-0.8-0.2-0.6,0.1C167.8,37.7,168.1,38.6,167.1,38.6L167.1,38.6z"/>
	<path class="st18" d="M168.8,38.5c-0.7,0.4-0.9-0.4-0.8-0.9h-0.2v-0.3h0.2V37h0.4v0.3h0.3v0.3h-0.3c0,0.2-0.1,0.9,0.3,0.7
		L168.8,38.5z"/>
	<path class="st18" d="M169.5,38.6c-0.2,0-0.4,0-0.6-0.1l0.1-0.3c1,0.3,0.8-0.1,0-0.3c-0.4-0.6,0.6-0.8,1-0.5l-0.1,0.3
		c-0.1-0.1-0.8-0.2-0.6,0.1C170.2,37.7,170.4,38.6,169.5,38.6L169.5,38.6z"/>
	<polygon class="st18" points="142.7,46.1 142.7,45.1 142.2,46 142,46 141.5,45.1 141.5,46.1 141.2,46.1 141.2,44.4 141.5,44.4 
		142.1,45.5 142.8,44.4 143.1,44.4 143.1,46.1 	"/>
	<path class="st18" d="M144.8,44.8c-0.3,0.5-0.6,2.3-1.5,1.7l0.1-0.3c0.1,0.1,0.4,0.1,0.4-0.1l-0.6-1.3h0.4l0.4,0.9l0.4-0.9
		C144.4,44.8,144.8,44.8,144.8,44.8z"/>
	<path class="st18" d="M146.2,46.2c-0.2,0-0.5-0.1-0.7-0.2l0.1-0.3c0.8,0.5,1.3-0.2,0.2-0.3c-0.9-0.6,0.4-1.3,1-0.8l-0.1,0.3
		c-0.2-0.2-1.1-0.2-0.7,0.2C146.9,45.1,147.3,46.1,146.2,46.2L146.2,46.2z"/>
	<path class="st18" d="M148,46.1c-0.7,0.4-0.9-0.4-0.8-0.9H147v-0.3h0.2v-0.3h0.4v0.3h0.3v0.3h-0.3c0,0.2-0.1,0.9,0.3,0.7L148,46.1z
		"/>
	<path class="st18" d="M148.6,45c0.1-0.1,0.3-0.2,0.5-0.2v0.4c-0.6-0.1-0.4,0.6-0.4,1h-0.4v-1.3h0.4V45H148.6z"/>
	<path class="st18" d="M150.5,45.5C150.5,45.5,150.5,45.5,150.5,45.5l-1,0.1c0.1,0.3,0.5,0.3,0.7,0.1l0.2,0.2
		C148.1,47.1,149.6,43.2,150.5,45.5L150.5,45.5z M149.9,45.1c-0.2,0-0.3,0.1-0.3,0.3h0.6C150.2,45.2,150,45.1,149.9,45.1L149.9,45.1
		z"/>
	<path class="st18" d="M152.1,45.5C152.1,45.5,152.1,45.5,152.1,45.5l-1,0.1c0.1,0.3,0.5,0.3,0.7,0.1L152,46
		C149.7,47.1,151.2,43.2,152.1,45.5L152.1,45.5z M151.4,45.1c-0.2,0-0.3,0.1-0.3,0.3h0.6C151.7,45.2,151.6,45.1,151.4,45.1
		L151.4,45.1z"/>
	<path class="st18" d="M153.2,46.1c-0.7,0.4-0.9-0.4-0.8-0.9h-0.2v-0.3h0.2v-0.3h0.4v0.3h0.3v0.3h-0.3c0,0.2-0.1,0.9,0.3,0.7
		L153.2,46.1z"/>
	<path class="st18" d="M153.8,46.2c-0.2,0-0.4,0-0.6-0.1l0.1-0.3c1,0.3,0.8-0.1,0-0.3c-0.4-0.6,0.6-0.8,1-0.5l-0.1,0.3
		c-0.1-0.1-0.8-0.2-0.6,0.1C154.5,45.3,154.8,46.2,153.8,46.2L153.8,46.2z"/>
	<polygon class="st18" points="142.7,53.9 142.7,52.8 142.2,53.7 142,53.7 141.5,52.9 141.5,53.9 141.2,53.9 141.2,52.2 141.5,52.2 
		142.1,53.2 142.8,52.2 143.1,52.2 143.1,53.9 	"/>
	<path class="st18" d="M144.8,52.6c-0.3,0.5-0.6,2.3-1.5,1.7l0.1-0.3c0.1,0.1,0.4,0.1,0.4-0.1l-0.6-1.3h0.4l0.4,0.9l0.4-0.9
		C144.4,52.6,144.8,52.6,144.8,52.6z"/>
	<path class="st18" d="M146.4,52.2c1.2,0,0.7,1.6-0.3,1.2v0.5h-0.4v-1.7H146.4z M146.4,53.1c0.7-0.1,0.2-0.8-0.3-0.6v0.6H146.4z"/>
	<path class="st18" d="M147.7,52.7c0.1-0.1,0.3-0.2,0.5-0.2v0.4c-0.6-0.1-0.4,0.6-0.4,1h-0.4v-1.3h0.4v0.1H147.7z"/>
	<path class="st18" d="M149,53.9c-0.9,0-0.9-1.4,0-1.4C150,52.5,150,53.9,149,53.9L149,53.9z M149,53.6c0.4,0,0.4-0.7,0-0.7
		C148.6,52.8,148.6,53.6,149,53.6z"/>
	<path class="st18" d="M150.4,52.6h0.3v0.3h-0.3v1H150v-1h-0.2v-0.3h0.2c-0.1-0.5,0.4-0.7,0.8-0.5l-0.1,0.3
		C150.6,52.3,150.4,52.4,150.4,52.6z M151.3,52.4c-0.3,0-0.3-0.4,0-0.4C151.6,51.9,151.6,52.4,151.3,52.4L151.3,52.4z M151.1,52.6
		h0.4v1.3h-0.4V52.6z"/>
	<rect x="151.9" y="52.1" class="st18" width="0.4" height="1.8"/>
	<path class="st18" d="M153.9,53.2C153.9,53.2,153.9,53.2,153.9,53.2l-1,0.1c0.1,0.3,0.5,0.3,0.7,0.1l0.2,0.2
		C151.5,54.8,153,50.9,153.9,53.2L153.9,53.2z M153.2,52.8c-0.2,0-0.3,0.1-0.3,0.3h0.6C153.5,52.9,153.4,52.8,153.2,52.8L153.2,52.8
		z"/>
	<line class="st19" x1="182.1" y1="44.1" x2="305.5" y2="44.1"/>
	<g>
		<path class="st20" d="M183.9,35c-0.3,0-0.5-0.1-0.7-0.2c-0.2-0.1-0.4-0.3-0.5-0.5s-0.2-0.4-0.2-0.7s0.1-0.5,0.2-0.7
			c0.1-0.2,0.3-0.4,0.5-0.5s0.5-0.2,0.7-0.2c0.3,0,0.5,0.1,0.7,0.2c0.2,0.1,0.4,0.3,0.5,0.5s0.2,0.4,0.2,0.7s-0.1,0.5-0.2,0.7
			c-0.1,0.2-0.3,0.4-0.5,0.5C184.4,34.9,184.1,35,183.9,35L183.9,35z M183.9,34.4c0.2,0,0.3,0,0.4-0.1c0.1-0.1,0.2-0.2,0.3-0.3
			s0.1-0.3,0.1-0.4c0-0.2,0-0.3-0.1-0.4c-0.1-0.1-0.2-0.2-0.3-0.3s-0.3-0.1-0.4-0.1c-0.2,0-0.3,0-0.4,0.1c-0.1,0.1-0.2,0.2-0.3,0.3
			s-0.1,0.3-0.1,0.4c0,0.2,0,0.3,0.1,0.4c0.1,0.1,0.2,0.2,0.3,0.3S183.7,34.4,183.9,34.4L183.9,34.4z"/>
		<path class="st20" d="M186.9,32.9c0.2,0,0.4,0,0.5,0.1c0.2,0.1,0.3,0.2,0.4,0.4c0.1,0.2,0.1,0.3,0.1,0.5s0,0.4-0.1,0.5
			c-0.1,0.2-0.2,0.3-0.4,0.4c-0.2,0.1-0.3,0.1-0.5,0.1c-0.3,0-0.5-0.1-0.6-0.2v0.9h-0.6v-2.7h0.6v0.2
			C186.4,33,186.7,32.9,186.9,32.9L186.9,32.9z M186.8,34.5c0.1,0,0.3-0.1,0.4-0.2c0.1-0.1,0.1-0.2,0.1-0.4s0-0.3-0.1-0.4
			c-0.1-0.1-0.2-0.2-0.4-0.2s-0.3,0.1-0.4,0.2c-0.1,0.1-0.1,0.2-0.1,0.4s0,0.3,0.1,0.4C186.6,34.4,186.7,34.5,186.8,34.5L186.8,34.5
			z"/>
		<path class="st20" d="M190.3,33.9c0,0,0,0.1,0,0.2h-1.5c0,0.1,0.1,0.2,0.2,0.3c0.1,0.1,0.2,0.1,0.4,0.1c0.1,0,0.2,0,0.3,0
			s0.2-0.1,0.2-0.1l0.3,0.3c-0.2,0.2-0.5,0.3-0.8,0.3c-0.2,0-0.4,0-0.6-0.1c-0.2-0.1-0.3-0.2-0.4-0.4c-0.1-0.2-0.1-0.3-0.1-0.5
			s0-0.4,0.1-0.5c0.1-0.2,0.2-0.3,0.4-0.4c0.2-0.1,0.3-0.1,0.5-0.1s0.4,0,0.5,0.1c0.2,0.1,0.3,0.2,0.4,0.4
			C190.3,33.5,190.3,33.7,190.3,33.9L190.3,33.9z M189.3,33.3c-0.1,0-0.2,0-0.3,0.1s-0.1,0.2-0.2,0.3h1c0-0.1-0.1-0.2-0.2-0.3
			C189.5,33.3,189.4,33.3,189.3,33.3L189.3,33.3z"/>
		<path class="st20" d="M192,32.9c0.2,0,0.5,0.1,0.6,0.2c0.2,0.1,0.2,0.4,0.2,0.7V35h-0.6v-1.1c0-0.2,0-0.3-0.1-0.4
			c-0.1-0.1-0.2-0.1-0.3-0.1s-0.3,0-0.4,0.1c-0.1,0.1-0.1,0.2-0.1,0.4v1h-0.6v-2h0.6v0.2c0.1-0.1,0.2-0.2,0.3-0.2
			C191.7,32.9,191.8,32.9,192,32.9L192,32.9z"/>
		<path class="st20" d="M196.1,34.9l-0.5-0.7l0,0h-0.5v0.7h-0.6v-2.6h1.1c0.2,0,0.4,0,0.6,0.1c0.2,0.1,0.3,0.2,0.4,0.3
			c0.1,0.1,0.1,0.3,0.1,0.5s0,0.4-0.1,0.5s-0.2,0.2-0.4,0.3l0.6,0.8h-0.7V34.9z M196.1,33.2c0-0.1,0-0.3-0.1-0.3
			c-0.1-0.1-0.2-0.1-0.4-0.1h-0.5v0.9h0.5c0.2,0,0.3,0,0.4-0.1C196.1,33.5,196.1,33.4,196.1,33.2L196.1,33.2z"/>
		<path class="st20" d="M199.2,33.9c0,0,0,0.1,0,0.2h-1.5c0,0.1,0.1,0.2,0.2,0.3c0.1,0.1,0.2,0.1,0.4,0.1c0.1,0,0.2,0,0.3,0
			s0.2-0.1,0.2-0.1l0.3,0.3c-0.2,0.2-0.5,0.3-0.8,0.3c-0.2,0-0.4,0-0.6-0.1c-0.2-0.1-0.3-0.2-0.4-0.4c-0.1-0.2-0.1-0.3-0.1-0.5
			s0-0.4,0.1-0.5c0.1-0.2,0.2-0.3,0.4-0.4c0.2-0.1,0.3-0.1,0.5-0.1s0.4,0,0.5,0.1c0.2,0.1,0.3,0.2,0.4,0.4
			C199.1,33.5,199.2,33.7,199.2,33.9L199.2,33.9z M198.1,33.3c-0.1,0-0.2,0-0.3,0.1s-0.1,0.2-0.2,0.3h1c0-0.1-0.1-0.2-0.2-0.3
			C198.4,33.3,198.3,33.3,198.1,33.3L198.1,33.3z"/>
		<path class="st20" d="M201.6,32.9v2.7H201v-0.9c-0.1,0.2-0.3,0.2-0.6,0.2c-0.2,0-0.4,0-0.5-0.1c-0.2-0.1-0.3-0.2-0.4-0.4
			c-0.1-0.2-0.1-0.3-0.1-0.5s0-0.4,0.1-0.5c0.1-0.2,0.2-0.3,0.4-0.4c0.2-0.1,0.3-0.1,0.5-0.1c0.3,0,0.5,0.1,0.6,0.3V33L201.6,32.9
			L201.6,32.9z M200.6,34.5c0.1,0,0.3-0.1,0.4-0.2c0.1-0.1,0.1-0.2,0.1-0.4s0-0.3-0.1-0.4c-0.1-0.1-0.2-0.2-0.4-0.2
			c-0.1,0-0.3,0.1-0.4,0.2c-0.1,0.1-0.1,0.2-0.1,0.4s0,0.3,0.1,0.4C200.3,34.4,200.4,34.5,200.6,34.5L200.6,34.5z"/>
		<path class="st20" d="M204.2,32.9v2h-0.6v-0.2c-0.1,0.1-0.2,0.2-0.3,0.2S203.1,35,203,35c-0.3,0-0.5-0.1-0.6-0.2
			c-0.2-0.2-0.2-0.4-0.2-0.7V33h0.6v1.1c0,0.3,0.1,0.5,0.4,0.5c0.1,0,0.3,0,0.3-0.1c0.1-0.1,0.1-0.2,0.1-0.4v-1h0.6V32.9z"/>
		<path class="st20" d="M206.8,33.9c0,0,0,0.1,0,0.2h-1.5c0,0.1,0.1,0.2,0.2,0.3c0.1,0.1,0.2,0.1,0.4,0.1c0.1,0,0.2,0,0.3,0
			s0.2-0.1,0.2-0.1l0.3,0.3c-0.2,0.2-0.5,0.3-0.8,0.3c-0.2,0-0.4,0-0.6-0.1c-0.2-0.1-0.3-0.2-0.4-0.4c-0.1-0.2-0.1-0.3-0.1-0.5
			s0-0.4,0.1-0.5c0.1-0.2,0.2-0.3,0.4-0.4c0.2-0.1,0.3-0.1,0.5-0.1s0.4,0,0.5,0.1c0.2,0.1,0.3,0.2,0.4,0.4
			C206.7,33.5,206.8,33.7,206.8,33.9L206.8,33.9z M205.7,33.3c-0.1,0-0.2,0-0.3,0.1s-0.1,0.2-0.2,0.3h1c0-0.1-0.1-0.2-0.2-0.3
			C206,33.3,205.9,33.3,205.7,33.3L205.7,33.3z"/>
		<path class="st20" d="M207.9,34.9c-0.2,0-0.3,0-0.5-0.1c-0.2,0-0.3-0.1-0.4-0.2l0.2-0.4c0.1,0.1,0.2,0.1,0.3,0.1s0.3,0.1,0.4,0.1
			c0.2,0,0.4-0.1,0.4-0.2c0-0.1,0-0.1-0.1-0.1s-0.2,0-0.3-0.1c-0.2,0-0.3-0.1-0.4-0.1c-0.1,0-0.2-0.1-0.3-0.2
			c-0.1-0.1-0.1-0.2-0.1-0.4c0-0.1,0-0.2,0.1-0.3s0.2-0.2,0.3-0.2c0.1-0.1,0.3-0.1,0.5-0.1c0.1,0,0.3,0,0.4,0c0.1,0,0.3,0.1,0.4,0.1
			l-0.2,0.4c-0.2-0.1-0.4-0.1-0.6-0.1c-0.1,0-0.2,0-0.3,0.1c-0.1,0-0.1,0.1-0.1,0.1c0,0.1,0,0.1,0.1,0.1s0.2,0,0.3,0.1
			c0.2,0,0.3,0.1,0.4,0.1c0.1,0,0.2,0.1,0.3,0.2c0.1,0.1,0.1,0.2,0.1,0.3s0,0.2-0.1,0.3s-0.2,0.2-0.3,0.2
			C208.2,34.9,208.1,34.9,207.9,34.9L207.9,34.9z"/>
		<path class="st20" d="M210.5,34.8c-0.1,0-0.1,0.1-0.2,0.1c-0.1,0-0.2,0-0.3,0c-0.2,0-0.4-0.1-0.6-0.2c-0.1-0.1-0.2-0.3-0.2-0.5
			v-0.8H209V33h0.3v-0.5h0.6V33h0.5v0.4h-0.5v0.8c0,0.1,0,0.2,0.1,0.2c0,0,0.1,0.1,0.2,0.1c0.1,0,0.2,0,0.2-0.1L210.5,34.8z"/>
		<path class="st20" d="M211.5,34.9c-0.2,0-0.3,0-0.5-0.1c-0.2,0-0.3-0.1-0.4-0.2l0.2-0.4c0.1,0.1,0.2,0.1,0.3,0.1s0.3,0.1,0.4,0.1
			c0.2,0,0.4-0.1,0.4-0.2c0-0.1,0-0.1-0.1-0.1s-0.2,0-0.3-0.1c-0.2,0-0.3-0.1-0.4-0.1c-0.1,0-0.2-0.1-0.3-0.2
			c-0.1-0.1-0.1-0.2-0.1-0.4c0-0.1,0-0.2,0.1-0.3s0.2-0.2,0.3-0.2c0.1-0.1,0.3-0.1,0.5-0.1c0.1,0,0.3,0,0.4,0c0.1,0,0.3,0.1,0.4,0.1
			l-0.2,0.4c-0.2-0.1-0.4-0.1-0.6-0.1c-0.1,0-0.2,0-0.3,0.1c-0.1,0-0.1,0.1-0.1,0.1c0,0.1,0,0.1,0.1,0.1s0.2,0,0.3,0.1
			c0.2,0,0.3,0.1,0.4,0.1c0.1,0,0.2,0.1,0.3,0.2c0.1,0.1,0.1,0.2,0.1,0.3s0,0.2-0.1,0.3s-0.2,0.2-0.3,0.2
			C211.9,34.9,211.7,34.9,211.5,34.9L211.5,34.9z"/>
	</g>
	<path class="st21" d="M170.6,41h-29c-1.7,0-3.2-1.4-3.2-3.2l0,0c0-1.7,1.4-3.2,3.2-3.2h29c1.7,0,3.2,1.4,3.2,3.2l0,0
		C173.8,39.6,172.4,41,170.6,41z"/>
	<path class="st21" d="M170.6,48.6h-29c-1.7,0-3.2-1.4-3.2-3.2l0,0c0-1.7,1.4-3.2,3.2-3.2h29c1.7,0,3.2,1.4,3.2,3.2l0,0
		C173.8,47.2,172.4,48.6,170.6,48.6z"/>
	<path class="st21" d="M170.6,56.3h-29c-1.7,0-3.2-1.4-3.2-3.2l0,0c0-1.7,1.4-3.2,3.2-3.2h29c1.7,0,3.2,1.4,3.2,3.2l0,0
		C173.8,54.9,172.4,56.3,170.6,56.3z"/>
	<rect x="182.4" y="47.4" class="st22" width="71.8" height="2.3"/>
	<rect x="182.4" y="58.7" class="st22" width="19.3" height="2.3"/>
	<rect x="182.4" y="38.8" class="st22" width="34.5" height="2.3"/>
	<rect x="182.4" y="53" class="st22" width="119.5" height="2.3"/>
	<g>
		<path class="st16" d="M303.5,80.5H184.2c-1.1,0-2-0.9-2-2V65.8c0-1.1,0.9-2,2-2h119.3c1.1,0,2,0.9,2,2v12.7
			C305.5,79.6,304.6,80.5,303.5,80.5z"/>
		<path class="st17" d="M296.2,73.9h-19.8c-1.7,0-3.2-1.4-3.2-3.2l0,0c0-1.7,1.4-3.2,3.2-3.2h19.8c1.7,0,3.2,1.4,3.2,3.2l0,0
			C299.3,72.5,297.9,73.9,296.2,73.9z"/>
		<g>
			<path class="st23" d="M193.6,72.8c-1.8-0.2-0.6-2.7,0.7-1.5l-0.3,0.2c-0.3-0.4-1-0.2-1,0.4c0,0.5,0.7,0.7,1,0.3l0.3,0.2
				C194.1,72.7,193.9,72.8,193.6,72.8L193.6,72.8z"/>
			<path class="st23" d="M194.9,71.6c0.1-0.1,0.3-0.2,0.5-0.2v0.4c-0.6-0.1-0.4,0.6-0.4,1h-0.4v-1.3h0.4v0.1H194.9z"/>
			<path class="st23" d="M195.8,71.3c-0.3,0-0.3-0.4,0-0.4C196.1,70.8,196.1,71.3,195.8,71.3L195.8,71.3z M195.6,71.5h0.4v1.3h-0.4
				V71.5z"/>
			<path class="st23" d="M197.2,72.7c-0.3,0.2-0.8,0.1-0.8-0.4v-0.5h-0.2v-0.3h0.2v-0.3h0.4v0.3h0.3v0.3h-0.3c0,0.2-0.1,0.9,0.3,0.7
				L197.2,72.7z"/>
			<path class="st23" d="M197.6,71.3c-0.3,0-0.3-0.4,0-0.4C197.9,70.8,197.9,71.3,197.6,71.3L197.6,71.3z M197.4,71.5h0.4v1.3h-0.4
				V71.5z"/>
			<path class="st23" d="M198.8,72.8c-0.5,0-0.9-0.6-0.6-1c0.2-0.4,1-0.5,1.2,0l-0.3,0.2c-0.2-0.3-0.7-0.2-0.6,0.2
				c0,0.4,0.5,0.5,0.6,0.2l0.3,0.2C199.3,72.7,199.1,72.8,198.8,72.8L198.8,72.8z"/>
			<path class="st23" d="M200.2,71.4c0.8,0,0.6,0.8,0.6,1.3h-0.4v-0.2c-0.3,0.5-1.3,0-0.8-0.5c0.1-0.1,0.5-0.1,0.7-0.1
				c0-0.4-0.5-0.3-0.7-0.1l-0.1-0.3C199.7,71.5,200,71.4,200.2,71.4z M200.1,72.5c0.1,0,0.2-0.1,0.3-0.2v-0.1h-0.3
				C199.8,72.2,199.9,72.6,200.1,72.5z"/>
			<rect x="201.1" y="71" class="st23" width="0.4" height="1.8"/>
		</g>
		<g>
			<path class="st2" d="M237.1,71.1c-0.2,0-0.5-0.1-0.7-0.2l0.1-0.3c0.8,0.5,1.5-0.1,0.2-0.3c-0.4-0.1-0.4-0.7,0-0.9
				c0.3-0.1,0.7-0.1,1,0.1l-0.1,0.3c-0.2-0.2-1.1-0.2-0.7,0.2c0.2,0.1,0.6,0.1,0.8,0.3C238,70.7,237.5,71.1,237.1,71.1L237.1,71.1z"
				/>
			<path class="st2" d="M238.8,69.7c0.7,0,0.5,0.9,0.5,1.3H239c0-0.2,0.1-0.8-0.1-0.9c-0.1-0.1-0.3-0.1-0.4,0
				c-0.2,0.1-0.1,0.7-0.1,0.9H238v-1.8h0.4v0.6C238.5,69.8,238.7,69.7,238.8,69.7z"/>
			<path class="st2" d="M240.3,71.1c-0.9,0-0.9-1.4,0-1.3C241.3,69.7,241.3,71.1,240.3,71.1L240.3,71.1z M240.3,70.8
				c0.4,0,0.4-0.7,0-0.7C239.9,70,239.9,70.8,240.3,70.8z"/>
			<path class="st2" d="M242.1,69.7c1.2,0.1,0.6,1.9-0.4,1.2v0.6h-0.4v-1.8h0.4v0.2C241.8,69.8,241.9,69.7,242.1,69.7z M242,70.8
				c0.4,0,0.4-0.7,0-0.7C241.6,70,241.6,70.8,242,70.8z"/>
			<path class="st2" d="M243.8,69.7c1.2,0.1,0.6,1.9-0.4,1.2v0.6H243v-1.8h0.4v0.2C243.5,69.8,243.6,69.7,243.8,69.7z M243.7,70.8
				c0.4,0,0.4-0.7,0-0.7C243.3,70,243.3,70.8,243.7,70.8z"/>
			<path class="st2" d="M244.9,69.6c-0.3,0-0.3-0.4,0-0.4C245.2,69.1,245.2,69.6,244.9,69.6L244.9,69.6z M244.7,69.8h0.4v1.3h-0.4
				V69.8z"/>
			<path class="st2" d="M246.2,69.7c0.7,0,0.5,0.9,0.5,1.3h-0.4c0-0.2,0.1-0.8-0.1-0.9c-0.1-0.1-0.3-0.1-0.4,0
				c-0.2,0.1-0.1,0.7-0.1,0.9h-0.4v-1.3h0.4v0.2C245.9,69.8,246,69.7,246.2,69.7z"/>
			<path class="st2" d="M248.5,69.8c0,0.4,0.1,1.4-0.2,1.6c-0.3,0.3-0.9,0.2-1.2,0l0.2-0.3c0.3,0.2,0.9,0.2,0.8-0.3
				c-0.4,0.4-1.1,0.1-1.1-0.5s0.8-0.9,1.1-0.4v-0.2h0.4V69.8z M247.7,70.7c0.4,0,0.4-0.7,0-0.6C247.3,70,247.3,70.7,247.7,70.7z"/>
		</g>
		<path class="st2" d="M232.1,71.4c0,0.2-0.4,0.2-0.4,0v-0.8c0-0.2,0.2-0.2,0.3-0.1C232.1,70.5,232.1,71.3,232.1,71.4z M233.8,71.4
			c0,0.2-0.4,0.2-0.4,0v-0.8c0-0.2,0.2-0.2,0.3-0.1C233.8,70.5,233.7,71.3,233.8,71.4z M232.9,71.4c0,0.2-0.4,0.2-0.4,0v-0.8
			c0-0.2,0.2-0.2,0.3-0.1C233,70.5,232.9,71.3,232.9,71.4z M234.9,70.1c0-0.3-0.5-0.2-0.7-0.2l-0.8-1.1c0,0,0,0-0.1-0.1
			c-0.2-0.1-0.5,0.1-0.3,0.3l0.6,0.8h-1.8c0,0,0.7-0.9,0.6-0.9c0.1-0.2-0.2-0.4-0.4-0.3c0,0-0.8,1.2-0.9,1.2c-0.1,0-0.6,0-0.6,0.1
			c-0.1,0.1-0.1,0.5,0.2,0.4c0.1,0.2,0.1,1.5,0.3,1.6c0,0.2,2.8,0.1,3,0.1s0.3-0.1,0.4-0.3l0.2-1.4
			C234.9,70.4,234.9,70.2,234.9,70.1z"/>
		<path class="st15" d="M282.8,71.3H282l-0.2,0.4h-0.4l0.8-1.7h0.4l0.8,1.7H283L282.8,71.3z M282.7,71l-0.3-0.7l-0.3,0.7H282.7z"/>
		<path class="st15" d="M284.3,71.7c-0.5,0-0.9-0.6-0.6-1c0.2-0.4,1-0.5,1.2,0l-0.3,0.2c-0.2-0.3-0.7-0.2-0.6,0.2
			c0,0.4,0.5,0.5,0.6,0.2l0.3,0.2C284.8,71.6,284.5,71.7,284.3,71.7L284.3,71.7z"/>
		<path class="st15" d="M285.8,71.7c-0.5,0-0.9-0.6-0.6-1c0.2-0.4,1-0.5,1.2,0l-0.3,0.2c-0.2-0.3-0.7-0.2-0.6,0.2
			c0,0.4,0.5,0.5,0.6,0.2l0.3,0.2C286.3,71.6,286,71.7,285.8,71.7L285.8,71.7z"/>
		<path class="st15" d="M287.9,71C287.9,71,287.9,71,287.9,71l-1,0.1c0.1,0.3,0.5,0.3,0.7,0.1l0.2,0.2c-0.5,0.6-1.7,0-1.2-0.8
			C287,70.1,288,70.3,287.9,71L287.9,71z M287.3,70.6c-0.2,0-0.3,0.1-0.3,0.3h0.7C287.6,70.7,287.4,70.6,287.3,70.6L287.3,70.6z"/>
		<path class="st15" d="M289.1,70.3c1.2,0.1,0.6,1.9-0.4,1.2v0.6h-0.4v-1.8h0.4v0.2C288.7,70.4,288.9,70.3,289.1,70.3z M289,71.4
			c0.4,0,0.4-0.8,0-0.7C288.5,70.6,288.5,71.4,289,71.4z"/>
		<path class="st15" d="M290.9,71.6c-0.3,0.2-0.8,0.1-0.8-0.4v-0.5h-0.2v-0.3h0.2V70h0.4v0.3h0.3v0.3h-0.3c0,0.2-0.1,0.9,0.3,0.7
			L290.9,71.6z"/>
		<polygon class="st2" points="278.2,76.1 277.5,77.9 277.3,77.9 276.5,76.1 276.7,76.1 277.4,77.6 278,76.1 		"/>
		<path class="st2" d="M278.5,76.3c-0.2,0-0.2-0.3,0-0.2C278.7,76,278.7,76.3,278.5,76.3L278.5,76.3z M278.4,76.6h0.2v1.3h-0.2V76.6
			z"/>
		<path class="st2" d="M280.2,77.3h-1.1c0,0.4,0.6,0.6,0.9,0.3l0.1,0.1c-0.5,0.6-1.5-0.1-1.1-0.8C279.3,76.3,280.3,76.6,280.2,77.3
			L280.2,77.3z M279.6,76.7c-0.3,0-0.4,0.2-0.5,0.4h0.9C280,76.9,279.9,76.7,279.6,76.7L279.6,76.7z"/>
		<polygon class="st2" points="282.5,76.6 282,77.9 281.8,77.9 281.4,76.8 281,77.9 280.8,77.9 280.3,76.6 280.5,76.6 280.9,77.7 
			281.3,76.6 281.5,76.6 281.9,77.7 282.3,76.6 		"/>
		<path class="st2" d="M285,76.6c0.7,0,0.5,0.9,0.5,1.3h-0.2c0-0.2,0.1-0.9-0.1-1c-0.3-0.3-0.8,0-0.7,0.4V78h-0.2
			c0-0.2,0.1-0.9-0.1-1c-0.3-0.3-0.8,0-0.7,0.4v0.7h-0.2v-1.3h0.2V77c0.2-0.3,0.8-0.3,0.9,0C284.6,76.6,284.8,76.6,285,76.6z"/>
		<path class="st2" d="M286.5,77.9c-0.9,0-0.9-1.3,0-1.3C287.4,76.5,287.4,77.9,286.5,77.9L286.5,77.9z M286.5,77.7c0.6,0,0.6-1,0-1
			S285.9,77.7,286.5,77.7z"/>
		<path class="st2" d="M287.7,76.8c0.1-0.2,0.3-0.3,0.5-0.3v0.2l0,0c-0.6,0-0.4,0.8-0.4,1.1h-0.2v-1.3h0.2v0.3H287.7z"/>
		<path class="st2" d="M289.6,77.3h-1.1c0,0.4,0.6,0.6,0.9,0.3l0.1,0.1c-0.5,0.6-1.5-0.1-1.1-0.8C288.8,76.3,289.7,76.6,289.6,77.3
			L289.6,77.3z M289,76.7c-0.3,0-0.4,0.2-0.5,0.4h0.9C289.5,76.9,289.3,76.7,289,76.7L289,76.7z"/>
		<path class="st2" d="M290.7,76.3c-0.2,0-0.2-0.3,0-0.2C290.9,76,290.9,76.3,290.7,76.3L290.7,76.3z M290.6,76.6h0.2v1.3h-0.2V76.6
			z"/>
		<path class="st2" d="M292,76.6c0.7,0,0.5,0.9,0.5,1.3h-0.2c0-0.2,0.1-0.9-0.1-1c-0.3-0.3-0.8,0-0.7,0.4V78h-0.2v-1.3h0.2v0.2
			C291.6,76.6,291.8,76.6,292,76.6z"/>
		<path class="st2" d="M293.4,76.2c-0.2,0-0.2,0.2-0.2,0.4h0.4v0.1h-0.4v1.2H293v-1.2h-0.2v-0.1h0.2c-0.1-0.4,0.3-0.7,0.7-0.5
			l-0.1,0.1C293.6,76.2,293.5,76.2,293.4,76.2L293.4,76.2z"/>
		<path class="st2" d="M294.3,77.9c-0.9,0-0.9-1.3,0-1.3C295.2,76.5,295.2,77.9,294.3,77.9L294.3,77.9z M294.3,77.7c0.6,0,0.6-1,0-1
			C293.7,76.7,293.7,77.7,294.3,77.7z"/>
		<polyline class="st24" points="296.4,76.7 297.2,77.5 298.1,76.7 		"/>
		<rect x="224.6" y="73.6" class="st22" width="30" height="1.8"/>
		<circle class="st25" cx="197.2" cy="67.7" r="1.7"/>
		<path class="st15" d="M197.2,68.6c-0.2,0-0.2-0.3,0-0.3C197.4,68.4,197.4,68.6,197.2,68.6L197.2,68.6z M197.1,66.8h0.2v1.3h-0.1
			L197.1,66.8z"/>
		<rect x="187.4" y="74.6" class="st25" width="19.6" height="1.8"/>
	</g>
	<path class="st16" d="M303.5,98.6H184.2c-1.1,0-2-0.9-2-2V83.9c0-1.1,0.9-2,2-2h119.3c1.1,0,2,0.9,2,2v12.7
		C305.5,97.7,304.6,98.6,303.5,98.6z"/>
	<path class="st17" d="M296.2,92.1h-19.8c-1.7,0-3.2-1.4-3.2-3.2l0,0c0-1.7,1.4-3.2,3.2-3.2h19.8c1.7,0,3.2,1.4,3.2,3.2l0,0
		C299.3,90.7,297.9,92.1,296.2,92.1z"/>
	<g>
		<path class="st23" d="M193.6,91c-1.8-0.2-0.6-2.7,0.7-1.5l-0.3,0.2c-0.3-0.4-1-0.2-1,0.4c0,0.5,0.7,0.7,1,0.3l0.3,0.2
			C194.1,90.9,193.9,91,193.6,91L193.6,91z"/>
		<path class="st23" d="M194.9,89.8c0.1-0.1,0.3-0.2,0.5-0.2V90c-0.6-0.1-0.4,0.6-0.4,1h-0.4v-1.3h0.4v0.1H194.9z"/>
		<path class="st23" d="M195.8,89.5c-0.3,0-0.3-0.4,0-0.4C196.1,89,196.1,89.5,195.8,89.5L195.8,89.5z M195.6,89.6h0.4V91h-0.4V89.6
			z"/>
		<path class="st23" d="M197.2,90.9c-0.3,0.2-0.8,0.1-0.8-0.4V90h-0.2v-0.3h0.2v-0.3h0.4v0.3h0.3V90h-0.3c0,0.2-0.1,0.9,0.3,0.7
			L197.2,90.9z"/>
		<path class="st23" d="M197.6,89.5c-0.3,0-0.3-0.4,0-0.4C197.9,89,197.9,89.5,197.6,89.5L197.6,89.5z M197.4,89.6h0.4V91h-0.4V89.6
			z"/>
		<path class="st23" d="M198.8,91c-0.5,0-0.9-0.6-0.6-1c0.2-0.4,1-0.5,1.2,0l-0.3,0.2c-0.2-0.3-0.7-0.2-0.6,0.2
			c0,0.4,0.5,0.5,0.6,0.2l0.3,0.2C199.3,90.9,199.1,91,198.8,91L198.8,91z"/>
		<path class="st23" d="M200.2,89.6c0.8,0,0.6,0.8,0.6,1.3h-0.4v-0.2c-0.3,0.5-1.3,0-0.8-0.5c0.1-0.1,0.5-0.1,0.7-0.1
			c0-0.4-0.5-0.3-0.7-0.1l-0.1-0.3C199.7,89.7,200,89.6,200.2,89.6z M200.1,90.7c0.1,0,0.2-0.1,0.3-0.2v-0.1h-0.3
			C199.8,90.4,199.9,90.7,200.1,90.7z"/>
		<rect x="201.1" y="89.1" class="st23" width="0.4" height="1.8"/>
	</g>
	<path class="st15" d="M282.8,89.5H282l-0.2,0.4h-0.4l0.8-1.7h0.4l0.8,1.7H283L282.8,89.5z M282.7,89.2l-0.3-0.7l-0.3,0.7H282.7z"/>
	<path class="st15" d="M284.3,89.9c-0.5,0-0.9-0.6-0.6-1c0.2-0.4,1-0.5,1.2,0l-0.3,0.2c-0.2-0.3-0.7-0.2-0.6,0.2
		c0,0.4,0.5,0.5,0.6,0.2l0.3,0.2C284.8,89.7,284.5,89.9,284.3,89.9L284.3,89.9z"/>
	<path class="st15" d="M285.8,89.9c-0.5,0-0.9-0.6-0.6-1c0.2-0.4,1-0.5,1.2,0l-0.3,0.2c-0.2-0.3-0.7-0.2-0.6,0.2
		c0,0.4,0.5,0.5,0.6,0.2l0.3,0.2C286.3,89.7,286,89.9,285.8,89.9L285.8,89.9z"/>
	<path class="st15" d="M287.9,89.2C287.9,89.2,287.9,89.2,287.9,89.2l-1,0.1c0.1,0.3,0.5,0.3,0.7,0.1l0.2,0.2
		c-0.5,0.6-1.7,0-1.2-0.8C287,88.2,288,88.5,287.9,89.2L287.9,89.2z M287.3,88.8c-0.2,0-0.3,0.1-0.3,0.3h0.7
		C287.6,88.9,287.4,88.8,287.3,88.8L287.3,88.8z"/>
	<path class="st15" d="M289.1,88.5c1.2,0.1,0.6,1.9-0.4,1.2v0.6h-0.4v-1.8h0.4v0.2C288.7,88.5,288.9,88.5,289.1,88.5z M289,89.5
		c0.4,0,0.4-0.8,0-0.7C288.5,88.8,288.5,89.6,289,89.5z"/>
	<path class="st15" d="M290.9,89.8c-0.3,0.2-0.8,0.1-0.8-0.4v-0.5h-0.2v-0.3h0.2v-0.3h0.4v0.3h0.3v0.3h-0.3c0,0.2-0.1,0.9,0.3,0.7
		L290.9,89.8z"/>
	<polygon class="st2" points="278.2,94.3 277.5,96 277.3,96 276.5,94.3 276.7,94.3 277.4,95.8 278,94.3 	"/>
	<path class="st2" d="M278.5,94.5c-0.2,0-0.2-0.3,0-0.2C278.7,94.2,278.7,94.5,278.5,94.5L278.5,94.5z M278.4,94.7h0.2V96h-0.2V94.7
		z"/>
	<path class="st2" d="M280.2,95.5h-1.1c0,0.4,0.6,0.6,0.9,0.3l0.1,0.1c-0.5,0.6-1.5-0.1-1.1-0.8C279.3,94.5,280.3,94.7,280.2,95.5
		L280.2,95.5z M279.6,94.9c-0.3,0-0.4,0.2-0.5,0.4h0.9C280,95.1,279.9,94.9,279.6,94.9L279.6,94.9z"/>
	<polygon class="st2" points="282.5,94.7 282,96 281.8,96 281.4,95 281,96 280.8,96 280.3,94.7 280.5,94.7 280.9,95.9 281.3,94.7 
		281.5,94.7 281.9,95.9 282.3,94.7 	"/>
	<path class="st2" d="M285,94.7c0.7,0,0.5,0.9,0.5,1.3h-0.2c0-0.2,0.1-0.9-0.1-1c-0.3-0.3-0.8,0-0.7,0.4v0.7h-0.2
		c0-0.2,0.1-0.9-0.1-1c-0.3-0.3-0.8,0-0.7,0.4v0.7h-0.2v-1.3h0.2V95c0.2-0.3,0.8-0.3,0.9,0C284.6,94.8,284.8,94.7,285,94.7z"/>
	<path class="st2" d="M286.5,96.1c-0.9,0-0.9-1.3,0-1.3C287.4,94.7,287.4,96.1,286.5,96.1L286.5,96.1z M286.5,95.9c0.6,0,0.6-1,0-1
		S285.9,95.9,286.5,95.9z"/>
	<path class="st2" d="M287.7,95c0.1-0.2,0.3-0.3,0.5-0.3v0.2l0,0c-0.6,0-0.4,0.8-0.4,1.1h-0.2v-1.3h0.2V95H287.7z"/>
	<path class="st2" d="M289.6,95.5h-1.1c0,0.4,0.6,0.6,0.9,0.3l0.1,0.1c-0.5,0.6-1.5-0.1-1.1-0.8C288.8,94.5,289.7,94.7,289.6,95.5
		L289.6,95.5z M289,94.9c-0.3,0-0.4,0.2-0.5,0.4h0.9C289.5,95.1,289.3,94.9,289,94.9L289,94.9z"/>
	<path class="st2" d="M290.7,94.5c-0.2,0-0.2-0.3,0-0.2C290.9,94.2,290.9,94.5,290.7,94.5L290.7,94.5z M290.6,94.7h0.2V96h-0.2V94.7
		z"/>
	<path class="st2" d="M292,94.7c0.7,0,0.5,0.9,0.5,1.3h-0.2c0-0.2,0.1-0.9-0.1-1c-0.3-0.3-0.8,0-0.7,0.4v0.7h-0.2v-1.3h0.2V95
		C291.6,94.8,291.8,94.7,292,94.7z"/>
	<path class="st2" d="M293.4,94.4c-0.2,0-0.2,0.2-0.2,0.4h0.4v0.1h-0.4V96H293v-1.2h-0.2v-0.1h0.2c-0.1-0.4,0.3-0.7,0.7-0.5
		l-0.1,0.1C293.6,94.4,293.5,94.4,293.4,94.4L293.4,94.4z"/>
	<path class="st2" d="M294.3,96.1c-0.9,0-0.9-1.3,0-1.3C295.2,94.7,295.2,96.1,294.3,96.1L294.3,96.1z M294.3,95.9c0.6,0,0.6-1,0-1
		C293.7,94.9,293.7,95.9,294.3,95.9z"/>
	<polyline class="st24" points="296.4,94.8 297.2,95.7 298.1,94.8 	"/>
	<rect x="224.6" y="91.8" class="st22" width="30" height="1.8"/>
	<circle class="st25" cx="197.2" cy="85.9" r="1.7"/>
	<path class="st15" d="M197.2,86.8c-0.2,0-0.2-0.3,0-0.3S197.4,86.8,197.2,86.8L197.2,86.8z M197.1,85h0.2v1.3h-0.1L197.1,85z"/>
	<rect x="187.4" y="92.8" class="st25" width="19.6" height="1.8"/>
	<path class="st2" d="M234.2,87.4c1,0,1,1.3,0,1.2h-0.3v0.5h-0.4v-1.7H234.2z M234.2,88.3c0.5,0.1,0.5-0.6,0-0.6h-0.3v0.6H234.2z"/>
	<path class="st2" d="M235.6,88c0.1-0.1,0.3-0.2,0.5-0.2v0.4c-0.6-0.1-0.4,0.6-0.4,1h-0.4v-1.3h0.4V88H235.6z"/>
	<path class="st2" d="M237.6,88.5C237.6,88.5,237.6,88.5,237.6,88.5l-1,0.1c0.1,0.3,0.5,0.3,0.7,0.1l0.2,0.2c-0.5,0.6-1.7,0-1.2-0.8
		C236.6,87.5,237.6,87.8,237.6,88.5L237.6,88.5z M236.9,88.1c-0.2,0-0.3,0.1-0.3,0.3h0.7C237.2,88.2,237,88.1,236.9,88.1L236.9,88.1
		z"/>
	<path class="st2" d="M238.3,89.2c-0.2,0-0.4,0-0.6-0.1l0.1-0.3c0.1,0.1,0.7,0.2,0.7,0c0-0.1-0.1-0.1-0.3-0.1
		c-0.4,0-0.7-0.3-0.5-0.6c0.2-0.3,0.7-0.2,1-0.1l-0.1,0.3c-0.1-0.1-0.8-0.2-0.6,0.1c0.2,0.1,0.5,0,0.7,0.2
		C239.1,88.9,238.6,89.2,238.3,89.2L238.3,89.2z"/>
	<path class="st2" d="M239.8,89.2c-0.5,0-0.9-0.6-0.6-1c0.2-0.4,1-0.5,1.2,0l-0.3,0.2c-0.2-0.3-0.7-0.2-0.6,0.2
		c0,0.4,0.5,0.5,0.6,0.2l0.3,0.2C240.3,89,240,89.2,239.8,89.2L239.8,89.2z"/>
	<path class="st2" d="M240.9,88c0.1-0.1,0.3-0.2,0.5-0.2v0.4c-0.6-0.1-0.4,0.6-0.4,1h-0.4v-1.3h0.4V88H240.9z"/>
	<path class="st2" d="M241.8,87.6c-0.3,0-0.3-0.4,0-0.4S242.1,87.6,241.8,87.6L241.8,87.6z M241.6,87.8h0.4v1.3h-0.4V87.8z"/>
	<path class="st2" d="M243.2,87.8c1.2,0.1,0.6,1.9-0.4,1.2v0.6h-0.4v-1.8h0.4V88C242.8,87.9,243,87.8,243.2,87.8z M243.1,88.8
		c0.4,0,0.4-0.8,0-0.7C242.6,88.1,242.6,88.9,243.1,88.8z"/>
	<path class="st2" d="M244.9,89.1c-0.3,0.2-0.8,0.1-0.8-0.4v-0.5h-0.2v-0.3h0.2v-0.3h0.4v0.3h0.3v0.3h-0.3c0,0.2-0.1,0.9,0.3,0.7
		L244.9,89.1z"/>
	<path class="st2" d="M245.3,87.6c-0.3,0-0.3-0.4,0-0.4S245.6,87.6,245.3,87.6L245.3,87.6z M245.1,87.8h0.4v1.3h-0.4V87.8z"/>
	<path class="st2" d="M246.5,89.2c-1,0-1-1.4,0-1.4C247.5,87.8,247.5,89.2,246.5,89.2L246.5,89.2z M246.5,88.8c0.4,0,0.4-0.8,0-0.7
		C246.1,88.1,246.1,88.9,246.5,88.8z"/>
	<path class="st2" d="M248.3,87.8c0.7,0,0.5,0.9,0.5,1.3h-0.4c0-0.2,0.1-0.8-0.1-0.9c-0.1-0.1-0.3-0.1-0.4,0
		c-0.2,0.1-0.1,0.7-0.1,0.9h-0.4v-1.3h0.4V88C248,87.8,248.1,87.8,248.3,87.8z"/>
	<path class="st2" d="M249.6,89.2c-0.2,0-0.4,0-0.6-0.1l0.1-0.3c0.1,0.1,0.7,0.2,0.7,0c0-0.1-0.1-0.1-0.3-0.1
		c-0.4,0-0.7-0.3-0.5-0.6c0.2-0.3,0.7-0.2,1-0.1l-0.1,0.3c-0.1-0.1-0.8-0.2-0.6,0.1c0.2,0.1,0.5,0,0.7,0.2
		C250.4,88.9,250,89.2,249.6,89.2L249.6,89.2z"/>
	<path class="st2" d="M229.7,88.7c0-0.1,0.4,0,0.5-0.1v-0.5h0.4c0.1,0,0,0.4,0.1,0.5h0.5V89c0,0.1-0.4,0-0.5,0.1v0.5h-0.4
		c-0.1,0,0-0.4-0.1-0.5h-0.5V88.7z M229.2,90.1c0,0.1,0.1,0.2,0.2,0.2h1.9c0.1,0,0.2-0.1,0.2-0.2v-2.6h-2.4v2.6H229.2z M231.7,86.5
		h-2.5c-0.3,0-0.2,0.4-0.2,0.5s0.1,0.2,0.2,0.2h2.5c0,0,0.1,0,0.1-0.1c0.1-0.1,0-0.4,0.1-0.5C231.8,86.6,231.8,86.5,231.7,86.5z"/>
	<g>
		<path class="st16" d="M303.5,116.8H184.2c-1.1,0-2-0.9-2-2v-12.7c0-1.1,0.9-2,2-2h119.3c1.1,0,2,0.9,2,2v12.7
			C305.5,115.9,304.6,116.8,303.5,116.8z"/>
		<path class="st17" d="M296.2,110.3h-19.8c-1.7,0-3.2-1.4-3.2-3.2l0,0c0-1.7,1.4-3.2,3.2-3.2h19.8c1.7,0,3.2,1.4,3.2,3.2l0,0
			C299.3,108.9,297.9,110.3,296.2,110.3z"/>
		<g>
			<path class="st2" d="M237.1,107.4c-0.2,0-0.5-0.1-0.7-0.2l0.1-0.3c0.8,0.5,1.5-0.1,0.2-0.3c-0.4-0.1-0.4-0.7,0-0.9
				c0.3-0.1,0.7-0.1,1,0.1l-0.1,0.3c-0.2-0.2-1.1-0.2-0.7,0.2c0.2,0.1,0.6,0.1,0.8,0.3C238,107,237.5,107.5,237.1,107.4L237.1,107.4
				z"/>
			<path class="st2" d="M238.8,106.1c0.7,0,0.5,0.9,0.5,1.3H239c0-0.2,0.1-0.8-0.1-0.9c-0.1-0.1-0.3-0.1-0.4,0
				c-0.2,0.1-0.1,0.7-0.1,0.9H238v-1.8h0.4v0.6C238.5,106.1,238.7,106.1,238.8,106.1z"/>
			<path class="st2" d="M240.3,107.4c-0.9,0-0.9-1.4,0-1.3C241.3,106,241.3,107.4,240.3,107.4L240.3,107.4z M240.3,107.1
				c0.4,0,0.4-0.7,0-0.7C239.9,106.4,239.9,107.1,240.3,107.1z"/>
			<path class="st2" d="M242.1,106.1c1.2,0.1,0.6,1.9-0.4,1.2v0.6h-0.4v-1.8h0.4v0.2C241.8,106.1,241.9,106.1,242.1,106.1z
				 M242,107.1c0.4,0,0.4-0.7,0-0.7S241.6,107.1,242,107.1z"/>
			<path class="st2" d="M243.8,106.1c1.2,0.1,0.6,1.9-0.4,1.2v0.6H243v-1.8h0.4v0.2C243.5,106.1,243.6,106.1,243.8,106.1z
				 M243.7,107.1c0.4,0,0.4-0.7,0-0.7S243.3,107.1,243.7,107.1z"/>
			<path class="st2" d="M244.9,105.9c-0.3,0-0.3-0.4,0-0.4S245.2,105.9,244.9,105.9L244.9,105.9z M244.7,106.1h0.4v1.3h-0.4V106.1z"
				/>
			<path class="st2" d="M246.2,106.1c0.7,0,0.5,0.9,0.5,1.3h-0.4c0-0.2,0.1-0.8-0.1-0.9c-0.1-0.1-0.3-0.1-0.4,0
				c-0.2,0.1-0.1,0.7-0.1,0.9h-0.4v-1.3h0.4v0.2C245.9,106.1,246,106.1,246.2,106.1z"/>
			<path class="st2" d="M248.5,106.1c0,0.4,0.1,1.4-0.2,1.6c-0.3,0.3-0.9,0.2-1.2,0l0.2-0.3c0.3,0.2,0.9,0.2,0.8-0.3
				c-0.4,0.4-1.1,0.1-1.1-0.5s0.8-0.9,1.1-0.4V106h0.4V106.1z M247.7,107c0.4,0,0.4-0.7,0-0.6C247.3,106.4,247.3,107,247.7,107z"/>
		</g>
		<path class="st2" d="M232.1,107.7c0,0.2-0.4,0.2-0.4,0v-0.8c0-0.2,0.2-0.2,0.3-0.1C232.1,106.8,232.1,107.6,232.1,107.7z
			 M233.8,107.7c0,0.2-0.4,0.2-0.4,0v-0.8c0-0.2,0.2-0.2,0.3-0.1C233.8,106.8,233.7,107.6,233.8,107.7z M232.9,107.7
			c0,0.2-0.4,0.2-0.4,0v-0.8c0-0.2,0.2-0.2,0.3-0.1C233,106.8,232.9,107.6,232.9,107.7z M234.9,106.4c0-0.3-0.5-0.2-0.7-0.2
			l-0.8-1.1c0,0,0,0-0.1-0.1c-0.2-0.1-0.5,0.1-0.3,0.3l0.6,0.8h-1.8c0,0,0.7-0.9,0.6-0.9c0.1-0.2-0.2-0.4-0.4-0.3
			c0,0-0.8,1.2-0.9,1.2c-0.1,0-0.6,0-0.6,0.1c-0.1,0.1-0.1,0.5,0.2,0.4c0.1,0.2,0.1,1.5,0.3,1.6c0,0.2,2.8,0.1,3,0.1
			s0.3-0.1,0.4-0.3l0.2-1.4C234.9,106.7,234.9,106.6,234.9,106.4z"/>
		<path class="st15" d="M282.8,107.6H282l-0.2,0.4h-0.4l0.8-1.7h0.4l0.8,1.7H283L282.8,107.6z M282.7,107.3l-0.3-0.7l-0.3,0.7H282.7
			z"/>
		<path class="st15" d="M284.3,108c-0.5,0-0.9-0.6-0.6-1c0.2-0.4,1-0.5,1.2,0l-0.3,0.2c-0.2-0.3-0.7-0.2-0.6,0.2
			c0,0.4,0.5,0.5,0.6,0.2l0.3,0.2C284.8,107.9,284.5,108,284.3,108L284.3,108z"/>
		<path class="st15" d="M285.8,108c-0.5,0-0.9-0.6-0.6-1c0.2-0.4,1-0.5,1.2,0l-0.3,0.2c-0.2-0.3-0.7-0.2-0.6,0.2
			c0,0.4,0.5,0.5,0.6,0.2l0.3,0.2C286.3,107.9,286,108,285.8,108L285.8,108z"/>
		<path class="st15" d="M287.9,107.3C287.9,107.3,287.9,107.3,287.9,107.3l-1,0.1c0.1,0.3,0.5,0.3,0.7,0.1l0.2,0.2
			c-0.5,0.6-1.7,0-1.2-0.8C287,106.4,288,106.6,287.9,107.3L287.9,107.3z M287.3,106.9c-0.2,0-0.3,0.1-0.3,0.3h0.7
			C287.6,107,287.4,106.9,287.3,106.9L287.3,106.9z"/>
		<path class="st15" d="M289.1,106.6c1.2,0.1,0.6,1.9-0.4,1.2v0.6h-0.4v-1.8h0.4v0.2C288.7,106.7,288.9,106.6,289.1,106.6z
			 M289,107.7c0.4,0,0.4-0.8,0-0.7C288.5,106.9,288.5,107.7,289,107.7z"/>
		<path class="st15" d="M290.9,107.9c-0.3,0.2-0.8,0.1-0.8-0.4V107h-0.2v-0.3h0.2v-0.3h0.4v0.3h0.3v0.3h-0.3c0,0.2-0.1,0.9,0.3,0.7
			L290.9,107.9z"/>
		<polygon class="st2" points="278.2,112.5 277.5,114.2 277.3,114.2 276.5,112.5 276.7,112.5 277.4,114 278,112.5 		"/>
		<path class="st2" d="M278.5,112.6c-0.2,0-0.2-0.3,0-0.2C278.7,112.4,278.7,112.6,278.5,112.6L278.5,112.6z M278.4,112.9h0.2v1.3
			h-0.2V112.9z"/>
		<path class="st2" d="M280.2,113.6h-1.1c0,0.4,0.6,0.6,0.9,0.3l0.1,0.1c-0.5,0.6-1.5-0.1-1.1-0.8
			C279.3,112.6,280.3,112.9,280.2,113.6L280.2,113.6z M279.6,113c-0.3,0-0.4,0.2-0.5,0.4h0.9C280,113.2,279.9,113,279.6,113
			L279.6,113z"/>
		<polygon class="st2" points="282.5,112.9 282,114.2 281.8,114.2 281.4,113.1 281,114.2 280.8,114.2 280.3,112.9 280.5,112.9 
			280.9,114 281.3,112.9 281.5,112.9 281.9,114 282.3,112.9 		"/>
		<path class="st2" d="M285,112.9c0.7,0,0.5,0.9,0.5,1.3h-0.2c0-0.2,0.1-0.9-0.1-1c-0.3-0.3-0.8,0-0.7,0.4v0.7h-0.2
			c0-0.2,0.1-0.9-0.1-1c-0.3-0.3-0.8,0-0.7,0.4v0.7h-0.2v-1.3h0.2v0.2c0.2-0.3,0.8-0.3,0.9,0C284.6,113,284.8,112.9,285,112.9z"/>
		<path class="st2" d="M286.5,114.2c-0.9,0-0.9-1.3,0-1.3C287.4,112.9,287.4,114.2,286.5,114.2L286.5,114.2z M286.5,114.1
			c0.6,0,0.6-1,0-1C285.9,113,285.9,114.1,286.5,114.1z"/>
		<path class="st2" d="M287.7,113.2c0.1-0.2,0.3-0.3,0.5-0.3v0.2l0,0c-0.6,0-0.4,0.8-0.4,1.1h-0.2v-1.3h0.2v0.3H287.7z"/>
		<path class="st2" d="M289.6,113.6h-1.1c0,0.4,0.6,0.6,0.9,0.3l0.1,0.1c-0.5,0.6-1.5-0.1-1.1-0.8
			C288.8,112.6,289.7,112.9,289.6,113.6L289.6,113.6z M289,113c-0.3,0-0.4,0.2-0.5,0.4h0.9C289.5,113.2,289.3,113,289,113L289,113z"
			/>
		<path class="st2" d="M290.7,112.6c-0.2,0-0.2-0.3,0-0.2C290.9,112.4,290.9,112.6,290.7,112.6L290.7,112.6z M290.6,112.9h0.2v1.3
			h-0.2V112.9z"/>
		<path class="st2" d="M292,112.9c0.7,0,0.5,0.9,0.5,1.3h-0.2c0-0.2,0.1-0.9-0.1-1c-0.3-0.3-0.8,0-0.7,0.4v0.7h-0.2V113h0.2v0.2
			C291.6,113,291.8,112.9,292,112.9z"/>
		<path class="st2" d="M293.4,112.5c-0.2,0-0.2,0.2-0.2,0.4h0.4v0.1h-0.4v1.2H293V113h-0.2v-0.1h0.2c-0.1-0.4,0.3-0.7,0.7-0.5
			l-0.1,0.1C293.6,112.5,293.5,112.5,293.4,112.5L293.4,112.5z"/>
		<path class="st2" d="M294.3,114.2c-0.9,0-0.9-1.3,0-1.3C295.2,112.9,295.2,114.2,294.3,114.2L294.3,114.2z M294.3,114.1
			c0.6,0,0.6-1,0-1C293.7,113,293.7,114.1,294.3,114.1z"/>
		<polyline class="st24" points="296.4,113 297.2,113.8 298.1,113 		"/>
		<rect x="224.6" y="110" class="st22" width="30" height="1.8"/>
		<rect x="187.4" y="109.1" class="st25" width="19.6" height="1.8"/>
		<path class="st20" d="M198.7,105.2c0-0.1,0-0.4-0.1-0.5s-0.4-0.1-0.6-0.1v-0.4h-0.3c-0.1,0-0.1,0.4-0.1,0.4h-0.9v-0.4h-0.3
			c-0.1,0-0.1,0.4-0.1,0.4c-0.2,0-0.4,0-0.6,0.1c-0.1,0.1-0.1,0.4-0.1,0.5c0,0,0,0,0.1,0H198.7C198.6,105.3,198.7,105.2,198.7,105.2
			z M195.7,105.5C195.7,105.5,195.6,105.5,195.7,105.5c-0.1,0.1-0.1,1.8-0.1,1.8c0,0.1,0.1,0.2,0.2,0.3h0.1h2.4c0.1,0,0.2,0,0.2-0.1
			c0.1-0.1,0.1-0.1,0.1-0.2v-1.7c0,0,0,0,0-0.1c0,0,0,0-0.1,0L195.7,105.5L195.7,105.5z"/>
	</g>
	<g>
		<path class="st16" d="M303.5,135H184.2c-1.1,0-2-0.9-2-2v-12.7c0-1.1,0.9-2,2-2h119.3c1.1,0,2,0.9,2,2V133
			C305.5,134.1,304.6,135,303.5,135z"/>
		<path class="st17" d="M296.2,128.5h-19.8c-1.7,0-3.2-1.4-3.2-3.2l0,0c0-1.7,1.4-3.2,3.2-3.2h19.8c1.7,0,3.2,1.4,3.2,3.2l0,0
			C299.3,127.1,297.9,128.5,296.2,128.5z"/>
		<g>
			<path class="st2" d="M237.1,125.6c-0.2,0-0.5-0.1-0.7-0.2l0.1-0.3c0.8,0.5,1.5-0.1,0.2-0.3c-0.4-0.1-0.4-0.7,0-0.9
				c0.3-0.1,0.7-0.1,1,0.1l-0.1,0.3c-0.2-0.2-1.1-0.2-0.7,0.2c0.2,0.1,0.6,0.1,0.8,0.3C238,125.3,237.5,125.7,237.1,125.6
				L237.1,125.6z"/>
			<path class="st2" d="M238.8,124.3c0.7,0,0.5,0.9,0.5,1.3H239c0-0.2,0.1-0.8-0.1-0.9c-0.1-0.1-0.3-0.1-0.4,0
				c-0.2,0.1-0.1,0.7-0.1,0.9H238v-1.8h0.4v0.6C238.5,124.3,238.7,124.3,238.8,124.3z"/>
			<path class="st2" d="M240.3,125.6c-0.9,0-0.9-1.4,0-1.3C241.3,124.3,241.3,125.7,240.3,125.6L240.3,125.6z M240.3,125.3
				c0.4,0,0.4-0.7,0-0.7C239.9,124.6,239.9,125.3,240.3,125.3z"/>
			<path class="st2" d="M242.1,124.3c1.2,0.1,0.6,1.9-0.4,1.2v0.6h-0.4v-1.8h0.4v0.2C241.8,124.3,241.9,124.3,242.1,124.3z
				 M242,125.3c0.4,0,0.4-0.7,0-0.7C241.6,124.6,241.6,125.3,242,125.3z"/>
			<path class="st2" d="M243.8,124.3c1.2,0.1,0.6,1.9-0.4,1.2v0.6H243v-1.8h0.4v0.2C243.5,124.3,243.6,124.3,243.8,124.3z
				 M243.7,125.3c0.4,0,0.4-0.7,0-0.7C243.3,124.6,243.3,125.3,243.7,125.3z"/>
			<path class="st2" d="M244.9,124.1c-0.3,0-0.3-0.4,0-0.4S245.2,124.1,244.9,124.1L244.9,124.1z M244.7,124.3h0.4v1.3h-0.4V124.3z"
				/>
			<path class="st2" d="M246.2,124.3c0.7,0,0.5,0.9,0.5,1.3h-0.4c0-0.2,0.1-0.8-0.1-0.9c-0.1-0.1-0.3-0.1-0.4,0
				c-0.2,0.1-0.1,0.7-0.1,0.9h-0.4v-1.3h0.4v0.2C245.9,124.3,246,124.3,246.2,124.3z"/>
			<path class="st2" d="M248.5,124.3c0,0.4,0.1,1.4-0.2,1.6c-0.3,0.3-0.9,0.2-1.2,0l0.2-0.3c0.3,0.2,0.9,0.2,0.8-0.3
				c-0.4,0.4-1.1,0.1-1.1-0.5s0.8-0.9,1.1-0.4v-0.2h0.4V124.3z M247.7,125.2c0.4,0,0.4-0.7,0-0.6
				C247.3,124.6,247.3,125.3,247.7,125.2z"/>
		</g>
		<path class="st2" d="M232.1,125.9c0,0.2-0.4,0.2-0.4,0v-0.8c0-0.2,0.2-0.2,0.3-0.1C232.1,125,232.1,125.8,232.1,125.9z
			 M233.8,125.9c0,0.2-0.4,0.2-0.4,0v-0.8c0-0.2,0.2-0.2,0.3-0.1C233.8,125,233.7,125.8,233.8,125.9z M232.9,125.9
			c0,0.2-0.4,0.2-0.4,0v-0.8c0-0.2,0.2-0.2,0.3-0.1C233,125,232.9,125.8,232.9,125.9z M234.9,124.6c0-0.3-0.5-0.2-0.7-0.2l-0.8-1.1
			c0,0,0,0-0.1-0.1c-0.2-0.1-0.5,0.1-0.3,0.3l0.6,0.8h-1.8c0,0,0.7-0.9,0.6-0.9c0.1-0.2-0.2-0.4-0.4-0.3c0,0-0.8,1.2-0.9,1.2
			c-0.1,0-0.6,0-0.6,0.1c-0.1,0.1-0.1,0.5,0.2,0.4c0.1,0.2,0.1,1.5,0.3,1.6c0,0.2,2.8,0.1,3,0.1s0.3-0.1,0.4-0.3l0.2-1.4
			C234.9,124.9,234.9,124.8,234.9,124.6z"/>
		<path class="st15" d="M282.8,125.8H282l-0.2,0.4h-0.4l0.8-1.7h0.4l0.8,1.7H283L282.8,125.8z M282.7,125.5l-0.3-0.7l-0.3,0.7H282.7
			z"/>
		<path class="st15" d="M284.3,126.2c-0.5,0-0.9-0.6-0.6-1c0.2-0.4,1-0.5,1.2,0l-0.3,0.2c-0.2-0.3-0.7-0.2-0.6,0.2
			c0,0.4,0.5,0.5,0.6,0.2l0.3,0.2C284.8,126.1,284.5,126.2,284.3,126.2L284.3,126.2z"/>
		<path class="st15" d="M285.8,126.2c-0.5,0-0.9-0.6-0.6-1c0.2-0.4,1-0.5,1.2,0l-0.3,0.2c-0.2-0.3-0.7-0.2-0.6,0.2
			c0,0.4,0.5,0.5,0.6,0.2l0.3,0.2C286.3,126.1,286,126.2,285.8,126.2L285.8,126.2z"/>
		<path class="st15" d="M287.9,125.5C287.9,125.5,287.9,125.5,287.9,125.5l-1,0.1c0.1,0.3,0.5,0.3,0.7,0.1l0.2,0.2
			c-0.5,0.6-1.7,0-1.2-0.8C287,124.6,288,124.8,287.9,125.5L287.9,125.5z M287.3,125.1c-0.2,0-0.3,0.1-0.3,0.3h0.7
			C287.6,125.3,287.4,125.1,287.3,125.1L287.3,125.1z"/>
		<path class="st15" d="M289.1,124.9c1.2,0.1,0.6,1.9-0.4,1.2v0.6h-0.4v-1.8h0.4v0.2C288.7,124.9,288.9,124.9,289.1,124.9z
			 M289,125.9c0.4,0,0.4-0.8,0-0.7C288.5,125.1,288.5,125.9,289,125.9z"/>
		<path class="st15" d="M290.9,126.1c-0.3,0.2-0.8,0.1-0.8-0.4v-0.5h-0.2v-0.3h0.2v-0.3h0.4v0.3h0.3v0.3h-0.3c0,0.2-0.1,0.9,0.3,0.7
			L290.9,126.1z"/>
		<polygon class="st2" points="278.2,130.7 277.5,132.4 277.3,132.4 276.5,130.7 276.7,130.7 277.4,132.2 278,130.7 		"/>
		<path class="st2" d="M278.5,130.8c-0.2,0-0.2-0.3,0-0.2C278.7,130.6,278.7,130.8,278.5,130.8L278.5,130.8z M278.4,131.1h0.2v1.3
			h-0.2V131.1z"/>
		<path class="st2" d="M280.2,131.8h-1.1c0,0.4,0.6,0.6,0.9,0.3l0.1,0.1c-0.5,0.6-1.5-0.1-1.1-0.8
			C279.3,130.9,280.3,131.1,280.2,131.8L280.2,131.8z M279.6,131.3c-0.3,0-0.4,0.2-0.5,0.4h0.9C280,131.4,279.9,131.3,279.6,131.3
			L279.6,131.3z"/>
		<polygon class="st2" points="282.5,131.1 282,132.4 281.8,132.4 281.4,131.4 281,132.4 280.8,132.4 280.3,131.1 280.5,131.1 
			280.9,132.2 281.3,131.1 281.5,131.1 281.9,132.2 282.3,131.1 		"/>
		<path class="st2" d="M285,131.1c0.7,0,0.5,0.9,0.5,1.3h-0.2c0-0.2,0.1-0.9-0.1-1c-0.3-0.3-0.8,0-0.7,0.4v0.7h-0.2
			c0-0.2,0.1-0.9-0.1-1c-0.3-0.3-0.8,0-0.7,0.4v0.7h-0.2v-1.3h0.2v0.2c0.2-0.3,0.8-0.3,0.9,0C284.6,131.2,284.8,131.1,285,131.1z"/>
		<path class="st2" d="M286.5,132.4c-0.9,0-0.9-1.3,0-1.3C287.4,131.1,287.4,132.5,286.5,132.4L286.5,132.4z M286.5,132.3
			c0.6,0,0.6-1,0-1C285.9,131.2,285.9,132.3,286.5,132.3z"/>
		<path class="st2" d="M287.7,131.4c0.1-0.2,0.3-0.3,0.5-0.3v0.2l0,0c-0.6,0-0.4,0.8-0.4,1.1h-0.2v-1.3h0.2v0.3H287.7z"/>
		<path class="st2" d="M289.6,131.8h-1.1c0,0.4,0.6,0.6,0.9,0.3l0.1,0.1c-0.5,0.6-1.5-0.1-1.1-0.8
			C288.8,130.9,289.7,131.1,289.6,131.8L289.6,131.8z M289,131.3c-0.3,0-0.4,0.2-0.5,0.4h0.9C289.5,131.4,289.3,131.3,289,131.3
			L289,131.3z"/>
		<path class="st2" d="M290.7,130.8c-0.2,0-0.2-0.3,0-0.2C290.9,130.6,290.9,130.8,290.7,130.8L290.7,130.8z M290.6,131.1h0.2v1.3
			h-0.2V131.1z"/>
		<path class="st2" d="M292,131.1c0.7,0,0.5,0.9,0.5,1.3h-0.2c0-0.2,0.1-0.9-0.1-1c-0.3-0.3-0.8,0-0.7,0.4v0.7h-0.2v-1.3h0.2v0.2
			C291.6,131.2,291.8,131.1,292,131.1z"/>
		<path class="st2" d="M293.4,130.7c-0.2,0-0.2,0.2-0.2,0.4h0.4v0.1h-0.4v1.1H293v-1.1h-0.2v-0.1h0.2c-0.1-0.4,0.3-0.7,0.7-0.5
			l-0.1,0.1C293.6,130.7,293.5,130.7,293.4,130.7L293.4,130.7z"/>
		<path class="st2" d="M294.3,132.4c-0.9,0-0.9-1.3,0-1.3C295.2,131.1,295.2,132.5,294.3,132.4L294.3,132.4z M294.3,132.3
			c0.6,0,0.6-1,0-1C293.7,131.2,293.7,132.3,294.3,132.3z"/>
		<polyline class="st24" points="296.4,131.2 297.2,132 298.1,131.2 		"/>
		<rect x="224.6" y="128.2" class="st22" width="30" height="1.8"/>
		<rect x="187.4" y="127.4" class="st20" width="19.6" height="1.8"/>
		<path class="st20" d="M198.7,123.4c0-0.1,0-0.4-0.1-0.5s-0.4-0.1-0.6-0.1v-0.4h-0.3c-0.1,0-0.1,0.4-0.1,0.4h-0.9v-0.4h-0.3
			c-0.1,0-0.1,0.4-0.1,0.4c-0.2,0-0.4,0-0.6,0.1c-0.1,0.1-0.1,0.4-0.1,0.5c0,0,0,0,0.1,0H198.7C198.6,123.5,198.7,123.4,198.7,123.4
			z M195.7,123.7C195.7,123.7,195.6,123.7,195.7,123.7c-0.1,0.1-0.1,1.8-0.1,1.8c0,0.1,0.1,0.2,0.2,0.3h0.1h2.4c0.1,0,0.2,0,0.2-0.1
			c0.1-0.1,0.1-0.1,0.1-0.2v-1.7c0,0,0,0,0-0.1c0,0,0,0-0.1,0L195.7,123.7L195.7,123.7z"/>
	</g>
</g>
<polygon class="st26" points="87,184.6 93.8,181.7 90.5,110.3 83.3,111.3 "/>
<polygon class="st27" points="87,184.6 83.5,180.5 80.2,109 83.3,111.3 "/>
<path class="st27" d="M22.3,130.7l60.6-8.9l-0.2-7.2C60.5,103.4,40,104.5,21,117.3L22.3,130.7z"/>
<path class="st26" d="M23.2,133l60.6-8.9l-0.2-7.2C61.5,105.7,41,106.8,22,119.6L23.2,133z"/>
<polygon class="st27" points="21.6,186.5 16.9,188.8 9.2,114.2 14.2,113.3 "/>
<polygon class="st26" points="21.6,186.5 28.2,183.3 21.2,112 14.2,113.3 "/>
<polygon class="st28" points="26.5,132.4 23.2,132.9 22,119.8 "/>
<path class="st4" d="M60,126.3c-4.3-7.3,4.7-23.2,13.8-29.7c8.1-5.7,16.8-5,24,2.9c5.6,6.3,5.8,19.2-8.2,24.7
	C79.1,128.4,64.4,133.6,60,126.3z"/>
<path class="st5" d="M97.7,99.6c-1.2-1.3-2.3-2.4-3.5-3.2c1.1,8.4-3.6,21.4-14,26.8c-6,3.1-11.2,5.3-15.6,6.4
	c6.5,1.7,16.9-2.1,24.9-5.2C103.6,118.8,103.3,105.8,97.7,99.6z"/>
<path class="st4" d="M61.6,86.8c7.6,5.2,1.4,19.7-4.3,29.7c-5.1,8.8-13.7,11.7-24.2,7.1c-8.3-3.7-11.9-17.5-3.8-27.1
	C36.7,87.6,53.9,81.6,61.6,86.8z"/>
<path class="st6" d="M32.9,93.4c0.7-0.7,1.3-1.5,2.2-2.2c-2.3,1.6-4.2,3.2-5.8,5.2c-8.1,9.6-4.5,23.4,3.8,27.1
	c1.3,0.6,2.6,1.1,3.7,1.4C27.1,118.2,25.6,102.2,32.9,93.4z"/>
<path class="st4" d="M63.2,59.9c7.2,4.9,0.9,19.3-4.9,29.4c-5.1,8.8-13.5,11.9-23.6,7.5c-8-3.5-13.4-15.1-3-26.6
	C39.4,61.6,56,54.9,63.2,59.9z"/>
<path class="st4" d="M65.8,92.1c-3.7-6.2,0.5-10.7,9.7-17.1c8.2-5.7,18.9-2.6,25.2,4.1c5,5.2,6.4,14.7-7.5,20.5
	C83.1,104,69.7,98.3,65.8,92.1z"/>
<path class="st6" d="M32.8,68.8c-0.4,0.4-0.8,0.8-1.2,1.2c-10.4,11.5-4.9,23.1,3,26.6c1.8,0.8,3.6,1.4,5.3,1.7
	C28.1,91.5,24.9,79.4,32.8,68.8z"/>
<path class="st5" d="M100.9,79.1c-2.1-2.2-4.5-3.9-7.2-5.2c6.8,8.2,5.8,21.1-9.2,27.2c3.1,0.2,6.2-0.3,9.1-1.5
	C107.3,93.8,105.9,84.4,100.9,79.1z"/>
<path class="st29" d="M89.8,157.2c-4.2-12.5-15.3-41.7-15.3-41.7l-10.2-6.3c0,0,7.1,53.3,17.1,60.5
	C84.7,171.8,91.9,163.3,89.8,157.2z"/>
<path class="st30" d="M78.2,160.5c-9.4-27.6-13.8-51.4-13.8-51.4s7.1,53.3,17.1,60.5c0.2,0.2,0.6,0.3,0.9,0.3
	C81,168,79.7,165,78.2,160.5z"/>
<path class="st31" d="M88.3,159.3c0.4,1.3,0.7,3.2,0.5,5.2c1.2-2.3,1.8-5.1,1-7.4c-4.2-12.5-15.3-41.7-15.3-41.7
	S84.1,146.8,88.3,159.3z"/>
<path class="st29" d="M80.9,176.1c-1.2-44.2-5.6-57.3-6.2-61.2c-1.5-8.2-7.9-15.1-17-15.1s-14.3,5-16.4,13.2
	c-1.6,6.5-8.7,43.2-8.4,69.2C46.3,179.7,62.1,176.8,80.9,176.1z"/>
<path class="st31" d="M58.2,120c6.9,0,12.8-3.6,15.5-8.7c-2.5-6.6-8.2-11.5-16-11.5c-8.1,0-13.2,3.9-15.6,10.5
	C44.7,116,50.9,120,58.2,120z"/>
<path class="st31" d="M80.9,176.1c-0.8-28.9-2.9-45.2-4.5-53.3c0.5,11.6,0.8,29.4,1.3,53.4C78.9,176.2,79.9,176.2,80.9,176.1z"/>
<path class="st30" d="M35,181.7c-0.2-18.9,3.2-49.2,5.5-65.1C38,127.8,32.7,159.4,33,182C33.7,181.9,34.4,181.8,35,181.7z"/>
<path class="st32" d="M240,200H0c17.5-20.4,51-25.7,113.8-25.7S217.4,177.2,240,200z"/>
<path class="st33" d="M217,185.8l-85.6,10.7c-0.5,0.1-1.1,0-1.6-0.1l-39.3-8.6c-1-0.2-1.7-1.1-1.8-2.2l-0.2-2.9l131.7-1.2l-0.7,2.3
	C219.2,184.8,218.2,185.6,217,185.8z"/>
<path class="st34" d="M211.7,181.7l-80.2,10.6c-0.2,0-0.2,0-0.4,0l-42-7.8c-1.3-0.2-1.3-2.2,0.1-2.4l87.7-11.4c0.2,0,0.3,0,0.4,0
	l34.6,8.6C213.1,179.7,213,181.5,211.7,181.7z"/>
<path class="st9" d="M54.3,84.4h12.2v28.3c-2.8,2.5-9.6,2.6-12.2-1.5V84.4z"/>
<path class="st10" d="M66.4,112.5V97.3h-3.7v16.9C64.2,113.9,65.5,113.3,66.4,112.5z"/>
<path class="st11" d="M56,84.4h-1.7v26.8c0.6,0.9,1.4,1.6,2.3,2.2L56,84.4z"/>
<path class="st9" d="M85.4,78.7c0,9.3-12.3,31.2-19.5,31.2c-8.7,0-19.4-22-19.4-31.3s10.1-17.2,19.4-17.2S85.4,69.3,85.4,78.7z"/>
<path class="st11" d="M56.3,103.1c-4.9-9.2-3.4-29.5-0.9-38.5c-5.1,3.1-8.9,8.2-8.9,14C46.4,84.7,50.8,95.8,56.3,103.1z"/>
<path class="st12" d="M50.2,70.4c0-0.8-0.8-1.4-1.6-1.2c-2.8,1-5,4.7-5,9.2c0,4.4,2.2,8.2,5,9.2c0.7,0.2,1.6-0.3,1.6-1.2V70.4z"/>
<path class="st11" d="M44.9,78.7c0-3.6,1-6.7,2.4-8.6c-2.2,1.6-3.6,4.7-3.6,8.4c0,3.4,1.3,6.4,3.2,8.1
	C45.6,84.7,44.9,81.8,44.9,78.7z"/>
<path class="st13" d="M79.4,84.5c0-0.2,0-0.3,0-0.5s0-0.3-0.1-0.5c0-0.2-0.1-0.3-0.1-0.4s-0.1-0.3-0.2-0.4s-0.1-0.2-0.2-0.3
	c-0.1-0.1-0.1-0.2-0.2-0.2c-0.1-0.1-0.2-0.1-0.3-0.1c-0.1,0-0.2,0-0.3,0c-0.1,0-0.2,0-0.3,0c-0.1,0-0.2,0.1-0.3,0.1
	c-0.1,0.1-0.2,0.1-0.2,0.2c-0.1,0.1-0.1,0.2-0.2,0.3c0.1,0.1,0,0.3,0,0.4s-0.1,0.3-0.1,0.4c0,0.2-0.1,0.3-0.1,0.5s0,0.3,0,0.5
	s0,0.3,0,0.5s0,0.3,0.1,0.5c0,0.2,0.1,0.3,0.1,0.4s0.1,0.3,0.2,0.4s0.1,0.2,0.2,0.3c0.1,0.1,0.1,0.2,0.2,0.2
	c0.1,0.1,0.2,0.1,0.3,0.1c0.1,0,0.2,0,0.3,0c0.1,0,0.2,0,0.3,0c0.1,0,0.2-0.1,0.3-0.1c0.1-0.1,0.2-0.1,0.2-0.2
	c0.1-0.1,0.1-0.2,0.2-0.3c0.1-0.1,0.1-0.2,0.2-0.4c0-0.1,0.1-0.3,0.1-0.4c0-0.2,0.1-0.3,0.1-0.5C79.4,84.8,79.4,84.7,79.4,84.5z"/>
<path class="st13" d="M63.7,81.8c0-0.2,0-0.3,0-0.5s0-0.3-0.1-0.5c0-0.2-0.1-0.3-0.1-0.4s-0.1-0.3-0.2-0.4c-0.1-0.1-0.1-0.2-0.2-0.3
	c-0.1-0.1-0.1-0.2-0.2-0.2c-0.1-0.1-0.2-0.1-0.3-0.1s-0.2,0-0.3,0s-0.2,0-0.3,0s-0.2,0.1-0.3,0.1c-0.1,0.1-0.2,0.1-0.2,0.2
	c-0.1,0.1-0.1,0.2-0.2,0.3c-0.1,0.1-0.1,0.2-0.2,0.4c0,0.1-0.1,0.3-0.1,0.4c0,0.2-0.1,0.3-0.1,0.5s0,0.3,0,0.5s0,0.3,0,0.5
	s0,0.3,0.1,0.5c0,0.2,0.1,0.3,0.1,0.4s0.1,0.3,0.2,0.4c0.1,0.1,0.1,0.2,0.2,0.3c0.1,0.1,0.1,0.2,0.2,0.2c0.1,0.1,0.2,0.1,0.3,0.1
	s0.2,0,0.3,0s0.2,0,0.3,0s0.2-0.1,0.3-0.1c0.1-0.1,0.2-0.1,0.2-0.2c0.1-0.1,0.1-0.2,0.2-0.3c0.1-0.1,0.1-0.2,0.2-0.4
	c0-0.1,0.1-0.3,0.1-0.4c0-0.2,0.1-0.3,0.1-0.5C63.7,82.2,63.7,82,63.7,81.8z"/>
<path class="st10" d="M69.2,93.5c1.7,1.2,3.2,0.6,2.8,1.2c-0.3,0.6-1.8,0.9-3.8,0.3c-1.9-0.6-2-1.5-1.6-2.1
	C67,92.5,67.9,92.7,69.2,93.5z"/>
<path class="st14" d="M64.4,74.2c-1.8-0.9-5.5,0.2-5.2-0.4c0.3-0.7,3.2-1.8,6.1-1.2c2,0.4,2.1,1.3,1.7,1.9
	C66.5,75.2,65.6,75.1,64.4,74.2z"/>
<path class="st14" d="M78.1,76.6c1.9-0.7,5.4,1.2,5.2,0.6c-0.2-0.7-2.8-2.4-5.7-2.3c-2,0.1-2.2,0.9-2.1,1.6
	C75.7,77,76.6,77.1,78.1,76.6z"/>
<path class="st15" d="M60.9,95.9c2.1,1.7,4.4,3.2,6.8,4.2c0.2,0.1,0.3,0.4,0.1,0.6c-1.6,1.3-3.8,1.5-5.5,0.3c-1.5-1-2.4-3.1-2.1-4.9
	C60.2,95.8,60.6,95.7,60.9,95.9z"/>
<path class="st10" d="M84.2,79c0,5.1-3.1,13.6-7.2,20.8c4.5-7,8.2-16,8.2-21.2c0-6.2-4.3-11.7-10-14.7C80.4,67.3,84.2,72.9,84.2,79z
	"/>
<path class="st4" d="M89,79.5c-3.7,6.2-9.3-10.4-18.6-13.4c-9.5-3-9.5-5.5-6.6-14.1c2.4-6.9,8.8-10.7,21.6-2.8
	C99.4,57.6,92.8,73.4,89,79.5z"/>
<path class="st5" d="M88.4,51.4c6,9,2.8,21.1-0.7,24.9c-4.8,5.3-5.3-9.7-18.7-11c-0.5-0.1-1-0.1-1.5-0.2c0.8,0.3,1.7,0.7,2.7,1
	c9.2,2.9,14.7,19.5,18.6,13.4C92.5,73.8,98.3,60.1,88.4,51.4z"/>
<path class="st4" d="M81.5,45.7c4.9,7.3-5.9,19-15.5,25.4s-20.2,8.4-25,0.7c-4.6-7.4-4.9-20.6,5.9-27.4
	C56.7,38.3,76.7,38.5,81.5,45.7z"/>
<path class="st6" d="M49.4,45.7c6.3-4,16.7-5.5,24.2-4.7c-8.1-2.2-19.9-1-26.7,3.2C36.1,51,36.4,64.2,41,71.6
	c0.2,0.3,0.4,0.7,0.7,0.9C37.8,66,38.8,52.5,49.4,45.7z"/>
<path class="st5" d="M64.6,69.8c-5.7,3.8-11.7,6.3-16.7,6.7c5.2,1.1,12-1.2,18.2-5.4c7.5-5,15.7-13.3,16.7-20.1
	C79.9,57.5,71.8,65,64.6,69.8z"/>
<path class="st29" d="M31.5,164.7c4.5-12.4,14.3-42.2,14.3-42.2l-3.9-11.3c0,0-28.1,45.8-24.7,57.7
	C18.2,172.8,29.2,170.7,31.5,164.7z"/>
<path class="st30" d="M20.2,159.9c10-27.3,21.7-48.7,21.7-48.7S13.8,157,17.2,168.9c0.1,0.3,0.2,0.6,0.4,0.8
	C17.8,167.6,18.6,164.4,20.2,159.9z"/>
<path class="st31" d="M28.9,165.3c-0.5,1.3-1.6,2.9-2.8,4.4c2.4-1.1,4.6-2.7,5.4-5.1c4.5-12.4,14.3-42.1,14.3-42.1
	S33.5,153,28.9,165.3z"/>
<path class="st29" d="M117.7,177.7c-10,0.2-19.6-0.5-32.3-4.5c-9.3-4-9-13.1,2.2-15.3c3.4,0.7,12.8,4.5,21.3,6.6
	c8.4,2,7.1,1.5,14.1,4L117.7,177.7z"/>
<path class="st30" d="M109.7,166c6.8,1.7,11.7,2.1,13.7,3.2l0.4-0.7c-1.1-1.9-6.5-2.2-14.9-4.1c-5.6-1.3-11.1-3.3-15.2-4.8
	C97.6,161.2,103.1,164.4,109.7,166z"/>
<path class="st31" d="M116.9,177.1c-10.3-0.6-18-1.7-31.5-5.2c-4.7-2.2-7-6.8-5-10.5c-3.8,3.7-2.3,9,4.2,11.8
	c12.8,3.9,24,5.4,34,5.3l5.4-10c0-0.1-0.1-0.1-0.1-0.2C119.8,167.2,117.5,171.3,116.9,177.1z"/>
<polygon class="st9" points="139.8,167.8 127.7,168.7 131.6,172.4 140.3,169.8 "/>
<path class="st10" d="M139.4,169.7h-5.6c-0.7,0-1.2,0.6-1.2,1.2c0,0.4,0.2,0.8,0.6,1.1l6.9-2.2C139.8,169.8,139.6,169.7,139.4,169.7
	z"/>
<rect x="133.6" y="172.3" class="st10" width="3.4" height="1.2"/>
<polygon class="st11" points="139.8,167.8 127.7,168.7 128.6,169.4 "/>
<path class="st9" d="M136.7,180.1c-9.8-0.1-14.6,1.4-17.3-1.7c-1.7-1.8-1.4-6.2,1-8.5c0.8-0.8,4.5-1.7,6.4-2.2
	c0.7-0.2,1.6,0,2.2,0.4c2.7,2,10.3,7.7,9.7,11.1C138.7,179.6,138.3,180.2,136.7,180.1z"/>
<path class="st10" d="M127.7,176.5l11.1,2.7c0-0.2,0-0.4,0-0.7l-9.6-6.4c-0.4-0.3-1-0.2-1.3,0.2l-1.2,1.8
	C126.1,174.9,126.6,176.3,127.7,176.5z"/>
<path class="st10" d="M118.9,177.7c0.2,0.3,0.3,0.7,0.6,0.9c2.7,3,7.5,1.6,17.3,1.7c1.5,0,1.9-0.5,2-0.7
	C130.6,179.1,123.5,179.8,118.9,177.7z"/>
<path class="st11" d="M129.1,168.4c-0.7-0.5-1.5-0.7-2.3-0.5c-1.9,0.4-5.5,1.4-6.4,2.2c-0.2,0.2-0.3,0.3-0.5,0.6
	C123.1,169.4,126.1,168.7,129.1,168.4z"/>
<path class="st34" d="M220.3,181.3l-86,10.9c0,0,8.3-64.5,10.8-64.7c0,0,90.9-5.5,90.2-3.1L220.3,181.3z"/>
<path class="st35" d="M191.9,148.9c0.2,0.2,0.4,0.3,0.5,0.5c0.2,0.2,0.3,0.4,0.5,0.6c0.1,0.2,0.3,0.4,0.4,0.6
	c0.1,0.2,0.2,0.4,0.3,0.7c0.1,0.2,0.2,0.5,0.3,0.7s0.1,0.5,0.2,0.7c0.1,0.3,0.1,0.5,0.1,0.8s0,0.5,0.1,0.8c0,0.3,0,0.5,0,0.8
	s-0.1,0.5-0.1,0.8s-0.1,0.5-0.2,0.8c-0.1,0.3-0.2,0.5-0.3,0.8s-0.2,0.5-0.3,0.8s-0.3,0.5-0.4,0.8c-0.1,0.2-0.3,0.5-0.5,0.7
	s-0.3,0.5-0.5,0.7s-0.4,0.4-0.6,0.6c-0.2,0.2-0.4,0.4-0.6,0.6c-0.2,0.2-0.4,0.4-0.7,0.5s-0.5,0.3-0.7,0.5c-0.2,0.1-0.5,0.3-0.7,0.4
	c-0.2,0.1-0.5,0.2-0.8,0.3s-0.5,0.2-0.8,0.3s-0.5,0.1-0.8,0.2c-0.3,0.1-0.5,0.1-0.8,0.1s-0.5,0-0.8,0s-0.5,0-0.8,0s-0.5-0.1-0.7-0.1
	c-0.2-0.1-0.5-0.1-0.7-0.2c-0.2-0.1-0.5-0.2-0.7-0.3s-0.4-0.2-0.6-0.4c-0.2-0.1-0.4-0.3-0.6-0.4c-0.2-0.2-0.4-0.3-0.5-0.5
	c-0.2-0.2-0.3-0.4-0.5-0.6c-0.1-0.2-0.3-0.4-0.4-0.6c-0.1-0.2-0.2-0.4-0.3-0.7c-0.1-0.2-0.2-0.5-0.3-0.7s-0.1-0.5-0.2-0.7
	c-0.1-0.3-0.1-0.5-0.1-0.8s0-0.5-0.1-0.8c0-0.3,0-0.5,0-0.8s0.1-0.5,0.1-0.8s0.1-0.5,0.2-0.8c0.1-0.3,0.2-0.5,0.3-0.8
	s0.2-0.5,0.3-0.8s0.3-0.5,0.4-0.8c0.1-0.2,0.3-0.5,0.5-0.7s0.3-0.5,0.5-0.7s0.4-0.4,0.6-0.6c0.2-0.2,0.4-0.4,0.6-0.6
	c0.2-0.2,0.4-0.4,0.7-0.5c0.2-0.2,0.5-0.3,0.7-0.5c0.2-0.1,0.5-0.3,0.7-0.4c0.2-0.1,0.5-0.2,0.8-0.3s0.5-0.2,0.8-0.3
	s0.5-0.1,0.8-0.2c0.3,0,0.5-0.1,0.8-0.1s0.5,0,0.8,0s0.5,0,0.8,0s0.5,0.1,0.7,0.1c0.2,0.1,0.5,0.1,0.7,0.2c0.2,0.1,0.5,0.2,0.7,0.3
	s0.4,0.2,0.6,0.4C191.5,148.6,191.7,148.7,191.9,148.9z"/>
<path class="st35" d="M144.8,133.5c0.4-2.5,2.6-4.3,5.1-4.5l85.5-4.5c0.3,0-0.3-0.1,0,0c0.2-2.2-1.7-3.9-3.8-3.8l-84.4,4.5
	c-2.6,0.2-4.7,2-5.1,4.5l-10.8,60.7l3.1,2.2L144.8,133.5z"/>
<path class="st31" d="M80.9,173.7c-0.2-5.5-0.4-10.4-0.7-15h-2.8c0.1,4.7,0.2,9.7,0.3,15H80.9z"/>
<path class="st29" d="M59.1,164.5c-9,4-19.7,7.1-33.2,8.7c-10.2,0.2-13.2-8.1-2.7-14.6c3.3-0.8,12.7-0.8,21.4-2.5
	c8.5-1.6,13.5-3.5,15.2-2.3L59.1,164.5z"/>
<path class="st30" d="M46,157.3c6.9-1.2,11.4-2.7,13.8-2.7l0.1-0.8c-1.8-1.2-6.8,0.7-15.2,2.3c-5.7,1.1-11.5,1.4-15.9,1.8
	C32.8,157.9,39.2,158.6,46,157.3z"/>
<path class="st31" d="M57,164c-9.7,3.5-17.1,5.5-30.7,7.8c-5.2,0-9.2-3.1-8.9-7.1c-2,4.7,1.7,8.6,8.7,8.4
	c13.3-1.7,24.1-4.7,33.2-8.7l0.7-10.7c-0.1,0-0.1-0.1-0.2-0.1C55.7,154.3,55.2,158.8,57,164z"/>
<path class="st36" d="M78.4,153.3L59.7,169c-1.1,0.9-2.6,1.1-3.7,0.4l-12.2-6.6l20.6-18.4c0.8-0.7,2.1-0.8,2.9-0.2l10.9,6.9
	C79.1,151.5,79.1,152.6,78.4,153.3z"/>
<polygon class="st37" points="64,142.4 43.2,160.3 45,161.8 64.3,144.3 "/>
<path class="st38" d="M64.3,144.3c0.8-0.7,2.1-0.8,2.9-0.2l10.9,6.9c0.3,0.2,0.6,0.6,0.7,1l0.1-0.1c0,0-0.2-2.2-1.2-2.7l-10.7-7
	c-0.9-0.6-2.2-0.5-2.9,0.2L64.3,144.3z"/>
<path class="st37" d="M76.6,154.2c0.1-0.1,0.1-0.2,0.1-0.3s0.1-0.2,0.1-0.4c0-0.1,0-0.3,0-0.4c0-0.1-0.1-0.3-0.1-0.4
	c0-0.1-0.1-0.3-0.2-0.4c-0.1-0.1-0.2-0.2-0.3-0.4c-0.1-0.1-0.2-0.2-0.3-0.3c-0.1-0.1-0.2-0.2-0.4-0.3c-0.1-0.1-0.3-0.1-0.4-0.2
	c-0.1-0.1-0.3-0.1-0.4-0.1s-0.3,0-0.4,0s-0.3,0-0.4,0s-0.3,0.1-0.4,0.1s-0.2,0.1-0.4,0.2c-0.1,0.1-0.2,0.2-0.3,0.2
	c-0.1,0.1-0.2,0.2-0.2,0.3c-0.1,0.1-0.1,0.2-0.1,0.3s-0.1,0.2-0.1,0.4s0,0.3,0,0.4c0,0.1,0.1,0.3,0.1,0.4s0.1,0.3,0.2,0.4
	c0.1,0.1,0.2,0.2,0.3,0.4c0.1,0.1,0.2,0.2,0.3,0.3c0.1,0.1,0.2,0.2,0.4,0.3c0.1,0.1,0.3,0.1,0.4,0.2c0.1,0.1,0.3,0.1,0.4,0.1
	s0.3,0,0.4,0s0.3,0,0.4,0s0.3-0.1,0.4-0.1s0.2-0.1,0.4-0.2c0.1-0.1,0.2-0.2,0.3-0.2C76.4,154.4,76.5,154.3,76.6,154.2z"/>
<path class="st38" d="M75.9,153.8c0.1-0.1,0.1-0.3,0.1-0.5s0-0.3-0.1-0.5s-0.2-0.3-0.3-0.5c-0.1-0.2-0.3-0.3-0.5-0.4
	c-0.2-0.1-0.4-0.2-0.6-0.2s-0.4,0-0.6,0s-0.4,0.1-0.5,0.2c-0.1,0.1-0.3,0.2-0.3,0.4c-0.1,0.1-0.1,0.3-0.1,0.5s0,0.3,0.1,0.5
	s0.2,0.3,0.3,0.5c0.1,0.2,0.3,0.3,0.5,0.4c0.2,0.1,0.4,0.2,0.6,0.2s0.4,0,0.6,0s0.4-0.1,0.5-0.2S75.9,154,75.9,153.8z"/>
<path class="st9" d="M53.4,151.5c-5.7-1.1-10.2,7.1-10,10.1c0.4,5.7,8.5,8.1,14.2,7.7c2.2-0.2,5.6-3.4,7.2-5.7
	c0.7-0.9-0.1-2.2-1.2-2.2l-3.9,0.3c-0.3,0-0.7-0.1-0.9-0.2l-5.7-3.5c-0.7-0.5-1.2-1.5-1.2-2.2C51.9,153.2,53.4,151.5,53.4,151.5z"/>
<path class="st11" d="M53.4,151.5c-5.6-1.1-9.9,6.7-9.9,9.8C47.1,154.2,50.9,151.8,53.4,151.5z"/>
<path class="st10" d="M44.2,163.8c2.2,3.9,8.7,5.7,13.5,5.2c0.8-0.1,1.9-0.6,2.9-1.4C56.2,168.3,50.3,167.5,44.2,163.8z"/>
<polygon points="256.8,11.1 256.8,14.9 256.1,14.9 256.1,13.3 254.5,13.3 254.5,14.9 253.7,14.9 253.7,11.1 254.5,11.1 254.5,12.6 
	256.1,12.6 256.1,11.1 "/>
<path d="M258.8,14.9c-0.2,0-0.4,0-0.6-0.1s-0.3-0.2-0.5-0.3s-0.2-0.3-0.3-0.5c-0.1-0.2-0.1-0.4-0.1-0.5c0-0.3,0.1-0.5,0.2-0.7
	s0.3-0.4,0.5-0.5s0.5-0.2,0.8-0.2s0.6,0.1,0.8,0.2c0.2,0.1,0.4,0.3,0.5,0.5s0.2,0.5,0.2,0.7v0.1v0.1h-2.1c0,0.1,0.1,0.3,0.1,0.4
	c0.1,0.1,0.2,0.2,0.3,0.2c0.1,0.1,0.2,0.1,0.3,0.1c0.1,0,0.3,0,0.4-0.1s0.2-0.2,0.3-0.3l0.6,0.2c-0.1,0.1-0.2,0.3-0.3,0.4
	c-0.1,0.1-0.3,0.2-0.4,0.3C259.2,14.9,259,14.9,258.8,14.9z M258.1,13.3h1.4c0-0.1-0.1-0.3-0.1-0.4c-0.1-0.1-0.1-0.2-0.3-0.2
	c-0.1-0.1-0.2-0.1-0.3-0.1c-0.1,0-0.2,0-0.3,0.1c-0.1,0.1-0.2,0.1-0.3,0.2C258.1,13,258.1,13.1,258.1,13.3z"/>
<path d="M260.6,11h0.7v3c0,0.1,0,0.2,0.1,0.3c0,0,0.1,0.1,0.2,0.1s0.1,0,0.2,0s0.1,0,0.2-0.1l0.1,0.5c-0.1,0-0.2,0.1-0.3,0.1
	s-0.2,0-0.3,0c-0.2,0-0.4-0.1-0.5-0.2c-0.1-0.1-0.2-0.3-0.2-0.5V11H260.6z"/>
<path d="M263.9,14.9c-0.2,0-0.4,0-0.6-0.1s-0.3-0.2-0.4-0.4V16h-0.7v-3.9h0.6v0.5c0.1-0.2,0.2-0.3,0.4-0.4c0.2-0.1,0.3-0.1,0.5-0.1
	s0.4,0,0.5,0.1c0.2,0.1,0.3,0.2,0.4,0.3s0.2,0.3,0.3,0.5c0.1,0.2,0.1,0.4,0.1,0.6c0,0.3-0.1,0.5-0.2,0.7s-0.2,0.4-0.4,0.5
	C264.4,14.9,264.2,14.9,263.9,14.9z M263.7,14.3c0.1,0,0.2,0,0.3-0.1c0.1,0,0.2-0.1,0.2-0.2c0.1-0.1,0.1-0.2,0.1-0.3s0-0.2,0-0.3
	s0-0.2-0.1-0.3c0-0.1-0.1-0.2-0.2-0.3s-0.2-0.1-0.2-0.2c-0.1,0-0.2-0.1-0.3-0.1c-0.1,0-0.1,0-0.2,0s-0.1,0.1-0.2,0.1
	s-0.1,0.1-0.2,0.1c0,0.1-0.1,0.1-0.1,0.2v0.7c0,0.1,0.1,0.2,0.2,0.3s0.2,0.2,0.2,0.2S263.6,14.3,263.7,14.3z"/>
<polygon points="268.6,14.9 268.6,12.4 267.7,14.2 267.3,14.2 266.3,12.4 266.3,14.9 265.6,14.9 265.6,11.1 266.4,11.1 267.5,13.2 
	268.6,11.1 269.4,11.1 269.4,14.9 "/>
<path d="M270.1,15.4c0.1,0,0.1,0,0.2,0s0.1,0,0.1,0c0.1,0,0.1,0,0.2-0.1c0,0,0.1-0.1,0.1-0.2c0-0.1,0.1-0.2,0.1-0.4l-1.1-2.8h0.7
	l0.7,2.1l0.6-2.1h0.7l-1.1,3.4c0,0.1-0.1,0.2-0.2,0.3s-0.2,0.2-0.3,0.2c-0.1,0.1-0.3,0.1-0.4,0.1s-0.1,0-0.2,0s-0.1,0-0.2,0
	L270.1,15.4L270.1,15.4z"/>
<path d="M275.2,12.1l-0.1-0.1c-0.1,0-0.1-0.1-0.2-0.1s-0.2-0.1-0.3-0.1c-0.1,0-0.2,0-0.3,0c-0.2,0-0.3,0-0.4,0.1s-0.1,0.2-0.1,0.3
	s0,0.2,0.1,0.2c0.1,0.1,0.2,0.1,0.3,0.2c0.1,0,0.3,0.1,0.5,0.1c0.2,0.1,0.5,0.1,0.6,0.2c0.2,0.1,0.3,0.2,0.4,0.3s0.1,0.3,0.1,0.6
	c0,0.2,0,0.4-0.1,0.5s-0.2,0.3-0.3,0.4c-0.1,0.1-0.3,0.2-0.4,0.2c-0.2,0-0.3,0.1-0.5,0.1s-0.4,0-0.6-0.1c-0.2,0-0.4-0.1-0.5-0.2
	c-0.2-0.1-0.3-0.2-0.5-0.3l0.3-0.6c0,0,0.1,0.1,0.2,0.1c0.1,0.1,0.2,0.1,0.3,0.2c0.1,0.1,0.2,0.1,0.4,0.1c0.1,0,0.3,0.1,0.4,0.1
	c0.2,0,0.3,0,0.4-0.1s0.2-0.2,0.2-0.3s0-0.2-0.1-0.3s-0.2-0.1-0.3-0.2c-0.1,0-0.3-0.1-0.5-0.2c-0.2-0.1-0.4-0.1-0.6-0.2
	c-0.2-0.1-0.3-0.2-0.3-0.3c-0.1-0.1-0.1-0.3-0.1-0.5c0-0.3,0.1-0.5,0.2-0.7s0.3-0.3,0.5-0.4c0.2-0.1,0.4-0.1,0.7-0.1
	c0.2,0,0.3,0,0.5,0.1c0.2,0,0.3,0.1,0.4,0.2c0.1,0.1,0.3,0.1,0.4,0.2L275.2,12.1z"/>
<path d="M277.7,14.7c-0.1,0-0.1,0.1-0.2,0.1s-0.2,0.1-0.3,0.1c-0.1,0-0.2,0-0.3,0c-0.1,0-0.2,0-0.4-0.1c-0.1,0-0.2-0.1-0.3-0.2
	c-0.1-0.1-0.1-0.2-0.1-0.4v-1.6h-0.4V12h0.4v-0.9h0.7V12h0.6v0.6h-0.6V14c0,0.1,0,0.2,0.1,0.2c0,0,0.1,0.1,0.2,0.1s0.1,0,0.2,0
	s0.1,0,0.2-0.1L277.7,14.7z"/>
<path d="M279.7,12.7c-0.2,0-0.4,0-0.6,0.1s-0.3,0.2-0.4,0.4v1.7H278v-2.8h0.6v0.6c0.1-0.2,0.2-0.3,0.4-0.5c0.1-0.1,0.3-0.2,0.5-0.2
	h0.1c0,0,0,0,0.1,0V12.7z"/>
<path d="M281.3,14.9c-0.2,0-0.4,0-0.6-0.1s-0.3-0.2-0.5-0.3s-0.2-0.3-0.3-0.5c-0.1-0.2-0.1-0.4-0.1-0.5c0-0.3,0.1-0.5,0.2-0.7
	s0.3-0.4,0.5-0.5s0.5-0.2,0.8-0.2s0.6,0.1,0.8,0.2c0.2,0.1,0.4,0.3,0.5,0.5s0.2,0.5,0.2,0.7v0.1v0.1h-2.1c0,0.1,0.1,0.3,0.1,0.4
	c0.1,0.1,0.2,0.2,0.3,0.2c0.1,0.1,0.2,0.1,0.3,0.1c0.1,0,0.3,0,0.4-0.1s0.2-0.2,0.3-0.3l0.6,0.2c-0.1,0.1-0.2,0.3-0.3,0.4
	c-0.1,0.1-0.3,0.2-0.4,0.3C281.7,14.9,281.5,14.9,281.3,14.9z M280.6,13.3h1.4c0-0.1-0.1-0.3-0.1-0.4c-0.1-0.1-0.1-0.2-0.3-0.2
	c-0.1-0.1-0.2-0.1-0.3-0.1c-0.1,0-0.2,0-0.3,0.1c-0.1,0.1-0.2,0.1-0.3,0.2C280.7,13,280.6,13.1,280.6,13.3z"/>
<path d="M284.4,14.9c-0.2,0-0.4,0-0.6-0.1s-0.3-0.2-0.5-0.3s-0.2-0.3-0.3-0.5c-0.1-0.2-0.1-0.4-0.1-0.5c0-0.3,0.1-0.5,0.2-0.7
	s0.3-0.4,0.5-0.5s0.5-0.2,0.8-0.2s0.6,0.1,0.8,0.2c0.2,0.1,0.4,0.3,0.5,0.5s0.2,0.5,0.2,0.7v0.1v0.1h-2.1c0,0.1,0.1,0.3,0.1,0.4
	c0.1,0.1,0.2,0.2,0.3,0.2c0.1,0.1,0.2,0.1,0.3,0.1c0.1,0,0.3,0,0.4-0.1s0.2-0.2,0.3-0.3l0.6,0.2c-0.1,0.1-0.2,0.3-0.3,0.4
	c-0.1,0.1-0.3,0.2-0.4,0.3C284.8,14.9,284.6,14.9,284.4,14.9z M283.7,13.3h1.4c0-0.1-0.1-0.3-0.1-0.4c-0.1-0.1-0.1-0.2-0.3-0.2
	c-0.1-0.1-0.2-0.1-0.3-0.1c-0.1,0-0.2,0-0.3,0.1c-0.1,0.1-0.2,0.1-0.3,0.2C283.8,13,283.7,13.1,283.7,13.3z"/>
<path d="M287.9,14.7c-0.1,0-0.1,0.1-0.2,0.1s-0.2,0.1-0.3,0.1c-0.1,0-0.2,0-0.3,0c-0.1,0-0.2,0-0.4-0.1c-0.1,0-0.2-0.1-0.3-0.2
	c-0.1-0.1-0.1-0.2-0.1-0.4v-1.6h-0.4V12h0.4v-0.9h0.7V12h0.6v0.6H287V14c0,0.1,0,0.2,0.1,0.2c0,0,0.1,0.1,0.2,0.1s0.1,0,0.2,0
	s0.1,0,0.2-0.1L287.9,14.7z"/>
<rect x="288.3" y="14.1" width="0.6" height="0.8"/>
<path d="M290.7,14.9c-0.2,0-0.4,0-0.6-0.1s-0.3-0.2-0.5-0.3c-0.1-0.1-0.2-0.3-0.3-0.5c-0.1-0.2-0.1-0.4-0.1-0.6c0-0.2,0-0.4,0.1-0.6
	c0.1-0.2,0.2-0.3,0.3-0.5c0.1-0.1,0.3-0.2,0.5-0.3s0.4-0.1,0.6-0.1s0.4,0,0.6,0.1s0.3,0.2,0.5,0.3c0.1,0.1,0.2,0.3,0.3,0.5
	c0.1,0.2,0.1,0.4,0.1,0.6c0,0.2,0,0.4-0.1,0.6c-0.1,0.2-0.2,0.3-0.3,0.5c-0.1,0.1-0.3,0.2-0.5,0.3S290.9,14.9,290.7,14.9z
	 M289.9,13.5c0,0.2,0,0.3,0.1,0.4c0.1,0.1,0.1,0.2,0.3,0.3c0.1,0.1,0.2,0.1,0.4,0.1c0.1,0,0.3,0,0.4-0.1s0.2-0.2,0.3-0.3
	c0.1-0.1,0.1-0.3,0.1-0.4c0-0.2,0-0.3-0.1-0.4c-0.1-0.1-0.2-0.2-0.3-0.3c-0.1-0.1-0.2-0.1-0.4-0.1c-0.1,0-0.3,0-0.4,0.1
	s-0.2,0.2-0.3,0.3C290,13.2,289.9,13.3,289.9,13.5z M294.2,12.7c-0.2,0-0.4,0-0.6,0.1s-0.3,0.2-0.4,0.4v1.7h-0.7v-2.8h0.6v0.6
	c0.1-0.2,0.2-0.3,0.4-0.5c0.1-0.1,0.3-0.2,0.5-0.2h0.1c0,0,0,0,0.1,0V12.7z"/>
<path d="M295.6,14.9c-0.2,0-0.3,0-0.5-0.1s-0.3-0.2-0.4-0.3s-0.2-0.3-0.3-0.5c-0.1-0.2-0.1-0.4-0.1-0.5c0-0.2,0-0.4,0.1-0.6
	c0.1-0.2,0.2-0.3,0.3-0.5c0.1-0.1,0.2-0.2,0.4-0.3c0.2-0.1,0.3-0.1,0.5-0.1s0.4,0,0.6,0.1s0.3,0.2,0.4,0.4V12h0.6v2.7
	c0,0.3-0.1,0.5-0.2,0.7s-0.3,0.3-0.5,0.5c-0.2,0.1-0.5,0.2-0.8,0.2s-0.5-0.1-0.8-0.2c-0.2-0.1-0.4-0.2-0.5-0.4l0.4-0.4
	c0.1,0.1,0.2,0.2,0.4,0.3c0.2,0.1,0.3,0.1,0.5,0.1c0.1,0,0.3,0,0.4-0.1s0.2-0.1,0.3-0.3c0.1-0.1,0.1-0.3,0.1-0.4v-0.4
	c-0.1,0.2-0.2,0.3-0.4,0.4C296,14.9,295.8,14.9,295.6,14.9z M295.9,14.3c0.1,0,0.1,0,0.2,0s0.1-0.1,0.2-0.1s0.1-0.1,0.2-0.2
	c0-0.1,0.1-0.1,0.1-0.2v-0.7c0-0.1-0.1-0.2-0.2-0.3s-0.2-0.1-0.3-0.2c-0.1,0-0.2-0.1-0.3-0.1c-0.1,0-0.2,0-0.3,0.1
	c-0.1,0-0.2,0.1-0.2,0.2c-0.1,0.1-0.1,0.2-0.1,0.3s0,0.2,0,0.3s0,0.2,0.1,0.3c0,0.1,0.1,0.2,0.2,0.3s0.1,0.1,0.2,0.2
	C295.7,14.3,295.8,14.3,295.9,14.3z"/>
<path d="M307.1,14.6h3.2 M307.1,13h3.2 M307.1,11.4h3.2"/>
<path class="st39" d="M307.1,14.6h3.2 M307.1,13h3.2 M307.1,11.4h3.2"/>
<g>
	
		<linearGradient id="SVGID_1_" gradientUnits="userSpaceOnUse" x1="242.1605" y1="580.2617" x2="250.4315" y2="580.2617" gradientTransform="matrix(1 0 0 1 0 -566)">
		<stop  offset="0" style="stop-color:#FF1F05"/>
		<stop  offset="1" style="stop-color:#FF8E12"/>
	</linearGradient>
	<path class="st40" d="M249.4,9.1h-6.3c-0.6,0-1,0.4-1,1v6.3c0,0.6,0.4,1,1,1h2l1.8,1.8c0.5,0.5,1.3,0.1,1.3-0.6v-1.2h1.2
		c0.6,0,1-0.4,1-1v-6.3C250.4,9.5,250,9.1,249.4,9.1z"/>
	<path class="st15" d="M243.1,10.1v6.3h2c0.3,0,0.5,0.1,0.7,0.3l1.5,1.5v-1.7h2.2v-6.3L243.1,10.1L243.1,10.1z M248.1,15.2h-1v-1.5
		h-1.6v1.5h-1v-3.9h1v1.5h1.6v-1.5h1V15.2z"/>
</g>
</svg>
