<?xml version="1.0" encoding="utf-8"?>
<!-- Generator: Adobe Illustrator 24.3.0, SVG Export Plug-In . SVG Version: 6.00 Build 0)  -->
<svg version="1.1" id="Layer_1" xmlns="http://www.w3.org/2000/svg" xmlns:xlink="http://www.w3.org/1999/xlink" x="0px" y="0px"
	 viewBox="0 0 320 200" style="enable-background:new 0 0 320 200;" xml:space="preserve">
<style type="text/css">
	.st0{fill:#8AF6FF;}
	.st1{fill:#F9D6F5;}
	.st2{fill:#FFF5FF;}
	.st3{fill:#0000B9;}
	.st4{fill:#BDA0B9;}
	.st5{fill:none;}
	.st6{fill:#FFFD71;}
	.st7{fill:#FFFFFF;}
	.st8{fill:#5E5E5E;}
	.st9{fill:#B0B0B0;}
	.st10{fill:#6A6A6A;}
	.st11{fill:#CACACA;}
	.st12{fill:#5B5B5B;}
	.st13{fill:#CBCBCB;}
	.st14{fill:#7F7F7F;}
	.st15{fill:#777777;}
	.st16{fill:#A9A9A9;}
	.st17{fill:#161616;}
	.st18{fill:#6F6F6F;}
	.st19{fill:#A8A8A8;}
	.st20{fill:#E0E0E0;}
	.st21{fill:#A0A0A0;}
	.st22{fill:#91B7BF;}
	.st23{fill:#FACAAC;}
	.st24{fill:#FBDCCB;}
	.st25{fill:#DBA587;}
	.st26{fill:#32276B;}
	.st27{fill:#5A338A;}
	.st28{fill:#C6F9C2;}
	.st29{fill:#AE98C8;}
	.st30{fill:#919DA9;}
	.st31{fill:#2A6CB4;}
	.st32{fill:#01A9D1;}
	.st33{fill:#7C2006;}
	.st34{fill:#FF9B15;}
	.st35{fill:#A1BAC3;}
	.st36{fill:#879BA3;}
	.st37{fill:#BFCDD2;}
	.st38{fill:#EBCC02;}
	.st39{fill:#FFDC03;}
	.st40{fill:#FFEC66;}
	.st41{fill:#B49D08;}
	.st42{fill:#FFFC9C;}
	.st43{fill:#7CB4C4;}
	.st44{fill:#1A708A;}
	.st45{fill:#EBC29F;}
	.st46{fill:#7C5909;}
	.st47{fill:#698E93;}
	.st48{fill:#9E8319;}
	.st49{fill:#488FA1;}
	.st50{fill:#C4A285;}
	.st51{fill:#725A3C;}
	.st52{fill:#22120B;}
	.st53{fill:#956F0B;}
	.st54{fill:#BDA388;}
	.st55{fill:#EFDEC6;}
	.st56{fill:#9BA1A7;}
	.st57{fill:#BFC2C4;}
	.st58{fill:#2D9FFF;}
	.st59{fill:#333B40;}
</style>
<polygon class="st0" points="301.3,150.4 42.3,183.6 21.2,15.6 306.5,47.5 "/>
<g>
	<path class="st1" d="M186.8,149.1L32,161.8c-7.7,0.6-14.4-5.1-15.1-12.8L9.6,59.4c-0.6-7.7,5.1-14.4,12.8-15.1l154.8-12.8
		c7.7-0.6,14.4,5.1,15.1,12.8l7.4,89.7C200.2,141.7,194.5,148.5,186.8,149.1z"/>
	<path class="st2" d="M185.2,30.9L14.2,45C11,45.2,8.6,48,8.9,51.2l1.7,20.6l182.6-15.1l-1.7-20.6C191.2,33,188.4,30.6,185.2,30.9z"
		/>
	
		<rect x="17.6" y="47.3" transform="matrix(0.9966 -8.214369e-02 8.214369e-02 0.9966 -4.696 2.9777)" class="st3" width="32.5" height="22.5"/>
	
		<rect x="90.4" y="44.6" transform="matrix(0.9966 -8.214369e-02 8.214369e-02 0.9966 -3.4812 10.0374)" class="st3" width="59.7" height="5.5"/>
	
		<rect x="65" y="59.9" transform="matrix(0.9966 -8.214369e-02 8.214369e-02 0.9966 -4.8443 6.9433)" class="st4" width="33.9" height="4.9"/>
	
		<rect x="65.6" y="66.2" transform="matrix(0.9966 -8.214369e-02 8.214369e-02 0.9966 -5.3321 7.7035)" class="st4" width="50.8" height="4.9"/>
	
		<rect x="66.6" y="78.4" transform="matrix(0.9966 -8.214369e-02 8.214369e-02 0.9966 -6.2727 9.2361)" class="st4" width="85" height="4.9"/>
	
		<rect x="71.1" y="134" transform="matrix(0.9966 -8.214369e-02 8.214369e-02 0.9966 -10.9012 7.9294)" class="st4" width="39.6" height="4.9"/>
	
		<rect x="67.1" y="84.2" transform="matrix(0.9966 -8.214369e-02 8.214369e-02 0.9966 -6.7206 9.9577)" class="st4" width="101.1" height="4.9"/>
	
		<rect x="67.7" y="92" transform="matrix(0.9966 -8.214369e-02 8.214369e-02 0.9966 -7.4083 8.7445)" class="st4" width="69.7" height="4.9"/>
	<polygon class="st4" points="143.4,111.2 69.5,117.3 69.9,122.1 78.5,121.4 79.3,132 107.3,129.7 106.4,119.1 143.8,116 	"/>
	<path class="st5" d="M83.1,106c0.2,0.7,0.4,1.5,0.6,2.2c0.1,0.2,0.1,0.5,0,0.7c-0.1,0.2-0.2,0.2-0.4,0.3c-0.1,0-0.1,0.1-0.2,0.1
		c-0.4,0.3-0.7,0.7-1,1.1c-0.3,0.4-0.8,0.7-1.3,0.6C77.8,110.1,82.2,102.8,83.1,106z"/>
	<path class="st5" d="M87.1,109.6c-0.7-1.8-0.9-3.8-0.4-5.6c0.1-0.2,0.1-0.5,0.3-0.6c0.2-0.2,0.5-0.2,0.7-0.1
		c0.1,0.1,0.2,0.3,0.2,0.4c0.2,1,0.3,2,0.2,3c-0.1,1.1-0.4,2.3-0.3,3.4c0,0.2,0.1,0.3,0.2,0.4c0.2,0.1,0.5,0.1,0.6-0.1
		c0.2-0.2,0.2-0.4,0.3-0.6c0.3-1.6,0.4-3.3,0.2-4.9c0.5,1.4,0.6,3,0.5,4.5c0,0.3,0,0.6,0.2,0.8c0.1,0,0.2,0.1,0.3,0.1
		c0.5,0,1-0.1,1.5-0.4"/>
	<path class="st5" d="M96.7,105c-0.5-0.6-1.5-0.4-1.9,0.2s-0.4,1.4-0.3,2.1c0.2,1.2,0.7,2.4,1.8,3c1.2,0.6,2.7,0.3,3.9-0.2
		c0.6-0.2,1.3-0.5,1.8-1c0.5-0.5,0.7-1.3,0.5-1.9c-0.1-0.2-0.2-0.3-0.4-0.4c-0.7-0.4-1.5,0.6-1.2,1.3c0.3,0.7,1.1,1,1.9,1.1
		c1.3,0.2,2.7-0.1,3.7-1c0.9-0.9,1.1-2.6,0.1-3.5c-0.2,0.7,0.5,1.5,1.3,1.6c0.8,0.1,1.5-0.3,2-0.9c0.5-0.6,0.8-1.3,1-2
		c-0.5,0.7-0.7,1.6-0.4,2.5c0.1,0.4,0.4,0.8,0.8,0.9c0.4,0.1,0.9-0.1,1-0.5c1,1.3,3,1.2,4.6,1"/>
	<circle class="st6" cx="29.3" cy="51.9" r="1.4"/>
	<circle class="st6" cx="26.4" cy="54.9" r="1.4"/>
	<circle class="st6" cx="25.5" cy="59.1" r="1.2"/>
	<circle class="st6" cx="27" cy="63.3" r="1.1"/>
	<circle class="st6" cx="30.4" cy="65.5" r="1.3"/>
	<circle class="st6" cx="34.2" cy="66.3" r="1.2"/>
	<circle class="st6" cx="38.5" cy="64.8" r="1.1"/>
	<circle class="st6" cx="41.4" cy="61.9" r="1.1"/>
	<circle class="st6" cx="42.3" cy="57.7" r="1.2"/>
	<circle class="st6" cx="33" cy="50.5" r="1.3"/>
	<circle class="st6" cx="37.2" cy="51.1" r="1.3"/>
	<circle class="st6" cx="40.7" cy="53.4" r="1.1"/>
	<g>
		<path class="st7" d="M29.7,55.9l0.3,3.4c0.1,1.3,0.7,1.8,1.5,1.7c0.9-0.1,1.4-0.7,1.3-2l-0.3-3.4l0.8-0.1l0.3,3.4
			c0.1,1.8-0.8,2.6-2,2.7c-1.2,0.1-2.2-0.5-2.3-2.3l-0.3-3.4L29.7,55.9z"/>
		<path class="st7" d="M34.6,55.5l0.8-0.1l0.2,2.8l0,0c0.1-0.2,0.3-0.5,0.4-0.7l1.6-2.3l1-0.1l-2,2.6l2.6,3.1l-0.9,0.1l-2.2-2.7
			l-0.5,0.7l0.2,2.2l-0.8,0.1L34.6,55.5z"/>
	</g>
	<g>
		
			<rect x="22" y="73.9" transform="matrix(0.9966 -8.214369e-02 8.214369e-02 0.9966 -8.0243 3.7764)" class="st4" width="39.7" height="50.9"/>
		<path class="st8" d="M21.2,118.1c0,0.2,0,0.3,0.1,0.5C21.3,118.4,21.2,118.3,21.2,118.1z"/>
		<path class="st9" d="M61.8,120c-0.1-0.2-7.2-4.4-7.4-4.5c0.1,0.5-21.7-1.9-21.4-2.2c-0.3,0.1-0.6,0.1-0.9,0.2
			c-1.1,0.3-2.3,0.7-3.4,1.1c-0.3,0.1-0.5,0.2-0.8,0.3c-0.9,0.4-1.5,1.2-2.5,1.3c-0.6,0.1-1,0.3-1.4,0.7c-0.1,0.1-0.3,0.2-0.4,0.2
			l0.8,9.2l39.6-3.3l-0.1-1.2C62.8,121.2,62,120.5,61.8,120z"/>
		<path class="st10" d="M55.5,122.1c-0.5-1.5-0.6-3.1-0.9-4.6c-0.1-0.6-0.1-1.3-0.2-1.9c-0.2-0.4-0.3-0.7-0.5-1.1c0,0,0-0.2-0.1-0.2
			c-0.1-0.3-0.3-0.7-0.4-1c-0.3,0.2-0.7,0.3-1,0.5c-0.2,0.2-0.4,0.5-0.7,0.7c0,0.2,0.1,1,0.1,1.1c0.1,0.1-17.2-0.1-17.1-0.2
			c0.1-0.2,0.2-0.3,0.3-0.5c0.1-0.1,0.1-0.1,0.2-0.2c0.5-0.5,0.8-0.5,0.7-1.4c0-0.4-0.6-1.6-1-2.3c-0.5,0.5-1.4,1.3-1.9,1.8
			c0,0.1-0.1,0.3-0.1,0.4c-0.1,0.1-0.1,0.1-0.2,0.2c-0.3,0.3-0.6,0.7-0.9,1c-0.5,0.4-0.8,1-0.9,1.6c-0.1,0.8-0.3,1.7,0.1,2.5
			c0,0.1,0.2,3,0.3,4.3c0,0.3,0.1,1.9,0.1,2.3c0,0.3,0,0.5,0,0.7l24.6-2C55.9,123.3,55.7,122.7,55.5,122.1z"/>
		<path class="st7" d="M51.9,116.1c-0.4,0.3-16.6-0.7-16.6-1.3c-0.1,0.1-0.1,0.1-0.2,0.2c-0.1,0.2-1.7,1.8-1.8,2.4
			c-0.1,0.5,0.2,1.2,0.4,1.7c0.1,0.2,0.3,0.5,0.4,0.7c0,0,0.4,0.5,0.6,0.7c0,0,1.3,0.9,1.5,1.1c0,0,0,0,0,0c0.2,0.1,0.5,0.4,0.5,0.4
			c0.5,0.5,2.7,2.5,3.1,2.9c0,0,0.2,0.2,0.4,0.3l8.7-0.7c2-2.3,4.4-5,4.4-5c0.1-0.4-0.4-2-0.4-2C52.9,117.2,52,116.1,51.9,116.1z"/>
		<path class="st11" d="M28.2,98.7c0.4,1,0.9,1.9,1.3,2.8c0.1,0.3,0.3,0.6,0.4,0.9c0,0,0.1,0,0.1,0.1c1,1.1,2.2,2.1,3.7,2.6
			c0.2,0.1,0.4,0.4,0.5,0.7c0.2,0.7,0.2,1.4,0.5,2.1c0.5,1.2,1.1,2.3,1.7,3.4c0.2,0.2,0.3,0.4,0.5,0.7l0,0c0.1,0,0.2,0,0.3,0.1
			c0,1.1-0.1,2.4-0.1,2.5c-0.1,1.1-0.1,2.3-0.2,3.4c0,0.4,0.1,0.8,0.1,1.3c0,0.2,0,0.4,0,0.6c0.3,0.2,0.6,0.4,1,0.6
			c2.4,1.1,5,1.1,7.6,1.1c1.4,0,2.5-0.7,3.6-1.5c0.5-0.4,1-0.9,1.5-1.3c0-0.8,0.1-1.6,0.1-2.3c0-0.2,0.4-0.4,0.4-0.6
			c0-0.1,0.3-1.3,0.6-2.3c0.4-0.4,0.8-0.8,1-1.3c0.2-0.3,0.4-0.6,0.5-1c0.3-0.7,0.5-1.4,0.8-2.2c0.2-0.4,0.4-0.9,0.5-1.3
			c0.3-1.2,0.4-2.5,0.7-3.7c0.3-1.5,0.3-3,0.1-4.5c-0.2-1.2-0.4-2.4-0.5-3.5c-0.2-1.6-0.7-4.9-0.7-4.9l-0.3-1.5c0,0-0.2-2.2-0.3-3.4
			c-0.1-0.7-0.2-1.4,0.3-1.9c-0.2-0.7-0.4-1.4-0.6-2c-0.2-0.2-0.3-0.4-0.5-0.6c-0.5-0.6-1.1-1.2-1.6-1.9c-0.1-0.1-0.2-0.2-0.3-0.3
			c-0.3-0.2-0.5-0.4-0.8-0.5c-0.4-0.2-0.8-0.5-1.3-0.7c-0.4,0-0.6,0.2-0.8,0.5c-0.2,0.3-0.6,0.6-0.8,0.9c-0.2,0.7-0.8,1-1.5,1.2
			c-1.3,0.4-2.6,0.6-4,0.5c-2.1-0.1-4.2-0.4-6.3-0.6c-0.3,0-0.8-0.1-1,0.1c-0.6,0.5-1.2,1-1.8,1.6c-0.6,0.9-0.8,2-0.6,3.1
			c0.2,1.3,0.1,2.6,0.1,3.9c0,0.6-0.2,1.2-0.2,1.8c0,0.7,0,1.3,0.1,2c0,0-0.5,2.2-1.6,2.3c-0.1,0-0.2,0-0.3,0
			c-0.1,0.1-1.1,0.5-1.3,0.5c-0.1,0.3-0.2,0.7-0.4,1C27.9,97.6,28,98.1,28.2,98.7z"/>
		<path class="st12" d="M28.7,96.1c0.2,0,1.2-0.4,1.3-0.5c-0.1-0.4-0.2-0.8-0.3-1.2c-0.1-0.2-0.2-0.4-0.3-0.6c-0.4-1-0.7-1.9-0.7-3
			c0-0.7,0-1.3-0.1-2c-0.4-2.2-0.3-4.5-0.5-6.7c0-0.2-0.1-0.3-0.1-0.5c-0.8,1.4-1,2.9-0.9,4.4c0.1,2.9,0.4,5.7,1.1,8.5
			C28.3,95.1,28.5,95.6,28.7,96.1z"/>
		<path class="st13" d="M63.6,121.1c-1.8-1.5-3.8-2.9-5.8-4.2c-1.3-0.8-2.5-1.7-3.8-2.6c0,0-0.1,0-0.1,0.1c0.2,0.4,0.3,0.7,0.5,1.1
			c0.2,0.3,0.5,0.5,0.6,0.6c1.5,0.9,1.5,1,2.3,1.5c0.9,0.6,1.8,1,2.7,1.6c0.6,0.4,1.2,1,1.8,1.4c0.4,0.3,0.8,0.5,1.1,0.8
			c0.3,0.2,0.5,0.5,0.8,0.8L63.6,121.1z"/>
		<path class="st13" d="M23.5,116.4c-0.1,0-0.1,0.1-0.2,0.2l0.1,0.6c0.2-0.1,0.3-0.1,0.4-0.2c0.4-0.4,0.8-0.6,1.4-0.7
			c1-0.1,1.7-0.9,2.5-1.3c0.3-0.1,0.5-0.2,0.8-0.3c1.1-0.4,2.3-0.7,3.4-1.1c0.3-0.1,0.6-0.1,0.9-0.2c0.1-0.1,0.1-0.1,0.2-0.2
			c0-0.1,0.1-0.3,0.1-0.4c-1.1,0.2-2.2,0.5-3.3,0.7C27.5,114,25.5,115.1,23.5,116.4z"/>
		<path class="st14" d="M49.6,75.4c1.3,0.3,2.4,1,3.2,2c0.7,0.8,1.4,1.7,1.5,2.8c0.1,1.1,0,2.2,0,3.4c0,0.2,0,0.3,0,0.5
			c0,0.1,0,0.2,0,0.3c0,0,0,0.1-0.1,0.1c0,0,0,0,0,0c0,0.1,0,0.2,0,0.3c0,0.3,0,0.7,0,1c-0.1-0.3-0.2-0.7-0.3-1
			c-0.1-0.2-0.2-0.4-0.3-0.6c-0.2-0.7-0.4-1.4-0.6-2c0.1-0.3,0.2-0.6,0.3-0.9c0.1-0.2,0.2-0.4,0.1-0.5c-0.2-0.7-0.4-1.5-1-2.1
			c-0.4-0.4-0.7-0.8-1.1-1.2c-0.2-0.1-0.4-0.2-0.6-0.3c-0.5-0.6-1.1-1.2-1.9-1.5c0-0.2-0.1-0.4-0.1-0.6
			C49.1,75.4,49.4,75.3,49.6,75.4z"/>
		<path class="st15" d="M35.1,124.2c-0.4,0.4-0.9,0.8-1.4,1.1c-0.2,0.1-0.3,0.3-0.5,0.3l4.9-0.4c-0.2-0.1-0.4-0.3-0.4-0.3
			c-0.3-0.3-0.7-0.6-1-0.9C35.9,123.6,35.8,123.6,35.1,124.2z"/>
		<path class="st15" d="M52.1,123.3c-0.4,0.4-0.7,0.8-0.7,0.8s0,0-0.1,0.1l2.8-0.2c-0.2-0.2-0.5-0.4-0.8-0.7
			C52.7,122.8,52.6,122.8,52.1,123.3z"/>
		<path class="st16" d="M43.1,99c-0.1,1,0.1,1.9,0.6,2.7c0.1,0.1,0.1,0.2,0.1,0.3c0.2,0.7,0.5,1,1.2,1.1c1.1,0.1,2.3,0.1,3.4-0.4
			c0.1,0,0.2,0,0.2,0c1.1,0,1.5-0.8,1.9-1.7c0-0.1,0.1-0.2,0-0.3c-0.1-0.1-0.2-0.1-0.3,0c-1.2,0.5-2.4,0.5-3.7,0.7
			c-1.4,0.3-2.2-0.3-2.4-1.8c-0.1-0.8-0.2-1.6-0.4-2.4c0-0.1-0.2-0.2-0.2-0.3c-0.1,0.1-0.2,0.2-0.2,0.3C43.3,97.8,43.2,98.4,43.1,99
			z"/>
		<path class="st8" d="M37,93.5c0.2,0,0.4,0,0.4,0c1.5-1,3.4-1,5-1.7c0.8-0.3,1.1-1,0.7-1.7c-0.1-0.1-0.3-0.2-0.5-0.2
			c-1.4,0.2-2.7,0.5-3.9,1.1c-0.8,0.4-1.4,1.1-2,1.7c-0.1,0.1-0.2,0.4-0.1,0.6C36.6,93.3,36.9,93.4,37,93.5z"/>
		<path class="st12" d="M48.7,78.3c0.4,0.2,0.8,0.5,1.3,0.7c0.3,0.2,0.5,0.4,0.8,0.5c0.1,0.1,0.2,0.2,0.3,0.3
			c0.5,0.6,1.1,1.2,1.6,1.9c0.2,0.2,0.3,0.4,0.5,0.6c0.1-0.3,0.2-0.6,0.3-0.9c-0.1-0.1-0.2-0.1-0.2-0.2c-0.5-0.7-1.1-1.5-1.6-2.2
			c-0.4-0.5-0.8-1-1.2-1.4c-0.3,0-0.6,0-1,0C49.2,77.8,48.9,78.1,48.7,78.3z"/>
		<path class="st17" d="M51.9,95.5c0.1-0.1,0.2-0.1,0.3-0.2c-0.1-0.4-0.1-0.8-0.2-1.2c0-0.1-0.3-0.3-0.4-0.3c-0.4,0-0.8,0.1-1.3,0.2
			c0,0.5,0.1,1,0.1,1.5C51,95.5,51.5,95.5,51.9,95.5z"/>
		<path class="st17" d="M41.5,96.8c0-0.2,0-0.4,0.1-0.6c-0.1-0.3-0.1-0.6-0.2-1l0,0c-0.3,0-0.5,0-0.8,0c-1,0.2-1,0-0.9,1.1
			c0,0.1,0,0.2,0,0.3c0.1,0.1,0.2,0.2,0.3,0.3C40.5,96.9,41,96.8,41.5,96.8z"/>
		<path class="st16" d="M44.4,108.6c1-0.1,1.9-0.1,2.7-0.2c1.3-0.1,2.6-0.4,3.9-0.6c0.1,0,0.2-0.1,0.3-0.2c-0.1,0-0.2-0.1-0.4-0.1
			c-1.1,0.2-2.2,0.4-3.3,0.6c-0.8,0.1-1.6,0.1-2.5,0.1c-0.2,0-0.5,0-0.7,0c-0.1,0-0.2,0.2-0.4,0.3C44.2,108.5,44.4,108.6,44.4,108.6
			z"/>
		<path class="st12" d="M34.6,79.3c-0.2,0-0.4,0-0.6,0c-0.3,0.5-0.6,1-0.9,1.5c-0.2,0.4-0.5,0.8-0.6,1.3c-0.1,0.1,0.1,0.3,0.1,0.5
			c0.6-0.5,1.1-1.1,1.8-1.6c0.2-0.2,0.7-0.1,1-0.1c2.1,0.2,4.2,0.4,6.3,0.6c1.3,0.1,2.7-0.1,4-0.5c0.6-0.2,1.2-0.5,1.5-1.2
			c-0.3,0.1-0.6,0.1-0.9,0.2c-0.2,0.1-0.5,0.2-0.7,0.2c-0.9,0-1.8,0.1-2.7,0c-1.6-0.1-3.2-0.3-4.7-0.3
			C36.8,79.8,35.7,79.5,34.6,79.3z"/>
		<path class="st18" d="M28.4,80.8c0.7-1.6,1.9-2.6,3.4-3.4c2-1.1,4.1-1.6,6.2-2.1c2.2-0.6,4.4-0.6,6.7,0.2c0.4,0.2,0.9,0.1,1.4,0.1
			c0.9,0,1.9-0.1,2.8-0.2c0,0.2,0.1,0.4,0.1,0.6c0.8,0.3,1,0.3,1.6,0.9c0.2,0.1,0.8,0.8,0.9,1c0.4,0.4,0.7,0.8,1.1,1.2
			c0.6,0.6,0.8,1.3,1,2.1c0,0.1-0.1,0.3-0.1,0.5c-0.1-0.1-0.2-0.1-0.2-0.2c-0.5-0.7-1.1-1.5-1.6-2.2c-0.4-0.5-0.7-0.5-1.1-1
			c-0.3,0-0.8-0.4-1.1-0.5c-0.2,0.3-0.5,0.5-0.7,0.8c-0.4,0-0.6,0.2-0.8,0.5c-0.2,0.3-0.6,0.6-0.8,0.9c-0.3,0.1-0.6,0.1-0.9,0.2
			c-0.2,0.1-0.5,0.2-0.7,0.2c-0.9,0-1.8,0.1-2.7,0c-1.6-0.1-3.2-0.3-4.7-0.3c-1.2,0-2.3-0.3-3.4-0.5c-0.2,0-0.4,0-0.6,0
			c-0.3,0.5-0.6,1-0.9,1.5c-0.2,0.4-0.5,0.8-0.6,1.3c-0.1,0.1,0.1,0.3,0.1,0.5c-0.6,0.9-0.8,2-0.6,3.1c0.2,1.3,0.1,2.6,0.1,3.9
			c0,0.6-0.2,1.2-0.2,1.8c0,0.7,0,1.3,0.1,2c0.1,0.4,0.2,0.8,0.3,1.1c0.1,0.2,0.2,0.3,0.2,0.5c0.2,0.6,0.3,1.2,0.5,1.9
			c0,0.1-0.1,0.2-0.2,0.2c-0.1-0.1-0.2-0.2-0.3-0.3c-0.5-1-1.1-1.2-2.1-1.1c-0.1,0-0.2,0-0.3,0c-0.1-0.4-0.2-0.8-0.3-1.2h0
			c-0.1-0.2-0.2-0.4-0.3-0.6c-0.4-1-0.7-1.9-0.7-3c0-0.7,0-1.3-0.1-2c-0.4-2.2-0.3-4.5-0.5-6.7c0-0.2-0.1-0.3-0.1-0.5
			C28.1,81.4,28.2,81.1,28.4,80.8z"/>
		<path class="st8" d="M54.1,91.1c0.2-0.2,0.3-0.3,0.5-0.5c0-0.1-0.1-0.3-0.1-0.4c-0.2-0.2-0.5-0.4-0.7-0.6c-0.2,0-0.3,0-0.5-0.1
			c-1.2-0.7-2.5-0.6-3.8-0.5c-0.2,0-0.5,0-0.7,0c-0.7,0-0.9,0.2-0.9,0.7c0,0.7,0.3,1.1,0.9,1.2c0.6,0,1.2,0,1.8,0
			C51.7,91,52.9,91.1,54.1,91.1z"/>
		<path class="st19" d="M30,102.5c1,1.1,2.2,2.1,3.7,2.6c0.2,0.1,0.4,0.4,0.5,0.7c0.2,0.7,0.2,1.4,0.5,2.1c0.5,1.2,1.1,2.3,1.7,3.4
			c0.2,0.2,0.3,0.4,0.5,0.7c0,0,0,0,0,0c0.1,0,0.2,0,0.3,0.1c1.4,1.3,3,2.1,4.8,2.5c0.9,0.2,1.7,0.4,2.6,0.5
			c0.4,0.1,0.8-0.1,1.3-0.1c1.7,0.1,3.3-0.1,5-0.6c0.1,0,0.2,0,0.3,0c-0.2,0.3-0.4,0.5-0.6,0.8c-0.3,0-0.6,0-0.8,0.2
			c-1.2,0.6-2.6,0.9-3.9,0.8c-0.4,0-0.9,0.1-1.3,0.1c-0.8-0.1-1.7-0.2-2.5-0.3c-0.1,0-0.3-0.1-0.4-0.1c-1.7-0.2-3.1-1-4.4-1.9
			c-0.1,0.2-0.2,0.4-0.2,0.7c-0.1,1.1-0.1,2.3-0.2,3.4c0,0.4,0.1,0.8,0.1,1.3c0,0.2,0,0.4,0,0.6c-0.9-0.4-1.3-1.3-1.7-2
			c-0.2-0.3-0.1-0.9-0.1-1.3c0-0.6,0-1.2,0.1-1.8c0-0.9,0.1-1.5,0.1-1.5c0-0.2-0.9-2.4-1-2.7c-0.3-1.2-0.7-2.4-1-3.6
			c-0.1-0.6-0.4-0.9-1.1-1.1c-0.7-0.2-1.4-0.4-1.7-1.1c-0.3-0.8-0.5-1.6-0.8-2.4C29.9,102.4,30,102.4,30,102.5z"/>
		<path class="st20" d="M50.9,114.4c0-0.2,0.8-0.9,1.4-1.4c0.2-0.3,0.9-1.4,1-1.8c0.3-0.7,0.5-1.4,0.8-2.2c0.2-0.4,0.4-0.9,0.5-1.3
			c0.3-1.2,0.4-2.5,0.7-3.7c0.3-1.5,0.3-3,0.1-4.5c-0.2-1.2-0.4-2.4-0.5-3.5c-0.2-1.6-0.5-3.3-0.7-4.9c-0.6-2.4-0.5-3.7-0.6-4.8
			c-0.1-0.7-0.2-1.4,0.3-1.9c0.1,0.2,0.2,0.4,0.3,0.6c0.1,0.3,0.2,0.7,0.3,1c0,0.8,0.1,1.6,0.1,2.5c0,0.6,0.1,1.6,0.1,2.2
			c0.1,0.3,0.2,0.5,0.3,0.8c0.3,1.9,0.5,3.8,0.7,5.7c0.3,2.1,0.5,4.3,0.3,6.5c-0.1,0.9,0,1.7-0.2,2.6c-0.4,2-1.1,4-1.9,5.9
			c-0.2,0.4-0.4,0.8-0.5,1.1c-1,1-1.4,1.4-1.6,1.6c0,0.2,0,0,0,0.2c-0.1,0.1,0.2,0.9,0.1,1c-0.4,0.3-0.5,0.6-0.5,1.1
			c0,0.6-0.2,1.2-0.7,1.6c0-0.8,0.1-1.6,0.1-2.3c0-0.2-0.1-1-0.1-1.3C50.9,114.9,51,114.4,50.9,114.4z"/>
		<path class="st21" d="M39.7,122.9c0.5,0.2,1,0.4,1.4,0.7c0.6,0.5,1.2,0.4,1.8,0.4c0.6,0,1.2-0.2,1.8-0.3c1-0.1,1.8-0.6,2.6-1.3
			c-0.2,0-0.5,0-0.7,0c-0.9,0.1-1.8,0.3-2.7,0.3c-0.6,0-1.2-0.3-1.8-0.4c-0.2,0-0.3,0-0.5,0c-0.2-0.1-0.3-0.1-0.5-0.2
			c-0.6-0.1-1.1-0.3-1.7-0.4c-0.4-0.1-0.7-0.1-1.1-0.2c0.3,0.3,0.6,0.6,0.9,0.9C39.5,122.6,39.6,122.8,39.7,122.9z"/>
		<path class="st18" d="M54,106.7c-0.1-0.4-0.4-2.6-0.8-2.7c-3.2-1-4.8-0.1-8.1,0.3c-0.2,0-1.2,0-1.3,0.2l-2.1,1
			c-0.2,0.1-0.4,0.3-0.6,0.4c-0.4,0.5-0.2,1.2-0.2,1.9c0.1,1.1-0.3,2.1-0.1,3.2c0.1,0.5,0.3,1,0.1,1.5c-0.2,0.6-1,0.9-1.6,1.1
			c0.6,0.1,1.1,1.1,1.6,1.4c0.2,0.1,1.5,0.8,1.7,0.9c0.3,0.1,3.9,0.3,4.2,0.3c2.3,0.3,2.1-0.1,4.4-0.4c0.5-0.1,1.6-1.3,2.1-1.4
			c1.1-0.4,0.3-1,1.1-1.9c0.3-0.3,0.1-1.7,0.3-2.1C54.7,110,54.1,106.9,54,106.7z M52.4,107.5c0,0.6,0.1,1.2,0,1.8
			c-0.1,0.6-0.4,1.2-0.8,1.5c-0.3,0.2-0.7,0.3-1,0.2c-0.4-0.1-0.6-0.5-0.9-0.8c-0.6-0.5-1.5-0.7-2.2-0.2c-0.7,0.5-1,1.4-1.8,1.8
			c-0.2,0.1-0.5,0.1-0.8,0.1c-0.6,0-1.2-0.2-1.8-0.5c0.1-0.9,0.2-1.7,0.1-2.6c0-0.5,0-1,0.3-1.4c0.3-0.4,1.1-0.7,1.5-0.9
			c0.7-0.3,1.4-0.4,2.1-0.8c1.3,0.2,2.6,0.3,4,0.2c0.2,0,0.4,0,0.6,0.1c0.1,0.1,0.2,0.1,0.3,0.2C52.3,106.5,52.4,107,52.4,107.5z"/>
		<path class="st12" d="M53.4,112.9c-0.1,0.3,0,0.6-0.3,0.8c-0.1,0.1-0.2,0.1-0.2,0.1c-0.6,0.2-1.3,0.4-2,0.4
			c-0.8,0-1.5-0.1-2.3-0.1c-1.2,0-2.3,0.4-3.5,0.2c-0.4-0.1-0.7-0.2-1.1-0.3c-0.9-0.3-1.8-0.5-2.8-0.5c-0.6,0-1.3,0-2,0.1
			c0.6,0.1,1.1,1.1,1.6,1.4c0.2,0.1,1.5,0.8,1.7,0.9c0.3,0.1,3.9,0.3,4.2,0.3c2.3,0.3,2.1-0.1,4.4-0.4c0.5-0.1,1.6-1.3,2.1-1.4
			c1.1-0.4,0.3-1,1.1-1.9c0.1-0.2,0.2-0.5,0.2-0.9C54,111.9,53.5,112.3,53.4,112.9z"/>
	</g>
	<path class="st4" d="M25.8,159.9c-3.2,0.2-6-2.2-6.2-5.4L9.1,49.3c-0.2,0.6-0.2,1.3-0.2,1.9l8.7,106c0.3,3.2,3.1,5.6,6.2,5.3
		l171.1-14.1c0.3,0,0.6-0.1,0.9-0.2L25.8,159.9z"/>
</g>
<path class="st22" d="M616.1,191.1c0.3,0.6,0.6,1.3,1,1.9C616.7,192.4,616.4,191.8,616.1,191.1z"/>
<g>
	<g>
		<g>
			<path class="st23" d="M143.8,86.2c18.6,14.1,5.6,31.2-13,17.3C112.2,89.4,125.1,72.3,143.8,86.2z"/>
			<path class="st24" d="M131.5,101c-5.8-5.8-8.6-13.1-7.3-18.1c-11.1,11.1,13.5,26.2,23.3,30.5l3.4-4.2
				C146.4,109,136.2,105.7,131.5,101z"/>
			<path class="st25" d="M131.3,81.2c9.6,2.1,21.7,16.8,15.9,23.6c-1.7,2.3,1.9,4,4.3,0.8C158.2,97.4,141.7,80.8,131.3,81.2z"/>
		</g>
		<polygon class="st23" points="150.9,135.5 149.9,127.3 142.2,134.1 		"/>
		<path class="st26" d="M253.2,21.9L259,93l8.2,0.5l-3.9-70.7c-0.4-8.2-8.6-11.6-15.9-10.1C247.6,12.6,253.2,21.9,253.2,21.9z"/>
		<path class="st27" d="M260.1,200h7.9l-9.5-176.6c-0.3-6.4-5.9-11.2-12.3-10.7c-3.6,1-104.1,4.7-103.4,10.1l-2.1,8.5l9.5,168.7h6.8
			H260.1z"/>
		<path class="st28" d="M157,200c0.7-2.1-11-171.4-8.6-173c1.3-2.6,97-5.5,99-6.4c1.6-0.1,3.1,1.2,3.1,2.8
			c2.1,36.2,7.5,139,9.6,176.6H157z"/>
		<path class="st29" d="M139.5,29.6l9.2,170.4h2.1l-9.3-168.4c-0.3-6.1,4.3-11.2,10.3-11.6l95.4-7.4c-0.3-0.1-97,5.5-97.4,5.4
			C143.8,18.4,139.1,23.6,139.5,29.6z"/>
		<polygon class="st30" points="137.7,174.6 137.7,174.6 138,174.4 		"/>
		<g>
			<path class="st23" d="M268.2,81.9c-19.1-7.7-12.9,33.5-8.3,39.7c-0.4,5.7,0.3,12.1,1.3,18.5c-6,14.8-3.6,38.1,1.7,59.9h25.5
				l-0.4-28.2l-5.2-30.8C278.1,125.8,272.2,97.7,268.2,81.9z"/>
			<polygon class="st23" points="289.3,200 293.5,200 295.6,189.8 289.5,183.4 			"/>
			<path class="st31" d="M289.5,186.1l5.3,4c0.8-2.5,2.5-6.6,2.7-8.7c-0.7-0.3-7-1.9-7-1.9C290.6,179.8,289.4,184.7,289.5,186.1z"/>
			<path class="st32" d="M289.3,175.5v5.3c1.9,0,5.7,0.3,6.4,0.7c-0.8,6.2-3.6,12.7-6.4,18.5H320
				C307.1,187.3,305.5,176.5,289.3,175.5z"/>
			<path class="st31" d="M295.8,200h12.5c-3.7-4.4-6.9-8.2-8.4-9.9C299.5,192.6,297.9,196.2,295.8,200z"/>
			<path class="st24" d="M262.1,139.8c-1.1-6.4-1.7-12.6-1.3-18.2c-3.7-6.9-8.4-35.1,3.9-40.6c-15.7-1.2-10.4,33.7-6.6,40.6
				c-0.4,5.7,0.2,11.9,1.3,18.2c-6,14.8-1.7,38.4,3.6,60.2h2.7C260.4,178.2,256.1,154.6,262.1,139.8z"/>
			<path class="st25" d="M284.8,147.9c1.1-13.2-5.9-30.2-11.1-43.5c0-7.9-4.1-21.5-5.5-22.6c1.9,6.6,2,15.3,2.5,22.6
				c5.5,14.3,13.4,32.7,10.8,47.6c4.6,8.7,6.2,28,6.9,48h0.9C293.3,193,290.8,164.5,284.8,147.9z"/>
		</g>
		<g>
			<path class="st23" d="M153,147.4c-0.1,18.4-16.3,18.4-16.4,0C136.7,129,153,129,153,147.4z"/>
			<path class="st24" d="M138.5,146.7c0.9-6.5,4-11.6,7.6-13.2c-10.2-2.3-12.1,20.8-5.4,26.1C138.8,156.6,137.8,151.9,138.5,146.7z"
				/>
			<path class="st25" d="M150.4,137.1c3.1,6.9-0.2,21.7-7,21.3c-2.1,0-1.5,3.1,1.5,3.1C152.9,161.8,155.3,143.3,150.4,137.1z"/>
		</g>
		<g>
			<path class="st23" d="M155.2,171.9c2,18.3-15.7,20.3-17.8,2C135.4,155.6,153.1,153.6,155.2,171.9z"/>
			<path class="st24" d="M139.3,173c0.2-6.5,3.1-12,6.8-14c-11.1-1.2-11.1,21.9-2.9,26.6C140.7,182.8,139.1,178.2,139.3,173z"/>
			<path class="st25" d="M151.2,162c4.2,6.8,2.1,21.6-5.3,22c-2.3,0.3-1.3,3.3,1.9,2.9C156.5,186.3,157.3,167.8,151.2,162z"/>
		</g>
		<path class="st23" d="M139.3,200h16.5C156.4,180.8,136.5,179.5,139.3,200z"/>
		<path class="st24" d="M139.3,200h1.6c-0.6-6.1,2.3-13.2,6.3-15.1C141.3,184.2,138,192.5,139.3,200z"/>
		<path class="st25" d="M153.7,200h2.1c0.3-4.3-1.4-9.6-3.8-12.3C153.8,191.1,154.5,196.2,153.7,200z"/>
	</g>
	<g>
		<path class="st33" d="M231,147.4c-0.7-1.3-2.9-3.7-4.4-3.8c-2.7-0.2-42.6,34.6-41.8,44.9c0.1,0.6,2.5,4.1,5.3,4.2
			c3.1,0.1,39.7-1.7,40.3-2c1.8-0.9,2.6-3.5,2.6-5.5C233.1,177,231.3,148,231,147.4z"/>
		<path class="st34" d="M228.3,145c-0.7-1.3-2.4-1.7-3.9-1.8c-2.7-0.2-36.6,1.4-39.6,1.9c-2.1,0.4-1.7,2.4-1.7,4.3
			c0,3.6,0,9.7,0.3,13.3c0.8,8.6,0.5,13.8,1.3,24.2c0.1,0.6-0.2,3.3,2.6,3.4c3.1,0.1,39.7-1.7,40.3-2c1.8-0.9,2.6-3.5,2.6-5.5
			C230.4,174.5,228.6,145.5,228.3,145z"/>
		<path class="st7" d="M227.7,181.7c0,1.8-0.8,4.2-2.4,5c-0.5,0.3-33.8,2-36.6,1.8c-2.5-0.1-2.3-2.6-2.4-3.2
			c-0.8-9.5-0.5-14.4-1.2-22.3c-0.3-3.3-0.3-8.9-0.3-12.2c0-1.7-0.4-3.6,1.5-3.9c2.7-0.5,33.5-2,36-1.8c1.3,0.1,2.8,0.4,3.5,1.6
			C226.2,147.3,227.8,174,227.7,181.7z"/>
		<path class="st35" d="M201,163.9l0-5.8c0.4-4.8,3.2-5.7,4.9-5.7c1.7-0.1,4.7,0.4,5.3,4l0.1,5.8l4.4,1.7l-1.5-8.8
			c-1-5.4-5.7-6.1-8.5-6c-2.7,0.1-7.1,0-7.7,7.2l-0.4,7.6H201z"/>
		<g>
			<path class="st36" d="M205.5,151.4c-1.7,0.1-4.5,0.9-4.9,5.7l0,5.8h-2.8l-0.1,1h3.3l0-5.8c0.4-4.8,3.2-5.7,4.9-5.7
				c1.4,0,3.5,0.2,4.7,2.1C209.7,151.8,207,151.4,205.5,151.4z"/>
			<path class="st36" d="M214.2,155.1c-0.2-1-0.5-1.8-0.9-2.4c0.2,0.4,0.3,0.9,0.4,1.5l1.5,8.8l-4-1.5l0,0.8l4.4,1.7L214.2,155.1z"
				/>
		</g>
		<g>
			<path class="st37" d="M206.6,149.1c-0.3,0-0.6,0-0.8,0c-2.7,0.1-7.1,0-7.7,7.2l-0.4,7.6h1l0.4-7.6
				C199.6,149.2,203.9,149.2,206.6,149.1z"/>
			<path class="st37" d="M212.3,162.2l-0.1-5.8c-0.6-3.6-3.6-4-5.3-4c-0.1,0-0.1,0-0.2,0c1.7,0.1,4.1,0.9,4.6,4l0.1,5.8l4.4,1.7
				l-0.1-0.4L212.3,162.2z"/>
		</g>
		<path class="st38" d="M196.1,180.7c1.9,0.7,15.1,1,22.9-1.2c0-3.8-0.7-14.1-1.1-18.7c-4.6,0-20.6,0-22.7,2.2
			C194.8,164.7,195.6,176.8,196.1,180.7z"/>
		<path class="st39" d="M196.7,180c1.8,0.6,14.4,1,21.8-1.1c0-3.6-0.7-13.6-1-18.1c-4.4,0-19.7,0-21.6,2.1
			C195.5,164.6,196.2,176.2,196.7,180z"/>
		<polygon class="st40" points="201,178.7 200.1,178.7 198,162.4 200.1,162.2 		"/>
		<polygon class="st38" points="215.8,179.9 215.1,180.3 212.7,161.6 214.7,161.4 		"/>
		<path class="st41" d="M203.9,169.1c0,0.8,0.9,1.4,1.7,1.5c-0.3,1.8-0.7,3.6-1.1,5.4c-0.2-0.3,2.5,0.4,5.4,0
			c-0.7-1.8-1.4-3.7-2.1-5.5c0.8-0.2,1.4-1,1.4-1.8c0.1-0.8-0.2-1.6-0.6-2.4C208.5,165.9,203.8,164.4,203.9,169.1z"/>
	</g>
	<g>
		<circle class="st7" cx="201.8" cy="63.2" r="34.4"/>
		<circle class="st42" cx="201.8" cy="63.2" r="31"/>
		<path class="st43" d="M224.8,81.6c-0.1-0.1-0.1-0.1-0.2-0.2c-0.3-0.1-0.6-0.1-0.9-0.3c-0.5-0.4-1-0.6-1.6-0.7
			c-1.1-0.1-1.9-0.9-2.9-1.2c-0.3-0.1-0.6-0.2-0.9-0.3c-1.3-0.3-2.6-0.6-3.9-0.9c-0.3-0.1-0.7-0.1-1-0.1c0.3,0.3-23.4,4.9-23.4,4.3
			c-0.2,0.1-5.7,4-7.3,5.3c5.3,4.2,12,6.7,19.2,6.7c9.6,0,18.2-4.4,23.9-11.2c-0.2-0.4-0.5-0.7-0.7-1.1
			C224.9,81.8,224.8,81.7,224.8,81.6z"/>
		<path class="st44" d="M215.6,80.7c-0.2-0.7-0.5-1.3-1.1-1.7c-0.4-0.3-0.7-0.6-1.1-1c-0.1-0.1-0.1-0.1-0.2-0.2
			c0-0.1-0.1-0.3-0.1-0.4c-0.5-0.5-1.7-1.3-2.2-1.9c-0.4,0.8-0.8,2.2-0.8,2.6c0,1,0.3,1,0.9,1.5c0.1,0.1,0.1,0.1,0.2,0.2
			c0.1,0.2,0.3,0.3,0.4,0.5c0.1,0-18.9,1.9-18.8,1.7c0-0.2,0-1,0-1.2c-0.3-0.3-0.5-0.5-0.8-0.8c-0.4-0.1-0.7-0.3-1.1-0.4
			c-0.1,0.4-0.3,0.7-0.4,1.1c-0.1,0.1-0.1,0.2-0.1,0.2c-0.1,0.4-0.3,0.8-0.4,1.3c0,0.7,0,1.4,0,2.2c-0.3,1.7-0.2,3.5-0.6,5.2
			c-0.2,0.6-0.3,1.2-0.5,1.7c1.2,0.5,2.4,1,3.6,1.4c1.4,0,2.8,0,2.9,0.2c0.2,0.2,0.5,0.5,0.7,0.7c1.9,0.4,3.8,0.5,5.8,0.5
			c1.5,0,2.9-0.1,4.3-0.3c0.8-0.8,1.6-1.6,1.7-1.7c0.2-0.1,4-0.4,6-0.4c0.7-0.3,1.4-0.6,2.1-1c0,0,0,0,0-0.1
			c-0.1-0.5-0.1-2.2-0.2-2.6c0-1.5-0.1-4.7-0.1-4.8C216,82.6,215.8,81.6,215.6,80.7z"/>
		<path class="st7" d="M211,79.9c-0.1-0.1-0.1-0.1-0.2-0.2c0.1,0.7-17.7,3.3-18.2,3c-0.1,0-1,1.3-1,1.5c0,0-0.4,1.8-0.3,2.3
			c0.1,0,5.9,5.6,7.9,7.7c0.8,0.1,1.7,0.1,2.5,0.1c0.6,0,1.2,0,1.8-0.1c0.6-0.5,1.2-1,1.6-1.4c0.5-0.5,1.4-1.5,1.5-1.6
			c0.5-0.5,2.6-2.9,3.2-3.5c0,0,0.3-0.3,0.5-0.4c0,0,0,0,0,0c0.2-0.2,1.6-1.3,1.6-1.3c0.2-0.2,0.5-0.7,0.6-0.8
			c0.1-0.3,0.3-0.5,0.4-0.8c0.2-0.6,0.5-1.4,0.3-2C213,81.7,211.2,80.1,211,79.9z"/>
		<path class="st45" d="M217,59.6c-0.2-0.3-0.3-0.7-0.5-1c-0.2,0-1.3-0.4-1.4-0.5c-0.1,0-0.2,0-0.3,0c-1.2-0.1-1.9-2.4-1.9-2.4
			c0-0.7,0-1.5-0.1-2.2c-0.1-0.7-0.3-1.3-0.4-2c-0.2-1.4-0.4-2.9-0.3-4.3c0.1-1.2-0.2-2.4-1-3.3c-0.7-0.5-1.3-1.1-2.1-1.6
			c-0.3-0.2-0.7-0.1-1.1,0c-2.3,0.4-4.6,0.9-6.9,1.2c-1.5,0.2-2.9,0.1-4.4-0.1c-0.7-0.1-1.4-0.4-1.7-1.2c-0.3-0.3-0.7-0.6-1-0.9
			c-0.3-0.3-0.6-0.5-1-0.5c-0.4,0.3-0.9,0.6-1.3,0.9c-0.3,0.2-0.6,0.4-0.8,0.7c-0.1,0.1-0.2,0.3-0.3,0.4c-0.5,0.7-1.1,1.5-1.6,2.2
			c-0.2,0.2-0.3,0.5-0.5,0.7c-0.2,0.8-0.4,1.5-0.5,2.3c0.6,0.6,0.6,1.3,0.6,2.1c-0.1,1.2-0.1,3.7-0.1,3.7l-0.2,1.6
			c0,0-0.2,3.6-0.4,5.5c-0.1,1.3-0.2,2.6-0.3,4c-0.1,1.7,0,3.4,0.5,5c0.4,1.3,0.7,2.7,1.1,4c0.2,0.5,0.5,0.9,0.7,1.4
			c0.4,0.8,0.7,1.5,1.1,2.3c0.2,0.4,0.4,0.7,0.7,1c0.2,0.5,0.7,0.9,1.2,1.3c0.4,1.1,0.9,2.4,0.9,2.5c0,0.2,0.4,0.4,0.5,0.6
			c0.1,0.9,0.2,1.7,0.3,2.6c0.6,0.4,1.2,0.9,1.8,1.3c1.3,0.8,2.6,1.5,4.1,1.3c2.8-0.3,5.7-0.6,8.2-1.9c0.4-0.2,0.7-0.5,1-0.7
			c0-0.2-0.1-0.5-0.1-0.7c0-0.5,0-0.9,0-1.4c-0.1-1.3-0.3-2.5-0.5-3.8c0-0.1-0.2-1.5-0.3-2.8c0.1-0.1,0.2-0.1,0.3-0.1l0,0
			c0.1-0.3,0.3-0.5,0.4-0.8c0.5-1.3,1.1-2.6,1.6-4c0.2-0.7,0.2-1.6,0.3-2.3c0.1-0.3,0.3-0.7,0.5-0.8c1.6-0.7,2.8-1.8,3.9-3.2
			c0,0,0.1-0.1,0.2-0.1c0.1-0.3,0.2-0.7,0.3-1c0.4-1.1,0.8-2.2,1.2-3.2C217.4,60.8,217.4,60.2,217,59.6z"/>
		<path class="st46" d="M216.5,58.6c-0.2,0-1.3-0.4-1.4-0.5c0.1-0.4,0.1-0.9,0.2-1.3c0.1-0.2,0.2-0.4,0.2-0.6
			c0.4-1.1,0.6-2.2,0.5-3.4c0-0.7-0.1-1.5-0.1-2.2c0.3-2.5-0.1-4.9-0.1-7.4c0-0.2,0.1-0.4,0.1-0.6c1,1.4,1.3,3.1,1.4,4.8
			c0.2,3.2,0.1,6.3-0.4,9.5C216.8,57.5,216.6,58,216.5,58.6z"/>
		<path class="st22" d="M186.3,84.2c-1.4,1-2.7,2.1-4,3.2c0.2,0.2,0.5,0.4,0.7,0.5c0.3-0.3,0.7-0.7,1-0.9c0.9-0.7,1.9-1.3,2.8-2
			c0.9-0.7,0.8-0.8,2.4-1.9c0.2-0.1,0.5-0.4,0.7-0.7c0.1-0.4,0.3-0.8,0.4-1.3c0,0-0.1,0-0.1-0.1C188.9,82.1,187.6,83.2,186.3,84.2z"
			/>
		<path class="st22" d="M224.6,81.4c-0.3-0.1-0.6-0.1-0.9-0.3c-0.5-0.4-1-0.6-1.6-0.7c-1.1-0.1-1.9-0.9-2.9-1.2
			c-0.3-0.1-0.6-0.2-0.9-0.3c-1.3-0.3-2.6-0.6-3.9-0.9c-0.3-0.1-0.7-0.1-1-0.1c-0.1-0.1-0.1-0.1-0.2-0.2c0-0.1-0.1-0.3-0.1-0.4
			c1.2,0.2,2.5,0.3,3.7,0.5c2.6,0.3,5,1.3,7.2,2.5c0.1,0.1,0.2,0.2,0.3,0.3C224.4,81,224.5,81.2,224.6,81.4z"/>
		<path class="st47" d="M225.3,81.4c-0.3-0.3-0.7-0.5-1-0.7c0.1,0.2,0.2,0.5,0.3,0.7c0.1,0.1,0.1,0.1,0.2,0.2
			c0.1,0.1,0.1,0.2,0.2,0.3c0.2,0.4,0.5,0.7,0.7,1.1c0.2-0.2,0.3-0.4,0.5-0.6C225.9,82.1,225.6,81.7,225.3,81.4z"/>
		<path class="st48" d="M191.5,37.7c-1.4,0.5-2.5,1.3-3.4,2.5c-0.7,1-1.4,2-1.4,3.2c0,1.2,0.2,2.5,0.3,3.7c0,0.2,0.1,0.3,0.1,0.5
			c0,0.1,0,0.2,0.1,0.4c0,0,0.1,0.1,0.1,0.1c0,0,0,0,0,0.1c0,0.1,0,0.2,0.1,0.3c0,0.4,0,0.7,0.1,1.1c0.1-0.4,0.1-0.8,0.2-1.1
			c0.1-0.2,0.2-0.4,0.3-0.6c0.2-0.8,0.4-1.5,0.5-2.3c-0.1-0.3-0.2-0.6-0.4-0.9c-0.1-0.2-0.2-0.4-0.2-0.5c0.2-0.8,0.3-1.7,0.9-2.4
			c0.4-0.4,0.7-0.9,1.1-1.4c0.2-0.2,0.4-0.3,0.7-0.4c0.5-0.7,1.1-1.4,1.9-1.9c0-0.2,0.1-0.4,0.1-0.6C192,37.6,191.7,37.6,191.5,37.7
			z"/>
		<path class="st49" d="M214.2,91.6c-0.3-0.1-0.4-0.2-0.7-0.4c-0.6-0.3-1.1-0.7-1.7-1.1c-0.8-0.6-1-0.6-1.7,0c-0.3,0.3-0.7,0.7-1,1
			c-0.2,0.2-1.4,1.1-1.4,1.1s0.8-0.2,1.4,0c0.7,0.3,1.8,0.4,2.8,0.2C212.8,92.3,213.6,92,214.2,91.6
			C214.3,91.7,214.3,91.6,214.2,91.6z"/>
		<path class="st49" d="M194,91.5c0,0-0.3-0.5-0.8-0.8c-0.7-0.5-0.8-0.5-1.4,0.1c-0.5,0.5-0.9,1-1.4,1.3c0.7,0.3,1.4,0.5,2.1,0.7
			c0.4,0,1.1,0,1.1,0c0.1,0,1.9,0.4,2,0.4C195.7,93,194,91.5,194,91.5z"/>
		<path class="st50" d="M200.8,63.1c0.2,1.1,0,2.1-0.4,3c0,0.1-0.1,0.2-0.1,0.3c-0.1,0.8-0.5,1.2-1.2,1.3c-1.3,0.2-2.5,0.3-3.7-0.2
			c-0.1,0-0.2,0-0.3,0c-1.2,0.1-1.8-0.8-2.3-1.7c-0.1-0.1-0.1-0.3,0-0.3c0.1-0.1,0.2-0.1,0.3-0.1c1.3,0.5,2.7,0.3,4.1,0.5
			c1.6,0.2,2.3-0.6,2.5-2.2c0.1-0.9,0.1-1.8,0.2-2.6c0-0.1,0.2-0.2,0.2-0.4c0.1,0.1,0.2,0.2,0.3,0.3
			C200.4,61.8,200.6,62.5,200.8,63.1z"/>
		<path class="st51" d="M207.1,56.5c-0.3,0-0.4,0-0.5,0c-1.8-1-3.8-0.8-5.7-1.4c-0.9-0.3-1.3-1-0.9-1.9c0.1-0.1,0.4-0.3,0.5-0.3
			c1.5,0,3,0.3,4.4,0.8c0.9,0.4,1.6,1.1,2.4,1.7c0.1,0.1,0.3,0.5,0.2,0.6C207.5,56.3,207.2,56.4,207.1,56.5z"/>
		<path class="st46" d="M192.8,40.8c-0.4,0.3-0.9,0.6-1.3,0.9c-0.3,0.2-0.6,0.4-0.8,0.7c-0.1,0.1-0.2,0.3-0.3,0.4
			c-0.5,0.7-1.1,1.5-1.6,2.2c-0.2,0.2-0.3,0.5-0.5,0.7c-0.1-0.3-0.2-0.6-0.4-0.9c0.1-0.1,0.2-0.1,0.2-0.2c0.5-0.9,1-1.8,1.6-2.6
			c0.4-0.6,0.8-1.1,1.2-1.7c0.4,0,0.7-0.1,1.1-0.1C192.2,40.3,192.5,40.5,192.8,40.8z"/>
		<path class="st52" d="M190.8,60c-0.1-0.1-0.3-0.1-0.4-0.2c0-0.4,0-0.9,0.1-1.3c0-0.2,0.3-0.4,0.5-0.4c0.5,0,0.9,0,1.4,0.1
			c0,0.6,0,1.1,0,1.7C191.8,60,191.3,60,190.8,60z"/>
		<path class="st52" d="M202.4,60.5c0-0.2-0.1-0.5-0.1-0.7c0-0.4,0.1-0.7,0.1-1.1l0,0c0.3,0,0.6,0,0.8,0c1.1,0.2,1.1-0.1,1.1,1.2
			c0,0.1,0,0.2,0,0.3c-0.1,0.1-0.2,0.2-0.3,0.3C203.4,60.5,202.9,60.5,202.4,60.5z"/>
		<path class="st50" d="M200.2,73.8c-1.1,0-2.1,0-3,0c-1.5,0-2.9-0.2-4.4-0.3c-0.1,0-0.2-0.1-0.3-0.2c0.1,0,0.3-0.1,0.4-0.1
			c1.2,0.1,2.5,0.3,3.7,0.3c0.9,0,1.8-0.1,2.7-0.1c0.3,0,0.5-0.1,0.8,0c0.1,0,0.3,0.2,0.4,0.3C200.4,73.7,200.3,73.7,200.2,73.8z"/>
		<path class="st46" d="M208.4,40.6c0.2,0,0.5-0.1,0.7-0.1c0.4,0.5,0.7,1,1.1,1.6c0.3,0.4,0.6,0.9,0.8,1.3c0.1,0.1-0.1,0.3-0.1,0.5
			c-0.7-0.5-1.3-1.1-2.1-1.6c-0.3-0.2-0.7-0.1-1.1,0c-2.3,0.4-4.6,0.9-6.9,1.2c-1.5,0.2-2.9,0.1-4.4-0.1c-0.7-0.1-1.4-0.4-1.7-1.2
			c0.3,0,0.7,0.1,1,0.1c0.3,0,0.5,0.2,0.8,0.2c1,0,2-0.1,3-0.2c1.7-0.2,3.4-0.6,5.2-0.8C206,41.3,207.2,41,208.4,40.6z"/>
		<path class="st53" d="M215.4,41.7c-0.9-1.7-2.4-2.7-4-3.5c-2.3-1-4.7-1.4-7.1-1.8c-2.5-0.4-5-0.3-7.3,0.8c-0.5,0.2-1,0.2-1.5,0.3
			c-1,0-2.1,0-3.1,0c0,0.2-0.1,0.4-0.1,0.6c-0.8,0.4-1.1,0.4-1.7,1.1c-0.2,0.1-0.8,1-0.9,1.1c-0.4,0.4-0.7,0.9-1.1,1.4
			c-0.6,0.7-0.8,1.5-0.9,2.4c0,0.2,0.1,0.4,0.2,0.5c0.1-0.1,0.2-0.1,0.2-0.2c0.5-0.9,1-1.8,1.6-2.6c0.4-0.6,0.7-0.6,1.1-1.2
			c0.4,0,0.8-0.6,1.2-0.6c0.3,0.3,0.5,0.5,0.8,0.8c0.4,0,0.7,0.2,1,0.5c0.3,0.3,0.7,0.6,1,0.9c0.3,0,0.7,0.1,1,0.1
			c0.3,0,0.5,0.2,0.8,0.2c1,0,2-0.1,3-0.2c1.7-0.2,3.4-0.6,5.2-0.8c1.3-0.1,2.5-0.5,3.7-0.9c0.2,0,0.5-0.1,0.7-0.1
			c0.4,0.5,0.7,1,1.1,1.6c0.3,0.4,0.6,0.9,0.8,1.3c0.1,0.1-0.1,0.3-0.1,0.5c0.8,1,1.1,2.2,1,3.3c-0.2,1.5,0.1,2.9,0.3,4.3
			c0.1,0.7,0.3,1.3,0.4,2c0.1,0.7,0.1,1.5,0.1,2.2c-0.1,0.4-0.1,0.9-0.2,1.3c-0.1,0.2-0.1,0.4-0.2,0.6c-0.1,0.7-0.2,1.4-0.3,2.1
			c0,0.1,0.1,0.2,0.2,0.2c0.1-0.1,0.2-0.3,0.3-0.4c0.5-1.1,1.1-1.5,2.2-1.4c0.1,0,0.2,0,0.3,0c0.1-0.4,0.1-0.9,0.2-1.3l0,0
			c0.1-0.2,0.2-0.4,0.2-0.6c0.4-1.1,0.6-2.2,0.5-3.4c0-0.7-0.1-1.5-0.1-2.2c0.3-2.5-0.1-4.9-0.1-7.4c0-0.2,0.1-0.4,0.1-0.6
			C215.7,42.3,215.6,42,215.4,41.7z"/>
		<path class="st51" d="M188,55.4c-0.2-0.2-0.4-0.3-0.6-0.5c0-0.1,0-0.3,0-0.4c0.3-0.2,0.5-0.5,0.8-0.7c0.2-0.1,0.4-0.1,0.5-0.2
			c1.3-0.9,2.7-0.9,4.2-0.9c0.3,0,0.5,0,0.8,0c0.7,0,1,0.2,1.1,0.7c0.1,0.8-0.3,1.3-0.9,1.4c-0.6,0.1-1.3,0.1-2,0.2
			C190.6,55.1,189.3,55.2,188,55.4z"/>
		<path class="st54" d="M215.5,65.7c-1,1.4-2.2,2.5-3.9,3.2c-0.2,0.1-0.4,0.5-0.5,0.8c-0.2,0.8-0.1,1.6-0.3,2.3
			c-0.4,1.3-1,2.6-1.6,4c-0.1,0.3-0.3,0.5-0.4,0.8c0,0,0,0,0,0c-0.1,0-0.2,0.1-0.3,0.1c-1.4,1.5-3.2,2.6-5.1,3.2
			c-0.9,0.3-1.9,0.6-2.8,0.8c-0.5,0.1-0.9,0-1.4,0c-1.9,0.2-3.7,0.2-5.5-0.2c-0.1,0-0.2,0-0.4,0.1c0.2,0.3,0.5,0.5,0.7,0.8
			c0.3,0,0.6,0,0.9,0.1c1.4,0.6,2.9,0.7,4.4,0.5c0.5-0.1,1,0,1.4,0c0.9-0.2,1.8-0.4,2.8-0.6c0.1,0,0.3-0.1,0.4-0.2
			c1.8-0.4,3.3-1.4,4.7-2.4c0.1,0.2,0.2,0.5,0.3,0.7c0.2,1.3,0.3,2.5,0.5,3.8c0.1,0.5,0,0.9,0,1.4c0,0.2,0.1,0.5,0.1,0.7
			c0.9-0.5,1.3-1.5,1.7-2.4c0.2-0.4,0-1-0.1-1.4c-0.1-0.7-0.2-1.3-0.2-2c-0.1-1-0.2-1.6-0.2-1.6c0-0.2,0.8-2.8,0.8-3
			c0.3-1.4,0.6-2.7,0.8-4.1c0.1-0.7,0.4-1.1,1.1-1.3c0.7-0.2,1.5-0.6,1.8-1.4c0.3-0.9,0.4-1.8,0.7-2.7
			C215.6,65.7,215.6,65.7,215.5,65.7z"/>
		<path class="st55" d="M193.6,80.8c-0.1-0.2-0.9-0.9-1.6-1.4c-0.2-0.3-1.1-1.5-1.3-1.9c-0.4-0.8-0.7-1.5-1.1-2.3
			c-0.2-0.5-0.5-0.9-0.7-1.4c-0.4-1.3-0.7-2.7-1.1-4c-0.5-1.6-0.6-3.3-0.5-5c0.1-1.3,0.2-2.6,0.3-4c0.1-1.8,0.2-3.6,0.4-5.5
			c0.5-2.7,0.2-4.1,0.3-5.4c0-0.8,0.1-1.5-0.6-2.1c-0.1,0.2-0.2,0.4-0.3,0.6c-0.1,0.4-0.1,0.8-0.2,1.1c0,0.9,0,1.8,0.1,2.7
			c0,0.7,0,1.8,0.1,2.4c-0.1,0.3-0.2,0.6-0.2,0.9c-0.1,2.1-0.2,4.2-0.3,6.4c-0.1,2.4-0.2,4.8,0.2,7.2c0.2,0.9,0.1,1.9,0.4,2.8
			c0.7,2.2,1.5,4.3,2.6,6.4c0.2,0.4,0.5,0.8,0.7,1.2c1.2,1.1,1.6,1.4,1.9,1.6c0,0.2,0,0,0,0.2c0.1,0.1-0.1,1,0,1.1
			c0.5,0.3,0.6,0.7,0.7,1.2c0.1,0.7,0.3,1.3,0.9,1.7c-0.1-0.9-0.2-1.7-0.3-2.6c0-0.2,0-1.2,0-1.4C193.7,81.3,193.5,80.8,193.6,80.8z
			"/>
		<path class="st56" d="M206.8,89.1c-0.5,0.3-1.1,0.5-1.5,0.9c-0.6,0.6-1.3,0.6-2,0.6c-0.7,0-1.4-0.1-2-0.1c-1.1,0-2-0.5-3-1.2
			c0.3,0,0.5,0,0.8,0c1,0,2,0.1,3,0c0.7-0.1,1.3-0.4,2-0.6c0.2,0,0.4-0.1,0.5-0.1c0.2-0.1,0.3-0.1,0.5-0.2c0.6-0.2,1.2-0.4,1.8-0.6
			c0.4-0.1,0.8-0.2,1.2-0.3c-0.3,0.4-0.6,0.7-0.9,1.1C207,88.8,206.9,89,206.8,89.1z"/>
	</g>
	<g>
		<path class="st57" d="M196.3,119.8c-0.2-3.6,2.6-6.7,6.2-6.9l-0.4-8l-30.4,1.6l1.5,29.1l30.4-1.6l-0.4-8
			C199.6,126.2,196.5,123.4,196.3,119.8z"/>
		<circle class="st7" cx="202.8" cy="119.5" r="6.6"/>
		<path class="st58" d="M202.1,104.9l0.4,8c3.6-0.2,6.7,2.6,6.9,6.2c0.2,3.6-2.6,6.7-6.2,6.9l0.4,8l37.2-1.9l-1.5-29.1
			C239.3,102.9,202.1,104.9,202.1,104.9z"/>
		<path class="st59" d="M225.9,113.5l-5.2,0.3l0.6,12.3l-3.2,0.2l-0.6-12.3l-5.2,0.3l-0.2-3.2l13.6-0.7
			C225.7,110.3,225.9,113.5,225.9,113.5z M231.4,110l-3.2,0.2l0.8,15.5l3.2-0.2C232.2,125.5,231.4,110,231.4,110z M193.8,113.9
			l-2.5-2l-5,6l-5.6-5.4l-2.2,2.3l6.4,6.2l0.4,7.1l3.2-0.2l-0.4-7.1L193.8,113.9z M240.8,101.3l1.7,32.3l-70.7,3.7l-1.7-32.3
			L240.8,101.3z M207.8,119.2c-0.1-2.7-2.5-4.8-5.2-4.7s-4.8,2.5-4.7,5.2s2.5,4.8,5.2,4.7C205.8,124.3,207.9,122,207.8,119.2z
			 M174.7,133.9l27.2-1.4l-0.3-4.9c-4.5-0.7-7.6-4.8-6.9-9.3c0.5-3.3,2.9-5.9,6.1-6.7l-0.3-5l-27.2,1.4L174.7,133.9z M237.8,104.6
			l-34,1.8l0.3,5c4.5,0.7,7.6,4.8,6.9,9.3c-0.5,3.3-2.9,5.9-6.1,6.7l0.3,4.9l34-1.8L237.8,104.6L237.8,104.6z"/>
	</g>
</g>
</svg>
